<svg xmlns="http://www.w3.org/2000/svg" xmlns:xlink="http://www.w3.org/1999/xlink" viewBox="0 0 32 20.78"><defs><style>.a{fill:url(#a);}.b{opacity:0.73;fill:url(#b);}.b,.e{isolation:isolate;}.c{fill:url(#c);}.d{fill:url(#d);}.e{opacity:0.46;fill:url(#e);}.f{fill:url(#f);}</style><linearGradient id="a" x1="8.52" y1="-93.59" x2="-3.99" y2="-106.34" gradientTransform="matrix(1, 0, 0, -1, 0, -92.66)" gradientUnits="userSpaceOnUse"><stop offset="0.05" stop-color="#32cafd"/><stop offset="0.94" stop-color="#06eae0"/></linearGradient><linearGradient id="b" x1="1.93" y1="-100.17" x2="6.78" y2="-95.33" gradientTransform="matrix(1, 0, 0, -1, 0, -92.66)" gradientUnits="userSpaceOnUse"><stop offset="0.06" stop-color="#3457a5"/><stop offset="0.91" stop-color="#28415d" stop-opacity="0"/></linearGradient><linearGradient id="c" x1="13.44" y1="-98.42" x2="2.14" y2="-109.94" xlink:href="#a"/><linearGradient id="d" x1="26.91" y1="-97.97" x2="18.28" y2="-106.6" xlink:href="#a"/><linearGradient id="e" x1="28.92" y1="-95.97" x2="17.03" y2="-107.86" gradientTransform="matrix(1, 0, 0, -1, 0, -92.66)" gradientUnits="userSpaceOnUse"><stop offset="0.06" stop-color="#3457a5"/><stop offset="0.93" stop-color="#28415d" stop-opacity="0"/></linearGradient><linearGradient id="f" x1="29.97" y1="-100.84" x2="21.04" y2="-109.77" xlink:href="#a"/></defs><title>5</title><path class="a" d="M15.64,1A1.37,1.37,0,0,0,14.37.19h-13A1.38,1.38,0,0,0,0,1.56v13a1.37,1.37,0,0,0,.85,1.27,1.25,1.25,0,0,0,.52.1,1.3,1.3,0,0,0,1-.41l5.12-5.1,7.9-7.9A1.39,1.39,0,0,0,15.64,1Z"/><path class="b" d="M0,1.35A1.47,1.47,0,0,1,1.37.19C1.78,0.19,7.3-.44,9,0.6c2.94,1.83,2.47,5.85,2.47,5.85L6,11.84,1.14,7.32,0,4V1.35Z"/><path class="c" d="M15.35,18.42l-7.9-8L0,2.9V19.39a1.38,1.38,0,0,0,1.37,1.37h13a1.37,1.37,0,0,0,1.27-.85A1.42,1.42,0,0,0,15.35,18.42Z"/><path class="d" d="M31.88,9.95a1.19,1.19,0,0,0-.29-0.42l-8.9-8.9a1.37,1.37,0,0,0-1-.41,1.3,1.3,0,0,0-1,.41l-8.9,8.9a1.38,1.38,0,0,0,0,2l8.9,8.9a1.29,1.29,0,0,0,.48.31,1.34,1.34,0,0,0,.48.1,1.3,1.3,0,0,0,1-.41l0.85-.85h0l8.07-8.07A1.4,1.4,0,0,0,31.88,9.95Z"/><path class="e" d="M31.88,9.95a1.19,1.19,0,0,0-.29-0.42l-8.9-8.9a1.37,1.37,0,0,0-1-.41,1.3,1.3,0,0,0-1,.41l-8.9,8.9a1.38,1.38,0,0,0,0,2l8.9,8.9a1.29,1.29,0,0,0,.48.31,1.34,1.34,0,0,0,.48.1,1.3,1.3,0,0,0,1-.41l0.85-.85h0l8.07-8.07A1.4,1.4,0,0,0,31.88,9.95Z"/><path class="f" d="M23.54,19.52h0l8.07-8.07A1.4,1.4,0,0,0,32,10.66H23.14a1.39,1.39,0,0,0-1.33,1v9.08a1.36,1.36,0,0,0,.91-0.41Z"/></svg>