<svg xmlns="http://www.w3.org/2000/svg" xmlns:xlink="http://www.w3.org/1999/xlink" width="1932" height="12560" viewBox="0 0 1932 12560"><defs><path id="21s3a" d="M-3 4830V3296h1923v1534z"/><path id="21s3c" d="M4 12559v-672h1916v672z"/><path id="21s3e" d="M-2 7140V5637h1925v1503z"/><path id="21s3g" d="M1920.99 3726l-1737 1098.3 1735.77 1.7z"/><path id="21s3i" d="M1918 7144l-554.74-2.99L.95 8003.34l1.06 649.85 1919.87-1216.34z"/><path id="21s3k" d="M185.95 9528.79L-.48 9637.03l-.93 1288.02L1922 9790v-260z"/><path id="21s3m" d="M1921.32 2410L-1.51 3620.31l.35 417.32L1920.2 2839.98z"/><path id="21s3o" d="M1923 799c-1.02 4.24-1923.42 4.03-1923.42 4.03l-.87 1695.87L1922 1296.5z"/><path id="21s3q" d="M1926 10380c-.77 3.2-1561.83 1006.95-1561.83 1006.95l1554.64-.07z"/><linearGradient id="21s3b" x1="781" x2="1136" y1="4830" y2="3296" gradientUnits="userSpaceOnUse"><stop offset="0" stop-color="#4ec5fa"/><stop offset="1" stop-color="#4ec5fa" stop-opacity="0"/></linearGradient><linearGradient id="21s3d" x1="956" x2="968" y1="12559" y2="11887" gradientUnits="userSpaceOnUse"><stop offset="0" stop-color="#006fd3"/><stop offset="1" stop-color="#006fd3" stop-opacity="0"/></linearGradient><linearGradient id="21s3f" x1="787" x2="1134" y1="7140" y2="5637" gradientUnits="userSpaceOnUse"><stop offset="0" stop-color="#006fd3"/><stop offset=".99" stop-color="#006fd3" stop-opacity=".54"/><stop offset="1" stop-color="#006fd3" stop-opacity=".54"/></linearGradient><linearGradient id="21s3h" x1="1467" x2="637.99" y1="3726" y2="4826" gradientUnits="userSpaceOnUse"><stop offset="0" stop-color="#4ec5fa"/><stop offset="1" stop-color="#4ec5fa" stop-opacity="0"/></linearGradient><linearGradient id="21s3j" x1="230.88" x2="1691.95" y1="8653.19" y2="7141.01" gradientUnits="userSpaceOnUse"><stop offset="0" stop-color="#4ec5fa"/><stop offset="1" stop-color="#4ec5fa" stop-opacity="0"/></linearGradient><linearGradient id="21s3l" x1="332" x2="1588.59" y1="10925.05" y2="9528.79" gradientUnits="userSpaceOnUse"><stop offset="0" stop-color="#335bb7"/><stop offset="1" stop-color="#4ec5fa" stop-opacity="0"/></linearGradient><linearGradient id="21s3n" x1="227.32" x2="1692.49" y1="4037.64" y2="2409.99" gradientUnits="userSpaceOnUse"><stop offset="0" stop-color="#0062be"/><stop offset=".16" stop-color="#0062be" stop-opacity=".84"/><stop offset=".58" stop-color="#0060ff" stop-opacity=".42"/><stop offset="1" stop-color="#0060ff" stop-opacity="0"/></linearGradient><linearGradient id="21s3p" x1="-1.29" x2="1922.71" y1="1732.91" y2="1565" gradientUnits="userSpaceOnUse"><stop offset="0" stop-color="#0062be"/><stop offset=".67" stop-color="#0060ff" stop-opacity=".33"/><stop offset="1" stop-color="#0060ff" stop-opacity="0"/></linearGradient><linearGradient id="21s3r" x1="370" x2="1920.17" y1="11386.95" y2="10380" gradientUnits="userSpaceOnUse"><stop offset="0" stop-color="#0062be"/><stop offset=".67" stop-color="#0060ff" stop-opacity=".33"/><stop offset="1" stop-color="#0060ff" stop-opacity="0"/></linearGradient></defs><g><g transform="translate(4)"/><g opacity=".12" transform="translate(4)"><use fill="url(#21s3b)" xlink:href="#21s3a"/></g><g opacity=".14" transform="translate(4)"><use fill="url(#21s3d)" xlink:href="#21s3c"/></g><g opacity=".08" transform="translate(4)"><use fill="url(#21s3f)" xlink:href="#21s3e"/></g><g opacity=".16" transform="translate(4)"><use fill="url(#21s3h)" xlink:href="#21s3g"/></g><g opacity=".16" transform="translate(4)"><use fill="url(#21s3j)" xlink:href="#21s3i"/></g><g opacity=".09" transform="translate(4)"><use fill="url(#21s3l)" xlink:href="#21s3k"/></g><g opacity=".07" transform="translate(4)"><use fill="url(#21s3n)" xlink:href="#21s3m"/></g><g opacity=".08" transform="translate(4)"><use fill="url(#21s3p)" xlink:href="#21s3o"/></g><g opacity=".07" transform="translate(4)"><use fill="url(#21s3r)" xlink:href="#21s3q"/></g></g></svg>