<svg xmlns="http://www.w3.org/2000/svg" xmlns:xlink="http://www.w3.org/1999/xlink" width="1931" height="1861" viewBox="0 0 1931 1861"><defs><path id="x0mqa" d="M185.95 9528.79L-.48 9637.03l-.93 1288.02L1922 9790v-260z"/><path id="x0mqc" d="M1926 10380c-.77 3.2-1561.83 1006.95-1561.83 1006.95l1554.64-.07z"/><path id="x0mqe" d="M1522.49 11184.99c-37.78 0-68.5-30.73-68.5-68.49 0-37.76 30.72-68.49 68.5-68.49 37.77 0 68.5 30.73 68.5 68.5 0 37.75-30.73 68.48-68.5 68.48zm0-135.35c-36.88 0-66.88 30-66.88 66.86 0 36.87 30 66.87 66.88 66.87 36.88 0 66.88-30 66.88-66.87 0-36.87-30-66.86-66.88-66.86zm3.8 110.08h-8.13v-10.46c-5.79-.24-11.79-2.04-15.47-4.67l-.5-.36 3.04-8.47.87.57c4.1 2.74 9.36 4.3 14.43 4.3 6.76 0 11.48-3.82 11.48-9.3 0-4.99-3.23-8.33-11.17-11.55-9.11-3.57-17.56-8.3-17.56-18.62 0-8.77 6.1-15.5 15.6-17.31v-10.57h8.04v10.06c4.98.26 9.25 1.47 13.03 3.69l.6.34-3.17 8.35-.83-.47a24.07 24.07 0 0 0-12.61-3.4c-7.49 0-10.15 4.35-10.15 8.07 0 4.55 2.88 7.12 12.32 11.03 11.57 4.72 16.52 10.6 16.52 19.65 0 10.46-8.1 16.64-16.33 18.24zm-6.5-1.62h4.88v-10.62l.68-.12c7.8-1.28 15.65-6.96 15.65-16.76 0-8.4-4.5-13.66-15.51-18.15-9.03-3.73-13.32-6.56-13.32-12.53 0-4.83 3.64-9.7 11.77-9.7 6.2 0 10.38 1.95 12.6 3.16l2-5.29c-3.6-1.97-7.68-3-12.46-3.16l-.79-.03v-10h-4.78v10.32l-.68.1c-9.06 1.48-14.92 7.7-14.92 15.84 0 8.82 6.6 13.22 16.53 17.12 8.55 3.46 12.2 7.36 12.2 13.05 0 6.44-5.4 10.93-13.11 10.93a28.43 28.43 0 0 1-14.46-4.02l-1.93 5.38c3.64 2.37 9.38 3.95 14.85 4.05l.8.01z"/><path id="x0mqf" d="M1738.5 10407.99c-41.62 0-75.49-33.87-75.49-75.49s33.87-75.48 75.5-75.48c41.62 0 75.49 33.86 75.49 75.48 0 41.62-33.87 75.49-75.5 75.49zm0-149.19c-40.63 0-73.7 33.06-73.7 73.7s33.07 73.7 73.7 73.7c40.64 0 73.7-33.06 73.7-73.7s-33.06-73.7-73.7-73.7zm4.2 121.34h-8.96v-11.53c-6.38-.27-13-2.25-17.05-5.14l-.55-.4 3.35-9.34.95.63a29.36 29.36 0 0 0 15.9 4.74c7.45 0 12.66-4.22 12.66-10.26 0-5.5-3.57-9.17-12.31-12.72-10.05-3.94-19.35-9.15-19.35-20.53 0-9.66 6.72-17.09 17.2-19.08v-11.65h8.85v11.09c5.49.3 10.2 1.62 14.36 4.07l.65.38-3.49 9.2-.9-.52a26.53 26.53 0 0 0-13.91-3.75c-8.25 0-11.18 4.8-11.18 8.9 0 5 3.17 7.85 13.57 12.15 12.76 5.2 18.2 11.68 18.2 21.66 0 11.54-8.91 18.34-17.99 20.1zm-7.17-1.8h5.38v-11.7l.75-.12c8.59-1.42 17.25-7.68 17.25-18.48 0-9.26-4.96-15.06-17.1-20-9.94-4.12-14.68-7.24-14.68-13.81 0-5.32 4.01-10.7 12.97-10.7 6.84 0 11.44 2.15 13.88 3.49l2.2-5.83c-3.95-2.17-8.45-3.32-13.72-3.49l-.86-.03v-11.02h-5.27v11.37l-.75.12c-10 1.63-16.45 8.48-16.45 17.45 0 9.73 7.29 14.58 18.22 18.87 9.42 3.82 13.44 8.12 13.44 14.38 0 7.1-5.94 12.05-14.45 12.05-5.54 0-11.28-1.6-15.93-4.43l-2.12 5.93c4 2.62 10.33 4.35 16.36 4.46l.88.02z"/><path id="x0mqg" d="M1504.71 11318.93a47.55 47.55 0 0 1-49.66-45.22 47.55 47.55 0 0 1 45.23-49.66 47.55 47.55 0 0 1 49.65 45.22 47.55 47.55 0 0 1-45.22 49.66zm-4.38-93.76a46.42 46.42 0 0 0-44.15 48.49 46.42 46.42 0 0 0 48.48 44.15 46.42 46.42 0 0 0 44.15-48.49 46.42 46.42 0 0 0-48.48-44.15zm2.78 58.53c-.18 0-.38-.04-.61-.15-5.56-2.96-11.12-5.9-16.69-8.85l-3.85-2.04a4.37 4.37 0 0 1-.23-.13l-.97-.58.97-.59.3-.18.11-.05 18.16-33.75V11236.47l.9-.31 22.75 34.04-6.11 4.02-14.1 9.25c-.16.1-.37.21-.63.23zm-17.93-14.13c5.29-2.7 10.57-5.41 15.87-8.1.33-.17.38-.25.36-.6-.33-6.56-.63-13.12-.94-19.68l-.07-1.61-16.5 30.65zm-2.16 2.38l3.32 1.75 16.1 8.54-.93-19.74c-5.28 2.68-10.55 5.38-15.82 8.08zm34.2 1.32l4.74-3.1-19.33-7.88.93 19.95c4.55-3 9.1-5.98 13.66-8.97zm-15.74-34.66l.12 2.53a5958.08 5958.08 0 0 0 .93 19.9l19.15 7.8zm2.93 66.53l-.4-.07-.4.1-22.41-28.64.8-.61.68.36 3.24 1.7c5.7 3.03 11.41 6.05 17.13 9.06l.12.08.12-.09 16.2-10.61 3.72-2.43.78.5-.24.51zm17.07-28.68l-1.37.9-16.2 10.61c-.13.08-.13.08-.12.2l.5 10.72.2 4.05zm-37.53 1.76l19.38 24.77-.18-4.04-.5-10.72c0-.12 0-.12-.13-.19l-17.13-9.06z"/><path id="x0mqh" d="M1639.49 11268a42.2 42.2 0 0 1-30.05-12.5 42.15 42.15 0 0 1-12.44-30.05 42.59 42.59 0 0 1 42.51-42.45h.01a42.54 42.54 0 0 1 42.48 42.5 42.56 42.56 0 0 1-42.5 42.5h-.01zm.02-84a41.58 41.58 0 0 0-41.5 41.45 41.15 41.15 0 0 0 12.14 29.35 41.2 41.2 0 0 0 29.34 12.19h.02a41.55 41.55 0 0 0 41.48-41.5 41.53 41.53 0 0 0-41.47-41.48zm4.51 67.06h-5.65v-7.55h-2.66v7.54h-6.14v-7.8h-9.53l1.15-6.84H1624.97c1.18 0 1.27-.1 1.27-1.28v-20.25c0-1.56-.55-2.15-2.1-2.24-.37-.02-.75-.02-1.14-.02h-2.66v-5.84h9.2v-7.94h6.1v7.68h2.7v-7.66h5.64v7.87l.96.16c1.02.17 1.98.33 2.95.58 1.87.47 4.23 1.3 5.87 3.4a8.55 8.55 0 0 1 1.57 6.83 8.57 8.57 0 0 1-3.26 5.32c.47.16.91.33 1.35.53 3.01 1.4 4.62 3.84 4.76 7.26.08 1.85-.16 3.6-.73 5.25-1.1 3.2-3.47 5.29-7.04 6.22-1.4.36-2.84.57-4.24.76a75.9 75.9 0 0 0-2.15.3zm-4.64-1h3.64v-7.68l.47-.03.3-.01c.16 0 .29 0 .41-.03l1.83-.27a35.8 35.8 0 0 0 4.12-.73c3.23-.85 5.37-2.72 6.35-5.58.52-1.52.75-3.16.68-4.88-.14-3.05-1.5-5.15-4.18-6.39-.46-.2-.94-.38-1.44-.56l-.77-.28-.92-.34.9-.6.14-.1a7.48 7.48 0 0 0 3.43-5.06c.4-2.18-.1-4.37-1.38-6.02-1.45-1.88-3.6-2.62-5.31-3.06-.93-.23-1.88-.4-2.88-.56l-1.38-.24-.41-.07v-7.7h-3.62v7.66h-4.73v-7.68h-4.09v7.94h-9.19v3.83h1.64c.4 0 .8-.01 1.21.01 2.08.13 3.05 1.16 3.05 3.25v20.25c0 1.72-.55 2.28-2.27 2.28h-2.94l-.8 4.84h9.33v7.8h4.13v-7.55h4.68zm-1.64-12.33c-.81 0-1.65-.02-2.54-.04l-.49-.02v-11.3l.48-.02c3.57-.18 6.8-.23 9.95.91a5.4 5.4 0 0 1 3.47 3.6 4.62 4.62 0 0 1-1 4.23c-1 1.17-2.41 1.65-3.65 1.98-2.02.52-4.02.66-6.22.66zm-2.02-1.04c2.97.08 5.48.05 7.98-.6 1.15-.3 2.32-.7 3.14-1.65a3.58 3.58 0 0 0 .8-3.32 4.34 4.34 0 0 0-2.84-2.9c-2.85-1.04-5.8-1.04-9.08-.89zm2.02-14.15l-1.26-.01-1.29-.02h-.5v-10.41h1.63c.83-.02 1.68-.03 2.53.01 1.43.07 3.1.22 4.72.9a4.63 4.63 0 0 1 2.8 5.68c-.42 1.54-1.55 2.58-3.45 3.15a16.5 16.5 0 0 1-5.18.7zm-2.04-1.03l.8.01c.97.02 1.9.03 2.81-.04 1.2-.09 2.3-.3 3.32-.6 1.56-.48 2.44-1.26 2.77-2.46.53-1.9-.36-3.7-2.22-4.48a12.77 12.77 0 0 0-4.38-.82c-.81-.04-1.62-.03-2.47-.02h-.63z"/><linearGradient id="x0mqb" x1="332" x2="1588.59" y1="10925.05" y2="9528.79" gradientUnits="userSpaceOnUse"><stop offset="0" stop-color="#335bb7"/><stop offset="1" stop-color="#4ec5fa" stop-opacity="0"/></linearGradient><linearGradient id="x0mqd" x1="370" x2="1920.17" y1="11386.95" y2="10380" gradientUnits="userSpaceOnUse"><stop offset="0" stop-color="#0062be"/><stop offset=".67" stop-color="#0060ff" stop-opacity=".33"/><stop offset="1" stop-color="#0060ff" stop-opacity="0"/></linearGradient></defs><g><g opacity=".09" transform="translate(3 -9527)"><use fill="url(#x0mqb)" xlink:href="#x0mqa"/></g><g opacity=".07" transform="translate(3 -9527)"><use fill="url(#x0mqd)" xlink:href="#x0mqc"/></g><g opacity=".14" transform="translate(3 -9527)"><use fill="#004899" xlink:href="#x0mqe"/></g><g opacity=".14" transform="translate(3 -9527)"><use fill="#004899" xlink:href="#x0mqf"/></g><g opacity=".14" transform="translate(3 -9527)"><use fill="#004899" xlink:href="#x0mqg"/></g><g opacity=".14" transform="translate(3 -9527)"><use fill="#004899" xlink:href="#x0mqh"/></g></g></svg>