<?xml version="1.0" encoding="utf-8"?>
<!-- Generator: Adobe Illustrator 19.2.0, SVG Export Plug-In . SVG Version: 6.00 Build 0)  -->
<svg version="1.1" id="Слой_1" xmlns="http://www.w3.org/2000/svg" xmlns:xlink="http://www.w3.org/1999/xlink" x="0px" y="0px"
	 viewBox="0 0 1029.7 474.2" style="enable-background:new 0 0 1029.7 474.2;" xml:space="preserve">
<style type="text/css">
	.st0{fill:#FFFFFF;}
	.st1{fill:#2481B9;}
	.st2{fill:#32DDFD;}
	.st3{fill:#C9DFED;}
	.st4{fill:#E5E5E5;}
	.st5{fill:none;stroke:#1B2942;stroke-linecap:round;stroke-linejoin:round;stroke-miterlimit:10;}
</style>
<g>
	<rect y="0" class="st0" width="1029.7" height="474.2"/>
	<rect y="0" class="st1" width="1029.7" height="25"/>
	
		<rect x="0" y="0" transform="matrix(-1 -5.864655e-11 5.864655e-11 -1 1029.7345 24.999)" class="st2" width="1029.7" height="25"/>
	<polygon class="st3" points="124.5,25 124.5,0 0,0 0,25 0,30 0,61.5 1029.7,61.5 1029.7,25 	"/>
	<polygon class="st4" points="124.5,25 124.5,0 0,0 0,25 0,30 0,61.5 1029.7,61.5 1029.7,25 	"/>
	<g>
		<line class="st5" x1="1012.9" y1="8.6" x2="1021.3" y2="17.1"/>
		<line class="st5" x1="1021.3" y1="8.6" x2="1012.9" y2="17.1"/>
		<rect x="995.2" y="7.9" class="st5" width="9.5" height="9.5"/>
		<line class="st5" x1="987.8" y1="13.1" x2="979.1" y2="13.1"/>
	</g>
	<rect x="123.8" y="34.9" class="st0" width="898.6" height="16"/>
	<polyline class="st5" points="28.8,37.6 31.3,40.7 33.8,43.9 31.3,47 28.8,50.2 	"/>
	<polyline class="st5" points="17.1,50.2 14.6,47 12.1,43.9 14.6,40.7 17.1,37.6 	"/>
	<path class="st5" d="M12.6,11.1c2,0,2,4,4,4c2,0,2-4,4-4c2,0,2,4,4,4c2,0,2-4,4-4c2,0,2,4,4,4c2,0,2-4,4-4c2,0,2,4,4,4c2,0,2-4,4-4
		c2,0,2,4,4,4c2,0,2-4,4-4c2,0,2,4,4,4c2,0,2-4,4-4c2,0,2,4,4,4c2,0,2-4,4-4c2,0,2,4,4,4c2,0,2-4,4-4c2,0,2,4,4,4c2,0,2-4,4-4
		c2,0,2,4,4,4c2,0,2-4,4-4c2,0,2,4,4,4c2,0,2-4,4-4c2,0,2,4,4,4s2-4,4-4"/>
</g>
</svg>
