<svg xmlns="http://www.w3.org/2000/svg" xmlns:xlink="http://www.w3.org/1999/xlink" width="40" height="41" viewBox="0 0 40 41"><defs><path id="j2oma" d="M1051.94 2997.36a2 2 0 0 1 .05.47c0 1.62-1.22 2.45-3.63 2.45-1.82 0-3.26-1.11-3.26-2.53 0-1.3 1.67-2.45 3.58-2.45h.05c.41 0 .82.07 1.2.18l.38.26c.88.6 1.46.99 1.63 1.62zm-3-6.57c-1.2-.04-2.42-1.46-2.64-3.1-.12-.91.08-1.74.54-2.26.3-.34.69-.52 1.12-.52h.05c1.24.04 2.42 1.4 2.64 3.05.12.92-.08 1.79-.55 2.31-.3.34-.68.52-1.14.52h-.02zm22.71 1.86a18.76 18.76 0 0 1-18.82 18.64 18.76 18.76 0 0 1-18.82-18.64 18.76 18.76 0 0 1 18.82-18.65 18.76 18.76 0 0 1 18.82 18.65zm-17.34 4.95c0-1.79-.58-2.86-2.14-3.96-.67-.47-1.27-1.16-1.29-1.36 0-.39.04-.58.91-1.25a4.12 4.12 0 0 0 1.75-3.24c0-1.1-.34-2.08-.92-2.76h.45c.1 0 .18-.03.26-.09l1.25-.9c.15-.1.22-.3.16-.48a.44.44 0 0 0-.42-.3h-5.6c-.6 0-1.23.1-1.84.31-2.04.7-3.47 2.42-3.47 4.19 0 2.5 1.96 4.4 4.58 4.46a2.18 2.18 0 0 0 .22 1.7h-.07c-2.5 0-4.75 1.2-5.6 3.01-.22.47-.34.95-.34 1.41 0 .46.12.9.35 1.3.54.96 1.7 1.7 3.25 2.09.81.2 1.67.3 2.57.3.81 0 1.58-.1 2.3-.3 2.21-.64 3.64-2.26 3.64-4.13zm9-5.38v-.9c0-.24-.2-.44-.45-.44h-3.18v-3.15c0-.24-.2-.43-.44-.43h-.9c-.25 0-.44.2-.44.43v3.15h-3.18c-.25 0-.44.2-.44.44v.9c0 .24.2.43.44.43h3.18v3.15c0 .24.2.44.44.44h.9c.24 0 .44-.2.44-.44v-3.15h3.18c.24 0 .44-.2.44-.43z"/></defs><g><g transform="translate(-1033 -2972)"><use fill="#bf1b21" xlink:href="#j2oma"/></g></g></svg>