<svg xmlns="http://www.w3.org/2000/svg" xmlns:xlink="http://www.w3.org/1999/xlink" width="20" height="21" viewBox="0 0 20 21"><defs><path id="8zd8a" d="M1018.5 1797.69c-4.69 0-8.5-3.94-8.5-8.77 0-4.84 3.81-8.77 8.5-8.77 1.72 0 3.32.53 4.66 1.44l.96-1.59a.8.8 0 0 1 1.11-.27c.39.25.5.77.26 1.16l-1.06 1.76a8.88 8.88 0 0 1 2.57 6.27c0 4.83-3.82 8.77-8.5 8.77zm0-15.87a7 7 0 0 0-6.88 7.1 7 7 0 0 0 6.88 7.1 7 7 0 0 0 6.87-7.1 7.2 7.2 0 0 0-1.82-4.81l-4.5 7.43a.81.81 0 0 1-.59.39h-.1a.8.8 0 0 1-.56-.24l-3.02-3.05a.86.86 0 0 1 0-1.18.8.8 0 0 1 1.14-.01l2.3 2.32 4.08-6.76a6.69 6.69 0 0 0-3.8-1.19z"/></defs><g><g transform="translate(-1008 -1778)"><use fill="#3f7fcf" xlink:href="#8zd8a"/></g></g></svg>