<svg xmlns="http://www.w3.org/2000/svg" xmlns:xlink="http://www.w3.org/1999/xlink" width="52" height="31" viewBox="0 0 52 31"><defs><path id="koz0a" d="M1397.8 762.32c-8.37 0-16.34-3.29-21.32-8.78l2.17-2.08c4.13 4.57 10.66 7.41 17.66 7.77v-3.3a7.44 7.44 0 0 1-5.67-5.83h-5.34v-3.05h5.34a7.44 7.44 0 0 1 5.67-5.83v-3.3c-8.88.45-16.71 4.82-20.23 11.4l-2.6-1.47c4.23-7.9 13.77-13 24.31-13 10.55 0 20.09 5.1 24.31 13l-2.6 1.47c-3.51-6.58-11.35-10.95-20.22-11.4v3.3a7.44 7.44 0 0 1 5.67 5.83h5.33v3.05h-5.33a7.44 7.44 0 0 1-5.67 5.84v3.29c7-.36 13.52-3.2 17.66-7.77l2.17 2.08c-4.98 5.5-12.95 8.78-21.32 8.78zm-1.49-9.54v-2.68h-2.6a4.43 4.43 0 0 0 2.6 2.68zm0-8.4a4.42 4.42 0 0 0-2.6 2.67h2.6zm2.97 0v2.67h2.6a4.42 4.42 0 0 0-2.6-2.67zm0 8.4a4.43 4.43 0 0 0 2.6-2.68h-2.6z"/></defs><g><g transform="translate(-1372 -733)"><use fill="#0066cd" xlink:href="#koz0a"/></g></g></svg>