<svg xmlns="http://www.w3.org/2000/svg" xmlns:xlink="http://www.w3.org/1999/xlink" width="53" height="42" viewBox="0 0 53 42"><defs><path id="lhn3a" d="M817.2 768.82l-5.86-.21v-3.98h-3.82v-3.05h3.82v-8.36h2.97v12.44l1.26.05 9.31-15.55h19.1l1.09-1.77-1.09-1.78h-19.2l-9.36-14.35-1.1.05v13.28h-2.98v-8.3h-3.82v-3.05h3.82v-4.85l5.61-.26 3.32 5.08h5.56v3.05h-3.57l4.11 6.3h19.25l2.95 4.83-2.95 4.83h-19.08l-4.99 8.33h4.28v3.05h-6.1zm-10.66-23.32h-5.14v-3.06h5.14zm0 10.6h-5.14v-3.05h5.14zm0-5.3h-7.57v-3.05h7.57z"/></defs><g><g transform="translate(-797 -728)"><use fill="#0066cd" xlink:href="#lhn3a"/></g></g></svg>