<svg xmlns="http://www.w3.org/2000/svg" xmlns:xlink="http://www.w3.org/1999/xlink" width="35" height="47" viewBox="0 0 35 47"><defs><path id="jabia" d="M1115.06 770.8H1098a7.97 7.97 0 0 1-7.83-8.08v-19.46-.18l.02-1.52 1.48.04h2.18v-7.3a7.97 7.97 0 0 1 7.84-8.09h9.7a7.97 7.97 0 0 1 7.83 8.09v7.3h3.65l.03 1.5v19.62a7.97 7.97 0 0 1-7.84 8.09zm-21.9-26.12v18.04c0 2.76 2.17 5 4.84 5h17.06a4.93 4.93 0 0 0 4.85-5v-18.04zm13.37 20.58c-2.1 0-3.83-1.52-3.83-3.4v-3.65c-.35-.2-.68-.41-.98-.65a5.57 5.57 0 0 1-2.2-4.34c0-1.63.8-3.21 2.2-4.33a7.98 7.98 0 0 1 9.63 0 5.58 5.58 0 0 1 2.2 4.33c0 1.64-.8 3.22-2.2 4.34-.3.24-.63.46-.98.65v3.65c0 1.88-1.72 3.4-3.84 3.4zm0-14.9c-1.08 0-2.17.32-2.98.97-.67.53-1.04 1.2-1.04 1.9 0 .68.37 1.36 1.04 1.89.32.26.71.47 1.16.64l.98.37v5.73c.03.07.34.32.84.32.5 0 .81-.25.85-.35v-5.7l.98-.37c.45-.17.84-.38 1.16-.64.67-.53 1.04-1.2 1.04-1.9 0-.68-.37-1.36-1.04-1.89a4.82 4.82 0 0 0-2.99-.97zm9.7-16.06c0-2.76-2.18-5-4.85-5h-9.7a4.93 4.93 0 0 0-4.84 5v7.3h19.39zm-3.26 1.1h-2.99c0-.75-.58-1.35-1.3-1.35h-4.29c-.72 0-1.3.6-1.3 1.35h-3a4.37 4.37 0 0 1 4.3-4.44h4.28c2.37 0 4.3 2 4.3 4.44z"/></defs><g><g transform="translate(-1089 -725)"><use fill="#0066cd" xlink:href="#jabia"/></g></g></svg>