<svg xmlns="http://www.w3.org/2000/svg" xmlns:xlink="http://www.w3.org/1999/xlink" width="49" height="40" viewBox="0 0 49 40"><defs><path id="ieoua" d="M541.45 767.04h-44v-3.07h44zm-42.79-6.3l-2.43-1.8 7.69-11.02-7.32-5.16 1.7-2.53 7.36 5.2 4.4-6.32 5.51 5.8 9.29-10.07 11.32 3.43 3.46-7.86 2.72 1.27-3.29 7.47 2.87.87-.85 2.95-3.26-1-3.95 8.98-5.84-3.35-4.43 10.17-8-8.42-3.82 4.13-5.41-3.82zm24.02-8.35l3.96-9.1 5.86 3.35 2.44-5.54-9.17-2.78-8.1 8.8zm-12.27-8.51l-2.29 3.28 3.26 2.3 2.14-2.31z"/></defs><g><g transform="translate(-495 -729)"><use fill="#0066cd" xlink:href="#ieoua"/></g></g></svg>