<svg xmlns="http://www.w3.org/2000/svg" xmlns:xlink="http://www.w3.org/1999/xlink" width="41" height="40" viewBox="0 0 41 40"><defs><path id="2lgca" d="M1097.71 2992.34a3.78 3.78 0 0 1 7.54 0c0 2.06-1.7 3.74-3.77 3.74a3.75 3.75 0 0 1-3.77-3.74zm8.38-4.55l-.01-3.6h3.63v3.59zm14.21 4.55a18.76 18.76 0 0 1-18.82 18.65 18.76 18.76 0 0 1-18.82-18.65 18.76 18.76 0 0 1 18.82-18.65 18.76 18.76 0 0 1 18.82 18.65zm-8.12-6.5c0-2.26-1.85-4.1-4.13-4.1h-13.14a4.12 4.12 0 0 0-4.14 4.1v13.01c0 2.26 1.86 4.1 4.14 4.1h13.14a4.12 4.12 0 0 0 4.13-4.1zm-5.28 4.33h3.2v8.68c0 1.12-.92 2.03-2.05 2.03h-13.14c-1.13 0-2.05-.9-2.05-2.03v-8.68h3.2c-.28.67-.44 1.4-.44 2.17 0 3.2 2.63 5.8 5.86 5.8 3.23 0 5.86-2.6 5.86-5.8 0-.77-.16-1.5-.44-2.17z"/></defs><g><g transform="translate(-1081 -2972)"><use fill="#951b81" xlink:href="#2lgca"/></g></g></svg>