<svg xmlns="http://www.w3.org/2000/svg" xmlns:xlink="http://www.w3.org/1999/xlink" width="74" height="49" viewBox="0 0 74 49"><defs><path id="424la" d="M958.8 5934.36a.9.9 0 0 0 .18-.95.84.84 0 0 0-.78-.54h-25.63c-.47 0-.85.4-.85.87v1.92l12.84 13.49zm-26.23-5.37h25.63a4.57 4.57 0 0 1 4.23 2.93 4.88 4.88 0 0 1-.99 5.19l-14.25 14.8 14.25 14.97a4.88 4.88 0 0 1 1 5.18 4.57 4.57 0 0 1-4.24 2.93h-25.63a4.67 4.67 0 0 1-4.58-4.75v-38.5l.3.31a4.6 4.6 0 0 1 4.28-3.06zm-.85 41.25c0 .48.38.87.85.87h25.63c.35 0 .65-.21.78-.54a.9.9 0 0 0-.18-.95l-27.08-28.44zm43.88 4.75a4.43 4.43 0 0 1-3.23-1.39l-17.57-18.25a4.9 4.9 0 0 1 0-6.72l17.57-18.25 2.64 2.74-17.57 18.25a.9.9 0 0 0 0 1.24l17.57 18.25c.08.08.18.15.3.2a.8.8 0 0 0 .89-.2l15.92-16.55h-16.58v-3.88h21.06l.76-.34a5 5 0 0 1 .13.34h.52l-.28 2.2c-.14 1.05-.58 1.99-1.3 2.73l-17.56 18.25a4.5 4.5 0 0 1-3.01 1.38h-.26z"/></defs><g><g transform="translate(-926 -5927)"><use fill="#0066cd" xlink:href="#424la"/></g></g></svg>