<svg xmlns="http://www.w3.org/2000/svg" xmlns:xlink="http://www.w3.org/1999/xlink" width="68" height="39" viewBox="0 0 68 39"><defs><path id="65lta" d="M567.54 6481.71c-11.2 0-21.86-4.29-28.53-11.48l2.9-2.72c5.94 6.4 15.51 10.21 25.63 10.21 10.11 0 19.7-3.81 25.62-10.2l2.9 2.71c-6.66 7.2-17.32 11.48-28.52 11.48zm29.05-17c-4.96-9.08-16.37-14.94-29.05-14.94-12.69 0-24.09 5.86-29.05 14.94l-3.48-1.92c5.65-10.34 18.42-17 32.53-17s26.88 6.66 32.53 17zm-29.05 8.87c-5.4 0-9.78-4.41-9.78-9.83a9.81 9.81 0 0 1 9.78-9.83c5.4 0 9.78 4.4 9.78 9.83a9.81 9.81 0 0 1-9.78 9.83zm0-15.67a5.83 5.83 0 0 0 0 11.68 5.83 5.83 0 0 0 0-11.68z"/></defs><g><g transform="translate(-534 -6444)"><use fill="#0066cd" xlink:href="#65lta"/></g></g></svg>