<svg xmlns="http://www.w3.org/2000/svg" xmlns:xlink="http://www.w3.org/1999/xlink" width="46" height="61" viewBox="0 0 46 61"><defs><path id="llwxa" d="M971.4 6490.01h-22.83a10.5 10.5 0 0 1-10.49-10.5v-25.26l.01-.23.03-1.98 1.97.05H943v-9.47c0-5.79 4.7-10.5 10.49-10.5h12.97a10.5 10.5 0 0 1 10.49 10.5v9.47h4.9l.02 1.97V6479.51c0 5.8-4.7 10.5-10.48 10.5zm-29.32-33.92v23.42a6.5 6.5 0 0 0 6.5 6.5h22.82a6.5 6.5 0 0 0 6.49-6.5v-23.42zm17.9 26.73c-2.82 0-5.12-1.98-5.12-4.42v-4.74a9.1 9.1 0 0 1-1.32-.85 7.17 7.17 0 0 1-2.94-5.62 7.17 7.17 0 0 1 2.94-5.63c3.61-2.8 9.28-2.8 12.89 0a7.17 7.17 0 0 1 2.94 5.63 7.17 7.17 0 0 1-2.94 5.62c-.4.32-.85.6-1.32.85v4.74c0 2.44-2.3 4.42-5.13 4.42zm0-19.35a6.6 6.6 0 0 0-4 1.26c-.89.69-1.38 1.56-1.38 2.46 0 .9.5 1.77 1.39 2.46.43.33.95.61 1.55.83l1.32.48v7.44c.04.1.45.42 1.12.42.68 0 1.09-.33 1.14-.46v-7.4l1.31-.48a5.7 5.7 0 0 0 1.55-.83c.9-.7 1.39-1.57 1.39-2.46 0-.9-.5-1.77-1.39-2.46a6.6 6.6 0 0 0-4-1.26zm12.98-20.85a6.5 6.5 0 0 0-6.49-6.5H953.5a6.5 6.5 0 0 0-6.49 6.5v9.47h25.95zm-4.36 1.42h-4c0-.96-.79-1.75-1.75-1.75h-5.73c-.96 0-1.75.79-1.75 1.75h-4a5.76 5.76 0 0 1 5.75-5.75h5.73a5.76 5.76 0 0 1 5.75 5.75z"/></defs><g><g transform="translate(-937 -6431)"><use fill="#0066cd" xlink:href="#llwxa"/></g></g></svg>