<svg xmlns="http://www.w3.org/2000/svg" xmlns:xlink="http://www.w3.org/1999/xlink" width="62" height="52" viewBox="0 0 62 52"><defs><path id="fl7sa" d="M1364.47 6456.03h6.78v-6.8h4.67v6.8h6.72v4.68h-6.72v6.74h-4.67v-6.74h-6.78zm-32.09-2.48c-.6-1.43-.9-2.96-.9-4.57a11.78 11.78 0 0 1 3.4-8.37 11.6 11.6 0 0 1 8.34-3.42 11.53 11.53 0 0 1 8.3 3.42 11.68 11.68 0 0 1 3.4 8.37 11.64 11.64 0 0 1-7.14 10.82c-1.43.6-2.95.9-4.56.9a11.67 11.67 0 0 1-10.84-7.15zm3.82-4.57a6.86 6.86 0 0 0 7.02 7.05c1.98 0 3.65-.68 5-2.04a6.82 6.82 0 0 0 2.03-5.01 6.8 6.8 0 0 0-2.03-5.04 6.82 6.82 0 0 0-5-2.01 6.85 6.85 0 0 0-7.03 7.05zm-12.9 37.13v-8.93a11.78 11.78 0 0 1 3.4-8.38 11.64 11.64 0 0 1 8.29-3.41h16.41a11.69 11.69 0 0 1 8.32 3.41 11.9 11.9 0 0 1 3.38 8.38v8.93h-4.67v-8.93a6.8 6.8 0 0 0-2.03-5.04 6.83 6.83 0 0 0-5-2.01H1335c-1.98 0-3.64.67-5 2a6.8 6.8 0 0 0-2.03 5.05v8.93z"/></defs><g><g transform="translate(-1322 -6436)"><use fill="#0066cd" xlink:href="#fl7sa"/></g></g></svg>