<svg xmlns="http://www.w3.org/2000/svg" xmlns:xlink="http://www.w3.org/1999/xlink" width="20" height="29" viewBox="0 0 20 29"><defs><path id="ipaqa" d="M1278.78 3228.58l-.6-.82c-.33-.45-8.17-11.17-8.17-15.86 0-4.9 3.93-8.9 8.77-8.9 4.83 0 8.77 4 8.77 8.9 0 4.7-7.84 15.4-8.17 15.86zm0-24.06a7.34 7.34 0 0 0-7.27 7.38c0 3.2 4.8 10.62 7.27 14.12 2.48-3.5 7.27-10.93 7.27-14.12a7.34 7.34 0 0 0-7.27-7.38zm0 11.05a4.17 4.17 0 0 1-4.13-4.2c0-2.3 1.85-4.19 4.13-4.19a4.17 4.17 0 0 1 4.13 4.2h-1.5a2.66 2.66 0 0 0-2.63-2.68 2.66 2.66 0 0 0-2.64 2.68 2.66 2.66 0 0 0 2.64 2.67z"/></defs><g><g transform="translate(-1269 -3201)"><use fill="#3f7fcf" xlink:href="#ipaqa"/></g></g></svg>