<?xml version="1.0" encoding="utf-8"?>
<!-- Generator: Adobe Illustrator 19.2.0, SVG Export Plug-In . SVG Version: 6.00 Build 0)  -->
<svg version="1.1" id="Layer_1" xmlns="http://www.w3.org/2000/svg" xmlns:xlink="http://www.w3.org/1999/xlink" x="0px" y="0px"
	 viewBox="0 0 260.6 43.2" style="enable-background:new 0 0 260.6 43.2;" xml:space="preserve">
<style type="text/css">
	.st0{opacity:0.46;fill:url(#SVGID_1_);}
	.st1{fill:#1B2942;}
	.st2{fill:url(#SVGID_2_);}
	.st3{opacity:0.73;fill:url(#SVGID_3_);}
	.st4{fill:url(#SVGID_4_);}
	.st5{fill:url(#SVGID_5_);}
	.st6{fill:url(#SVGID_6_);}
</style>
<linearGradient id="SVGID_1_" gradientUnits="userSpaceOnUse" x1="60.0825" y1="6.83" x2="35.3707" y2="31.5418">
	<stop  offset="6.122449e-02" style="stop-color:#3457A5"/>
	<stop  offset="0.9322" style="stop-color:#28415D;stop-opacity:0"/>
</linearGradient>
<path class="st0" d="M66.3,20.6c-0.1-0.3-0.3-0.6-0.6-0.9L47.2,1.2c-0.5-0.5-1.3-0.8-2-0.8c-0.8,0-1.5,0.3-2,0.8L24.6,19.8
	c-1.1,1.1-1.1,2.9,0,4l18.5,18.5c0.3,0.3,0.6,0.5,1,0.7c0.3,0.1,0.7,0.2,1,0.2c0.8,0,1.5-0.3,2-0.8l1.8-1.8c0,0,0,0,0,0l16.8-16.8
	C66.5,22.9,66.7,21.7,66.3,20.6z"/>
<g>
	<g>
		<g>
			<path class="st1" d="M78.6,10.2c2-0.2,4.1-0.4,6.2-0.5s4.3-0.2,6.4-0.2h1c1.9,0,3.5,0.2,4.8,0.6c1.3,0.4,2.3,0.9,3,1.5
				s1.3,1.4,1.6,2.2c0.3,0.8,0.4,1.7,0.4,2.7v0.7c0,1-0.3,1.9-0.9,2.8c-0.6,0.8-1.7,1.5-3.2,1.9c0.9,0.2,1.7,0.5,2.3,0.8
				c0.6,0.3,1.1,0.7,1.5,1.1c0.4,0.4,0.6,0.9,0.8,1.3c0.2,0.5,0.2,1,0.2,1.5v0.7c0,0.9-0.2,1.8-0.5,2.7c-0.3,0.8-0.9,1.6-1.7,2.2
				c-0.8,0.6-1.9,1.1-3.2,1.5c-1.4,0.4-3.1,0.6-5.1,0.6h-1c-2.1,0-4.2-0.1-6.4-0.2s-4.3-0.3-6.2-0.5V10.2z M91.4,15.1
				c-0.9,0-1.9,0-3.1,0.1c-1.2,0-2.4,0.1-3.5,0.2v3.8H91c1.4,0,2.5-0.1,3.2-0.2c0.8-0.1,1.3-0.2,1.7-0.4c0.3-0.2,0.5-0.4,0.6-0.7
				c0.1-0.3,0.1-0.5,0.1-0.8c0-0.3,0-0.5-0.1-0.8c-0.1-0.3-0.3-0.5-0.6-0.7c-0.3-0.2-0.9-0.3-1.6-0.4C93.7,15.1,92.7,15.1,91.4,15.1
				z M84.9,24.8v3.5c1.2,0.1,2.3,0.2,3.5,0.2s2.2,0.1,3.2,0.1c1.4,0,2.5-0.1,3.2-0.2c0.8-0.1,1.3-0.3,1.7-0.4
				c0.4-0.2,0.6-0.4,0.7-0.7c0.1-0.3,0.1-0.5,0.1-0.8c0-0.2,0-0.5-0.1-0.7c-0.1-0.2-0.3-0.4-0.7-0.6c-0.4-0.1-1-0.3-1.9-0.4
				c-0.9-0.1-2.1-0.1-3.6-0.1H84.9z"/>
			<path class="st1" d="M107,10.1c0-0.7,0.2-1.3,0.6-1.8c0.4-0.5,1.2-0.8,2.3-0.8h0.3c1.2,0,1.9,0.3,2.3,0.8
				c0.4,0.5,0.6,1.1,0.6,1.8v0.4c0,0.7-0.2,1.3-0.6,1.8c-0.4,0.5-1.2,0.8-2.3,0.8H110c-1.2,0-1.9-0.3-2.3-0.8
				c-0.4-0.5-0.6-1.1-0.6-1.8V10.1z M107.3,16.1v17.3h5.5V18.5l-4.1-2.4H107.3z"/>
			<path class="st1" d="M122.9,16.1h5.3V21h-5.3v5.5c0,0.4,0,0.7,0.1,1c0,0.3,0.2,0.6,0.4,0.8c0.2,0.2,0.5,0.4,1,0.5
				c0.4,0.1,1,0.2,1.8,0.2c0.5,0,1.1,0,1.7-0.1c0.6-0.1,1.1-0.2,1.6-0.3v5c-0.5,0.1-1,0.2-1.6,0.3c-0.6,0.1-1.2,0.1-1.9,0.1
				c-1.6,0-2.9-0.2-4-0.4c-1.1-0.3-2-0.7-2.6-1.3c-0.7-0.6-1.2-1.3-1.5-2.1s-0.5-1.8-0.5-2.9v-18h1.4l4.1,2.4V16.1z"/>
			<path class="st1" d="M153.9,35.1c0,1.2-0.2,2.3-0.6,3.3c-0.4,0.9-1,1.7-1.8,2.4c-0.8,0.6-1.9,1.1-3.2,1.5c-1.3,0.3-3,0.5-4.9,0.5
				c-0.7,0-1.4,0-2.1-0.1c-0.7,0-1.5-0.1-2.2-0.2c-0.7-0.1-1.5-0.2-2.2-0.3s-1.4-0.2-2-0.4v-5.2c0.6,0.2,1.2,0.3,2,0.5
				s1.4,0.2,2.1,0.3c0.7,0.1,1.4,0.1,2.2,0.2c0.7,0,1.4,0.1,2,0.1c1.2,0,2.2-0.1,2.9-0.2c0.7-0.2,1.2-0.4,1.5-0.6
				c0.3-0.3,0.5-0.6,0.6-1c0.1-0.4,0.1-0.9,0.1-1.4v-1.1c-0.8,0.3-1.7,0.4-2.5,0.6c-0.9,0.1-1.8,0.2-2.9,0.2c-1.9,0-3.5-0.2-4.8-0.7
				c-1.3-0.4-2.3-1.1-3-1.8c-0.8-0.8-1.3-1.7-1.6-2.7c-0.3-1-0.4-2.2-0.4-3.4v-1.4c0-1.2,0.1-2.3,0.4-3.4c0.3-1,0.8-2,1.6-2.7
				c0.8-0.8,1.8-1.4,3.1-1.8c1.3-0.4,2.9-0.7,4.9-0.7h1c1.9,0,3.5,0.2,4.8,0.7c1.3,0.4,2.3,1.1,3,1.8c0.8,0.8,1.3,1.7,1.6,2.7
				c0.3,1,0.4,2.2,0.4,3.4V35.1z M143.3,29.1c1.8,0,3.5-0.2,5.1-0.7v-3.6c0-0.6,0-1.1-0.1-1.6c0-0.5-0.2-1-0.5-1.4s-0.8-0.7-1.5-1
				c-0.7-0.2-1.6-0.4-2.8-0.4c-1.2,0-2.2,0.1-2.8,0.4c-0.7,0.2-1.2,0.6-1.5,1s-0.5,0.9-0.5,1.4c0,0.5-0.1,1.1-0.1,1.6
				c0,0.6,0,1.1,0.1,1.6c0,0.5,0.2,1,0.5,1.4c0.3,0.4,0.8,0.7,1.4,1C141.2,29,142.1,29.1,143.3,29.1z"/>
			<path class="st1" d="M178.9,33.4h-1.4l-1.9-1.1c-1.2,0.6-2.4,1-3.7,1.3c-1.3,0.3-2.7,0.4-4.3,0.4c-1.9,0-3.4-0.2-4.6-0.5
				c-1.2-0.3-2.2-0.7-3-1.3c-0.7-0.5-1.3-1.2-1.6-1.9c-0.3-0.7-0.4-1.4-0.4-2.2v-0.3c0-0.7,0.2-1.4,0.5-2c0.3-0.6,0.8-1.2,1.6-1.7
				c0.7-0.5,1.7-0.9,2.9-1.1c1.2-0.3,2.7-0.4,4.5-0.4c2.3,0,4.2,0.2,5.8,0.7c0-0.5-0.1-0.9-0.2-1.2c-0.1-0.4-0.3-0.7-0.7-0.9
				c-0.3-0.2-0.9-0.4-1.5-0.6c-0.7-0.1-1.6-0.2-2.7-0.2c-0.6,0-1.3,0-2,0.1c-0.7,0-1.4,0.1-2.2,0.2c-0.7,0.1-1.4,0.2-2.1,0.3
				c-0.7,0.1-1.4,0.3-2,0.4v-5.2c0.6-0.1,1.2-0.3,2-0.4c0.7-0.1,1.4-0.2,2.2-0.3c0.7-0.1,1.5-0.1,2.2-0.2c0.7,0,1.4-0.1,2.1-0.1
				c1.9,0,3.6,0.2,4.9,0.5c1.3,0.3,2.4,0.8,3.2,1.5c0.8,0.6,1.4,1.4,1.8,2.4c0.4,0.9,0.6,2,0.6,3.3V33.4z M168.2,29.8
				c1.8,0,3.5-0.2,5.1-0.7v-1.6c-0.8-0.2-1.6-0.4-2.5-0.5c-0.9-0.1-1.9-0.2-2.9-0.2c-1,0-1.8,0-2.4,0.1s-1,0.2-1.3,0.4
				c-0.3,0.2-0.4,0.3-0.5,0.5c-0.1,0.2-0.1,0.4-0.1,0.5c0,0.2,0,0.4,0.1,0.6s0.3,0.3,0.6,0.5c0.3,0.1,0.8,0.2,1.4,0.3
				S167.1,29.8,168.2,29.8z"/>
			<path class="st1" d="M183,10.1c0-0.7,0.2-1.3,0.6-1.8c0.4-0.5,1.2-0.8,2.3-0.8h0.3c1.2,0,1.9,0.3,2.3,0.8
				c0.4,0.5,0.6,1.1,0.6,1.8v0.4c0,0.7-0.2,1.3-0.6,1.8c-0.4,0.5-1.2,0.8-2.3,0.8H186c-1.2,0-1.9-0.3-2.3-0.8
				c-0.4-0.5-0.6-1.1-0.6-1.8V10.1z M183.3,16.1v17.3h5.5V18.5l-4.1-2.4H183.3z"/>
			<path class="st1" d="M194.9,16.1l1.9,1.1c1.1-0.6,2.3-1,3.5-1.3c1.2-0.3,2.6-0.4,4.1-0.4c1.9,0,3.5,0.2,4.8,0.7
				c1.3,0.4,2.3,1.1,3,1.8c0.8,0.8,1.3,1.7,1.6,2.7c0.3,1,0.4,2.2,0.4,3.4v9.3h-5.5v-8.6c0-0.6,0-1.1-0.1-1.6c0-0.5-0.2-1-0.5-1.4
				c-0.3-0.4-0.8-0.7-1.4-1c-0.6-0.2-1.5-0.4-2.7-0.4c-1,0-1.9,0.1-2.7,0.2c-0.8,0.1-1.6,0.3-2.4,0.6v12.2h-5.5V16.1H194.9z"/>
			<path class="st1" d="M228.4,34.1c-1.9,0-3.5-0.2-4.8-0.7s-2.3-1.1-3-1.8c-0.8-0.8-1.3-1.7-1.6-2.7c-0.3-1-0.4-2.2-0.4-3.4v-1.4
				c0-1.2,0.1-2.3,0.4-3.4c0.3-1,0.8-2,1.6-2.7c0.8-0.8,1.8-1.4,3-1.8c1.3-0.4,2.9-0.7,4.8-0.7h1c2,0,3.6,0.1,4.8,0.4
				c1.2,0.3,2.2,0.7,2.9,1.2c0.7,0.5,1.2,1.1,1.4,1.8c0.3,0.7,0.4,1.4,0.4,2.1v0.3c0,0.7-0.1,1.3-0.3,2c-0.2,0.6-0.6,1.2-1.2,1.7
				c-0.6,0.5-1.6,0.9-2.9,1.1c-1.3,0.3-3,0.4-5.1,0.4c-1,0-2,0-2.9-0.1c-0.9-0.1-1.7-0.3-2.5-0.5c0,0.5,0.1,0.9,0.2,1.3
				c0.1,0.4,0.4,0.7,0.8,1s0.9,0.5,1.6,0.6c0.7,0.2,1.6,0.2,2.8,0.2c0.6,0,1.2,0,1.8-0.1c0.7,0,1.4-0.1,2.1-0.2
				c0.7-0.1,1.4-0.2,2.1-0.3c0.7-0.1,1.4-0.3,2-0.5v5.2c-0.6,0.1-1.2,0.3-2,0.4c-0.7,0.1-1.4,0.2-2.2,0.3c-0.7,0.1-1.5,0.1-2.2,0.2
				c-0.7,0-1.4,0.1-2.1,0.1H228.4z M229.4,19.7c-0.9,0-1.7,0.1-2.3,0.2c-0.6,0.1-1.1,0.3-1.5,0.5s-0.7,0.5-0.9,0.8
				c-0.2,0.3-0.4,0.6-0.4,1c0.7,0.2,1.4,0.3,2.2,0.4s1.7,0.1,2.7,0.1c1,0,1.8,0,2.4-0.1c0.6-0.1,1-0.2,1.3-0.3
				c0.3-0.1,0.4-0.3,0.5-0.4s0.1-0.3,0.1-0.5c0-0.2,0-0.3-0.1-0.5c-0.1-0.2-0.2-0.4-0.5-0.5c-0.3-0.2-0.7-0.3-1.2-0.4
				C231,19.8,230.3,19.7,229.4,19.7z"/>
			<path class="st1" d="M248.1,24.8l-6.2-7.3v-1.4h5.3l4.1,4.9l4.1-4.9h5.2v1.4l-6.2,7.3l6.2,7.3v1.4h-5.2l-4.1-4.9l-4.1,4.9h-5.3
				V32L248.1,24.8z"/>
		</g>
	</g>
	<g>
		<linearGradient id="SVGID_2_" gradientUnits="userSpaceOnUse" x1="17.7068" y1="1.9027" x2="-8.2867" y2="28.3961">
			<stop  offset="4.772727e-02" style="stop-color:#32CAFD"/>
			<stop  offset="0.9398" style="stop-color:#06DCE0"/>
		</linearGradient>
		<path class="st2" d="M32.5,2.2c-0.4-1.1-1.5-1.8-2.6-1.8h-27C1.3,0.4,0,1.7,0,3.3V6v7.2v17c0,1.2,0.7,2.2,1.8,2.6
			c0.4,0.1,0.7,0.2,1.1,0.2c0.7,0,1.5-0.3,2-0.8l10.6-10.6L31.9,5.3C32.7,4.5,33,3.2,32.5,2.2z"/>
		<linearGradient id="SVGID_3_" gradientUnits="userSpaceOnUse" x1="4.0394" y1="15.5977" x2="14.11" y2="5.527">
			<stop  offset="6.122449e-02" style="stop-color:#3457A5"/>
			<stop  offset="0.9133" style="stop-color:#28415D;stop-opacity:0"/>
		</linearGradient>
		<path class="st3" d="M0,2.8c0,0,0.5-2.4,2.9-2.4c0.9,0,12.3-1.3,15.8,0.8c6.1,3.8,5.1,12.2,5.1,12.2L12.6,24.6L2.4,15.2L0,8.3V2.8
			z"/>
		<linearGradient id="SVGID_4_" gradientUnits="userSpaceOnUse" x1="27.9449" y1="11.9475" x2="4.4625" y2="35.8815">
			<stop  offset="4.772727e-02" style="stop-color:#32CAFD"/>
			<stop  offset="0.9398" style="stop-color:#06DCE0"/>
		</linearGradient>
		<path class="st4" d="M31.9,38.3L15.5,21.7L0,6v7.2v17v10c0,1.6,1.3,2.9,2.9,2.9h27c1.2,0,2.2-0.7,2.6-1.8
			C33,40.3,32.7,39.1,31.9,38.3z"/>
	</g>
	<linearGradient id="SVGID_5_" gradientUnits="userSpaceOnUse" x1="55.9159" y1="10.9967" x2="37.9855" y2="28.927">
		<stop  offset="4.772727e-02" style="stop-color:#32CAFD"/>
		<stop  offset="0.9398" style="stop-color:#06DCE0"/>
	</linearGradient>
	<path class="st5" d="M66.3,20.6c-0.1-0.3-0.3-0.6-0.6-0.9L47.2,1.2c-0.5-0.5-1.3-0.8-2-0.8c-0.8,0-1.5,0.3-2,0.8L24.6,19.8
		c-1.1,1.1-1.1,2.9,0,4l18.5,18.5c0.3,0.3,0.6,0.5,1,0.7c0.3,0.1,0.7,0.2,1,0.2c0.8,0,1.5-0.3,2-0.8l1.8-1.8c0,0,0,0,0,0l16.8-16.8
		C66.5,22.9,66.7,21.7,66.3,20.6z"/>
	<linearGradient id="SVGID_6_" gradientUnits="userSpaceOnUse" x1="62.287" y1="16.9937" x2="43.745" y2="35.5358">
		<stop  offset="4.772727e-02" style="stop-color:#32CAFD"/>
		<stop  offset="0.9398" style="stop-color:#06DCE0"/>
	</linearGradient>
	<path class="st6" d="M48.9,40.6C48.9,40.6,48.9,40.6,48.9,40.6l16.8-16.8c0.5-0.5,0.7-1,0.8-1.6H48.1c-1.3,0-2.4,0.9-2.8,2.1v18.8
		c0.7,0,1.4-0.3,1.9-0.8L48.9,40.6z"/>
</g>
</svg>
