<svg xmlns="http://www.w3.org/2000/svg" xmlns:xlink="http://www.w3.org/1999/xlink" width="52" height="59" viewBox="0 0 52 59"><defs><path id="cwxya" d="M544.64 1916.34h-49.61v-42.5h7.21c-1.73-3.94 1.93-9.28 2.36-9.88l.04-.06c2.7-3.52 5.3-3.86 7-3.53 2.75.54 5.26 3.22 7.47 7.95.21.44.4.89.59 1.32 1.63-3.88 4.33-8.53 8.09-9.27 1.7-.33 4.3.01 7 3.53l.04.06c.42.6 4.09 5.94 2.35 9.87h7.46zm-45.6-4.02h41.59v-15h-18.8v9.47h-4v-9.48H506.9v-4.02h10.92v-15.43h-18.8zm41.59-19.03v-15.43h-18.8v15.43zm-32.3-20.05h8.48c-1.45-4-3.82-8.5-5.94-8.92-1.07-.2-2.23.96-3.02 2-1.14 1.62-2.53 4.6-1.93 5.9.33.72 1.61.95 2.4 1.02zm14.28 0h8.5c.78-.07 2.07-.3 2.4-1.01.58-1.26-.74-4.23-1.93-5.91-.8-1.04-1.95-2.2-3.02-2-2.12.41-4.5 4.93-5.95 8.92z"/></defs><g><g transform="translate(-494 -1859)"><use fill="#0066cd" xlink:href="#cwxya"/></g></g></svg>