<svg xmlns="http://www.w3.org/2000/svg" xmlns:xlink="http://www.w3.org/1999/xlink" width="63" height="50" viewBox="0 0 63 50"><defs><path id="uxbla" d="M796.84 1879.95a11.3 11.3 0 0 1-.88-4.45 11.44 11.44 0 0 1 3.32-8.14 11.33 11.33 0 0 1 8.13-3.32 11.27 11.27 0 0 1 8.08 3.32 11.36 11.36 0 0 1 3.31 8.14 11.3 11.3 0 0 1-6.95 10.53c-1.4.6-2.87.89-4.44.89a11.39 11.39 0 0 1-10.57-6.97zm3.72-4.45c0 1.93.65 3.56 1.95 4.88a6.58 6.58 0 0 0 4.9 1.98 6.6 6.6 0 0 0 4.87-1.98 6.63 6.63 0 0 0 1.98-4.88c0-1.96-.66-3.6-1.98-4.9a6.66 6.66 0 0 0-4.87-1.95 6.66 6.66 0 0 0-6.85 6.86zM788 1911.63v-8.7a11.45 11.45 0 0 1 3.32-8.14 11.34 11.34 0 0 1 8.08-3.32h15.99a11.41 11.41 0 0 1 8.1 3.32 11.59 11.59 0 0 1 3.3 8.15v8.69h-4.55v-8.7c0-1.96-.66-3.59-1.98-4.9a6.66 6.66 0 0 0-4.87-1.95h-16c-1.92 0-3.54.65-4.86 1.95a6.61 6.61 0 0 0-1.98 4.9v8.7zm52.26-12.2h-.88v3.72h-4v-3.71h-5.1v-4.02h9.98a2.75 2.75 0 0 0 0-5.5h-5.77a6.77 6.77 0 0 1 0-13.52h.88v-3.88h4v3.88H843v4.01h-8.5a2.75 2.75 0 0 0 0 5.5h5.76a6.77 6.77 0 0 1 0 13.53z"/></defs><g><g transform="translate(-786 -1863)"><use fill="#0066cd" xlink:href="#uxbla"/></g></g></svg>