<svg xmlns="http://www.w3.org/2000/svg" xmlns:xlink="http://www.w3.org/1999/xlink" width="62" height="61" viewBox="0 0 62 61"><defs><path id="4omoa" d="M1397.49 1919a29.53 29.53 0 0 1-29.5-29.5 29.53 29.53 0 0 1 29.5-29.5 29.53 29.53 0 0 1 29.5 29.5 29.53 29.53 0 0 1-29.5 29.5zm0-55a25.52 25.52 0 0 0-25.5 25.5 25.52 25.52 0 0 0 25.5 25.49 25.52 25.52 0 0 0 25.5-25.5 25.52 25.52 0 0 0-25.5-25.48zm2.52 34.7h-.52v2.99h-4v-3h-4.21v-4h8.73a2.15 2.15 0 0 0 0-4.3h-5.04a6.16 6.16 0 0 1 0-12.3h.52v-3.14h4v3.14h2.92v4h-7.44a2.15 2.15 0 0 0 0 4.3h5.04a6.16 6.16 0 0 1 0 12.3zm-2.52 12.46a21.7 21.7 0 0 1-21.67-21.66 21.7 21.7 0 0 1 21.67-21.67 21.7 21.7 0 0 1 21.67 21.67h-4c0-9.74-7.93-17.66-17.67-17.66a17.69 17.69 0 0 0-17.67 17.66c0 9.74 7.93 17.66 17.67 17.66z"/></defs><g><g transform="translate(-1366 -1859)"><use fill="#0066cd" xlink:href="#4omoa"/></g></g></svg>