<svg xmlns="http://www.w3.org/2000/svg" xmlns:xlink="http://www.w3.org/1999/xlink" width="26" height="25" viewBox="0 0 26 25"><defs><path id="xoa5a" d="M1284.63 3264c-1.24-.07-2.5-.4-3.93-1.03a18.92 18.92 0 0 1-3.81-2.24 37.53 37.53 0 0 1-2.07-1.7 26.1 26.1 0 0 1-5.25-6.4c-1-1.75-1.58-3.29-1.86-4.85a7.1 7.1 0 0 1 .05-2.95c.22-.9.68-1.68 1.36-2.33l.22-.2.42-.4c.45-.4.98-.56 1.34-.63l.17-.06h.78l.12.04.22.06c.23.07.49.14.75.3.39.25.72.56 1 .83a79.44 79.44 0 0 1 1.94 1.97 3.23 3.23 0 0 1-.05 4.67c-.1.1-.2.21-.33.32-.12.1-.26.23-.1.74.25.82.76 1.5 1.26 2.12.68.84 1.43 1.6 2.21 2.27.46.4 1.08.88 1.8 1.2.3.14.54.2.75.19.14 0 .19-.05.23-.08l.31-.32.22-.22a3.04 3.04 0 0 1 4.4-.01l2.32 2.36a3.11 3.11 0 0 1 .2 4.19l-1.16-.98c.52-.64.48-1.52-.12-2.14-.73-.76-1.5-1.55-2.3-2.35a1.54 1.54 0 0 0-2.29.02l-.2.2-.33.34c-.33.32-.75.5-1.23.52a3.18 3.18 0 0 1-1.4-.32 9.02 9.02 0 0 1-2.17-1.44 19.22 19.22 0 0 1-2.4-2.45 7.96 7.96 0 0 1-1.54-2.64c-.37-1.23.1-1.96.57-2.36a2.92 2.92 0 0 0 .33-.34 1.68 1.68 0 0 0-.03-2.4 69.3 69.3 0 0 1-.97-.98l-.97-.98a4.72 4.72 0 0 0-.75-.63c-.07-.04-.22-.08-.36-.13l-.17-.04h-.3l-.08.01c-.32.07-.53.16-.68.3l-.37.35-.23.22c-.48.45-.78.96-.93 1.58a5.6 5.6 0 0 0-.02 2.31 13.3 13.3 0 0 0 1.68 4.36c.6 1.05 1.32 2.09 2.2 3.15a24.3 24.3 0 0 0 2.72 2.86c.64.55 1.3 1.1 1.99 1.62 1.1.83 2.28 1.53 3.5 2.07 1.28.56 2.36.84 3.42.9z"/></defs><g><g transform="translate(-1266 -3240)"><use fill="#3f7fcf" xlink:href="#xoa5a"/></g></g></svg>