<svg xmlns="http://www.w3.org/2000/svg" xmlns:xlink="http://www.w3.org/1999/xlink" viewBox="0 0 286.1 200.7"><defs><style>.a{fill:none;}.b{fill:#393530;}.c{fill:url(#a);}.d,.p{fill:#fff;}.e{fill:url(#b);}.f{fill:url(#c);}.g{fill:#b2b3b4;}.h{fill:url(#d);}.i{opacity:0.76;}.j{isolation:isolate;}.k{opacity:0.44;}.l{clip-path:url(#e);}.m{opacity:0.21;}.n{fill:#6b6b6c;}.o{fill:url(#f);}.p,.t{stroke-miterlimit:10;}.p{stroke:url(#g);}.q{opacity:0.49;}.r{fill:url(#h);}.s{fill:#515151;}.t{fill:#ededed;stroke:url(#i);}.u{opacity:0.28;}.v{fill:url(#j);}.w{fill:url(#k);}.x{fill:url(#l);}.y{fill:url(#m);}.z{fill:url(#n);}.aa{fill:url(#o);}.ab{fill:url(#p);}.ac{fill:url(#q);}.ad{fill:url(#r);}.ae{fill:url(#s);}.af{fill:#c16ab2;}.ag{fill:#d279ba;}.ah{fill:url(#t);}.ai{fill:#fad646;}.aj{fill:#4fb691;}.ak{fill:#319b53;}.al{fill:url(#u);}.am{fill:url(#v);}.an{fill:url(#w);}.ao{fill:url(#x);}</style><linearGradient id="a" x1="1321.23" y1="177.63" x2="1217.13" y2="235.64" gradientTransform="translate(1329.49 245.59) rotate(180)" gradientUnits="userSpaceOnUse"><stop offset="0" stop-color="#fffffc"/><stop offset="0.98" stop-color="#cacbcd"/></linearGradient><linearGradient id="b" x1="1125.49" y1="106.39" x2="1326.89" y2="106.39" gradientTransform="translate(1329.49 245.59) rotate(180)" gradientUnits="userSpaceOnUse"><stop offset="0" stop-color="#dddee0"/><stop offset="0.02" stop-color="#ddddde"/><stop offset="0.88" stop-color="#fff"/></linearGradient><linearGradient id="c" x1="1318.51" y1="83.93" x2="1267.96" y2="57.49" gradientTransform="translate(1329.49 245.59) rotate(180)" gradientUnits="userSpaceOnUse"><stop offset="0.02" stop-color="#c4c4c4"/><stop offset="0.95" stop-color="#908d91"/></linearGradient><linearGradient id="d" x1="1332.06" y1="163.93" x2="1323.72" y2="101.75" gradientTransform="translate(1366.59 271.89) rotate(180)" gradientUnits="userSpaceOnUse"><stop offset="0.02" stop-color="#c4c4c4"/><stop offset="0.95" stop-color="#9a969b"/></linearGradient><clipPath id="e" transform="translate(-37.1 -26.3)"><polygon class="a" points="194 170.9 179.1 162.3 141.5 184 156.4 192.6 194 170.9"/></clipPath><linearGradient id="f" x1="210" y1="131.19" x2="276.8" y2="131.19" gradientTransform="matrix(1, 0, 0, -1, -37.1, 245.59)" gradientUnits="userSpaceOnUse"><stop offset="0.02" stop-color="#e5e5e5"/><stop offset="0.95" stop-color="#9d9a9e"/></linearGradient><linearGradient id="g" x1="221.1" y1="147.69" x2="305.8" y2="147.69" gradientTransform="matrix(1, 0, 0, -1, -37.1, 245.59)" gradientUnits="userSpaceOnUse"><stop offset="0.02" stop-color="#fff"/><stop offset="1" stop-color="#c7d5d2"/></linearGradient><linearGradient id="h" x1="225.2" y1="82.54" x2="278.23" y2="82.54" xlink:href="#f"/><linearGradient id="i" x1="231.69" y1="93.54" x2="295.91" y2="93.54" xlink:href="#g"/><linearGradient id="j" x1="295.72" y1="82.58" x2="286.16" y2="78.56" gradientTransform="matrix(1, 0, 0, -1, 0, 271.89)" xlink:href="#b"/><linearGradient id="k" x1="229.69" y1="180.45" x2="223.47" y2="197.75" gradientTransform="matrix(1, 0, 0, -1, 0, 271.89)" gradientUnits="userSpaceOnUse"><stop offset="0.13" stop-color="#3a3a97"/><stop offset="0.96" stop-color="#3054a0"/></linearGradient><linearGradient id="l" x1="218.87" y1="185.01" x2="232.08" y2="185.01" gradientTransform="matrix(1, 0, 0, -1, 0, 271.89)" gradientUnits="userSpaceOnUse"><stop offset="0.02" stop-color="#1c95c2"/><stop offset="0.96" stop-color="#246fb0"/></linearGradient><linearGradient id="m" x1="179.57" y1="201.09" x2="196.77" y2="201.09" gradientTransform="matrix(1, 0, 0, -1, -37.1, 245.59)" gradientUnits="userSpaceOnUse"><stop offset="0.02" stop-color="#ef612e"/><stop offset="0.96" stop-color="#dc381d"/></linearGradient><linearGradient id="n" x1="188.04" y1="196.21" x2="193.54" y2="196.21" xlink:href="#k"/><linearGradient id="o" x1="194.61" y1="200.13" x2="191.45" y2="190.5" gradientTransform="matrix(1, 0, 0, -1, 0, 271.89)" gradientUnits="userSpaceOnUse"><stop offset="0.05" stop-color="#1c95c2"/><stop offset="0.18" stop-color="#1c95c2"/></linearGradient><linearGradient id="p" x1="199.38" y1="201.19" x2="199.18" y2="190.62" xlink:href="#k"/><linearGradient id="q" x1="181.33" y1="208.25" x2="203.04" y2="208.25" gradientTransform="matrix(1, 0, 0, -1, 0, 271.89)" xlink:href="#m"/><linearGradient id="r" x1="179.99" y1="194.71" x2="190.1" y2="206.14" gradientTransform="matrix(1, 0, 0, -1, 0, 271.89)" gradientUnits="userSpaceOnUse"><stop offset="0.74" stop-color="#f48e37"/><stop offset="0.96" stop-color="#f37f3a"/></linearGradient><linearGradient id="s" x1="161.35" y1="64.68" x2="178.55" y2="64.68" gradientTransform="translate(339.3 245.59) rotate(180)" gradientUnits="userSpaceOnUse"><stop offset="0.05" stop-color="#f57b3d"/><stop offset="0.96" stop-color="#fbac3f"/></linearGradient><linearGradient id="t" x1="163.1" y1="71.84" x2="184.82" y2="71.84" gradientTransform="translate(376.4 271.89) rotate(180)" xlink:href="#s"/><linearGradient id="u" x1="198.8" y1="176.74" x2="213.73" y2="176.74" gradientTransform="matrix(1, 0, 0, -1, 0, 271.89)" xlink:href="#m"/><linearGradient id="v" x1="196.47" y1="182.94" x2="212.9" y2="168.14" xlink:href="#r"/><linearGradient id="w" x1="195.77" y1="182.16" x2="212.21" y2="167.36" gradientTransform="matrix(1, 0, 0, -1, 0, 271.89)" gradientUnits="userSpaceOnUse"><stop offset="0.02" stop-color="#f0b928"/><stop offset="0.96" stop-color="#f37f3a"/></linearGradient><linearGradient id="x" x1="197.23" y1="183.78" x2="213.67" y2="168.98" xlink:href="#w"/></defs><title>picture_2section1</title><polygon class="b" points="2.4 73.8 2.6 153.6 128.3 81.1 128 1.3 2.4 73.8"/><polygon class="c" points="128 1.3 125.6 0 0 72.5 2.4 73.8 128 1.3"/><polygon class="d" points="11.4 76 11.5 139 120.5 76.9 120.3 13.9 11.4 76"/><polygon class="e" points="2.6 153.5 78.4 197.4 204 124.9 128.3 81 2.6 153.5"/><polygon class="f" points="2.6 153.5 2.7 156.8 78.4 200.7 78.4 197.4 2.6 153.5"/><path class="g" d="M115.5,223.7V227l123.2-71.1s2.4-1.5,2.4-3.5v-1.2Z" transform="translate(-37.1 -26.3)"/><path class="h" d="M39.5,100.1l-2.4-1.3s0.3,69.3.3,74.3,2.1,7.1,2.1,7.1l0.2-.3Z" transform="translate(-37.1 -26.3)"/><g class="i"><g class="j"><path class="d" d="M171.8,191.1s0.7,1.3,3,.3c0.8-.5,13.1-7.6,13.1-7.6l0.3-.2,0.3-.3,0.3-.3,0.2-.4,0.2-.4,0.2-.4,0.1-.4v-0.5" transform="translate(-37.1 -26.3)"/></g></g><g class="j"><path class="b" d="M154.9,127.9l4.8-2.8a2.33,2.33,0,0,1,2,0l4.8,2.8a0.59,0.59,0,0,1,0,1.1l-4.8,2.8a2.33,2.33,0,0,1-2,0l-4.8-2.8c-0.6-.3-0.6-0.8,0-1.1" transform="translate(-37.1 -26.3)"/><path class="b" d="M162.3,123.6l4.8-2.8a2.33,2.33,0,0,1,2,0l4.8,2.8a0.59,0.59,0,0,1,0,1.1l-4.8,2.8a2.33,2.33,0,0,1-2,0l-4.8-2.8c-0.6-.2-0.6-0.7,0-1.1" transform="translate(-37.1 -26.3)"/><path class="b" d="M140.1,136.4l4.8-2.8a2.33,2.33,0,0,1,2,0l4.8,2.8a0.59,0.59,0,0,1,0,1.1l-4.8,2.8a2.33,2.33,0,0,1-2,0l-4.8-2.8a0.59,0.59,0,0,1,0-1.1" transform="translate(-37.1 -26.3)"/><path class="b" d="M147.5,132.2l4.8-2.8a2.33,2.33,0,0,1,2,0l4.8,2.8a0.59,0.59,0,0,1,0,1.1l-4.8,2.8a2.33,2.33,0,0,1-2,0l-4.8-2.8a0.59,0.59,0,0,1,0-1.1" transform="translate(-37.1 -26.3)"/><path class="b" d="M125.4,144.9l4.8-2.8a2.33,2.33,0,0,1,2,0l4.8,2.8a0.59,0.59,0,0,1,0,1.1l-4.8,2.8a2.33,2.33,0,0,1-2,0l-4.8-2.8c-0.6-.2-0.6-0.7,0-1.1" transform="translate(-37.1 -26.3)"/><path class="b" d="M132.7,140.7l4.8-2.8a2.33,2.33,0,0,1,2,0l4.8,2.8a0.59,0.59,0,0,1,0,1.1l-4.8,2.8a2.33,2.33,0,0,1-2,0l-4.8-2.8a0.59,0.59,0,0,1,0-1.1" transform="translate(-37.1 -26.3)"/><path class="b" d="M110.6,153.5l4.8-2.8a2.33,2.33,0,0,1,2,0l4.8,2.8a0.59,0.59,0,0,1,0,1.1l-4.8,2.8a2.33,2.33,0,0,1-2,0l-4.8-2.8a0.59,0.59,0,0,1,0-1.1" transform="translate(-37.1 -26.3)"/><path class="b" d="M118,149.2l4.8-2.8a2.33,2.33,0,0,1,2,0l4.8,2.8a0.59,0.59,0,0,1,0,1.1l-4.8,2.8a2.33,2.33,0,0,1-2,0l-4.8-2.8c-0.6-.3-0.5-0.8,0-1.1" transform="translate(-37.1 -26.3)"/><path class="b" d="M103.2,157.7l4.8-2.8a2.33,2.33,0,0,1,2,0l4.8,2.8a0.59,0.59,0,0,1,0,1.1l-4.8,2.8a2.33,2.33,0,0,1-2,0l-4.8-2.8c-0.5-.2-0.5-0.7,0-1.1" transform="translate(-37.1 -26.3)"/><path class="b" d="M88.4,166.3l4.8-2.8a2.33,2.33,0,0,1,2,0l4.8,2.8a0.59,0.59,0,0,1,0,1.1l-4.8,2.8a2.33,2.33,0,0,1-2,0l-4.8-2.8a0.59,0.59,0,0,1,0-1.1" transform="translate(-37.1 -26.3)"/><path class="b" d="M95.8,162l4.8-2.8a2.33,2.33,0,0,1,2,0l4.8,2.8a0.59,0.59,0,0,1,0,1.1l-4.8,2.8a2.33,2.33,0,0,1-2,0l-4.8-2.8c-0.6-.3-0.6-0.8,0-1.1" transform="translate(-37.1 -26.3)"/><path class="b" d="M73.7,174.8l4.8-2.8a2.33,2.33,0,0,1,2,0l4.8,2.8a0.59,0.59,0,0,1,0,1.1l-4.8,2.8a2.33,2.33,0,0,1-2,0l-4.8-2.8c-0.6-.3-0.6-0.8,0-1.1" transform="translate(-37.1 -26.3)"/><path class="b" d="M81.1,170.5l4.8-2.8a2.33,2.33,0,0,1,2,0l4.8,2.8a0.59,0.59,0,0,1,0,1.1l-4.8,2.8a2.33,2.33,0,0,1-2,0l-4.8-2.8c-0.6-.2-0.6-0.8,0-1.1" transform="translate(-37.1 -26.3)"/><path class="b" d="M99.2,168.2l4.8-2.8a2.33,2.33,0,0,1,2,0l4.8,2.8a0.59,0.59,0,0,1,0,1.1l-4.8,2.8a2.33,2.33,0,0,1-2,0l-4.8-2.8a0.59,0.59,0,0,1,0-1.1" transform="translate(-37.1 -26.3)"/><path class="b" d="M84.4,176.8l4.8-2.8a2.33,2.33,0,0,1,2,0l4.8,2.8a0.59,0.59,0,0,1,0,1.1l-4.8,2.8a2.33,2.33,0,0,1-2,0l-4.8-2.8a0.59,0.59,0,0,1,0-1.1" transform="translate(-37.1 -26.3)"/><path class="b" d="M91.8,172.5l4.8-2.8a2.33,2.33,0,0,1,2,0l4.8,2.8a0.59,0.59,0,0,1,0,1.1l-4.8,2.8a2.33,2.33,0,0,1-2,0l-4.8-2.8a0.59,0.59,0,0,1,0-1.1" transform="translate(-37.1 -26.3)"/><path class="b" d="M69.7,185.3l4.8-2.8a2.33,2.33,0,0,1,2,0l4.8,2.8a0.59,0.59,0,0,1,0,1.1l-4.8,2.8a2.33,2.33,0,0,1-2,0l-4.8-2.8a0.59,0.59,0,0,1,0-1.1" transform="translate(-37.1 -26.3)"/><path class="b" d="M77.1,181l4.8-2.8a2.33,2.33,0,0,1,2,0l4.8,2.8a0.59,0.59,0,0,1,0,1.1l-4.8,2.8a2.33,2.33,0,0,1-2,0l-4.8-2.8c-0.6-.3-0.6-0.8,0-1.1" transform="translate(-37.1 -26.3)"/><path class="b" d="M136.2,146.9l4.8-2.8a2.33,2.33,0,0,1,2,0l4.8,2.8a0.59,0.59,0,0,1,0,1.1l-4.8,2.8a2.33,2.33,0,0,1-2,0l-4.8-2.8c-0.6-.3-0.6-0.8,0-1.1" transform="translate(-37.1 -26.3)"/><path class="b" d="M121.4,155.4l4.8-2.8a2.33,2.33,0,0,1,2,0l4.8,2.8a0.59,0.59,0,0,1,0,1.1l-4.8,2.8a2.33,2.33,0,0,1-2,0l-4.8-2.8c-0.6-.2-0.6-0.8,0-1.1" transform="translate(-37.1 -26.3)"/><path class="b" d="M128.7,151.2l4.8-2.8a2.33,2.33,0,0,1,2,0l4.8,2.8a0.59,0.59,0,0,1,0,1.1l-4.8,2.8a2.33,2.33,0,0,1-2,0l-4.8-2.8a0.59,0.59,0,0,1,0-1.1" transform="translate(-37.1 -26.3)"/><path class="b" d="M158.3,134.1l4.8-2.8a2.33,2.33,0,0,1,2,0l4.8,2.8a0.59,0.59,0,0,1,0,1.1L165,138a2.33,2.33,0,0,1-2,0l-4.8-2.8c-0.5-.2-0.5-0.8.1-1.1" transform="translate(-37.1 -26.3)"/><path class="b" d="M143.5,142.7l4.8-2.8a2.33,2.33,0,0,1,2,0l4.8,2.8a0.59,0.59,0,0,1,0,1.1l-4.8,2.8a2.33,2.33,0,0,1-2,0l-4.8-2.8c-0.6-.3-0.6-0.8,0-1.1" transform="translate(-37.1 -26.3)"/><path class="b" d="M150.9,138.4l4.8-2.8a2.33,2.33,0,0,1,2,0l4.8,2.8a0.59,0.59,0,0,1,0,1.1l-4.8,2.8a2.33,2.33,0,0,1-2,0l-4.8-2.8c-0.6-.3-0.6-0.8,0-1.1" transform="translate(-37.1 -26.3)"/><path class="b" d="M106.6,163.9l4.8-2.8a2.33,2.33,0,0,1,2,0l4.8,2.8a0.59,0.59,0,0,1,0,1.1l-4.8,2.8a2.33,2.33,0,0,1-2,0l-4.8-2.8c-0.5-.2-0.5-0.7,0-1.1" transform="translate(-37.1 -26.3)"/><path class="b" d="M114,159.7l4.8-2.8a2.33,2.33,0,0,1,2,0l4.8,2.8a0.59,0.59,0,0,1,0,1.1l-4.8,2.8a2.33,2.33,0,0,1-2,0l-4.8-2.8a0.59,0.59,0,0,1,0-1.1" transform="translate(-37.1 -26.3)"/><path class="b" d="M104.7,173.5l4.8-2.8a2.33,2.33,0,0,1,2,0l4.8,2.8a0.59,0.59,0,0,1,0,1.1l-4.8,2.8a2.33,2.33,0,0,1-2,0l-4.8-2.8c-0.6-.3-0.6-0.8,0-1.1" transform="translate(-37.1 -26.3)"/><path class="b" d="M89.9,182l4.8-2.8a2.33,2.33,0,0,1,2,0l4.8,2.8a0.59,0.59,0,0,1,0,1.1l-4.8,2.8a2.33,2.33,0,0,1-2,0l-4.8-2.8c-0.6-.3-0.6-0.8,0-1.1" transform="translate(-37.1 -26.3)"/><path class="b" d="M97.2,177.7l4.8-2.8a2.33,2.33,0,0,1,2,0l4.8,2.8a0.59,0.59,0,0,1,0,1.1l-4.8,2.8a2.33,2.33,0,0,1-2,0l-4.8-2.8c-0.5-.2-0.5-0.7,0-1.1" transform="translate(-37.1 -26.3)"/><path class="b" d="M141.6,152.1l4.8-2.8a2.33,2.33,0,0,1,2,0l4.8,2.8a0.59,0.59,0,0,1,0,1.1l-4.8,2.8a2.33,2.33,0,0,1-2,0l-4.8-2.8c-0.6-.2-0.5-0.8,0-1.1" transform="translate(-37.1 -26.3)"/><path class="b" d="M126.8,160.7l4.8-2.8a2.33,2.33,0,0,1,2,0l4.8,2.8a0.59,0.59,0,0,1,0,1.1l-4.8,2.8a2.33,2.33,0,0,1-2,0l-4.8-2.8a0.59,0.59,0,0,1,0-1.1" transform="translate(-37.1 -26.3)"/><path class="b" d="M134.2,156.4l4.8-2.8a2.33,2.33,0,0,1,2,0l4.8,2.8a0.59,0.59,0,0,1,0,1.1l-4.8,2.8a2.33,2.33,0,0,1-2,0l-4.8-2.8c-0.6-.3-0.6-0.8,0-1.1" transform="translate(-37.1 -26.3)"/><path class="b" d="M163.7,139.4l4.8-2.8a2.33,2.33,0,0,1,2,0l4.8,2.8a0.59,0.59,0,0,1,0,1.1l-4.8,2.8a2.33,2.33,0,0,1-2,0l-4.8-2.8a0.59,0.59,0,0,1,0-1.1" transform="translate(-37.1 -26.3)"/><path class="b" d="M148.9,147.9l4.8-2.8a2.33,2.33,0,0,1,2,0l4.8,2.8a0.59,0.59,0,0,1,0,1.1l-4.8,2.8a2.33,2.33,0,0,1-2,0l-4.8-2.8a0.59,0.59,0,0,1,0-1.1" transform="translate(-37.1 -26.3)"/><path class="b" d="M156.3,143.6l4.8-2.8a2.33,2.33,0,0,1,2,0l4.8,2.8a0.59,0.59,0,0,1,0,1.1l-4.8,2.8a2.33,2.33,0,0,1-2,0l-4.8-2.8c-0.6-.2-0.6-0.7,0-1.1" transform="translate(-37.1 -26.3)"/><path class="b" d="M112.1,169.2l4.8-2.8a2.33,2.33,0,0,1,2,0l4.8,2.8a0.59,0.59,0,0,1,0,1.1l-4.8,2.8a2.33,2.33,0,0,1-2,0l-4.8-2.8c-0.6-.3-0.6-0.8,0-1.1" transform="translate(-37.1 -26.3)"/><path class="b" d="M119.4,164.9l4.8-2.8a2.33,2.33,0,0,1,2,0l4.8,2.8a0.59,0.59,0,0,1,0,1.1l-4.8,2.8a2.33,2.33,0,0,1-2,0l-4.8-2.8a0.59,0.59,0,0,1,0-1.1" transform="translate(-37.1 -26.3)"/><path class="b" d="M108.1,179.7l4.8-2.8a2.33,2.33,0,0,1,2,0l4.8,2.8a0.59,0.59,0,0,1,0,1.1l-4.8,2.8a2.33,2.33,0,0,1-2,0l-4.8-2.8a0.59,0.59,0,0,1,0-1.1" transform="translate(-37.1 -26.3)"/><path class="b" d="M100.7,184l4.8-2.8a2.33,2.33,0,0,1,2,0l4.8,2.8a0.59,0.59,0,0,1,0,1.1l-4.8,2.8a2.33,2.33,0,0,1-2,0l-4.8-2.8a0.59,0.59,0,0,1,0-1.1" transform="translate(-37.1 -26.3)"/><path class="b" d="M145.1,158.4l4.8-2.8a2.33,2.33,0,0,1,2,0l4.8,2.8a0.59,0.59,0,0,1,0,1.1l-4.8,2.8a2.33,2.33,0,0,1-2,0l-4.8-2.8c-0.6-.3-0.6-0.8,0-1.1" transform="translate(-37.1 -26.3)"/><path class="b" d="M130.3,166.9l4.8-2.8a2.33,2.33,0,0,1,2,0l4.8,2.8a0.59,0.59,0,0,1,0,1.1l-4.8,2.8a2.33,2.33,0,0,1-2,0l-4.8-2.8c-0.6-.2-0.5-0.8,0-1.1" transform="translate(-37.1 -26.3)"/><path class="b" d="M137.7,162.7l4.8-2.8a2.33,2.33,0,0,1,2,0l4.8,2.8a0.59,0.59,0,0,1,0,1.1l-4.8,2.8a2.33,2.33,0,0,1-2,0l-4.8-2.8c-0.6-.3-0.6-0.8,0-1.1" transform="translate(-37.1 -26.3)"/><path class="b" d="M167.2,145.6l4.8-2.8a2.33,2.33,0,0,1,2,0l4.8,2.8a0.59,0.59,0,0,1,0,1.1l-4.8,2.8a2.33,2.33,0,0,1-2,0l-4.8-2.8c-0.6-.2-0.6-0.8,0-1.1" transform="translate(-37.1 -26.3)"/><path class="b" d="M190.9,140.3l4.8-2.8a2.25,2.25,0,0,1,2.1.1l5.4,3.1c0.6,0.4.7,0.9,0.1,1.2l-4.8,2.8a2.25,2.25,0,0,1-2.1-.1l-5.4-3.1c-0.6-.4-0.7-0.9-0.1-1.2" transform="translate(-37.1 -26.3)"/><path class="b" d="M183.5,144.5l4.8-2.8a2.25,2.25,0,0,1,2.1.1l5.4,3.1c0.6,0.4.7,0.9,0.1,1.2l-4.8,2.8a2.25,2.25,0,0,1-2.1-.1l-5.4-3.1c-0.6-.3-0.7-0.9-0.1-1.2" transform="translate(-37.1 -26.3)"/><path class="b" d="M176.1,148.8l4.8-2.8a2.25,2.25,0,0,1,2.1.1l5.4,3.1c0.6,0.4.7,0.9,0.1,1.2l-4.8,2.8a2.25,2.25,0,0,1-2.1-.1l-5.4-3.1c-0.6-.4-0.6-0.9-0.1-1.2" transform="translate(-37.1 -26.3)"/><path class="b" d="M113.3,185l4.8-2.8a2.25,2.25,0,0,1,2.1.1l5.4,3.1c0.6,0.4.7,0.9,0.1,1.2l-4.8,2.8a2.25,2.25,0,0,1-2.1-.1l-5.4-3.1a0.65,0.65,0,0,1-.1-1.2" transform="translate(-37.1 -26.3)"/><path class="b" d="M152.4,154.2l4.8-2.8a2.33,2.33,0,0,1,2,0l4.8,2.8a0.59,0.59,0,0,1,0,1.1l-4.8,2.8a2.33,2.33,0,0,1-2,0l-4.8-2.8a0.59,0.59,0,0,1,0-1.1" transform="translate(-37.1 -26.3)"/><path class="b" d="M159.8,149.9l4.8-2.8a2.33,2.33,0,0,1,2,0l4.8,2.8a0.59,0.59,0,0,1,0,1.1l-4.8,2.8a2.33,2.33,0,0,1-2,0l-4.8-2.8c-0.6-.3-0.6-0.8,0-1.1" transform="translate(-37.1 -26.3)"/><path class="b" d="M115.6,175.4l4.8-2.8a2.33,2.33,0,0,1,2,0l4.8,2.8a0.59,0.59,0,0,1,0,1.1l-4.8,2.8a2.33,2.33,0,0,1-2,0l-4.8-2.8c-0.6-.2-0.6-0.7,0-1.1" transform="translate(-37.1 -26.3)"/><path class="b" d="M122.9,171.2l4.8-2.8a2.33,2.33,0,0,1,2,0l4.8,2.8a0.59,0.59,0,0,1,0,1.1l-4.8,2.8a2.33,2.33,0,0,1-2,0l-4.8-2.8a0.59,0.59,0,0,1,0-1.1" transform="translate(-37.1 -26.3)"/><path class="b" d="M157.8,121l4.8-2.8a2.33,2.33,0,0,1,2,0l2,1.2a0.59,0.59,0,0,1,0,1.1l-4.8,2.8a2.33,2.33,0,0,1-2,0l-2-1.2c-0.6-.2-0.6-0.7,0-1.1" transform="translate(-37.1 -26.3)"/><path class="b" d="M150,125.5l4.8-2.8a2.33,2.33,0,0,1,2,0l2,1.2a0.59,0.59,0,0,1,0,1.1l-4.8,2.8a2.33,2.33,0,0,1-2,0l-2-1.2a0.59,0.59,0,0,1,0-1.1" transform="translate(-37.1 -26.3)"/><path class="b" d="M142.4,129.9l4.8-2.8a2.33,2.33,0,0,1,2,0l2,1.2a0.59,0.59,0,0,1,0,1.1l-4.8,2.8a2.33,2.33,0,0,1-2,0l-2-1.2a0.59,0.59,0,0,1,0-1.1" transform="translate(-37.1 -26.3)"/><path class="b" d="M134.7,134.4l4.8-2.8a2.33,2.33,0,0,1,2,0l2,1.2a0.59,0.59,0,0,1,0,1.1l-4.8,2.8a2.33,2.33,0,0,1-2,0l-2-1.2a0.59,0.59,0,0,1,0-1.1" transform="translate(-37.1 -26.3)"/><path class="b" d="M127.2,138.7l4.8-2.8a2.33,2.33,0,0,1,2,0l2,1.2a0.59,0.59,0,0,1,0,1.1l-4.8,2.8a2.33,2.33,0,0,1-2,0l-2-1.2c-0.6-.3-0.5-0.8,0-1.1" transform="translate(-37.1 -26.3)"/><path class="b" d="M119.4,143.2l4.8-2.8a2.33,2.33,0,0,1,2,0l2,1.2a0.59,0.59,0,0,1,0,1.1l-4.8,2.8a2.33,2.33,0,0,1-2,0l-2-1.2a0.59,0.59,0,0,1,0-1.1" transform="translate(-37.1 -26.3)"/><path class="b" d="M111.8,147.6l4.8-2.8a2.33,2.33,0,0,1,2,0l2,1.2a0.59,0.59,0,0,1,0,1.1l-4.8,2.8a2.33,2.33,0,0,1-2,0l-2-1.2a0.59,0.59,0,0,1,0-1.1" transform="translate(-37.1 -26.3)"/><path class="b" d="M104.1,152l4.8-2.8a2.33,2.33,0,0,1,2,0l2,1.2a0.59,0.59,0,0,1,0,1.1l-4.8,2.8a2.33,2.33,0,0,1-2,0l-2-1.2c-0.6-.2-0.6-0.7,0-1.1" transform="translate(-37.1 -26.3)"/><path class="b" d="M96.5,156.4l4.8-2.8a2.33,2.33,0,0,1,2,0l2,1.2a0.59,0.59,0,0,1,0,1.1l-4.8,2.8a2.33,2.33,0,0,1-2,0l-2-1.2a0.59,0.59,0,0,1,0-1.1" transform="translate(-37.1 -26.3)"/><path class="b" d="M88.8,160.9l4.8-2.8a2.33,2.33,0,0,1,2,0l2,1.2a0.59,0.59,0,0,1,0,1.1l-4.8,2.8a2.33,2.33,0,0,1-2,0l-2-1.2c-0.6-.3-0.6-0.8,0-1.1" transform="translate(-37.1 -26.3)"/><path class="b" d="M81.2,165.2l4.8-2.8a2.33,2.33,0,0,1,2,0l2,1.2a0.59,0.59,0,0,1,0,1.1l-4.8,2.8a2.33,2.33,0,0,1-2,0l-2-1.2a0.59,0.59,0,0,1,0-1.1" transform="translate(-37.1 -26.3)"/><path class="b" d="M73.5,169.7l4.8-2.8a2.33,2.33,0,0,1,2,0l2,1.2a0.59,0.59,0,0,1,0,1.1L77.5,172a2.33,2.33,0,0,1-2,0l-2-1.2a0.59,0.59,0,0,1,0-1.1" transform="translate(-37.1 -26.3)"/><path class="b" d="M65.9,174.1l4.8-2.8a2.33,2.33,0,0,1,2,0l2,1.2a0.59,0.59,0,0,1,0,1.1l-4.8,2.8a2.33,2.33,0,0,1-2,0l-2-1.2c-0.6-.3-0.6-0.8,0-1.1" transform="translate(-37.1 -26.3)"/><path class="b" d="M58.1,178.6l4.8-2.8a2.33,2.33,0,0,1,2,0l2,1.2a0.59,0.59,0,0,1,0,1.1l-4.8,2.8a2.33,2.33,0,0,1-2,0l-2-1.2a0.59,0.59,0,0,1,0-1.1" transform="translate(-37.1 -26.3)"/><path class="b" d="M165.7,129.8l8.4-4.9a2.33,2.33,0,0,1,2,0l4.8,2.8a0.59,0.59,0,0,1,0,1.1l-8.4,4.9a2.33,2.33,0,0,1-2,0l-4.8-2.8c-0.5-.2-0.5-0.7,0-1.1" transform="translate(-37.1 -26.3)"/><path class="b" d="M171,135.1l10.3-5.9a2.33,2.33,0,0,1,2,0l4.8,2.8a0.59,0.59,0,0,1,0,1.1L177.8,139a2.33,2.33,0,0,1-2,0l-4.8-2.8a0.59,0.59,0,0,1,0-1.1" transform="translate(-37.1 -26.3)"/><path class="b" d="M174.4,141.5l14.1-8.1a2.33,2.33,0,0,1,2,0l4.8,2.8a0.59,0.59,0,0,1,0,1.1l-14.1,8.1a2.33,2.33,0,0,1-2,0l-4.8-2.8a0.59,0.59,0,0,1,0-1.1" transform="translate(-37.1 -26.3)"/><path class="b" d="M166.9,154.1l6.6-3.8a2.33,2.33,0,0,1,2,0l5.6,3.3a0.59,0.59,0,0,1,0,1.1l-6.6,3.8a2.33,2.33,0,0,1-2,0l-5.6-3.3a0.59,0.59,0,0,1,0-1.1" transform="translate(-37.1 -26.3)"/><path class="b" d="M120.9,180.6l6.6-3.8a2.33,2.33,0,0,1,2,0l5.6,3.3a0.59,0.59,0,0,1,0,1.1l-6.6,3.8a2.33,2.33,0,0,1-2,0l-5.6-3.3c-0.5-.2-0.5-0.7,0-1.1" transform="translate(-37.1 -26.3)"/><path class="b" d="M62.6,181.2l8.6-5a2.33,2.33,0,0,1,2,0L78,179a0.59,0.59,0,0,1,0,1.1l-8.6,5a2.33,2.33,0,0,1-2,0l-4.8-2.8a0.59,0.59,0,0,1,0-1.1" transform="translate(-37.1 -26.3)"/><path class="b" d="M76.9,189.5l10.4-6a2.33,2.33,0,0,1,2,0l4.8,2.8a0.59,0.59,0,0,1,0,1.1l-10.4,6a2.33,2.33,0,0,1-2,0l-4.8-2.8a0.59,0.59,0,0,1,0-1.1" transform="translate(-37.1 -26.3)"/><path class="b" d="M84.1,193.6l14-8.1a2.33,2.33,0,0,1,2,0l4.8,2.8a0.59,0.59,0,0,1,0,1.1l-14,8.1a2.33,2.33,0,0,1-2,0l-4.8-2.8c-0.6-.3-0.6-0.8,0-1.1" transform="translate(-37.1 -26.3)"/><path class="b" d="M109.7,191.4l4.8-2.8a2.33,2.33,0,0,1,2,0l1.9,1.1a0.59,0.59,0,0,1,0,1.1l-4.8,2.8a2.33,2.33,0,0,1-2,0l-1.9-1.1c-0.6-.2-0.5-0.7,0-1.1" transform="translate(-37.1 -26.3)"/><path class="b" d="M95,199.9l4.8-2.8a2.33,2.33,0,0,1,2,0l1.9,1.1a0.59,0.59,0,0,1,0,1.1l-4.8,2.8a2.33,2.33,0,0,1-2,0L95,201c-0.6-.2-0.6-0.7,0-1.1" transform="translate(-37.1 -26.3)"/><path class="b" d="M98.6,193.5l4.8-2.8a2.33,2.33,0,0,1,2,0L111,194a0.59,0.59,0,0,1,0,1.1l-4.8,2.8a2.33,2.33,0,0,1-2,0l-5.6-3.3a0.59,0.59,0,0,1,0-1.1" transform="translate(-37.1 -26.3)"/><path class="b" d="M130.1,175.4l34.3-19.8a2.33,2.33,0,0,1,2,0l5.6,3.3a0.59,0.59,0,0,1,0,1.1l-34.3,19.8a2.33,2.33,0,0,1-2,0l-5.6-3.3c-0.6-.3-0.5-0.8,0-1.1" transform="translate(-37.1 -26.3)"/></g><path class="d" d="M99.2,68.6a0.54,0.54,0,0,1,.9.5,2,2,0,0,1-.9,1.6,0.54,0.54,0,0,1-.9-0.5,2,2,0,0,1,.9-1.6" transform="translate(-37.1 -26.3)"/><g class="k"><g class="j"><polygon class="g" points="156.9 144.6 142 136 104.4 157.7 119.3 166.3 156.9 144.6"/><g class="l"><g class="m"><polyline class="g" points="104.4 157.7 142 136 156.9 144.6 119.3 166.3 104.4 157.7"/></g></g></g></g><g class="j"><polygon class="b" points="172.9 94 239.7 132.8 286.1 106.1 219.3 67.3 172.9 94"/><polygon class="n" points="239.7 132.8 239.7 134.8 286.1 108 286.1 106.1 239.7 132.8"/><polygon class="o" points="172.9 94 172.9 96 239.7 134.8 239.7 132.8 172.9 94"/></g><polygon class="p" points="185 93.9 233 121.9 267.7 102 219.6 73.9 185 93.9"/><path class="d" d="M236.8,108.7c-0.1,0-.2,0-0.2-0.1a0.19,0.19,0,0,1,.1-0.3l2.7-1.5a0.22,0.22,0,1,1,.2.4l-2.7,1.5h-0.1Z" transform="translate(-37.1 -26.3)"/><g class="q"><path class="g" d="M292.3,139.8c-1.5.8-1.5,2.2,0,3.1a5.83,5.83,0,0,0,5.3,0c1.5-.8,1.5-2.2,0-3.1A5.83,5.83,0,0,0,292.3,139.8Z" transform="translate(-37.1 -26.3)"/></g><g class="j"><polygon class="b" points="188.1 146.9 241.2 177.7 270.9 160.5 217.8 129.7 188.1 146.9"/><polygon class="r" points="188.1 146.9 188.1 148.4 241.2 179.2 241.2 177.7 188.1 146.9"/><polygon class="s" points="241.2 177.7 241.2 179.2 270.9 162.1 270.9 160.5 241.2 177.7"/></g><polygon class="t" points="195.6 146.9 235.3 169.8 257.8 157.2 218.2 134.3 195.6 146.9"/><path class="d" d="M241.2,166.1c-0.1,0-.2,0-0.2-0.1a0.19,0.19,0,0,1,.1-0.3l2.5-1.4a0.22,0.22,0,1,1,.2.4l-2.5,1.4h-0.1Z" transform="translate(-37.1 -26.3)"/><g class="u"><path class="v" d="M287.8,190.9c-1,.6-1,1.5,0,2a3.63,3.63,0,0,0,3.5,0c1-.6,1-1.5,0-2A3.63,3.63,0,0,0,287.8,190.9Z" transform="translate(-37.1 -26.3)"/></g><path class="w" d="M230.5,81.9c-1.5-1.9-3.4-3.8-5.8-4.2a4.44,4.44,0,0,0-2,.1,16.18,16.18,0,0,0-1.8,1c1.9,1.7,1.8,3.5,5.5,3-0.5.3,0-.6-0.5-0.3a2.19,2.19,0,0,0-.5.3,2.09,2.09,0,0,0-.4.6c-0.7.9-1.4,1.8-2.1,2.8h0.2c-0.1.1-.2,0.1-0.3,0.2a2.18,2.18,0,0,0,.4.5,0.34,0.34,0,0,0-.3.2c-0.1.1,0,.1,0,0.2s0.2,0.5.3,0.7c0.2,0.5.5,1.1,0.7,1.6,0.5,1,.9,2.1,1.4,3.1,0.1,0,.1-0.1.2-0.1,0,0.3.1,0.2,0.3,0.1a5.58,5.58,0,0,0,.8-0.5c0.6-.4,1.2-0.7,1.9-1.1,0.3-.2.6-0.3,0.9-0.5s0.4-.5.6-0.7c0.5-.5-0.9-2-0.5-2.5,0.7,2.4,1.8,6.4.5,8.5a5.72,5.72,0,0,0,2.7-2.4,4.94,4.94,0,0,0,.5-1.6c0-.3.1-0.7,0.1-1A12.8,12.8,0,0,0,230.5,81.9Z" transform="translate(-37.1 -26.3)"/><path class="x" d="M232,89.6c0.3,2.6-.8,6.1-4,5.7s-5.8-3.4-7.4-6.1c-1.4-2.5-2.6-6.3-1.1-9s4.9-1.8,7-.2a14.21,14.21,0,0,1,5.5,9.6C232.1,89.9,231.9,88.4,232,89.6Zm-6.4-7.5V84a4.73,4.73,0,0,0,.1,1.7,4.89,4.89,0,0,0,1.2,1.3,16.6,16.6,0,0,0,1.3,1.4c-0.5-1.2-.9-2.4-1.4-3.5-0.3-.6-0.8-2.7-1.2-2.8m-0.3,3.4a13.87,13.87,0,0,0,.1-3.6c-0.8,1.1-1.7,2.3-2.5,3.4,0.8,0.1,1.6.1,2.4,0.2m0.3,6.4c0.9-.9,1.7-1.8,2.6-2.7a10.15,10.15,0,0,0-2.5.2,5.3,5.3,0,0,0-.1,2.5m-0.2-.2V89.9a1.43,1.43,0,0,0-.6-1.2,11.6,11.6,0,0,0-2-2.4c0.8,1.9,1.7,3.7,2.5,5.6l0.1-.2m0.2-2.8a24.62,24.62,0,0,1,2.6-.2c-0.9-.9-1.7-1.9-2.6-2.8v3m-2.8-3.4c0.9,1.1,1.7,2.2,2.6,3.3V87.3a5.63,5.63,0,0,0,0-1.3,1.8,1.8,0,0,0-1.1-.3,7.72,7.72,0,0,0-1.5-.2" transform="translate(-37.1 -26.3)"/><path class="d" d="M225.4,85.7v3.1c-0.9-1.1-1.7-2.2-2.6-3.3A21.12,21.12,0,0,1,225.4,85.7Z" transform="translate(-37.1 -26.3)"/><path class="d" d="M225.6,89.5a19.48,19.48,0,0,1,2.5-.2h0c-0.9.9-1.7,1.8-2.6,2.7h0a21.75,21.75,0,0,0,.1-2.5h0Z" transform="translate(-37.1 -26.3)"/><path class="d" d="M225.3,89.2a0.37,0.37,0,0,1,.1.3v2.2c-0.8-1.9-1.7-3.7-2.5-5.6h0a4.23,4.23,0,0,1,.5.7C224,87.7,224.7,88.4,225.3,89.2Z" transform="translate(-37.1 -26.3)"/><path class="d" d="M225.6,88.9V85.8c0.9,0.9,1.7,1.9,2.6,2.8Z" transform="translate(-37.1 -26.3)"/><path class="d" d="M225.4,82.1v3.2c0,0.1,0,.2-0.1.2-0.7-.1-1.5-0.1-2.2-0.2h-0.2c0.8-1.1,1.7-2.3,2.5-3.4h0v0.2Z" transform="translate(-37.1 -26.3)"/><path class="d" d="M225.7,85.7a0.2,0.2,0,0,1-.1-0.2V82c0.8,2.1,1.7,4.2,2.5,6.3l-0.1-.1C227.3,87.4,226.5,86.5,225.7,85.7Z" transform="translate(-37.1 -26.3)"/><polygon class="y" points="159.7 51.8 147 50.8 142.5 37.2 159.7 37.2 159.7 51.8"/><path class="z" d="M188,76.9a3.61,3.61,0,0,0,3.3.6c1.6-.5,2.2-2.2,2.2-3.8C191.7,74.8,189.9,75.8,188,76.9Z" transform="translate(-37.1 -26.3)"/><path class="aa" d="M197.46,74c-0.14-.72-0.52-2.68-1.21-2.92a13.6,13.6,0,0,0-2.43.24c-0.71,0-1.41.08-2.12,0.08,0.56,1.55,1.12,3.73,0,5.17-1,1.23-2.32.91-3.6,0.27,0.12,1,.16,2.15.27,3.2,0.06,0.55-.2,1.81.23,2.16a6.87,6.87,0,0,0,2.2.9,5.55,5.55,0,0,0,2.61-.11c3.7-1.18,4.7-6.16,4-9.29l0.35,1.65C197.72,75.21,197.49,74.13,197.46,74Z" transform="translate(-37.1 -26.3)"/><path class="ab" d="M204.1,72.6A15.52,15.52,0,0,0,203,67c-1.83,1-7.25,4.09-7.2,4.2a14.1,14.1,0,0,1,.61,2c0.76,3,1.18,7.6-2,9.38,2.2-1.32,4.33-2.67,6.56-4A6.47,6.47,0,0,0,204.1,72.6Z" transform="translate(-37.1 -26.3)"/><path class="ac" d="M188.29,62.18a18.85,18.85,0,0,1,7.51,9c1.7-1,7-4.1,7.2-4.2a13.27,13.27,0,0,0-.7-1.6,20.13,20.13,0,0,0-1.4-2.5c-1.8-2.8-4.4-5.5-7.7-6.5a5.25,5.25,0,0,0-3.9.1c-0.6.3-1.2,0.7-1.8,1-1.9,1.1-6,3.39-6,3.49C183.56,59.69,186.39,60.88,188.29,62.18Z" transform="translate(-37.1 -26.3)"/><path class="ad" d="M188,61.5a19.07,19.07,0,0,1,7.8,9.7l-4.1.2a9.9,9.9,0,0,0-3.6-4.8c-2.5-1.4-4.4-.3-4.5,2.5a10,10,0,0,0,4.4,7.7l0.1,0,0.5,5.36-0.6-.3c-4.9-2.8-8.9-9.7-8.9-15.3S183.1,58.6,188,61.5Z" transform="translate(-37.1 -26.3)"/><polygon class="ae" points="160.72 173.61 177.92 173.61 173.42 187.21 160.72 188.21 160.72 173.61"/><path class="af" d="M201.12,210.11c0,1.6.6,3.3,2.2,3.8a3.61,3.61,0,0,0,3.3-.6C204.72,212.21,202.92,211.21,201.12,210.11Z" transform="translate(-37.1 -26.3)"/><path class="ag" d="M196.87,211.76l0.35-1.65c-0.71,3.13.29,8.11,4,9.29a5.55,5.55,0,0,0,2.61.11,6.87,6.87,0,0,0,2.2-.9c0.43-.35.17-1.61,0.23-2.16,0.11-1,.15-2.15.27-3.2-1.28.65-2.64,1-3.6-.27-1.12-1.44-.57-3.63,0-5.17-0.71,0-1.42-.06-2.12-0.08a13.6,13.6,0,0,0-2.43-.24c-0.69.23-1.06,2.19-1.21,2.92C197.14,210.55,196.9,211.62,196.87,211.76Z" transform="translate(-37.1 -26.3)"/><path class="af" d="M193.67,215c2.22,1.29,4.35,2.64,6.56,4-3.2-1.78-2.78-6.39-2-9.38a14.1,14.1,0,0,1,.61-2c0.05-.11-5.37-3.18-7.2-4.2a15.52,15.52,0,0,0-1.1,5.6A6.47,6.47,0,0,0,193.67,215Z" transform="translate(-37.1 -26.3)"/><path class="ah" d="M213.17,197.41c0-.1-4.14-2.39-6-3.49-0.6-.3-1.2-0.7-1.8-1a5.25,5.25,0,0,0-3.9-.1c-3.3,1-5.9,3.7-7.7,6.5a20.13,20.13,0,0,0-1.4,2.5,13.27,13.27,0,0,0-.7,1.6c0.2,0.1,5.5,3.2,7.2,4.2a18.85,18.85,0,0,1,7.51-9C208.23,197.29,211.07,196.11,213.17,197.41Z" transform="translate(-37.1 -26.3)"/><path class="ai" d="M215.52,203c0,5.6-4,12.5-8.9,15.3l-0.6.3,0.5-5.36,0.1,0a10,10,0,0,0,4.4-7.7c-0.1-2.8-2-3.9-4.5-2.5a9.9,9.9,0,0,0-3.6,4.8l-4.1-.2a19.07,19.07,0,0,1,7.8-9.7C211.52,195,215.52,197.31,215.52,203Z" transform="translate(-37.1 -26.3)"/><path class="aj" d="M281,85.7c-2.32-.12-4.39-0.23-7-0.3a2.67,2.67,0,0,1-2.33-.72c-0.81-.83-8.82-9.9-9.55-10.71s-1.41-1.86-2.39-2-8.91-.39-10-0.39a2.89,2.89,0,0,1-2.51-.89c-1.64-1.73-8.34-9.3-10.12-11.29-0.73-.81-1.21-1.74-2.4-1.24a24.47,24.47,0,0,0-3,1.79c1-.61,2.15,1.76,2.54,2.36,1.26,1.93,10.29,11.72,11.19,11.8,1.32,0.13,9.87.69,10.79,1,0.76,0.29,8.09,8.47,9.89,10.26,0.86,0.85,1.76,1.67,2.59,2.55a4.2,4.2,0,0,0,1.08,1,3.17,3.17,0,0,0,1.42.1,85.52,85.52,0,0,1,10.46,1.3c0.82-.44,3.86-1.58,3.74-2.75C285.34,86,284.09,85.86,281,85.7Z" transform="translate(-37.1 -26.3)"/><path class="ak" d="M232.6,59.9a0.62,0.62,0,0,0-.9.1,1.9,1.9,0,0,0,.5,1.8l12.1,13.5a1.51,1.51,0,0,0,.4.4,0.6,0.6,0,0,0,.4.1l11.7,0.5,11.7,13,0.4,0.4a0.6,0.6,0,0,0,.4.1l12.2,0.5c0.5,0,.7-0.5.5-1.3a2.26,2.26,0,0,0-.9-1.2,0.6,0.6,0,0,0-.4-0.1L269,87.3l-11.7-13-0.4-.4a0.6,0.6,0,0,0-.4-0.1l-11.7-.5-11.7-13A1.76,1.76,0,0,0,232.6,59.9Z" transform="translate(-37.1 -26.3)"/><path class="al" d="M213.7,98.4a16.9,16.9,0,0,0-3.7-8.7c-1.8-2.3-4.7-4.8-7.8-4.7a8.65,8.65,0,0,0-3.4,1.5c2.2-1.3,4.5,1.3,6.3,2.6-0.1.1,0.1-1.1,0-1.1a1,1,0,0,0-.3-0.1c-0.1,0-.3.2-0.4,0.2l-0.6.3c-0.6.4-1.3,0.7-1.9,1.1a4.05,4.05,0,0,1-.9.5,0.51,0.51,0,0,0-.2.7,1,1,0,0,0,.5.6,2.18,2.18,0,0,1,.5.8,8.13,8.13,0,0,1,.1,2.2v1.5a1.2,1.2,0,0,1,0,.6,1.61,1.61,0,0,1-.7.4,0.62,0.62,0,0,0-.2.7,1.41,1.41,0,0,0,.7.6c0.3,0.2.6,0.3,0.9,0.5l0.2,0.2v0.5a4,4,0,0,0,0,1.1,0.75,0.75,0,0,0,.7.6,4.67,4.67,0,0,0,1-.5,2.08,2.08,0,0,0,.1,1.1,1.33,1.33,0,0,0,.5.3,0.48,0.48,0,0,0,.5-0.1c0.9-.5,6.9,1.9,4.3,3.5A10,10,0,0,0,213,103a8.31,8.31,0,0,0,.7-4.6v0C213.5,96.2,213.7,98.8,213.7,98.4Z" transform="translate(-37.1 -26.3)"/><path class="d" d="M207.1,97.5a3.75,3.75,0,0,1,.7,2.1,1.31,1.31,0,0,1-.8,1.4,1,1,0,0,1-.9-0.2c-0.1-.1-0.3-0.1-0.4-0.2s-0.3-.1-0.4-0.2v1.7c0,0.2,0,.3-0.2.1a1.47,1.47,0,0,0-.4-0.2,0.34,0.34,0,0,1-.2-0.4v-1.5c0-.1,0-0.2-0.1-0.2s-0.1,0-.1-0.1a0.1,0.1,0,0,1-.1-0.1c-0.2-.1-0.3-0.2-0.5-0.3v1.7c0,0.2,0,.2-0.2.1s-0.3-.1-0.4-0.2a0.34,0.34,0,0,1-.2-0.4V98.9a0.1,0.1,0,0,1-.1-0.1,4.05,4.05,0,0,0-.9-0.5c-0.2-.1-0.3-0.2-0.5-0.3a0.28,0.28,0,0,1-.2-0.3V97.6c0-.1.1-0.3,0.1-0.4s0.1-.1.2-0.1,0.2,0.1.3,0.1a0.54,0.54,0,0,0,.4-0.4V93.1a1.27,1.27,0,0,0-.1-0.6,2.29,2.29,0,0,0-.7-1,0.1,0.1,0,0,1-.1-0.1,0.53,0.53,0,0,1-.2-0.3V90.6c0-.2.1-0.2,0.2-0.1l1.5,0.9a0.1,0.1,0,0,1,.1.1V89.8c0-.2,0-0.2.2-0.1s0.3,0.1.4,0.2a0.34,0.34,0,0,1,.2.4V92c0.3,0.2.5,0.3,0.8,0.5V90.9c0-.2,0-0.2.2-0.1s0.1,0.1.2,0.1,0.1,0.1.2,0.1a0.34,0.34,0,0,1,.2.4v1.7l0.1,0.1h0.3a4.13,4.13,0,0,1,1.7,3.2v0.2a1.69,1.69,0,0,1-.3,1v0.1C207,97.4,207,97.4,207.1,97.5Zm-1.7,1.6a0.55,0.55,0,0,0,.8-0.5V98.3a1.59,1.59,0,0,0-.9-1.2c-0.3-.1-0.5-0.3-0.8-0.4s-0.5-.3-0.8-0.4a0.1,0.1,0,0,1-.1-0.1v2c0.3,0.1.5,0.3,0.8,0.4,0.1,0.1.2,0.1,0.3,0.2a314299,314299,0,0,1,.2.2,0.48,0.48,0,0,1,.5.1m-1.8-5.9v1.9h0.1c0.2,0.1.5,0.3,0.7,0.4a2.19,2.19,0,0,1,.5.3,0.52,0.52,0,0,0,.8-0.5h0a1.91,1.91,0,0,0-.7-1.4c-0.2-.1-0.4-0.3-0.6-0.4s-0.2-.1-0.3-0.2-0.2-.1-0.3-0.2c-0.1.2-.1,0.2-0.2,0.1h0" transform="translate(-37.1 -26.3)"/><path class="am" d="M212,99.2a17,17,0,0,0-5.4-10.4c-2.2-2.1-6.4-4.3-8.8-1.4s-1.1,7.4.3,10.3c1.6,3.4,4.4,6.9,8,8a4.35,4.35,0,0,0,4.6-1c1.4-1.5,1.5-3.6,1.3-5.5C211.9,97.7,212.1,99.6,212,99.2Zm-5.1,1.8a2.72,2.72,0,0,1-1.7-.6,5.43,5.43,0,0,1,0,1.8c-0.2.2-.7-0.4-0.8-0.5-0.2-.5.2-1.2,0-1.6a1.7,1.7,0,0,0-.8-0.6c0,0.5.2,1.8-.2,1.8-1,0-.4-1.6-0.6-2.1s-1.4-.6-1.7-1.2a0.85,0.85,0,0,1,0-.7c0.2-.2.4,0.1,0.7-0.1,0.5-.3.2-2,0.2-2.4a5.76,5.76,0,0,0-.2-2.6c-0.2-.4-1.2-1-0.8-1.6,0.2-.3,1.5.6,1.9,0.9,0-.5-0.3-2.5.6-1.6a1.81,1.81,0,0,1,.2,1.3c0,0.8.1,0.8,0.8,1.2,0-.3-0.2-1.7.1-1.8a1.27,1.27,0,0,1,.7.4,3.35,3.35,0,0,1,0,1,1.64,1.64,0,0,0,.1,1c0,0.1.2,0.1,0.2,0.1a4.07,4.07,0,0,1,1.2,1.4,3.74,3.74,0,0,1,.5,1.8,8.88,8.88,0,0,0-.3,1.4c0.1,0.7.7,1.3,0.7,2.1a1,1,0,0,1-.8,1.2C206.7,101,207.5,100.9,206.9,101Z" transform="translate(-37.1 -26.3)"/><path class="an" d="M205.3,97c-0.3-.1-0.5-0.3-0.8-0.4s-0.5-.3-0.8-0.4a0.1,0.1,0,0,1-.1-0.1v2c0.3,0.1.5,0.3,0.8,0.4,0.1,0.1.2,0.1,0.3,0.2a257149.74,257149.74,0,0,1,.2.2c0.2,0.1.3,0.2,0.5,0.3a0.55,0.55,0,0,0,.8-0.5V98.4A2.45,2.45,0,0,0,205.3,97Z" transform="translate(-37.1 -26.3)"/><path class="ao" d="M204.4,95.6a2.19,2.19,0,0,1,.5.3,0.52,0.52,0,0,0,.8-0.5h0A1.91,1.91,0,0,0,205,94c-0.2-.1-0.4-0.3-0.6-0.4s-0.2-.1-0.3-0.2-0.2-.1-0.3-0.2l-0.1-.1h0V95h0.1A1.17,1.17,0,0,0,204.4,95.6Z" transform="translate(-37.1 -26.3)"/></svg>