<svg xmlns="http://www.w3.org/2000/svg" xmlns:xlink="http://www.w3.org/1999/xlink" viewBox="0 0 418.02 370.72"><defs><style>.a{fill:#fff;}.b{fill:url(#a);}.c{fill:url(#b);}.d{fill:#f05b2f;}.e{fill:#f69a42;}.f{fill:#fed646;}.g{fill:#c06bdc;}.h{fill:#7b4a9b;}.i{fill:url(#c);}.j{fill:url(#d);}.k{fill:url(#e);}.l{fill:url(#f);}.m{fill:#3054a0;}.n{fill:url(#g);}.o{fill:url(#h);}.p{fill:url(#i);}.q{fill:url(#j);}.r{fill:url(#k);}.s{fill:url(#l);}.t{fill:#393530;}.u{fill:url(#m);}.v{fill:#fefef4;}.w{fill:url(#n);}.x{fill:url(#o);}.y{fill:#b2b3b4;}.z{fill:url(#p);}.aa{opacity:0.76;}.ab{isolation:isolate;}.ac{fill:url(#q);}</style><linearGradient id="a" x1="-4561.93" y1="207.86" x2="-4556.38" y2="207.86" gradientTransform="translate(-4527.59 393.89) rotate(180)" gradientUnits="userSpaceOnUse"><stop offset="0.74" stop-color="#f78e37"/><stop offset="0.96" stop-color="#f87f3b"/></linearGradient><linearGradient id="b" x1="-4576.39" y1="201.01" x2="-4536.09" y2="201.01" xlink:href="#a"/><linearGradient id="c" x1="-4645.24" y1="304" x2="-4639.69" y2="304" xlink:href="#a"/><linearGradient id="d" x1="-4659.69" y1="296.95" x2="-4619.35" y2="296.95" xlink:href="#a"/><linearGradient id="e" x1="397.92" y1="145.9" x2="403.47" y2="145.9" gradientTransform="matrix(1, 0, 0, -1, 0, 393.89)" gradientUnits="userSpaceOnUse"><stop offset="0.02" stop-color="#0184ff"/><stop offset="0.96" stop-color="#2472d3"/></linearGradient><linearGradient id="f" x1="383.5" y1="139" x2="423.5" y2="139" xlink:href="#e"/><linearGradient id="g" x1="4192.73" y1="55.36" x2="4198.28" y2="55.36" gradientTransform="translate(4415.59 393.89) rotate(180)" xlink:href="#e"/><linearGradient id="h" x1="4178.29" y1="48.31" x2="4218.79" y2="48.31" gradientTransform="translate(4415.59 393.89) rotate(180)" xlink:href="#e"/><linearGradient id="i" x1="38.45" y1="301.06" x2="44" y2="301.06" xlink:href="#e"/><linearGradient id="j" x1="24" y1="294.08" x2="64.96" y2="294.08" xlink:href="#e"/><linearGradient id="k" x1="-8224.62" y1="126.48" x2="-8219.07" y2="126.48" gradientTransform="matrix(1, 0, 0, -1, 8376.64, 393.89)" xlink:href="#a"/><linearGradient id="l" x1="-8239.05" y1="119.47" x2="-8198.74" y2="119.47" gradientTransform="matrix(1, 0, 0, -1, 8376.64, 393.89)" xlink:href="#a"/><linearGradient id="m" x1="362.61" y1="299.8" x2="218.54" y2="380.07" gradientTransform="matrix(1, 0, 0, -1, -7.09, 393.89)" gradientUnits="userSpaceOnUse"><stop offset="0" stop-color="#f5f9fc"/><stop offset="0.98" stop-color="#dddee3"/></linearGradient><linearGradient id="n" x1="91.7" y1="201.19" x2="370.4" y2="201.19" gradientTransform="matrix(1, 0, 0, -1, -7.09, 393.89)" gradientUnits="userSpaceOnUse"><stop offset="0" stop-color="#dddee3"/><stop offset="0.02" stop-color="#dddddf"/><stop offset="0.88" stop-color="#fff"/></linearGradient><linearGradient id="o" x1="358.83" y1="170.12" x2="288.88" y2="133.53" gradientTransform="matrix(1, 0, 0, -1, -7.09, 393.89)" gradientUnits="userSpaceOnUse"><stop offset="0.02" stop-color="#c4c4c4"/><stop offset="0.95" stop-color="#908d91"/></linearGradient><linearGradient id="p" x1="377.57" y1="280.84" x2="366.03" y2="194.78" gradientTransform="matrix(1, 0, 0, -1, 0, 393.89)" gradientUnits="userSpaceOnUse"><stop offset="0.02" stop-color="#c4c4c4"/><stop offset="0.95" stop-color="#9a969b"/></linearGradient><linearGradient id="q" x1="157.66" y1="166.71" x2="205.18" y2="166.71" gradientTransform="matrix(1, 0, 0, -1, 0, 393.89)" gradientUnits="userSpaceOnUse"><stop offset="0" stop-color="#a4dbea"/><stop offset="0.96" stop-color="#fffdfe"/></linearGradient></defs><title>picture_1section_partner2</title><path class="a" d="M219.9,355.9a1,1,0,0,1-.3-1.5h0a1,1,0,0,1,1.5-.3h0a1,1,0,0,1,.3,1.5h0a1.19,1.19,0,0,1-.9.5h0A0.85,0.85,0,0,1,219.9,355.9Zm-3.5-2.1a1,1,0,0,1-.3-1.5h0a1,1,0,0,1,1.5-.3h0a1,1,0,0,1,.3,1.5h0a1.19,1.19,0,0,1-.9.5h0C216.8,353.9,216.6,353.9,216.4,353.8Zm-3.4-2.2a1,1,0,0,1-.3-1.5h0a1,1,0,0,1,1.5-.3h0a1,1,0,0,1,.3,1.5h0a1.19,1.19,0,0,1-.9.5h0A1.42,1.42,0,0,1,213,351.6Zm-3.4-2.1a1,1,0,0,1-.3-1.5h0a1,1,0,0,1,1.5-.3h0a1,1,0,0,1,.3,1.5h0a1.19,1.19,0,0,1-.9.5h0A1.42,1.42,0,0,1,209.6,349.5Zm-3.4-2.1a1,1,0,0,1-.3-1.5h0a1,1,0,0,1,1.5-.3h0a1,1,0,0,1,.3,1.5h0a1.19,1.19,0,0,1-.9.5h0A2,2,0,0,1,206.2,347.4Zm-3.5-2.2a1,1,0,0,1-.3-1.5h0a1,1,0,0,1,1.5-.3h0a1,1,0,0,1,.3,1.5h0a1.19,1.19,0,0,1-.9.5h0A0.73,0.73,0,0,1,202.7,345.2Zm-3.4-2.1a1,1,0,0,1-.3-1.5h0a1,1,0,0,1,1.5-.3h0a1,1,0,0,1,.3,1.5h0a1.19,1.19,0,0,1-.9.5h0A1.42,1.42,0,0,1,199.3,343.1Zm-3.4-2.1a1,1,0,0,1-.3-1.5h0a1,1,0,0,1,1.5-.3h0a1,1,0,0,1,.3,1.5h0a1.19,1.19,0,0,1-.9.5h0C196.3,341.1,196.1,341.1,195.9,341Zm-3.4-2.1a1,1,0,0,1-.3-1.5h0a1,1,0,0,1,1.5-.3h0a1,1,0,0,1,.3,1.5h0a1.19,1.19,0,0,1-.9.5h0A2,2,0,0,1,192.5,338.9Zm-3.5-2.2a1,1,0,0,1-.3-1.5h0a1,1,0,0,1,1.5-.3h0a1,1,0,0,1,.3,1.5h0a1.19,1.19,0,0,1-.9.5h0A1.42,1.42,0,0,1,189,336.7Zm-3.4-2.1a1,1,0,0,1-.3-1.5h0a1,1,0,0,1,1.5-.3h0a1,1,0,0,1,.3,1.5h0a1.19,1.19,0,0,1-.9.5h0A1.42,1.42,0,0,1,185.6,334.6Zm-3.4-2.1a1,1,0,0,1-.3-1.5h0a1,1,0,0,1,1.5-.3h0a1,1,0,0,1,.3,1.5h0a1.19,1.19,0,0,1-.9.5h0A4.17,4.17,0,0,1,182.2,332.5Zm-3.5-2.2a1,1,0,0,1-.3-1.5h0a1,1,0,0,1,1.5-.3h0a1,1,0,0,1,.3,1.5h0a1.19,1.19,0,0,1-.9.5h0A1.42,1.42,0,0,1,178.7,330.3Zm-3.4-2.1a1,1,0,0,1-.3-1.5h0a1,1,0,0,1,1.5-.3h0a1,1,0,0,1,.3,1.5h0a1.19,1.19,0,0,1-.9.5h0A1.42,1.42,0,0,1,175.3,328.2Zm-3.4-2.1a1,1,0,0,1-.3-1.5h0a1,1,0,0,1,1.5-.3h0a1,1,0,0,1,.3,1.5h0a1.19,1.19,0,0,1-.9.5h0C172.3,326.2,172.1,326.2,171.9,326.1Zm-3.4-2.2a1,1,0,0,1-.3-1.5h0a1,1,0,0,1,1.5-.3h0a1,1,0,0,1,.3,1.5h0a1.19,1.19,0,0,1-.9.5h0A0.85,0.85,0,0,1,168.5,323.9Zm-3.8-2.5a1.13,1.13,0,0,1,.4-1.5h0a1.13,1.13,0,0,1,1.5.4h0a1.13,1.13,0,0,1-.4,1.5h0a1.42,1.42,0,0,1-.6.2h0A1.07,1.07,0,0,1,164.7,321.4Zm3.5-2a1.13,1.13,0,0,1,.4-1.5h0a1.13,1.13,0,0,1,1.5.4h0a1.13,1.13,0,0,1-.4,1.5h0a1.42,1.42,0,0,1-.6.2h0A1.46,1.46,0,0,1,168.2,319.4Zm3.4-2.1a1.13,1.13,0,0,1,.4-1.5h0a1.13,1.13,0,0,1,1.5.4h0a1.13,1.13,0,0,1-.4,1.5h0a1.42,1.42,0,0,1-.6.2h0A1.8,1.8,0,0,1,171.6,317.3Zm3.5-2.1a1.13,1.13,0,0,1,.4-1.5h0a1.13,1.13,0,0,1,1.5.4h0a1.13,1.13,0,0,1-.4,1.5h0a1.42,1.42,0,0,1-.6.2h0A1.8,1.8,0,0,1,175.1,315.2Zm3.5-2.1a1.13,1.13,0,0,1,.4-1.5h0a1.13,1.13,0,0,1,1.5.4h0a1.13,1.13,0,0,1-.4,1.5h0a1.42,1.42,0,0,1-.6.2h0A1.15,1.15,0,0,1,178.6,313.1ZM182,311a1.13,1.13,0,0,1,.4-1.5h0a1.13,1.13,0,0,1,1.5.4h0a1.13,1.13,0,0,1-.4,1.5h0a1.42,1.42,0,0,1-.6.2h0A1.07,1.07,0,0,1,182,311Zm3.5-2a1.13,1.13,0,0,1,.4-1.5h0a1.13,1.13,0,0,1,1.5.4h0a1.13,1.13,0,0,1-.4,1.5h0a1.42,1.42,0,0,1-.6.2h0A1.46,1.46,0,0,1,185.5,309Zm3.4-2.1a1.13,1.13,0,0,1,.4-1.5h0a1.13,1.13,0,0,1,1.5.4h0a1.13,1.13,0,0,1-.4,1.5h0a1.42,1.42,0,0,1-.6.2h0A1.8,1.8,0,0,1,188.9,306.9Zm3.5-2.1a1.13,1.13,0,0,1,.4-1.5h0a1.13,1.13,0,0,1,1.5.4h0a1.13,1.13,0,0,1-.4,1.5h0a1.42,1.42,0,0,1-.6.2h0A1.46,1.46,0,0,1,192.4,304.8Zm3.4-2.1a1.13,1.13,0,0,1,.4-1.5h0a1.13,1.13,0,0,1,1.5.4h0a1.13,1.13,0,0,1-.4,1.5h0a1.42,1.42,0,0,1-.6.2h0A1.8,1.8,0,0,1,195.8,302.7Zm3.5-2.1a1.13,1.13,0,0,1,.4-1.5h0a1.13,1.13,0,0,1,1.5.4h0a1.13,1.13,0,0,1-.4,1.5h0a1.42,1.42,0,0,1-.6.2h0A1.07,1.07,0,0,1,199.3,300.6Zm3.5-2.1a1.13,1.13,0,0,1,.4-1.5h0a1.13,1.13,0,0,1,1.5.4h0a1.13,1.13,0,0,1-.4,1.5h0a1.42,1.42,0,0,1-.6.2h0A1,1,0,0,1,202.8,298.5Zm3.4-2a1.13,1.13,0,0,1,.4-1.5h0a1.13,1.13,0,0,1,1.5.4h0a1.13,1.13,0,0,1-.4,1.5h0a1.42,1.42,0,0,1-.6.2h0A1.8,1.8,0,0,1,206.2,296.5Zm3.5-2.1a1.13,1.13,0,0,1,.4-1.5h0a1.13,1.13,0,0,1,1.5.4h0a1.13,1.13,0,0,1-.4,1.5h0a1.42,1.42,0,0,1-.6.2h0A1.46,1.46,0,0,1,209.7,294.4Zm3.4-2.1a1.13,1.13,0,0,1,.4-1.5h0a1.13,1.13,0,0,1,1.5.4h0a1.13,1.13,0,0,1-.4,1.5h0a1.42,1.42,0,0,1-.6.2h0A1.8,1.8,0,0,1,213.1,292.3Zm3.5-2.1a1.13,1.13,0,0,1,.4-1.5h0a1.13,1.13,0,0,1,1.5.4h0a1.13,1.13,0,0,1-.4,1.5h0a1.42,1.42,0,0,1-.6.2h0A1.15,1.15,0,0,1,216.6,290.2Zm3.4-2.1a1.13,1.13,0,0,1,.4-1.5h0a1.13,1.13,0,0,1,1.5.4h0a1.13,1.13,0,0,1-.4,1.5h0a1.42,1.42,0,0,1-.6.2h0A1.07,1.07,0,0,1,220,288.1Zm3.5-2a1.13,1.13,0,0,1,.4-1.5h0a1.13,1.13,0,0,1,1.5.4h0a1.13,1.13,0,0,1-.4,1.5h0a1.42,1.42,0,0,1-.6.2h0A1.8,1.8,0,0,1,223.5,286.1ZM227,284a1.13,1.13,0,0,1,.4-1.5h0a1.13,1.13,0,0,1,1.5.4h0a1.13,1.13,0,0,1-.4,1.5h0a1.42,1.42,0,0,1-.6.2h0A1.46,1.46,0,0,1,227,284Zm3.4-2.1a1.13,1.13,0,0,1,.4-1.5h0a1.13,1.13,0,0,1,1.5.4h0a1.13,1.13,0,0,1-.4,1.5h0a1.42,1.42,0,0,1-.6.2h0A1.8,1.8,0,0,1,230.4,281.9Zm3.5-2.1a1.13,1.13,0,0,1,.4-1.5h0a1.13,1.13,0,0,1,1.5.4h0a1.13,1.13,0,0,1-.4,1.5h0a1.42,1.42,0,0,1-.6.2h0A1.15,1.15,0,0,1,233.9,279.8Zm3.4-2.1a1.13,1.13,0,0,1,.4-1.5h0a1.13,1.13,0,0,1,1.5.4h0a1.13,1.13,0,0,1-.4,1.5h0a1.42,1.42,0,0,1-.6.2h0A1.07,1.07,0,0,1,237.3,277.7Zm3.5-2a1.13,1.13,0,0,1,.4-1.5h0a1.13,1.13,0,0,1,1.5.4h0a1.13,1.13,0,0,1-.4,1.5h0a1.42,1.42,0,0,1-.6.2h0A1.46,1.46,0,0,1,240.8,275.7Zm3.4-2.1a1.13,1.13,0,0,1,.4-1.5h0a1.13,1.13,0,0,1,1.5.4h0a1.13,1.13,0,0,1-.4,1.5h0a1.42,1.42,0,0,1-.6.2h0A1.8,1.8,0,0,1,244.2,273.6Zm3.5-2.1a1.13,1.13,0,0,1,.4-1.5h0a1.13,1.13,0,0,1,1.5.4h0a1.13,1.13,0,0,1-.4,1.5h0a1.42,1.42,0,0,1-.6.2h0A1.8,1.8,0,0,1,247.7,271.5Zm3.5-2.1a1.13,1.13,0,0,1,.4-1.5h0a1.13,1.13,0,0,1,1.5.4h0a1.13,1.13,0,0,1-.4,1.5h0a1.42,1.42,0,0,1-.6.2h0A1.46,1.46,0,0,1,251.2,269.4Zm3.4-2.1a1.13,1.13,0,0,1,.4-1.5h0a1.13,1.13,0,0,1,1.5.4h0a1.13,1.13,0,0,1-.4,1.5h0a1.42,1.42,0,0,1-.6.2h0A1.07,1.07,0,0,1,254.6,267.3Zm3.5-2.1a1.13,1.13,0,0,1,.4-1.5h0a1.13,1.13,0,0,1,1.5.4h0a1.13,1.13,0,0,1-.4,1.5h0a1.42,1.42,0,0,1-.6.2h0A1,1,0,0,1,258.1,265.2Zm3.4-2a1.13,1.13,0,0,1,.4-1.5h0a1.13,1.13,0,0,1,1.5.4h0a1.13,1.13,0,0,1-.4,1.5h0a1.42,1.42,0,0,1-.6.2h0A1.8,1.8,0,0,1,261.5,263.2Zm3.5-2.1a1.13,1.13,0,0,1,.4-1.5h0a1.13,1.13,0,0,1,1.5.4h0a1.13,1.13,0,0,1-.4,1.5h0a1.42,1.42,0,0,1-.6.2h0A1.46,1.46,0,0,1,265,261.1Zm3.4-2.1a1.13,1.13,0,0,1,.4-1.5h0a1.13,1.13,0,0,1,1.5.4h0a1.13,1.13,0,0,1-.4,1.5h0a1.42,1.42,0,0,1-.6.2h0A1.8,1.8,0,0,1,268.4,259Zm3.5-2.1a1.13,1.13,0,0,1,.4-1.5h0a1.13,1.13,0,0,1,1.5.4h0a1.13,1.13,0,0,1-.4,1.5h0a1.42,1.42,0,0,1-.6.2h0A1.33,1.33,0,0,1,271.9,256.9Zm3.5-2.1a1.13,1.13,0,0,1,.4-1.5h0a1.13,1.13,0,0,1,1.5.4h0a1.13,1.13,0,0,1-.4,1.5h0a1.42,1.42,0,0,1-.6.2h0A1,1,0,0,1,275.4,254.8Z" transform="translate(-7.09 0)"/><path class="a" d="M153.8,290.2a1.1,1.1,0,0,1,.3-1.5h0a1.1,1.1,0,0,1,1.5.3h0a1.1,1.1,0,0,1-.3,1.5h0a1.42,1.42,0,0,1-.6.2h0A1.19,1.19,0,0,1,153.8,290.2Zm3.4-2.2a1.1,1.1,0,0,1,.3-1.5h0a1.1,1.1,0,0,1,1.5.3h0a1.1,1.1,0,0,1-.3,1.5h0a1.42,1.42,0,0,1-.6.2h0A1.19,1.19,0,0,1,157.2,288Zm3.4-2.1a1.1,1.1,0,0,1,.3-1.5h0a1.1,1.1,0,0,1,1.5.3h0a1.1,1.1,0,0,1-.3,1.5h0a1.42,1.42,0,0,1-.6.2h0A1.19,1.19,0,0,1,160.6,285.9Zm3.4-2.2a1.1,1.1,0,0,1,.3-1.5h0a1.1,1.1,0,0,1,1.5.3h0a1.1,1.1,0,0,1-.3,1.5h0a1.42,1.42,0,0,1-.6.2h0A1.19,1.19,0,0,1,164,283.7Zm3.5-2.2a1.1,1.1,0,0,1,.3-1.5h0a1.1,1.1,0,0,1,1.5.3h0a1.1,1.1,0,0,1-.3,1.5h0a1.42,1.42,0,0,1-.6.2h0A0.87,0.87,0,0,1,167.5,281.5Zm3.4-2.1a1.1,1.1,0,0,1,.3-1.5h0a1.1,1.1,0,0,1,1.5.3h0a1.1,1.1,0,0,1-.3,1.5h0a1.42,1.42,0,0,1-.6.2h0A1.05,1.05,0,0,1,170.9,279.4Zm3.4-2.2a1.1,1.1,0,0,1,.3-1.5h0a1.1,1.1,0,0,1,1.5.3h0a1.1,1.1,0,0,1-.3,1.5h0a1.42,1.42,0,0,1-.6.2h0A1.05,1.05,0,0,1,174.3,277.2Zm3.4-2.2a1.1,1.1,0,0,1,.3-1.5h0a1.1,1.1,0,0,1,1.5.3h0a1.1,1.1,0,0,1-.3,1.5h0a1.42,1.42,0,0,1-.6.2h0A0.76,0.76,0,0,1,177.7,275Zm3.4-2.1a1.1,1.1,0,0,1,.3-1.5h0a1.1,1.1,0,0,1,1.5.3h0a1.1,1.1,0,0,1-.3,1.5h0a1.42,1.42,0,0,1-.6.2h0A1.05,1.05,0,0,1,181.1,272.9Zm3.4-2.2a1.1,1.1,0,0,1,.3-1.5h0a1.1,1.1,0,0,1,1.5.3h0a1.1,1.1,0,0,1-.3,1.5h0a1.42,1.42,0,0,1-.6.2h0A1.05,1.05,0,0,1,184.5,270.7Zm3.4-2.1a1.1,1.1,0,0,1,.3-1.5h0a1.1,1.1,0,0,1,1.5.3h0a1.1,1.1,0,0,1-.3,1.5h0a1.42,1.42,0,0,1-.6.2h0A1.19,1.19,0,0,1,187.9,268.6Zm3.4-2.2a1.1,1.1,0,0,1,.3-1.5h0a1.1,1.1,0,0,1,1.5.3h0a1.1,1.1,0,0,1-.3,1.5h0a1.42,1.42,0,0,1-.6.2h0A1.19,1.19,0,0,1,191.3,266.4Zm3.4-2.2a1.1,1.1,0,0,1,.3-1.5h0a1.1,1.1,0,0,1,1.5.3h0a1.1,1.1,0,0,1-.3,1.5h0a1.42,1.42,0,0,1-.6.2h0A1,1,0,0,1,194.7,264.2Zm3.4-2.1a1.1,1.1,0,0,1,.3-1.5h0a1.1,1.1,0,0,1,1.5.3h0a1.1,1.1,0,0,1-.3,1.5h0a1.42,1.42,0,0,1-.6.2h0A1.19,1.19,0,0,1,198.1,262.1Zm3.4-2.2a1.1,1.1,0,0,1,.3-1.5h0a1.1,1.1,0,0,1,1.5.3h0a1.1,1.1,0,0,1-.3,1.5h0a1.42,1.42,0,0,1-.6.2h0A1.19,1.19,0,0,1,201.5,259.9Zm3.4-2.1a1.1,1.1,0,0,1,.3-1.5h0a1.1,1.1,0,0,1,1.5.3h0a1.1,1.1,0,0,1-.3,1.5h0a1.42,1.42,0,0,1-.6.2h0A1.19,1.19,0,0,1,204.9,257.8Zm3.4-2.2a1.1,1.1,0,0,1,.3-1.5h0a1.1,1.1,0,0,1,1.5.3h0a1.1,1.1,0,0,1-.3,1.5h0a1.42,1.42,0,0,1-.6.2h0A1.19,1.19,0,0,1,208.3,255.6Zm3.4-2.2a1.1,1.1,0,0,1,.3-1.5h0a1.1,1.1,0,0,1,1.5.3h0a1.1,1.1,0,0,1-.3,1.5h0a1.42,1.42,0,0,1-.6.2h0A1.06,1.06,0,0,1,211.7,253.4Zm3.5-2.1a1.1,1.1,0,0,1,.3-1.5h0a1.1,1.1,0,0,1,1.5.3h0a1.1,1.1,0,0,1-.3,1.5h0a1.42,1.42,0,0,1-.6.2h0A1.05,1.05,0,0,1,215.2,251.3Zm3.4-2.2a1.1,1.1,0,0,1,.3-1.5h0a1.1,1.1,0,0,1,1.5.3h0a1.1,1.1,0,0,1-.3,1.5h0a1.42,1.42,0,0,1-.6.2h0A1.05,1.05,0,0,1,218.6,249.1ZM222,247a1.1,1.1,0,0,1,.3-1.5h0a1.1,1.1,0,0,1,1.5.3h0a1.1,1.1,0,0,1-.3,1.5h0a1.42,1.42,0,0,1-.6.2h0A1.05,1.05,0,0,1,222,247Zm3.4-2.2a1.1,1.1,0,0,1,.3-1.5h0a1.1,1.1,0,0,1,1.5.3h0a1.1,1.1,0,0,1-.3,1.5h0a1.42,1.42,0,0,1-.6.2h0A1.05,1.05,0,0,1,225.4,244.8Zm3.4-2.2a1.1,1.1,0,0,1,.3-1.5h0a1.1,1.1,0,0,1,1.5.3h0a1.1,1.1,0,0,1-.3,1.5h0a1.42,1.42,0,0,1-.6.2h0A0.87,0.87,0,0,1,228.8,242.6Zm3.4-2.1a1.1,1.1,0,0,1,.3-1.5h0a1.1,1.1,0,0,1,1.5.3h0a1.1,1.1,0,0,1-.3,1.5h0a1.42,1.42,0,0,1-.6.2h0A1.05,1.05,0,0,1,232.2,240.5Zm3.4-2.2a1.1,1.1,0,0,1,.3-1.5h0a1.1,1.1,0,0,1,1.5.3h0a1.1,1.1,0,0,1-.3,1.5h0a1.42,1.42,0,0,1-.6.2h0A1.19,1.19,0,0,1,235.6,238.3Zm3.4-2.2a1.1,1.1,0,0,1,.3-1.5h0a1.1,1.1,0,0,1,1.5.3h0a1.1,1.1,0,0,1-.3,1.5h0a1.42,1.42,0,0,1-.6.2h0A1,1,0,0,1,239,236.1Zm3.4-2.1a1.1,1.1,0,0,1,.3-1.5h0a1.1,1.1,0,0,1,1.5.3h0a1.1,1.1,0,0,1-.3,1.5h0a1.42,1.42,0,0,1-.6.2h0A1.19,1.19,0,0,1,242.4,234Zm3.4-2.2a1.1,1.1,0,0,1,.3-1.5h0a1.1,1.1,0,0,1,1.5.3h0a1.1,1.1,0,0,1-.3,1.5h0a1.42,1.42,0,0,1-.6.2h0A1.19,1.19,0,0,1,245.8,231.8Z" transform="translate(-7.09 0)"/><path class="a" d="M67.5,233.8a1.13,1.13,0,0,1,.4-1.5h0a1.13,1.13,0,0,1,1.5.4h0a1.13,1.13,0,0,1-.4,1.5h0a0.9,0.9,0,0,1-.5.1h0A0.83,0.83,0,0,1,67.5,233.8Zm-3.1-.8a1.13,1.13,0,0,1-.4-1.5h0a1.13,1.13,0,0,1,1.5-.4h0a1.13,1.13,0,0,1,.4,1.5h0a1.19,1.19,0,0,1-.9.5h0A0.56,0.56,0,0,1,64.4,233Zm6.6-1.1a1.13,1.13,0,0,1,.4-1.5h0a1.13,1.13,0,0,1,1.5.4h0a1.13,1.13,0,0,1-.4,1.5h0a0.9,0.9,0,0,1-.5.1h0A0.88,0.88,0,0,1,71,231.9ZM60.9,231a1.13,1.13,0,0,1-.4-1.5h0a1.13,1.13,0,0,1,1.5-.4h0a1.13,1.13,0,0,1,.4,1.5h0a1.19,1.19,0,0,1-.9.5h0A0.92,0.92,0,0,1,60.9,231Zm13.7-1a1.13,1.13,0,0,1,.4-1.5h0a1.13,1.13,0,0,1,1.5.4h0a1.13,1.13,0,0,1-.4,1.5h0a0.9,0.9,0,0,1-.5.1h0A0.83,0.83,0,0,1,74.6,230Zm-17.2-1a1.13,1.13,0,0,1-.4-1.5h0a1.13,1.13,0,0,1,1.5-.4h0a1.13,1.13,0,0,1,.4,1.5h0a1.19,1.19,0,0,1-.9.5h0A0.92,0.92,0,0,1,57.4,229Zm20.7-.9a1.13,1.13,0,0,1,.4-1.5h0a1.13,1.13,0,0,1,1.5.4h0a1.13,1.13,0,0,1-.4,1.5h0a0.9,0.9,0,0,1-.5.1h0A0.88,0.88,0,0,1,78.1,228.1Zm-24.2-1.2a1.13,1.13,0,0,1-.4-1.5h0A1.13,1.13,0,0,1,55,225h0a1.13,1.13,0,0,1,.4,1.5h0a1.19,1.19,0,0,1-.9.5h0A0.61,0.61,0,0,1,53.9,226.9Zm27.8-.7a1.13,1.13,0,0,1,.4-1.5h0a1.13,1.13,0,0,1,1.5.4h0a1.13,1.13,0,0,1-.4,1.5h0a0.9,0.9,0,0,1-.5.1h0A1,1,0,0,1,81.7,226.2Zm-31.3-1.3a1.13,1.13,0,0,1-.4-1.5h0a1.13,1.13,0,0,1,1.5-.4h0a1.13,1.13,0,0,1,.4,1.5h0a1.19,1.19,0,0,1-.9.5h0A0.61,0.61,0,0,1,50.4,224.9Zm34.9-.6a1.13,1.13,0,0,1,.4-1.5h0a1.13,1.13,0,0,1,1.5.4h0a1.13,1.13,0,0,1-.4,1.5h0a0.9,0.9,0,0,1-.5.1h0A0.87,0.87,0,0,1,85.3,224.3Zm-38.4-1.4a1.13,1.13,0,0,1-.4-1.5h0A1.13,1.13,0,0,1,48,221h0a1.13,1.13,0,0,1,.4,1.5h0a1.19,1.19,0,0,1-.9.5h0A0.61,0.61,0,0,1,46.9,222.9Zm41.9-.5a1.13,1.13,0,0,1,.4-1.5h0a1.13,1.13,0,0,1,1.5.4h0a1.13,1.13,0,0,1-.4,1.5h0a0.9,0.9,0,0,1-.5.1h0A1,1,0,0,1,88.8,222.4Zm3.6-1.9a1.13,1.13,0,0,1,.4-1.5h0a1.13,1.13,0,0,1,1.5.4h0a1.13,1.13,0,0,1-.4,1.5h0a0.9,0.9,0,0,1-.5.1h0A1.1,1.1,0,0,1,92.4,220.5Zm-49,.4a1.13,1.13,0,0,1-.4-1.5h0a1.13,1.13,0,0,1,1.5-.4h0a1.13,1.13,0,0,1,.4,1.5h0a1.19,1.19,0,0,1-.9.5h0A1.27,1.27,0,0,1,43.4,220.9Zm52.5-2.3a1.13,1.13,0,0,1,.4-1.5h0a1.13,1.13,0,0,1,1.5.4h0a1.13,1.13,0,0,1-.4,1.5h0a0.9,0.9,0,0,1-.5.1h0A1.23,1.23,0,0,1,95.9,218.6Zm-56,.3a1.13,1.13,0,0,1-.4-1.5h0A1.13,1.13,0,0,1,41,217h0a1.13,1.13,0,0,1,.4,1.5h0a1.19,1.19,0,0,1-.9.5h0A1.27,1.27,0,0,1,39.9,218.9Zm59.6-2.2a1.13,1.13,0,0,1,.4-1.5h0a1.13,1.13,0,0,1,1.5.4h0a1.13,1.13,0,0,1-.4,1.5h0a0.9,0.9,0,0,1-.5.1h0A1.23,1.23,0,0,1,99.5,216.7Zm-63.1.2a1.13,1.13,0,0,1-.4-1.5h0a1.13,1.13,0,0,1,1.5-.4h0a1.13,1.13,0,0,1,.4,1.5h0a1.19,1.19,0,0,1-.9.5h0A1.27,1.27,0,0,1,36.4,216.9Zm66.7-2.1a1.13,1.13,0,0,1,.4-1.5h0a1.13,1.13,0,0,1,1.5.4h0a1.13,1.13,0,0,1-.4,1.5h0a0.9,0.9,0,0,1-.5.1h0A1,1,0,0,1,103.1,214.8Zm-70.2,0a1.13,1.13,0,0,1-.4-1.5h0a1.13,1.13,0,0,1,1.5-.4h0a1.13,1.13,0,0,1,.4,1.5h0a1.19,1.19,0,0,1-.9.5h0A0.66,0.66,0,0,1,32.9,214.8Zm73.7-1.9a1.13,1.13,0,0,1,.4-1.5h0a1.13,1.13,0,0,1,1.5.4h0a1.13,1.13,0,0,1-.4,1.5h0a0.9,0.9,0,0,1-.5.1h0A1.23,1.23,0,0,1,106.6,212.9Zm-77.2-.1a1.13,1.13,0,0,1-.4-1.5h0a1.13,1.13,0,0,1,1.5-.4h0a1.13,1.13,0,0,1,.4,1.5h0a1.19,1.19,0,0,1-.9.5h0A0.66,0.66,0,0,1,29.4,212.8Zm80.8-1.8a1.13,1.13,0,0,1,.4-1.5h0a1.13,1.13,0,0,1,1.5.4h0a1.13,1.13,0,0,1-.4,1.5h0a0.9,0.9,0,0,1-.5.1h0A1.1,1.1,0,0,1,110.2,211Zm-84.3-.2a1.13,1.13,0,0,1-.4-1.5h0a1.13,1.13,0,0,1,1.5-.4h0a1.13,1.13,0,0,1,.4,1.5h0a1.19,1.19,0,0,1-.9.5h0A1.27,1.27,0,0,1,25.9,210.8Zm87.8-1.7a1.13,1.13,0,0,1,.4-1.5h0a1.13,1.13,0,0,1,1.5.4h0a1.13,1.13,0,0,1-.4,1.5h0a0.9,0.9,0,0,1-.5.1h0A1.23,1.23,0,0,1,113.7,209.1Zm-91.3-.3a1.13,1.13,0,0,1-.4-1.5h0a1.13,1.13,0,0,1,1.5-.4h0a1.13,1.13,0,0,1,.4,1.5h0a1.19,1.19,0,0,1-.9.5h0A1.27,1.27,0,0,1,22.4,208.8Zm94.9-1.6a1.13,1.13,0,0,1,.4-1.5h0a1.13,1.13,0,0,1,1.5.4h0a1.13,1.13,0,0,1-.4,1.5h0a0.9,0.9,0,0,1-.5.1h0A1.23,1.23,0,0,1,117.3,207.2Zm3.5-1.9a1.13,1.13,0,0,1,.4-1.5h0a1.13,1.13,0,0,1,1.5.4h0a1.13,1.13,0,0,1-.4,1.5h0a0.9,0.9,0,0,1-.5.1h0A1.23,1.23,0,0,1,120.8,205.3Zm3.6-1.9a1.13,1.13,0,0,1,.4-1.5h0a1.13,1.13,0,0,1,1.5.4h0a1.13,1.13,0,0,1-.4,1.5h0a0.9,0.9,0,0,1-.5.1h0A1.23,1.23,0,0,1,124.4,203.4Zm3.6-1.9a1.13,1.13,0,0,1,.4-1.5h0a1.13,1.13,0,0,1,1.5.4h0a1.13,1.13,0,0,1-.4,1.5h0a0.9,0.9,0,0,1-.5.1h0A1.1,1.1,0,0,1,128,201.5Zm3.5-1.9a1.13,1.13,0,0,1,.4-1.5h0a1.13,1.13,0,0,1,1.5.4h0a1.13,1.13,0,0,1-.4,1.5h0a0.9,0.9,0,0,1-.5.1h0A1.23,1.23,0,0,1,131.5,199.6Zm3.6-1.9a1.13,1.13,0,0,1,.4-1.5h0a1.13,1.13,0,0,1,1.5.4h0a1.13,1.13,0,0,1-.4,1.5h0a0.9,0.9,0,0,1-.5.1h0A1.1,1.1,0,0,1,135.1,197.7Zm3.5-1.9a1.13,1.13,0,0,1,.4-1.5h0a1.13,1.13,0,0,1,1.5.4h0a1.13,1.13,0,0,1-.4,1.5h0a0.9,0.9,0,0,1-.5.1h0A1.23,1.23,0,0,1,138.6,195.8Zm3.6-1.9a1.13,1.13,0,0,1,.4-1.5h0a1.13,1.13,0,0,1,1.5.4h0a1.13,1.13,0,0,1-.4,1.5h0a0.9,0.9,0,0,1-.5.1h0A1.23,1.23,0,0,1,142.2,193.9Zm3.6-1.9a1.13,1.13,0,0,1,.4-1.5h0a1.13,1.13,0,0,1,1.5.4h0a1.13,1.13,0,0,1-.4,1.5h0a0.9,0.9,0,0,1-.5.1h0A1.1,1.1,0,0,1,145.8,192Zm3.5-1.9a1.13,1.13,0,0,1,.4-1.5h0a1.13,1.13,0,0,1,1.5.4h0a1.13,1.13,0,0,1-.4,1.5h0a0.9,0.9,0,0,1-.5.1h0A1.23,1.23,0,0,1,149.3,190.1Zm3.6-1.9a1.13,1.13,0,0,1,.4-1.5h0a1.13,1.13,0,0,1,1.5.4h0a1.13,1.13,0,0,1-.4,1.5h0a0.9,0.9,0,0,1-.5.1h0A1.1,1.1,0,0,1,152.9,188.2Zm3.5-1.9a1.13,1.13,0,0,1,.4-1.5h0a1.13,1.13,0,0,1,1.5.4h0a1.13,1.13,0,0,1-.4,1.5h0a0.9,0.9,0,0,1-.5.1h0A1.23,1.23,0,0,1,156.4,186.3Zm3.6-1.9a1.13,1.13,0,0,1,.4-1.5h0a1.13,1.13,0,0,1,1.5.4h0a1.13,1.13,0,0,1-.4,1.5h0a0.9,0.9,0,0,1-.5.1h0A1.23,1.23,0,0,1,160,184.4Zm3.6-2a1.13,1.13,0,0,1,.4-1.5h0a1.13,1.13,0,0,1,1.5.4h0a1.13,1.13,0,0,1-.4,1.5h0a0.9,0.9,0,0,1-.5.1h0A0.78,0.78,0,0,1,163.6,182.4Zm3.5-1.9a1.13,1.13,0,0,1,.4-1.5h0a1.13,1.13,0,0,1,1.5.4h0a1.13,1.13,0,0,1-.4,1.5h0a0.9,0.9,0,0,1-.5.1h0A0.88,0.88,0,0,1,167.1,180.5Zm3.6-1.9a1.13,1.13,0,0,1,.4-1.5h0a1.13,1.13,0,0,1,1.5.4h0a1.13,1.13,0,0,1-.4,1.5h0a0.9,0.9,0,0,1-.5.1h0A0.83,0.83,0,0,1,170.7,178.6Zm3.5-1.9a1.13,1.13,0,0,1,.4-1.5h0a1.13,1.13,0,0,1,1.5.4h0a1.13,1.13,0,0,1-.4,1.5h0a0.9,0.9,0,0,1-.5.1h0A0.88,0.88,0,0,1,174.2,176.7Zm3.6-1.9a1.13,1.13,0,0,1,.4-1.5h0a1.13,1.13,0,0,1,1.5.4h0a1.13,1.13,0,0,1-.4,1.5h0a0.9,0.9,0,0,1-.5.1h0A0.88,0.88,0,0,1,177.8,174.8Z" transform="translate(-7.09 0)"/><path class="b" d="M31.6,189.2a5.09,5.09,0,0,0,2-2.1,5.6,5.6,0,0,0,.8-2.7,2,2,0,0,0-.8-1.8,2.11,2.11,0,0,0-2,.2,6.36,6.36,0,0,0-2,2,5.6,5.6,0,0,0-.8,2.7,2,2,0,0,0,.8,1.8C30.1,189.8,30.8,189.7,31.6,189.2Z" transform="translate(-7.09 0)"/><path class="c" d="M48.8,182.1c0,12.4-8.7,27.4-19.4,33.6s-20.9.8-20.9-12.3c0-12.4,8.3-27.3,19.1-33.5S48.7,169.8,48.8,182.1Zm-25,23.3a0.6,0.6,0,0,0,.3.6,0.63,0.63,0,0,0,.7-0.1,2.34,2.34,0,0,0,.7-0.7,1.49,1.49,0,0,0,.2-0.9v-2.1a5.6,5.6,0,0,1,.8-2.7,4.81,4.81,0,0,1,2-2l6.5-3.7a1.86,1.86,0,0,1,2-.2,2,2,0,0,1,.8,1.8v2.1a0.85,0.85,0,0,0,.2.6,0.63,0.63,0,0,0,.7-0.1,2.34,2.34,0,0,0,.7-0.7,1.49,1.49,0,0,0,.2-0.9v-2.1a3.81,3.81,0,0,0-.4-1.9,2.17,2.17,0,0,0-1-1.1,3.34,3.34,0,0,0-1.5-.3,6.36,6.36,0,0,0-1.8.6l-6.5,3.7a8.45,8.45,0,0,0-1.8,1.5,9.51,9.51,0,0,0-1.5,2,16,16,0,0,0-1,2.3,10.11,10.11,0,0,0-.4,2.3l0.1,2m12-23.9a2.17,2.17,0,0,0-1-1.1,3.34,3.34,0,0,0-1.5-.3,6.36,6.36,0,0,0-1.8.6,11.92,11.92,0,0,0-1.8,1.5,9.51,9.51,0,0,0-1.5,2,16,16,0,0,0-1,2.3,10.11,10.11,0,0,0-.4,2.3,3.81,3.81,0,0,0,.4,1.9,2.17,2.17,0,0,0,1,1.1,3.34,3.34,0,0,0,1.5.3,4.26,4.26,0,0,0,1.8-.6,6.55,6.55,0,0,0,1.8-1.5,9.51,9.51,0,0,0,1.5-2,16,16,0,0,0,1-2.3,9.26,9.26,0,0,0,.4-2.3,3.58,3.58,0,0,0-.4-1.9M17.5,199.2a0.63,0.63,0,0,0,.7-0.1L20,198v2.1a0.85,0.85,0,0,0,.2.6,0.63,0.63,0,0,0,.7-0.1,2.34,2.34,0,0,0,.7-0.7,1.49,1.49,0,0,0,.2-0.9v-2.1l1.9-1.1a2.34,2.34,0,0,0,.7-0.7,1.49,1.49,0,0,0,.2-0.9,0.6,0.6,0,0,0-.3-0.6,0.63,0.63,0,0,0-.7.1l-1.9,1.1v-2.1a0.6,0.6,0,0,0-.3-0.6,0.63,0.63,0,0,0-.7.1,2.34,2.34,0,0,0-.7.7,1.49,1.49,0,0,0-.2.9v2.1L18,197a2.34,2.34,0,0,0-.7.7,1.49,1.49,0,0,0-.2.9,0.92,0.92,0,0,0,.4.6" transform="translate(-7.09 0)"/><path class="a" d="M25.1,198.8a16,16,0,0,0-1,2.3,10.11,10.11,0,0,0-.4,2.3v2.1a0.6,0.6,0,0,0,.3.6,0.63,0.63,0,0,0,.7-0.1,2.34,2.34,0,0,0,.7-0.7,1.49,1.49,0,0,0,.2-0.9v-2.1a5.6,5.6,0,0,1,.8-2.7,4.81,4.81,0,0,1,2-2l6.5-3.7a1.86,1.86,0,0,1,2-.2,2,2,0,0,1,.8,1.8v2.1a0.85,0.85,0,0,0,.2.6,0.63,0.63,0,0,0,.7-0.1,2.34,2.34,0,0,0,.7-0.7,1.49,1.49,0,0,0,.2-0.9v-2.1a3.81,3.81,0,0,0-.4-1.9,2.17,2.17,0,0,0-1-1.1,3.34,3.34,0,0,0-1.5-.3,6.36,6.36,0,0,0-1.8.6l-6.5,3.7a8.45,8.45,0,0,0-1.8,1.5A7.21,7.21,0,0,0,25.1,198.8Z" transform="translate(-7.09 0)"/><path class="a" d="M17.5,197.6a1.49,1.49,0,0,0-.2.9,0.85,0.85,0,0,0,.2.6,0.63,0.63,0,0,0,.7-0.1l1.8-1v2.1a0.85,0.85,0,0,0,.2.6,0.63,0.63,0,0,0,.7-0.1,2.34,2.34,0,0,0,.7-0.7,1.49,1.49,0,0,0,.2-0.9v-2.1l1.9-1.1a2.34,2.34,0,0,0,.7-0.7,1.49,1.49,0,0,0,.2-0.9,0.6,0.6,0,0,0-.3-0.6,0.63,0.63,0,0,0-.7.1l-1.9,1.1v-2.1a0.6,0.6,0,0,0-.3-0.6,0.63,0.63,0,0,0-.7.1,2.34,2.34,0,0,0-.7.7,1.49,1.49,0,0,0-.2.9v2.1L18,197C17.9,197.1,17.7,197.4,17.5,197.6Z" transform="translate(-7.09 0)"/><path class="a" d="M33.4,189.9a11.92,11.92,0,0,1-1.8,1.5,3.23,3.23,0,0,1-1.8.6,1.88,1.88,0,0,1-1.5-.3,2.17,2.17,0,0,1-1-1.1,4.88,4.88,0,0,1-.4-1.9,6.56,6.56,0,0,1,.4-2.3,11.46,11.46,0,0,1,1-2.3,9.51,9.51,0,0,1,1.5-2,11.92,11.92,0,0,1,1.8-1.5,3.8,3.8,0,0,1,1.8-.6,1.88,1.88,0,0,1,1.5.3,2.17,2.17,0,0,1,1,1.1,4.88,4.88,0,0,1,.4,1.9,6.56,6.56,0,0,1-.4,2.3,11.46,11.46,0,0,1-1,2.3A9.51,9.51,0,0,1,33.4,189.9Zm0.1-7.3a2.11,2.11,0,0,0-2,.2,6.36,6.36,0,0,0-2,2,5.6,5.6,0,0,0-.8,2.7,2,2,0,0,0,.8,1.8,2.11,2.11,0,0,0,2-.2,5.09,5.09,0,0,0,2-2.1,5.6,5.6,0,0,0,.8-2.7,1.69,1.69,0,0,0-.8-1.7" transform="translate(-7.09 0)"/><path class="d" d="M7.1,202c0.2-7.7,3.4-15.3,7.8-21.6,4.1-6,10.1-11.9,17.4-13.5a11.49,11.49,0,0,1,6.1.1c1.8,0.5,3.1,1.7,4.7,2.7-3.9-2.3-8.7-1.3-12.5.6a36.28,36.28,0,0,0-10.7,8.8c-5.8,7.1-10.2,16.4-10.1,25.7,0,4.6,1.4,9.8,5.7,12.3a18.84,18.84,0,0,1-5.6-4.5c-2.3-3-2.9-6.9-2.8-10.6h0C7.2,200.8,7.1,202.3,7.1,202Z" transform="translate(-7.09 0)"/><path class="e" d="M52.3,207.5a4.5,4.5,0,0,1-2.4,3.4,11.51,11.51,0,0,1-4.4,1.5,15.46,15.46,0,0,1-4.8-.1,11.4,11.4,0,0,1-4.3-1.7,4.57,4.57,0,0,1-2-2.9v2.8a3.64,3.64,0,0,0,.9,2.3,7.44,7.44,0,0,0,3.1,2.1,13.55,13.55,0,0,0,4,.8,13.94,13.94,0,0,0,4.1-.3,10,10,0,0,0,3.7-1.5,4.72,4.72,0,0,0,2.1-2.9v-3.5h0Z" transform="translate(-7.09 0)"/><path class="f" d="M49.7,203.8c3.5,2,3.5,5.3,0,7.3a14.19,14.19,0,0,1-12.7,0c-3.5-2-3.5-5.3,0-7.3A13.59,13.59,0,0,1,49.7,203.8Z" transform="translate(-7.09 0)"/><path class="e" d="M47.6,205.3l-0.9.5a1.85,1.85,0,0,1,.9.9l-0.9.2a2.38,2.38,0,0,0-.9-0.9,2.15,2.15,0,0,0-1.9-.1c-0.5.3-.4,0.6,0.1,1.3s0.6,1.4-.3,1.9a4.33,4.33,0,0,1-3.2.1l-1,.6-0.6-.4,1-.6a2.29,2.29,0,0,1-1.1-1.1l0.9-.2a1.89,1.89,0,0,0,1,1,2.25,2.25,0,0,0,2.1.1c0.5-.3.5-0.7,0.1-1.3-0.6-.8-0.8-1.4.1-1.9a3.48,3.48,0,0,1,3-.1l1-.6Z" transform="translate(-7.09 0)"/><path class="e" d="M244.3,360.3a4.5,4.5,0,0,1-2.4,3.4,11.51,11.51,0,0,1-4.4,1.5,15.46,15.46,0,0,1-4.8-.1,11.4,11.4,0,0,1-4.3-1.7,4.57,4.57,0,0,1-2-2.9v2.8a3.64,3.64,0,0,0,.9,2.3,7.44,7.44,0,0,0,3.1,2.1,13.54,13.54,0,0,0,4,.8,13.94,13.94,0,0,0,4.1-.3,10,10,0,0,0,3.7-1.5,4.72,4.72,0,0,0,2.1-2.9v-3.5h0Z" transform="translate(-7.09 0)"/><path class="f" d="M241.7,356.5c3.5,2,3.5,5.3,0,7.3a14.19,14.19,0,0,1-12.7,0c-3.5-2-3.5-5.3,0-7.3A14.19,14.19,0,0,1,241.7,356.5Z" transform="translate(-7.09 0)"/><path class="e" d="M239.6,358.1l-0.9.5a1.85,1.85,0,0,1,.9.9l-0.9.2a2.38,2.38,0,0,0-.9-0.9,2.15,2.15,0,0,0-1.9-.1c-0.5.3-.4,0.6,0.1,1.3s0.6,1.4-.3,1.9a4.33,4.33,0,0,1-3.2.1l-1,.6-0.6-.4,1-.6a2.29,2.29,0,0,1-1.1-1.1l0.9-.2a1.89,1.89,0,0,0,1,1,2.25,2.25,0,0,0,2.1.1c0.5-.3.5-0.7,0.1-1.3-0.6-.8-0.8-1.4.1-1.9a3.48,3.48,0,0,1,3-.1l1-.6Z" transform="translate(-7.09 0)"/><path class="a" d="M79.1,279a1.13,1.13,0,0,1,.4-1.5h0a1.13,1.13,0,0,1,1.5.4h0a1.13,1.13,0,0,1-.4,1.5h0a0.9,0.9,0,0,1-.5.1h0A0.88,0.88,0,0,1,79.1,279Zm3.5-2a1.13,1.13,0,0,1,.4-1.5h0a1.13,1.13,0,0,1,1.5.4h0a1.13,1.13,0,0,1-.4,1.5h0a1.09,1.09,0,0,1-.5.1h0A0.88,0.88,0,0,1,82.6,277Zm3.5-2a1.13,1.13,0,0,1,.4-1.5h0a1.13,1.13,0,0,1,1.5.4h0a1.13,1.13,0,0,1-.4,1.5h0a1.09,1.09,0,0,1-.5.1h0A0.88,0.88,0,0,1,86.1,275Zm3.5-2a1.13,1.13,0,0,1,.4-1.5h0a1.13,1.13,0,0,1,1.5.4h0a1.13,1.13,0,0,1-.4,1.5h0a1.09,1.09,0,0,1-.5.1h0A0.88,0.88,0,0,1,89.6,273Zm3.5-2a1.13,1.13,0,0,1,.4-1.5h0a1.13,1.13,0,0,1,1.5.4h0a1.13,1.13,0,0,1-.4,1.5h0a1.09,1.09,0,0,1-.5.1h0A0.88,0.88,0,0,1,93.1,271Zm3.5-2a1.13,1.13,0,0,1,.4-1.5h0a1.13,1.13,0,0,1,1.5.4h0a1.13,1.13,0,0,1-.4,1.5h0a1.09,1.09,0,0,1-.5.1h0A1,1,0,0,1,96.6,269Zm3.5-2a1.13,1.13,0,0,1,.4-1.5h0a1.13,1.13,0,0,1,1.5.4h0a1.13,1.13,0,0,1-.4,1.5h0a1.09,1.09,0,0,1-.5.1h0A1,1,0,0,1,100.1,267Zm3.5-2a1.13,1.13,0,0,1,.4-1.5h0a1.13,1.13,0,0,1,1.5.4h0a1.13,1.13,0,0,1-.4,1.5h0a1.09,1.09,0,0,1-.5.1h0A1.23,1.23,0,0,1,103.6,265Zm3.5-2a1.13,1.13,0,0,1,.4-1.5h0a1.13,1.13,0,0,1,1.5.4h0a1.13,1.13,0,0,1-.4,1.5h0a1.09,1.09,0,0,1-.5.1h0A1.23,1.23,0,0,1,107.1,263Zm3.5-2a1.13,1.13,0,0,1,.4-1.5h0a1.13,1.13,0,0,1,1.5.4h0a1.13,1.13,0,0,1-.4,1.5h0a1.09,1.09,0,0,1-.5.1h0A1.23,1.23,0,0,1,110.6,261Zm3.5-2a1.13,1.13,0,0,1,.4-1.5h0a1.13,1.13,0,0,1,1.5.4h0a1.13,1.13,0,0,1-.4,1.5h0a1.09,1.09,0,0,1-.5.1h0A1.23,1.23,0,0,1,114.1,259Zm3.5-2a1.13,1.13,0,0,1,.4-1.5h0a1.13,1.13,0,0,1,1.5.4h0a1.13,1.13,0,0,1-.4,1.5h0a1.09,1.09,0,0,1-.5.1h0A1.23,1.23,0,0,1,117.6,257Zm3.5-2a1.13,1.13,0,0,1,.4-1.5h0a1.13,1.13,0,0,1,1.5.4h0a1.13,1.13,0,0,1-.4,1.5h0a0.9,0.9,0,0,1-.5.1h0A1.23,1.23,0,0,1,121.1,255Zm3.5-2a1.13,1.13,0,0,1,.4-1.5h0a1.13,1.13,0,0,1,1.5.4h0a1.13,1.13,0,0,1-.4,1.5h0a1.09,1.09,0,0,1-.5.1h0A1.23,1.23,0,0,1,124.6,253Zm3.5-2a1.13,1.13,0,0,1,.4-1.5h0a1.13,1.13,0,0,1,1.5.4h0a1.13,1.13,0,0,1-.4,1.5h0a1.09,1.09,0,0,1-.5.1h0A1.23,1.23,0,0,1,128.1,251Zm3.5-2a1.13,1.13,0,0,1,.4-1.5h0a1.13,1.13,0,0,1,1.5.4h0a1.13,1.13,0,0,1-.4,1.5h0a1.09,1.09,0,0,1-.5.1h0A1.23,1.23,0,0,1,131.6,249Zm3.5-2a1.13,1.13,0,0,1,.4-1.5h0a1.13,1.13,0,0,1,1.5.4h0a1.13,1.13,0,0,1-.4,1.5h0a1.09,1.09,0,0,1-.5.1h0A1.23,1.23,0,0,1,135.1,247Zm3.5-2a1.13,1.13,0,0,1,.4-1.5h0a1.13,1.13,0,0,1,1.5.4h0a1.13,1.13,0,0,1-.4,1.5h0a1.09,1.09,0,0,1-.5.1h0A1.23,1.23,0,0,1,138.6,245Zm3.5-2a1.13,1.13,0,0,1,.4-1.5h0a1.13,1.13,0,0,1,1.5.4h0a1.13,1.13,0,0,1-.4,1.5h0a1.09,1.09,0,0,1-.5.1h0A1.23,1.23,0,0,1,142.1,243Zm3.5-2.1a1.13,1.13,0,0,1,.4-1.5h0a1.13,1.13,0,0,1,1.5.4h0a1.13,1.13,0,0,1-.4,1.5h0a1.09,1.09,0,0,1-.5.1h0A0.88,0.88,0,0,1,145.6,240.9Zm3.5-2a1.13,1.13,0,0,1,.4-1.5h0a1.13,1.13,0,0,1,1.5.4h0a1.13,1.13,0,0,1-.4,1.5h0a1.09,1.09,0,0,1-.5.1h0A0.88,0.88,0,0,1,149.1,238.9Zm3.5-2a1.13,1.13,0,0,1,.4-1.5h0a1.13,1.13,0,0,1,1.5.4h0a1.13,1.13,0,0,1-.4,1.5h0a1.09,1.09,0,0,1-.5.1h0A0.88,0.88,0,0,1,152.6,236.9Zm3.5-2a1.13,1.13,0,0,1,.4-1.5h0a1.13,1.13,0,0,1,1.5.4h0a1.13,1.13,0,0,1-.4,1.5h0a1.09,1.09,0,0,1-.5.1h0A0.88,0.88,0,0,1,156.1,234.9Zm3.5-2a1.13,1.13,0,0,1,.4-1.5h0a1.13,1.13,0,0,1,1.5.4h0a1.13,1.13,0,0,1-.4,1.5h0a1.09,1.09,0,0,1-.5.1h0A0.88,0.88,0,0,1,159.6,232.9Zm3.5-2a1.13,1.13,0,0,1,.4-1.5h0a1.13,1.13,0,0,1,1.5.4h0a1.13,1.13,0,0,1-.4,1.5h0a1.09,1.09,0,0,1-.5.1h0A0.88,0.88,0,0,1,163.1,230.9Zm3.6-2a1.13,1.13,0,0,1,.4-1.5h0a1.13,1.13,0,0,1,1.5.4h0a1.13,1.13,0,0,1-.4,1.5h0a1.09,1.09,0,0,1-.5.1h0A0.83,0.83,0,0,1,166.7,228.9Zm3.5-2a1.13,1.13,0,0,1,.4-1.5h0a1.13,1.13,0,0,1,1.5.4h0a1.13,1.13,0,0,1-.4,1.5h0a1.09,1.09,0,0,1-.5.1h0A0.83,0.83,0,0,1,170.2,226.9Zm3.5-2a1.13,1.13,0,0,1,.4-1.5h0a1.13,1.13,0,0,1,1.5.4h0a1.13,1.13,0,0,1-.4,1.5h0a1.09,1.09,0,0,1-.5.1h0A0.83,0.83,0,0,1,173.7,224.9Zm3.5-2a1.13,1.13,0,0,1,.4-1.5h0a1.13,1.13,0,0,1,1.5.4h0a1.13,1.13,0,0,1-.4,1.5h0a1.09,1.09,0,0,1-.5.1h0A0.83,0.83,0,0,1,177.2,222.9Zm3.5-2a1.13,1.13,0,0,1,.4-1.5h0a1.13,1.13,0,0,1,1.5.4h0a1.13,1.13,0,0,1-.4,1.5h0a1.09,1.09,0,0,1-.5.1h0A0.83,0.83,0,0,1,180.7,220.9Zm3.5-2a1.13,1.13,0,0,1,.4-1.5h0a1.13,1.13,0,0,1,1.5.4h0a1.13,1.13,0,0,1-.4,1.5h0a1.09,1.09,0,0,1-.5.1h0A0.94,0.94,0,0,1,184.2,218.9Zm3.5-2a1.13,1.13,0,0,1,.4-1.5h0a1.13,1.13,0,0,1,1.5.4h0a1.13,1.13,0,0,1-.4,1.5h0a1.09,1.09,0,0,1-.5.1h0A1.1,1.1,0,0,1,187.7,216.9Z" transform="translate(-7.09 0)"/><path class="a" d="M205.3,173.8a1.13,1.13,0,0,1-.4-1.5h0a1.13,1.13,0,0,1,1.5-.4h0a1.13,1.13,0,0,1,.4,1.5h0a1.19,1.19,0,0,1-.9.5h0A1.27,1.27,0,0,1,205.3,173.8Zm-3.4-2.1a1.13,1.13,0,0,1-.4-1.5h0a1.13,1.13,0,0,1,1.5-.4h0a1.13,1.13,0,0,1,.4,1.5h0a1.19,1.19,0,0,1-.9.5h0A0.56,0.56,0,0,1,201.9,171.7Zm-3.5-2a1.13,1.13,0,0,1-.4-1.5h0a1.13,1.13,0,0,1,1.5-.4h0a1.13,1.13,0,0,1,.4,1.5h0a1.19,1.19,0,0,1-.9.5h0A0.56,0.56,0,0,1,198.4,169.7Zm-3.5-2a1.13,1.13,0,0,1-.4-1.5h0a1.13,1.13,0,0,1,1.5-.4h0a1.13,1.13,0,0,1,.4,1.5h0a1.19,1.19,0,0,1-.9.5h0A0.56,0.56,0,0,1,194.9,167.7Zm-3.5-2a1.13,1.13,0,0,1-.4-1.5h0a1.13,1.13,0,0,1,1.5-.4h0a1.13,1.13,0,0,1,.4,1.5h0a1.19,1.19,0,0,1-.9.5h0A0.92,0.92,0,0,1,191.4,165.7Zm-3.5-2a1.13,1.13,0,0,1-.4-1.5h0a1.13,1.13,0,0,1,1.5-.4h0a1.13,1.13,0,0,1,.4,1.5h0a1.19,1.19,0,0,1-.9.5h0A0.92,0.92,0,0,1,187.9,163.7Zm-3.5-2a1.13,1.13,0,0,1-.4-1.5h0a1.13,1.13,0,0,1,1.5-.4h0a1.13,1.13,0,0,1,.4,1.5h0a1.19,1.19,0,0,1-.9.5h0A1.08,1.08,0,0,1,184.4,161.7Zm-3.5-2.1a1.13,1.13,0,0,1-.4-1.5h0a1.13,1.13,0,0,1,1.5-.4h0a1.13,1.13,0,0,1,.4,1.5h0a1.19,1.19,0,0,1-.9.5h0A0.61,0.61,0,0,1,180.9,159.6Zm-3.5-2a1.13,1.13,0,0,1-.4-1.5h0a1.13,1.13,0,0,1,1.5-.4h0a1.13,1.13,0,0,1,.4,1.5h0a1.19,1.19,0,0,1-.9.5h0A0.66,0.66,0,0,1,177.4,157.6Zm-3.5-2a1.13,1.13,0,0,1-.4-1.5h0a1.13,1.13,0,0,1,1.5-.4h0a1.13,1.13,0,0,1,.4,1.5h0a1.19,1.19,0,0,1-.9.5h0A1.27,1.27,0,0,1,173.9,155.6Zm-3.5-2a1.13,1.13,0,0,1-.4-1.5h0a1.13,1.13,0,0,1,1.5-.4h0a1.13,1.13,0,0,1,.4,1.5h0a1.19,1.19,0,0,1-.9.5h0A1.27,1.27,0,0,1,170.4,153.6Zm-3.5-2a1.13,1.13,0,0,1-.4-1.5h0a1.13,1.13,0,0,1,1.5-.4h0a1.13,1.13,0,0,1,.4,1.5h0a1.19,1.19,0,0,1-.9.5h0A1.27,1.27,0,0,1,166.9,151.6Zm-3.5-2.1a1.13,1.13,0,0,1-.4-1.5h0a1.13,1.13,0,0,1,1.5-.4h0a1.13,1.13,0,0,1,.4,1.5h0a1.19,1.19,0,0,1-.9.5h0A0.66,0.66,0,0,1,163.4,149.5Zm-3.5-2a1.13,1.13,0,0,1-.4-1.5h0a1.13,1.13,0,0,1,1.5-.4h0a1.13,1.13,0,0,1,.4,1.5h0a1.19,1.19,0,0,1-.9.5h0A0.66,0.66,0,0,1,159.9,147.5Zm-3.5-2a1.13,1.13,0,0,1-.4-1.5h0a1.13,1.13,0,0,1,1.5-.4h0a1.13,1.13,0,0,1,.4,1.5h0a1.19,1.19,0,0,1-.9.5h0A1.27,1.27,0,0,1,156.4,145.5Zm-3.5-2a1.13,1.13,0,0,1-.4-1.5h0a1.13,1.13,0,0,1,1.5-.4h0a1.13,1.13,0,0,1,.4,1.5h0a1.19,1.19,0,0,1-.9.5h0A1.27,1.27,0,0,1,152.9,143.5Zm-3.5-2a1.13,1.13,0,0,1-.4-1.5h0a1.13,1.13,0,0,1,1.5-.4h0a1.13,1.13,0,0,1,.4,1.5h0a1.19,1.19,0,0,1-.9.5h0A1.27,1.27,0,0,1,149.4,141.5Zm-3.4-2.1a1.13,1.13,0,0,1-.4-1.5h0a1.13,1.13,0,0,1,1.5-.4h0a1.13,1.13,0,0,1,.4,1.5h0a1.19,1.19,0,0,1-.9.5h0A0.56,0.56,0,0,1,146,139.4Zm-3.5-2a1.13,1.13,0,0,1-.4-1.5h0a1.13,1.13,0,0,1,1.5-.4h0a1.13,1.13,0,0,1,.4,1.5h0a1.19,1.19,0,0,1-.9.5h0A0.56,0.56,0,0,1,142.5,137.4Zm-3.5-2a1.13,1.13,0,0,1-.4-1.5h0a1.13,1.13,0,0,1,1.5-.4h0a1.13,1.13,0,0,1,.4,1.5h0a1.19,1.19,0,0,1-.9.5h0A0.56,0.56,0,0,1,139,135.4Zm-3.5-2a1.13,1.13,0,0,1-.4-1.5h0a1.13,1.13,0,0,1,1.5-.4h0a1.13,1.13,0,0,1,.4,1.5h0a1.19,1.19,0,0,1-.9.5h0A0.92,0.92,0,0,1,135.5,133.4Zm-3.5-2a1.13,1.13,0,0,1-.4-1.5h0a1.13,1.13,0,0,1,1.5-.4h0a1.13,1.13,0,0,1,.4,1.5h0a1.19,1.19,0,0,1-.9.5h0A0.92,0.92,0,0,1,132,131.4Zm-3.5-2a1.13,1.13,0,0,1-.4-1.5h0a1.13,1.13,0,0,1,1.5-.4h0a1.13,1.13,0,0,1,.4,1.5h0a1.19,1.19,0,0,1-.9.5h0C128.8,129.5,128.7,129.4,128.5,129.4Zm-3.5-2.1a1.13,1.13,0,0,1-.4-1.5h0a1.13,1.13,0,0,1,1.5-.4h0a1.13,1.13,0,0,1,.4,1.5h0a1.19,1.19,0,0,1-.9.5h0A0.61,0.61,0,0,1,125,127.3Zm-3.5-2a1.13,1.13,0,0,1-.4-1.5h0a1.13,1.13,0,0,1,1.5-.4h0a1.13,1.13,0,0,1,.4,1.5h0a1.19,1.19,0,0,1-.9.5h0A0.66,0.66,0,0,1,121.5,125.3Zm-3.5-2a1.13,1.13,0,0,1-.4-1.5h0a1.13,1.13,0,0,1,1.5-.4h0a1.13,1.13,0,0,1,.4,1.5h0a1.19,1.19,0,0,1-.9.5h0A1.27,1.27,0,0,1,118,123.3Zm-3.5-2a1.13,1.13,0,0,1-.4-1.5h0a1.13,1.13,0,0,1,1.5-.4h0a1.13,1.13,0,0,1,.4,1.5h0a1.19,1.19,0,0,1-.9.5h0A1.27,1.27,0,0,1,114.5,121.3Zm-3.5-2a1.13,1.13,0,0,1-.4-1.5h0a1.13,1.13,0,0,1,1.5-.4h0a1.13,1.13,0,0,1,.4,1.5h0a1.19,1.19,0,0,1-.9.5h0A1.27,1.27,0,0,1,111,119.3Zm-3.5-2.1a1.13,1.13,0,0,1-.4-1.5h0a1.13,1.13,0,0,1,1.5-.4h0a1.13,1.13,0,0,1,.4,1.5h0a1.19,1.19,0,0,1-.9.5h0A0.66,0.66,0,0,1,107.5,117.2Zm-3.5-2a1.13,1.13,0,0,1-.4-1.5h0a1.13,1.13,0,0,1,1.5-.4h0a1.13,1.13,0,0,1,.4,1.5h0a1.19,1.19,0,0,1-.9.5h0A0.66,0.66,0,0,1,104,115.2Z" transform="translate(-7.09 0)"/><path class="a" d="M355.3,307.6a1.13,1.13,0,0,1-.4-1.5h0a1.13,1.13,0,0,1,1.5-.4h0a1.13,1.13,0,0,1,.4,1.5h0a1.19,1.19,0,0,1-.9.5h0A0.61,0.61,0,0,1,355.3,307.6Zm-3.5-2a1.13,1.13,0,0,1-.4-1.5h0a1.13,1.13,0,0,1,1.5-.4h0a1.13,1.13,0,0,1,.4,1.5h0a1.19,1.19,0,0,1-.9.5h0A1.08,1.08,0,0,1,351.8,305.6Zm-3.5-2a1.13,1.13,0,0,1-.4-1.5h0a1.13,1.13,0,0,1,1.5-.4h0a1.13,1.13,0,0,1,.4,1.5h0a1.19,1.19,0,0,1-.9.5h0A1.27,1.27,0,0,1,348.3,303.6Zm-3.5-2a1.13,1.13,0,0,1-.4-1.5h0a1.13,1.13,0,0,1,1.5-.4h0a1.13,1.13,0,0,1,.4,1.5h0a1.19,1.19,0,0,1-.9.5h0A1.27,1.27,0,0,1,344.8,301.6Zm-3.5-2.1a1.13,1.13,0,0,1-.4-1.5h0a1.13,1.13,0,0,1,1.5-.4h0a1.13,1.13,0,0,1,.4,1.5h0a1.19,1.19,0,0,1-.9.5h0A0.66,0.66,0,0,1,341.3,299.5Zm-3.5-2a1.13,1.13,0,0,1-.4-1.5h0a1.13,1.13,0,0,1,1.5-.4h0a1.13,1.13,0,0,1,.4,1.5h0a1.19,1.19,0,0,1-.9.5h0A0.66,0.66,0,0,1,337.8,297.5Zm-3.5-2a1.13,1.13,0,0,1-.4-1.5h0a1.13,1.13,0,0,1,1.5-.4h0a1.13,1.13,0,0,1,.4,1.5h0a1.19,1.19,0,0,1-.9.5h0A1.27,1.27,0,0,1,334.3,295.5Zm-3.5-2a1.13,1.13,0,0,1-.4-1.5h0a1.13,1.13,0,0,1,1.5-.4h0a1.13,1.13,0,0,1,.4,1.5h0a1.19,1.19,0,0,1-.9.5h0A1.27,1.27,0,0,1,330.8,293.5Zm-3.5-2a1.13,1.13,0,0,1-.4-1.5h0a1.13,1.13,0,0,1,1.5-.4h0a1.13,1.13,0,0,1,.4,1.5h0a1.19,1.19,0,0,1-.9.5h0A1.27,1.27,0,0,1,327.3,291.5Zm-3.5-2.1a1.13,1.13,0,0,1-.4-1.5h0a1.13,1.13,0,0,1,1.5-.4h0a1.13,1.13,0,0,1,.4,1.5h0a1.19,1.19,0,0,1-.9.5h0A0.66,0.66,0,0,1,323.8,289.4Zm-3.5-2a1.13,1.13,0,0,1-.4-1.5h0a1.13,1.13,0,0,1,1.5-.4h0a1.13,1.13,0,0,1,.4,1.5h0a1.19,1.19,0,0,1-.9.5h0A0.66,0.66,0,0,1,320.3,287.4Zm-3.4-2a1.13,1.13,0,0,1-.4-1.5h0a1.13,1.13,0,0,1,1.5-.4h0a1.13,1.13,0,0,1,.4,1.5h0a1.19,1.19,0,0,1-.9.5h0A0.92,0.92,0,0,1,316.9,285.4Zm-3.5-2a1.13,1.13,0,0,1-.4-1.5h0a1.13,1.13,0,0,1,1.5-.4h0a1.13,1.13,0,0,1,.4,1.5h0a1.19,1.19,0,0,1-.9.5h0A0.92,0.92,0,0,1,313.4,283.4Zm-3.5-2a1.13,1.13,0,0,1-.4-1.5h0a1.13,1.13,0,0,1,1.5-.4h0a1.13,1.13,0,0,1,.4,1.5h0a1.19,1.19,0,0,1-.9.5h0A0.92,0.92,0,0,1,309.9,281.4Zm-3.5-2.1a1.13,1.13,0,0,1-.4-1.5h0a1.13,1.13,0,0,1,1.5-.4h0a1.13,1.13,0,0,1,.4,1.5h0a1.19,1.19,0,0,1-.9.5h0A0.56,0.56,0,0,1,306.4,279.3Zm-3.5-2a1.13,1.13,0,0,1-.4-1.5h0a1.13,1.13,0,0,1,1.5-.4h0a1.13,1.13,0,0,1,.4,1.5h0a1.19,1.19,0,0,1-.9.5h0A0.61,0.61,0,0,1,302.9,277.3Zm-3.5-2a1.13,1.13,0,0,1-.4-1.5h0a1.13,1.13,0,0,1,1.5-.4h0a1.13,1.13,0,0,1,.4,1.5h0a1.19,1.19,0,0,1-.9.5h0A0.61,0.61,0,0,1,299.4,275.3Zm-3.5-2a1.13,1.13,0,0,1-.4-1.5h0a1.13,1.13,0,0,1,1.5-.4h0a1.13,1.13,0,0,1,.4,1.5h0a1.19,1.19,0,0,1-.9.5h0A1.08,1.08,0,0,1,295.9,273.3Zm-3.5-2a1.13,1.13,0,0,1-.4-1.5h0a1.13,1.13,0,0,1,1.5-.4h0a1.13,1.13,0,0,1,.4,1.5h0a1.19,1.19,0,0,1-.9.5h0A1.27,1.27,0,0,1,292.4,271.3Zm-3.5-2a1.13,1.13,0,0,1-.4-1.5h0a1.13,1.13,0,0,1,1.5-.4h0a1.13,1.13,0,0,1,.4,1.5h0a1.19,1.19,0,0,1-.9.5h0A1.27,1.27,0,0,1,288.9,269.3Zm-3.5-2.1a1.13,1.13,0,0,1-.4-1.5h0a1.13,1.13,0,0,1,1.5-.4h0a1.13,1.13,0,0,1,.4,1.5h0a1.19,1.19,0,0,1-.9.5h0A0.66,0.66,0,0,1,285.4,267.2Zm-3.5-2a1.13,1.13,0,0,1-.4-1.5h0a1.13,1.13,0,0,1,1.5-.4h0a1.13,1.13,0,0,1,.4,1.5h0a1.19,1.19,0,0,1-.9.5h0A0.66,0.66,0,0,1,281.9,265.2Zm-3.5-2a1.13,1.13,0,0,1-.4-1.5h0a1.13,1.13,0,0,1,1.5-.4h0a1.13,1.13,0,0,1,.4,1.5h0a1.19,1.19,0,0,1-.9.5h0A1.27,1.27,0,0,1,278.4,263.2Zm-3.5-2a1.13,1.13,0,0,1-.4-1.5h0a1.13,1.13,0,0,1,1.5-.4h0a1.13,1.13,0,0,1,.4,1.5h0a1.19,1.19,0,0,1-.9.5h0A1.27,1.27,0,0,1,274.9,261.2Zm-3.5-2a1.13,1.13,0,0,1-.4-1.5h0a1.13,1.13,0,0,1,1.5-.4h0a1.13,1.13,0,0,1,.4,1.5h0a1.19,1.19,0,0,1-.9.5h0A1.27,1.27,0,0,1,271.4,259.2Zm-3.5-2.1a1.13,1.13,0,0,1-.4-1.5h0a1.13,1.13,0,0,1,1.5-.4h0a1.13,1.13,0,0,1,.4,1.5h0a1.19,1.19,0,0,1-.9.5h0A0.66,0.66,0,0,1,267.9,257.1Zm-3.4-2a1.13,1.13,0,0,1-.4-1.5h0a1.13,1.13,0,0,1,1.5-.4h0a1.13,1.13,0,0,1,.4,1.5h0a1.19,1.19,0,0,1-.9.5h0A0.56,0.56,0,0,1,264.5,255.1Zm-3.5-2a1.13,1.13,0,0,1-.4-1.5h0a1.13,1.13,0,0,1,1.5-.4h0a1.13,1.13,0,0,1,.4,1.5h0a1.19,1.19,0,0,1-.9.5h0A0.92,0.92,0,0,1,261,253.1Zm-3.5-2a1.13,1.13,0,0,1-.4-1.5h0a1.13,1.13,0,0,1,1.5-.4h0a1.13,1.13,0,0,1,.4,1.5h0a1.19,1.19,0,0,1-.9.5h0A0.92,0.92,0,0,1,257.5,251.1Zm-3.5-2a1.13,1.13,0,0,1-.4-1.5h0a1.13,1.13,0,0,1,1.5-.4h0a1.13,1.13,0,0,1,.4,1.5h0a1.19,1.19,0,0,1-.9.5h0A0.92,0.92,0,0,1,254,249.1Z" transform="translate(-7.09 0)"/><path class="a" d="M400.5,268.5a1.13,1.13,0,0,1-.4-1.5h0a1.13,1.13,0,0,1,1.5-.4h0a1.13,1.13,0,0,1,.4,1.5h0a1.19,1.19,0,0,1-.9.5h0A0.66,0.66,0,0,1,400.5,268.5Zm-3.5-2a1.13,1.13,0,0,1-.4-1.5h0a1.13,1.13,0,0,1,1.5-.4h0a1.13,1.13,0,0,1,.4,1.5h0a1.19,1.19,0,0,1-.9.5h0A0.66,0.66,0,0,1,397,266.5Zm-3.5-2a1.13,1.13,0,0,1-.4-1.5h0a1.13,1.13,0,0,1,1.5-.4h0a1.13,1.13,0,0,1,.4,1.5h0a1.19,1.19,0,0,1-.9.5h0A0.66,0.66,0,0,1,393.5,264.5Zm-3.5-2a1.13,1.13,0,0,1-.4-1.5h0a1.13,1.13,0,0,1,1.5-.4h0a1.13,1.13,0,0,1,.4,1.5h0a1.19,1.19,0,0,1-.9.5h0A1.27,1.27,0,0,1,390,262.5Zm-3.5-2a1.13,1.13,0,0,1-.4-1.5h0a1.13,1.13,0,0,1,1.5-.4h0a1.13,1.13,0,0,1,.4,1.5h0a1.19,1.19,0,0,1-.9.5h0A1.27,1.27,0,0,1,386.5,260.5Zm-3.5-2a1.13,1.13,0,0,1-.4-1.5h0a1.13,1.13,0,0,1,1.5-.4h0a1.13,1.13,0,0,1,.4,1.5h0a1.19,1.19,0,0,1-.9.5h0A1.27,1.27,0,0,1,383,258.5Zm-3.5-2.1a1.13,1.13,0,0,1-.4-1.5h0a1.13,1.13,0,0,1,1.5-.4h0a1.13,1.13,0,0,1,.4,1.5h0a1.19,1.19,0,0,1-.9.5h0A0.66,0.66,0,0,1,379.5,256.4Zm-3.5-2a1.13,1.13,0,0,1-.4-1.5h0a1.13,1.13,0,0,1,1.5-.4h0a1.13,1.13,0,0,1,.4,1.5h0a1.19,1.19,0,0,1-.9.5h0A0.66,0.66,0,0,1,376,254.4Zm-3.5-2a1.13,1.13,0,0,1-.4-1.5h0a1.13,1.13,0,0,1,1.5-.4h0a1.13,1.13,0,0,1,.4,1.5h0a1.19,1.19,0,0,1-.9.5h0A1.27,1.27,0,0,1,372.5,252.4Zm-3.4-2a1.13,1.13,0,0,1-.4-1.5h0a1.13,1.13,0,0,1,1.5-.4h0a1.13,1.13,0,0,1,.4,1.5h0a1.19,1.19,0,0,1-.9.5h0A0.92,0.92,0,0,1,369.1,250.4Zm-3.5-2a1.13,1.13,0,0,1-.4-1.5h0a1.13,1.13,0,0,1,1.5-.4h0a1.13,1.13,0,0,1,.4,1.5h0a1.19,1.19,0,0,1-.9.5h0A0.92,0.92,0,0,1,365.6,248.4Zm-3.5-2.1a1.13,1.13,0,0,1-.4-1.5h0a1.13,1.13,0,0,1,1.5-.4h0a1.13,1.13,0,0,1,.4,1.5h0a1.19,1.19,0,0,1-.9.5h0A0.56,0.56,0,0,1,362.1,246.3Zm-3.5-2a1.13,1.13,0,0,1-.4-1.5h0a1.13,1.13,0,0,1,1.5-.4h0a1.13,1.13,0,0,1,.4,1.5h0a1.19,1.19,0,0,1-.9.5h0A0.56,0.56,0,0,1,358.6,244.3Zm-3.5-2a1.13,1.13,0,0,1-.4-1.5h0a1.13,1.13,0,0,1,1.5-.4h0a1.13,1.13,0,0,1,.4,1.5h0a1.19,1.19,0,0,1-.9.5h0A0.92,0.92,0,0,1,355.1,242.3Zm-3.5-2a1.13,1.13,0,0,1-.4-1.5h0a1.13,1.13,0,0,1,1.5-.4h0a1.13,1.13,0,0,1,.4,1.5h0a1.19,1.19,0,0,1-.9.5h0A1.08,1.08,0,0,1,351.6,240.3Zm-3.5-2a1.13,1.13,0,0,1-.4-1.5h0a1.13,1.13,0,0,1,1.5-.4h0a1.13,1.13,0,0,1,.4,1.5h0a1.19,1.19,0,0,1-.9.5h0A1.08,1.08,0,0,1,348.1,238.3Zm-3.5-2.1a1.13,1.13,0,0,1-.4-1.5h0a1.13,1.13,0,0,1,1.5-.4h0a1.13,1.13,0,0,1,.4,1.5h0a1.19,1.19,0,0,1-.9.5h0A0.66,0.66,0,0,1,344.6,236.2Zm-3.5-2a1.13,1.13,0,0,1-.4-1.5h0a1.13,1.13,0,0,1,1.5-.4h0a1.13,1.13,0,0,1,.4,1.5h0a1.19,1.19,0,0,1-.9.5h0A0.66,0.66,0,0,1,341.1,234.2Zm-3.5-2a1.13,1.13,0,0,1-.4-1.5h0a1.13,1.13,0,0,1,1.5-.4h0a1.13,1.13,0,0,1,.4,1.5h0a1.19,1.19,0,0,1-.9.5h0A1.27,1.27,0,0,1,337.6,232.2Zm-3.5-2a1.13,1.13,0,0,1-.4-1.5h0a1.13,1.13,0,0,1,1.5-.4h0a1.13,1.13,0,0,1,.4,1.5h0a1.19,1.19,0,0,1-.9.5h0A1.27,1.27,0,0,1,334.1,230.2Zm-3.5-2a1.13,1.13,0,0,1-.4-1.5h0a1.13,1.13,0,0,1,1.5-.4h0a1.13,1.13,0,0,1,.4,1.5h0a1.19,1.19,0,0,1-.9.5h0A1.27,1.27,0,0,1,330.6,228.2Zm-3.5-2.1a1.13,1.13,0,0,1-.4-1.5h0a1.13,1.13,0,0,1,1.5-.4h0a1.13,1.13,0,0,1,.4,1.5h0a1.19,1.19,0,0,1-.9.5h0A0.66,0.66,0,0,1,327.1,226.1Zm-3.5-2a1.13,1.13,0,0,1-.4-1.5h0a1.13,1.13,0,0,1,1.5-.4h0a1.13,1.13,0,0,1,.4,1.5h0a1.19,1.19,0,0,1-.9.5h0A0.66,0.66,0,0,1,323.6,224.1Zm-3.5-2a1.13,1.13,0,0,1-.4-1.5h0a1.13,1.13,0,0,1,1.5-.4h0a1.13,1.13,0,0,1,.4,1.5h0a1.19,1.19,0,0,1-.9.5h0A0.66,0.66,0,0,1,320.1,222.1Zm-3.5-2a1.13,1.13,0,0,1-.4-1.5h0a1.13,1.13,0,0,1,1.5-.4h0a1.13,1.13,0,0,1,.4,1.5h0a1.19,1.19,0,0,1-.9.5h0A1.27,1.27,0,0,1,316.6,220.1Zm-3.4-2a1.13,1.13,0,0,1-.4-1.5h0a1.13,1.13,0,0,1,1.5-.4h0a1.13,1.13,0,0,1,.4,1.5h0a1.19,1.19,0,0,1-.9.5h0A0.92,0.92,0,0,1,313.2,218.1Zm-3.5-2a1.13,1.13,0,0,1-.4-1.5h0a1.13,1.13,0,0,1,1.5-.4h0a1.13,1.13,0,0,1,.4,1.5h0a1.19,1.19,0,0,1-.9.5h0A3.54,3.54,0,0,1,309.7,216.1Zm-3.5-2.1a1.13,1.13,0,0,1-.4-1.5h0a1.13,1.13,0,0,1,1.5-.4h0a1.13,1.13,0,0,1,.4,1.5h0a1.19,1.19,0,0,1-.9.5h0A0.56,0.56,0,0,1,306.2,214Zm-3.5-2a1.13,1.13,0,0,1-.4-1.5h0a1.13,1.13,0,0,1,1.5-.4h0a1.13,1.13,0,0,1,.4,1.5h0a1.19,1.19,0,0,1-.9.5h0A0.56,0.56,0,0,1,302.7,212Zm-3.5-2a1.13,1.13,0,0,1-.4-1.5h0a1.13,1.13,0,0,1,1.5-.4h0a1.13,1.13,0,0,1,.4,1.5h0a1.19,1.19,0,0,1-.9.5h0A0.92,0.92,0,0,1,299.2,210Z" transform="translate(-7.09 0)"/><path class="g" d="M353.1,286.7a5.09,5.09,0,0,1-2-2.1,5.6,5.6,0,0,1-.8-2.7,2,2,0,0,1,.8-1.8,2.11,2.11,0,0,1,2,.2,6.36,6.36,0,0,1,2,2,5.6,5.6,0,0,1,.8,2.7,2,2,0,0,1-.8,1.8C354.6,287.3,353.9,287.2,353.1,286.7Z" transform="translate(-7.09 0)"/><path class="g" d="M356.9,267.8c10.8,6.2,19.7,20.5,19.7,32.8,0,13.1-10.5,18.9-21.2,12.7S335.9,292,336,279.7,346.1,261.6,356.9,267.8Zm4,35.2v-2.1a6.56,6.56,0,0,0-.4-2.3,11.46,11.46,0,0,0-1-2.3,9.51,9.51,0,0,0-1.5-2,11.92,11.92,0,0,0-1.8-1.5l-6.5-3.7a3.23,3.23,0,0,0-1.8-.6,2.39,2.39,0,0,0-1.5.3,2.17,2.17,0,0,0-1,1.1,4.88,4.88,0,0,0-.4,1.9v2.1a2.92,2.92,0,0,0,.2.9,2.34,2.34,0,0,0,.7.7,0.63,0.63,0,0,0,.7.1,0.56,0.56,0,0,0,.2-0.6v-2.1a2,2,0,0,1,.8-1.8,2.11,2.11,0,0,1,2,.2l6.5,3.7a6.36,6.36,0,0,1,2,2,5.6,5.6,0,0,1,.8,2.7v2.1a2.92,2.92,0,0,0,.2.9,2.34,2.34,0,0,0,.7.7,0.63,0.63,0,0,0,.7.1c0.4,0,.4-0.2.4-0.5m-12-24a4.88,4.88,0,0,0-.4,1.9,6.56,6.56,0,0,0,.4,2.3,11.46,11.46,0,0,0,1,2.3,9.51,9.51,0,0,0,1.5,2,11.92,11.92,0,0,0,1.8,1.5,3.23,3.23,0,0,0,1.8.6,1.88,1.88,0,0,0,1.5-.3,2.17,2.17,0,0,0,1-1.1,4.88,4.88,0,0,0,.4-1.9,6.56,6.56,0,0,0-.4-2.3,11.46,11.46,0,0,0-1-2.3,9.51,9.51,0,0,0-1.5-2,11.92,11.92,0,0,0-1.8-1.5,3.8,3.8,0,0,0-1.8-.6,1.88,1.88,0,0,0-1.5.3,1.82,1.82,0,0,0-1,1.1m18.3,17.7a0.56,0.56,0,0,0,.2-0.6,2.92,2.92,0,0,0-.2-0.9,2.34,2.34,0,0,0-.7-0.7l-1.8-1.1v-2.1a2.92,2.92,0,0,0-.2-0.9,2.34,2.34,0,0,0-.7-0.7,0.63,0.63,0,0,0-.7-0.1,0.6,0.6,0,0,0-.3.6v2.1l-1.9-1.1a0.63,0.63,0,0,0-.7-0.1,0.6,0.6,0,0,0-.3.6,2.92,2.92,0,0,0,.2.9,2.34,2.34,0,0,0,.7.7l1.9,1.1v2.1a2.92,2.92,0,0,0,.2.9,2.34,2.34,0,0,0,.7.7,0.63,0.63,0,0,0,.7.1,0.56,0.56,0,0,0,.2-0.6v-2.1l1.8,1.1a1,1,0,0,0,.9.1" transform="translate(-7.09 0)"/><path class="a" d="M359.6,296.3a16,16,0,0,1,1,2.3,10.11,10.11,0,0,1,.4,2.3V303a0.6,0.6,0,0,1-.3.6,0.63,0.63,0,0,1-.7-0.1,2.34,2.34,0,0,1-.7-0.7,1.49,1.49,0,0,1-.2-0.9v-2.1a5.6,5.6,0,0,0-.8-2.7,4.81,4.81,0,0,0-2-2l-6.5-3.7a1.86,1.86,0,0,0-2-.2,2,2,0,0,0-.8,1.8v2.1a0.85,0.85,0,0,1-.2.6,0.63,0.63,0,0,1-.7-0.1,2.34,2.34,0,0,1-.7-0.7,1.49,1.49,0,0,1-.2-0.9v-2.1a3.81,3.81,0,0,1,.4-1.9,2.17,2.17,0,0,1,1-1.1,3.34,3.34,0,0,1,1.5-.3,6.36,6.36,0,0,1,1.8.6l6.5,3.7a8.45,8.45,0,0,1,1.8,1.5A9.35,9.35,0,0,1,359.6,296.3Z" transform="translate(-7.09 0)"/><path class="a" d="M367.2,295.2a1.49,1.49,0,0,1,.2.9,0.85,0.85,0,0,1-.2.6,0.63,0.63,0,0,1-.7-0.1l-1.8-1.1v2.1a0.85,0.85,0,0,1-.2.6,0.63,0.63,0,0,1-.7-0.1,2.34,2.34,0,0,1-.7-0.7,1.49,1.49,0,0,1-.2-0.9v-2.1l-1.9-1.1a2.34,2.34,0,0,1-.7-0.7,1.49,1.49,0,0,1-.2-0.9,0.6,0.6,0,0,1,.3-0.6,0.63,0.63,0,0,1,.7.1l1.9,1.1v-2.1a0.6,0.6,0,0,1,.3-0.6,0.63,0.63,0,0,1,.7.1,2.34,2.34,0,0,1,.7.7,1.49,1.49,0,0,1,.2.9v2.1l1.8,1.1A2.1,2.1,0,0,1,367.2,295.2Z" transform="translate(-7.09 0)"/><path class="a" d="M349.8,285.4a16,16,0,0,1-1-2.3,9.25,9.25,0,0,1-.4-2.3,3.81,3.81,0,0,1,.4-1.9,2.17,2.17,0,0,1,1-1.1,3.34,3.34,0,0,1,1.5-.3,6.36,6.36,0,0,1,1.8.6,11.92,11.92,0,0,1,1.8,1.5,9.51,9.51,0,0,1,1.5,2,16,16,0,0,1,1,2.3,10.11,10.11,0,0,1,.4,2.3,3.81,3.81,0,0,1-.4,1.9,2.17,2.17,0,0,1-1,1.1,3.34,3.34,0,0,1-1.5.3,4.26,4.26,0,0,1-1.8-.6,6.55,6.55,0,0,1-1.8-1.5A9.51,9.51,0,0,1,349.8,285.4Zm1.4-5.3a2,2,0,0,0-.8,1.8,5.6,5.6,0,0,0,.8,2.7,5.78,5.78,0,0,0,2,2.1,1.86,1.86,0,0,0,2,.2,2,2,0,0,0,.8-1.8,5.6,5.6,0,0,0-.8-2.7,4.81,4.81,0,0,0-2-2,1.93,1.93,0,0,0-2-.3" transform="translate(-7.09 0)"/><path class="h" d="M377.6,299.5c-0.2-7.7-3.4-15.3-7.8-21.6-4.1-6-10.1-11.9-17.4-13.5a11.49,11.49,0,0,0-6.1.1c-1.8.5-3.1,1.7-4.7,2.7,3.9-2.3,8.7-1.3,12.5.6a36.28,36.28,0,0,1,10.7,8.8c5.8,7.1,10.2,16.4,10.1,25.7,0,4.6-1.4,9.8-5.7,12.3a18.84,18.84,0,0,0,5.6-4.5c2.3-2.9,2.9-6.9,2.8-10.6h0C377.5,298.3,377.6,299.8,377.6,299.5Z" transform="translate(-7.09 0)"/><path class="i" d="M114.9,93.1a5.09,5.09,0,0,0,2-2.1,5.6,5.6,0,0,0,.8-2.7,2,2,0,0,0-.8-1.8,2.11,2.11,0,0,0-2,.2,6.36,6.36,0,0,0-2,2,5.6,5.6,0,0,0-.8,2.7,2,2,0,0,0,.8,1.8A1.83,1.83,0,0,0,114.9,93.1Z" transform="translate(-7.09 0)"/><path class="j" d="M132.1,86c0,12.4-8.7,27.4-19.4,33.6s-20.9.4-20.9-12,8-26.9,18.7-33.1C122.8,68,132,73.6,132.1,86Zm-25,23.3a0.6,0.6,0,0,0,.3.6,0.63,0.63,0,0,0,.7-0.1,2.34,2.34,0,0,0,.7-0.7,1.49,1.49,0,0,0,.2-0.9v-2.1a5.6,5.6,0,0,1,.8-2.7,4.81,4.81,0,0,1,2-2l6.5-3.7a1.86,1.86,0,0,1,2-.2,2,2,0,0,1,.8,1.8v2.1a0.85,0.85,0,0,0,.2.6,0.63,0.63,0,0,0,.7-0.1,2.34,2.34,0,0,0,.7-0.7,1.49,1.49,0,0,0,.2-0.9V98.2a3.81,3.81,0,0,0-.4-1.9,2.17,2.17,0,0,0-1-1.1,3.34,3.34,0,0,0-1.5-.3,6.36,6.36,0,0,0-1.8.6l-6.5,3.7a8.45,8.45,0,0,0-1.8,1.5,9.51,9.51,0,0,0-1.5,2,16,16,0,0,0-1,2.3,10.11,10.11,0,0,0-.4,2.3l0.1,2m12-24a2.17,2.17,0,0,0-1-1.1,3.34,3.34,0,0,0-1.5-.3,6.36,6.36,0,0,0-1.8.6A11.92,11.92,0,0,0,113,86a9.51,9.51,0,0,0-1.5,2,16,16,0,0,0-1,2.3,10.11,10.11,0,0,0-.4,2.3,3.81,3.81,0,0,0,.4,1.9,2.17,2.17,0,0,0,1,1.1,3.34,3.34,0,0,0,1.5.3,4.26,4.26,0,0,0,1.8-.6,6.55,6.55,0,0,0,1.8-1.5,9.51,9.51,0,0,0,1.5-2,16,16,0,0,0,1-2.3,9.26,9.26,0,0,0,.4-2.3,3.58,3.58,0,0,0-.4-1.9M100.8,103a0.63,0.63,0,0,0,.7-0.1l1.8-1.1v2.1a0.85,0.85,0,0,0,.2.6,0.63,0.63,0,0,0,.7-0.1,2.34,2.34,0,0,0,.7-0.7,1.49,1.49,0,0,0,.2-0.9v-2.1l1.9-1.1a2.34,2.34,0,0,0,.7-0.7,1.49,1.49,0,0,0,.2-0.9,0.6,0.6,0,0,0-.3-0.6,0.63,0.63,0,0,0-.7.1L105,98.6V96.5a0.6,0.6,0,0,0-.3-0.6,0.63,0.63,0,0,0-.7.1,2.34,2.34,0,0,0-.7.7,1.49,1.49,0,0,0-.2.9v2.1l-1.8,1.1a2.34,2.34,0,0,0-.7.7,1.49,1.49,0,0,0-.2.9,1.54,1.54,0,0,0,.4.6" transform="translate(-7.09 0)"/><path class="a" d="M108.4,102.6a16,16,0,0,0-1,2.3,10.11,10.11,0,0,0-.4,2.3v2.1a0.6,0.6,0,0,0,.3.6,0.63,0.63,0,0,0,.7-0.1,2.34,2.34,0,0,0,.7-0.7,1.49,1.49,0,0,0,.2-0.9v-2.1a5.6,5.6,0,0,1,.8-2.7,4.81,4.81,0,0,1,2-2l6.5-3.7a1.86,1.86,0,0,1,2-.2,2,2,0,0,1,.8,1.8v2.1a0.85,0.85,0,0,0,.2.6,0.63,0.63,0,0,0,.7-0.1,2.34,2.34,0,0,0,.7-0.7,1.49,1.49,0,0,0,.2-0.9V98.2a3.81,3.81,0,0,0-.4-1.9,2.17,2.17,0,0,0-1-1.1,3.34,3.34,0,0,0-1.5-.3,6.36,6.36,0,0,0-1.8.6l-6.5,3.7a8.45,8.45,0,0,0-1.8,1.5A9.35,9.35,0,0,0,108.4,102.6Z" transform="translate(-7.09 0)"/><path class="a" d="M100.8,101.5a1.49,1.49,0,0,0-.2.9,0.85,0.85,0,0,0,.2.6,0.63,0.63,0,0,0,.7-0.1l1.8-1.1v2.1a0.85,0.85,0,0,0,.2.6,0.63,0.63,0,0,0,.7-0.1,2.34,2.34,0,0,0,.7-0.7,1.49,1.49,0,0,0,.2-0.9v-2.1l1.9-1.1a2.34,2.34,0,0,0,.7-0.7,1.49,1.49,0,0,0,.2-0.9,0.6,0.6,0,0,0-.3-0.6,0.63,0.63,0,0,0-.7.1L105,98.6V96.5a0.6,0.6,0,0,0-.3-0.6,0.63,0.63,0,0,0-.7.1,2.34,2.34,0,0,0-.7.7,1.49,1.49,0,0,0-.2.9v2.1l-1.8,1.1C101.2,101,101,101.2,100.8,101.5Z" transform="translate(-7.09 0)"/><path class="a" d="M116.7,93.7a11.92,11.92,0,0,1-1.8,1.5,3.23,3.23,0,0,1-1.8.6,1.88,1.88,0,0,1-1.5-.3,2.17,2.17,0,0,1-1-1.1,4.88,4.88,0,0,1-.4-1.9,6.56,6.56,0,0,1,.4-2.3,11.46,11.46,0,0,1,1-2.3,9.51,9.51,0,0,1,1.5-2,11.92,11.92,0,0,1,1.8-1.5,3.8,3.8,0,0,1,1.8-.6,1.88,1.88,0,0,1,1.5.3,2.17,2.17,0,0,1,1,1.1,4.88,4.88,0,0,1,.4,1.9,6.56,6.56,0,0,1-.4,2.3,11.46,11.46,0,0,1-1,2.3A7.49,7.49,0,0,1,116.7,93.7Zm0.2-7.3a2.11,2.11,0,0,0-2,.2,6.36,6.36,0,0,0-2,2,5.6,5.6,0,0,0-.8,2.7,2,2,0,0,0,.8,1.8,2.11,2.11,0,0,0,2-.2,5.09,5.09,0,0,0,2-2.1,5.6,5.6,0,0,0,.8-2.7,2.49,2.49,0,0,0-.8-1.7" transform="translate(-7.09 0)"/><path class="d" d="M90.4,105.8c0.2-7.8,3.4-15.2,7.8-21.6,4-5.7,9.3-11.2,16.2-13.2a13.41,13.41,0,0,1,6.6-.4c2.1,0.5,3.6,1.8,5.4,2.8-4.1-2.4-9.2-1.1-13.1,1a35.26,35.26,0,0,0-10.7,9.3c-5.7,7.3-10,16.6-9.4,26,0.2,4.3,1.8,8.9,5.7,11.2-2.8-1.6-5.4-3.5-6.8-6.5a13.75,13.75,0,0,1-1.3-4.5,16.41,16.41,0,0,1-.2-2.3v-2.4a1.55,1.55,0,0,0-.2.6C90.7,98.1,90.4,106.1,90.4,105.8Z" transform="translate(-7.09 0)"/><path class="k" d="M400.7,251.2a5.09,5.09,0,0,1-2-2.1,5.6,5.6,0,0,1-.8-2.7,2,2,0,0,1,.8-1.8,2.11,2.11,0,0,1,2,.2,6.36,6.36,0,0,1,2,2,5.6,5.6,0,0,1,.8,2.7,2,2,0,0,1-.8,1.8A1.83,1.83,0,0,1,400.7,251.2Z" transform="translate(-7.09 0)"/><path class="l" d="M405.3,232c10.8,6.2,18.2,21.4,18.2,33.8,0,12.7-9.8,18.1-20.6,11.9s-19.5-21.3-19.4-33.6S394.6,225.8,405.3,232Zm3.2,35.4v-2.1a6.56,6.56,0,0,0-.4-2.3,11.46,11.46,0,0,0-1-2.3,9.51,9.51,0,0,0-1.5-2,11.92,11.92,0,0,0-1.8-1.5l-6.5-3.7a3.23,3.23,0,0,0-1.8-.6,2.39,2.39,0,0,0-1.5.3,2.17,2.17,0,0,0-1,1.1,4.88,4.88,0,0,0-.4,1.9v2.1a2.92,2.92,0,0,0,.2.9,2.34,2.34,0,0,0,.7.7,0.63,0.63,0,0,0,.7.1,0.56,0.56,0,0,0,.2-0.6v-2.1a2,2,0,0,1,.8-1.8,2.11,2.11,0,0,1,2,.2l6.5,3.7a6.36,6.36,0,0,1,2,2,5.6,5.6,0,0,1,.8,2.7v2.1a2.92,2.92,0,0,0,.2.9,2.34,2.34,0,0,0,.7.7,0.63,0.63,0,0,0,.7.1,0.4,0.4,0,0,0,.4-0.5m-12.1-24a4.88,4.88,0,0,0-.4,1.9,6.56,6.56,0,0,0,.4,2.3,11.46,11.46,0,0,0,1,2.3,9.51,9.51,0,0,0,1.5,2,11.92,11.92,0,0,0,1.8,1.5,3.23,3.23,0,0,0,1.8.6,1.88,1.88,0,0,0,1.5-.3,2.17,2.17,0,0,0,1-1.1,4.88,4.88,0,0,0,.4-1.9,6.56,6.56,0,0,0-.4-2.3,11.46,11.46,0,0,0-1-2.3,9.51,9.51,0,0,0-1.5-2,11.92,11.92,0,0,0-1.8-1.5,3.8,3.8,0,0,0-1.8-.6,1.88,1.88,0,0,0-1.5.3,2.71,2.71,0,0,0-1,1.1m18.4,17.7a0.56,0.56,0,0,0,.2-0.6,2.92,2.92,0,0,0-.2-0.9,2.34,2.34,0,0,0-.7-0.7l-1.8-1.1v-2.1a2.92,2.92,0,0,0-.2-0.9,2.34,2.34,0,0,0-.7-0.7,0.63,0.63,0,0,0-.7-0.1,0.6,0.6,0,0,0-.3.6v2.1l-1.9-1.1a0.63,0.63,0,0,0-.7-0.1,0.6,0.6,0,0,0-.3.6,2.92,2.92,0,0,0,.2.9,2.34,2.34,0,0,0,.7.7l1.9,1.1v2.1a2.92,2.92,0,0,0,.2.9,2.34,2.34,0,0,0,.7.7,0.63,0.63,0,0,0,.7.1,0.56,0.56,0,0,0,.2-0.6v-2.1l1.8,1.1a1,1,0,0,0,.9.1" transform="translate(-7.09 0)"/><path class="a" d="M407.2,260.7a16,16,0,0,1,1,2.3,10.11,10.11,0,0,1,.4,2.3v2.1a0.6,0.6,0,0,1-.3.6,0.63,0.63,0,0,1-.7-0.1,2.34,2.34,0,0,1-.7-0.7,1.49,1.49,0,0,1-.2-0.9v-2.1a5.6,5.6,0,0,0-.8-2.7,4.81,4.81,0,0,0-2-2l-6.5-3.7a1.86,1.86,0,0,0-2-.2,2,2,0,0,0-.8,1.8v2.1a0.85,0.85,0,0,1-.2.6,0.63,0.63,0,0,1-.7-0.1,2.34,2.34,0,0,1-.7-0.7,1.49,1.49,0,0,1-.2-0.9v-2.1a3.81,3.81,0,0,1,.4-1.9,2.17,2.17,0,0,1,1-1.1,3.34,3.34,0,0,1,1.5-.3,6.36,6.36,0,0,1,1.8.6l6.5,3.7a8.45,8.45,0,0,1,1.8,1.5A9.35,9.35,0,0,1,407.2,260.7Z" transform="translate(-7.09 0)"/><path class="a" d="M414.8,259.6a1.49,1.49,0,0,1,.2.9,0.85,0.85,0,0,1-.2.6,0.63,0.63,0,0,1-.7-0.1l-1.8-1.1V262a0.85,0.85,0,0,1-.2.6,0.63,0.63,0,0,1-.7-0.1,2.34,2.34,0,0,1-.7-0.7,1.49,1.49,0,0,1-.2-0.9v-2.1l-1.9-1.1a2.34,2.34,0,0,1-.7-0.7,1.49,1.49,0,0,1-.2-0.9,0.6,0.6,0,0,1,.3-0.6,0.63,0.63,0,0,1,.7.1l1.9,1.1v-2.1a0.6,0.6,0,0,1,.3-0.6,0.63,0.63,0,0,1,.7.1,2.34,2.34,0,0,1,.7.7,1.49,1.49,0,0,1,.2.9v2.1l1.8,1.1C414.4,259.1,414.6,259.3,414.8,259.6Z" transform="translate(-7.09 0)"/><path class="a" d="M397.4,249.8a16,16,0,0,1-1-2.3,9.25,9.25,0,0,1-.4-2.3,3.81,3.81,0,0,1,.4-1.9,2.17,2.17,0,0,1,1-1.1,3.34,3.34,0,0,1,1.5-.3,6.36,6.36,0,0,1,1.8.6,11.92,11.92,0,0,1,1.8,1.5,9.51,9.51,0,0,1,1.5,2,16,16,0,0,1,1,2.3,10.11,10.11,0,0,1,.4,2.3,3.81,3.81,0,0,1-.4,1.9,2.17,2.17,0,0,1-1,1.1,3.34,3.34,0,0,1-1.5.3,4.26,4.26,0,0,1-1.8-.6,6.55,6.55,0,0,1-1.8-1.5A7.49,7.49,0,0,1,397.4,249.8Zm1.3-5.2a2,2,0,0,0-.8,1.8,5.6,5.6,0,0,0,.8,2.7,5.78,5.78,0,0,0,2,2.1,1.86,1.86,0,0,0,2,.2,2,2,0,0,0,.8-1.8,5.6,5.6,0,0,0-.8-2.7,4.81,4.81,0,0,0-2-2,1.74,1.74,0,0,0-2-.3" transform="translate(-7.09 0)"/><path class="m" d="M425.1,263.9c-0.2-7.7-3.4-15.3-7.8-21.6-4.1-6-10.1-11.9-17.4-13.5a11.49,11.49,0,0,0-6.1.1c-1.8.5-3.1,1.7-4.7,2.7,3.9-2.3,8.7-1.3,12.5.6a36.28,36.28,0,0,1,10.7,8.8c5.8,7.1,10.2,16.4,10.1,25.7A18.25,18.25,0,0,1,421,274a11.88,11.88,0,0,1-1.8,2.9,6.61,6.61,0,0,1-2.4,2,18.84,18.84,0,0,0,5.6-4.5c2.2-2.8,2.8-6.8,2.7-10.5h0Z" transform="translate(-7.09 0)"/><path class="n" d="M220.1,341.7a5.09,5.09,0,0,0,2-2.1,5.6,5.6,0,0,0,.8-2.7,2,2,0,0,0-.8-1.8,2.11,2.11,0,0,0-2,.2,6.36,6.36,0,0,0-2,2,5.6,5.6,0,0,0-.8,2.7,2,2,0,0,0,.8,1.8A1.53,1.53,0,0,0,220.1,341.7Z" transform="translate(-7.09 0)"/><path class="o" d="M237.3,334.6c0,12.4-8.7,27.4-19.4,33.6s-21.1.5-21.1-12.2c0-12.4,9.1-26.8,19.9-33S237.3,322.3,237.3,334.6Zm-25,23.4a0.6,0.6,0,0,0,.3.6,0.63,0.63,0,0,0,.7-0.1,2.34,2.34,0,0,0,.7-0.7,1.49,1.49,0,0,0,.2-0.9v-2.1a5.6,5.6,0,0,1,.8-2.7,4.81,4.81,0,0,1,2-2l6.5-3.7a1.86,1.86,0,0,1,2-.2,2,2,0,0,1,.8,1.8v2.1a0.85,0.85,0,0,0,.2.6,0.63,0.63,0,0,0,.7-0.1,2.34,2.34,0,0,0,.7-0.7,1.49,1.49,0,0,0,.2-0.9v-2.1a3.81,3.81,0,0,0-.4-1.9,2.17,2.17,0,0,0-1-1.1,3.34,3.34,0,0,0-1.5-.3,6.36,6.36,0,0,0-1.8.6l-6.5,3.7a8.45,8.45,0,0,0-1.8,1.5,9.51,9.51,0,0,0-1.5,2,16,16,0,0,0-1,2.3,10.11,10.11,0,0,0-.4,2.3l0.1,2m12.1-24a2.17,2.17,0,0,0-1-1.1,3.34,3.34,0,0,0-1.5-.3,6.36,6.36,0,0,0-1.8.6,11.92,11.92,0,0,0-1.8,1.5,9.51,9.51,0,0,0-1.5,2,16,16,0,0,0-1,2.3,6.56,6.56,0,0,0-.4,2.3,3.81,3.81,0,0,0,.4,1.9,2.17,2.17,0,0,0,1,1.1,3.34,3.34,0,0,0,1.5.3,4.26,4.26,0,0,0,1.8-.6,6.55,6.55,0,0,0,1.8-1.5,9.51,9.51,0,0,0,1.5-2,16,16,0,0,0,1-2.3,9.26,9.26,0,0,0,.4-2.3,7.81,7.81,0,0,0-.4-1.9M206,351.7a0.63,0.63,0,0,0,.7-0.1l1.8-1.1v2.1a0.85,0.85,0,0,0,.2.6,0.63,0.63,0,0,0,.7-0.1,2.34,2.34,0,0,0,.7-0.7,1.49,1.49,0,0,0,.2-0.9v-2.1l1.9-1.1a2.34,2.34,0,0,0,.7-0.7,1.49,1.49,0,0,0,.2-0.9,0.6,0.6,0,0,0-.3-0.6,0.63,0.63,0,0,0-.7.1l-1.9,1.1v-2.1a0.6,0.6,0,0,0-.3-0.6,0.63,0.63,0,0,0-.7.1,2.34,2.34,0,0,0-.7.7,1.49,1.49,0,0,0-.2.9v2.1l-1.8,1.1a2.34,2.34,0,0,0-.7.7,1.49,1.49,0,0,0-.2.9,1.54,1.54,0,0,0,.4.6" transform="translate(-7.09 0)"/><path class="a" d="M213.6,351.3a16,16,0,0,0-1,2.3,10.11,10.11,0,0,0-.4,2.3V358a0.6,0.6,0,0,0,.3.6,0.63,0.63,0,0,0,.7-0.1,2.34,2.34,0,0,0,.7-0.7,1.49,1.49,0,0,0,.2-0.9v-2.1a5.6,5.6,0,0,1,.8-2.7,4.81,4.81,0,0,1,2-2l6.5-3.7a1.86,1.86,0,0,1,2-.2,2,2,0,0,1,.8,1.8v2.1a0.85,0.85,0,0,0,.2.6,0.63,0.63,0,0,0,.7-0.1,2.34,2.34,0,0,0,.7-0.7,1.49,1.49,0,0,0,.2-0.9v-2.1a3.81,3.81,0,0,0-.4-1.9,2.17,2.17,0,0,0-1-1.1,3.34,3.34,0,0,0-1.5-.3,6.36,6.36,0,0,0-1.8.6l-6.5,3.7a8.45,8.45,0,0,0-1.8,1.5A9.35,9.35,0,0,0,213.6,351.3Z" transform="translate(-7.09 0)"/><path class="a" d="M206,350.2a1.49,1.49,0,0,0-.2.9,0.85,0.85,0,0,0,.2.6,0.63,0.63,0,0,0,.7-0.1l1.8-1.1v2.1a0.85,0.85,0,0,0,.2.6,0.63,0.63,0,0,0,.7-0.1,2.34,2.34,0,0,0,.7-0.7,1.49,1.49,0,0,0,.2-0.9v-2.1l1.9-1.1a2.34,2.34,0,0,0,.7-0.7,1.49,1.49,0,0,0,.2-0.9,0.6,0.6,0,0,0-.3-0.6,0.63,0.63,0,0,0-.7.1l-1.9,1.1v-2.1a0.6,0.6,0,0,0-.3-0.6,0.63,0.63,0,0,0-.7.1,2.34,2.34,0,0,0-.7.7,1.49,1.49,0,0,0-.2.9v2.1l-1.8,1.1C206.4,349.7,206.2,349.9,206,350.2Z" transform="translate(-7.09 0)"/><path class="a" d="M221.9,342.4a11.92,11.92,0,0,1-1.8,1.5,3.23,3.23,0,0,1-1.8.6,1.88,1.88,0,0,1-1.5-.3,2.17,2.17,0,0,1-1-1.1,4.88,4.88,0,0,1-.4-1.9,6.56,6.56,0,0,1,.4-2.3,22.88,22.88,0,0,1,1-2.3,9.51,9.51,0,0,1,1.5-2,11.92,11.92,0,0,1,1.8-1.5,3.8,3.8,0,0,1,1.8-.6,1.88,1.88,0,0,1,1.5.3,2.17,2.17,0,0,1,1,1.1,4.88,4.88,0,0,1,.4,1.9,6.56,6.56,0,0,1-.4,2.3,11.46,11.46,0,0,1-1,2.3A9.51,9.51,0,0,1,221.9,342.4Zm0.2-7.3a2.11,2.11,0,0,0-2,.2,6.36,6.36,0,0,0-2,2,5.6,5.6,0,0,0-.8,2.7,2,2,0,0,0,.8,1.8,2.11,2.11,0,0,0,2-.2,5.09,5.09,0,0,0,2-2.1,5.6,5.6,0,0,0,.8-2.7,1.88,1.88,0,0,0-.8-1.7" transform="translate(-7.09 0)"/><path class="m" d="M195.6,354.5c0.2-7.7,3.4-15.3,7.8-21.6,4.1-6,10.1-11.9,17.4-13.5a11.49,11.49,0,0,1,6.1.1c1.8,0.5,3.1,1.7,4.7,2.7-3.9-2.3-8.7-1.3-12.5.6a36.28,36.28,0,0,0-10.7,8.8c-5.8,7.1-10.2,16.4-10.1,25.7,0,4.6,1.4,9.8,5.7,12.3a18.84,18.84,0,0,1-5.6-4.5c-2.3-2.9-2.9-6.9-2.8-10.6h0C195.7,353.4,195.6,354.8,195.6,354.5Z" transform="translate(-7.09 0)"/><path class="g" d="M77.8,260a5.09,5.09,0,0,1-2-2.1,5.6,5.6,0,0,1-.8-2.7,2,2,0,0,1,.8-1.8,2.11,2.11,0,0,1,2,.2,6.36,6.36,0,0,1,2,2,5.6,5.6,0,0,1,.8,2.7,2,2,0,0,1-.8,1.8C79.3,260.6,78.6,260.5,77.8,260Z" transform="translate(-7.09 0)"/><path class="g" d="M82.5,241c10.8,6.2,18.2,22.3,18.2,34.7,0,11.2-9.1,17.2-20.6,10.9-10.9-6-19.5-21.3-19.4-33.6S71.7,234.8,82.5,241Zm3.1,35.3v-2.1a6.56,6.56,0,0,0-.4-2.3,11.46,11.46,0,0,0-1-2.3,9.51,9.51,0,0,0-1.5-2,11.92,11.92,0,0,0-1.8-1.5l-6.5-3.7a3.23,3.23,0,0,0-1.8-.6,2.39,2.39,0,0,0-1.5.3,2.17,2.17,0,0,0-1,1.1,4.88,4.88,0,0,0-.4,1.9v2.1a2.92,2.92,0,0,0,.2.9,2.34,2.34,0,0,0,.7.7,0.63,0.63,0,0,0,.7.1,0.56,0.56,0,0,0,.2-0.6v-2.1a2,2,0,0,1,.8-1.8,2.11,2.11,0,0,1,2,.2l6.5,3.7a6.36,6.36,0,0,1,2,2,5.6,5.6,0,0,1,.8,2.7v2.1a2.92,2.92,0,0,0,.2.9,2.34,2.34,0,0,0,.7.7,0.63,0.63,0,0,0,.7.1c0.4,0,.4-0.2.4-0.5m-12-24a4.88,4.88,0,0,0-.4,1.9,6.56,6.56,0,0,0,.4,2.3,11.46,11.46,0,0,0,1,2.3,9.51,9.51,0,0,0,1.5,2,11.92,11.92,0,0,0,1.8,1.5,3.23,3.23,0,0,0,1.8.6,1.88,1.88,0,0,0,1.5-.3,2.17,2.17,0,0,0,1-1.1,4.88,4.88,0,0,0,.4-1.9,6.56,6.56,0,0,0-.4-2.3,11.46,11.46,0,0,0-1-2.3,9.51,9.51,0,0,0-1.5-2,11.92,11.92,0,0,0-1.8-1.5,3.8,3.8,0,0,0-1.8-.6,1.88,1.88,0,0,0-1.5.3,1.82,1.82,0,0,0-1,1.1M91.9,270a0.56,0.56,0,0,0,.2-0.6,2.92,2.92,0,0,0-.2-0.9,2.34,2.34,0,0,0-.7-0.7l-1.8-1.1v-2.1a2.92,2.92,0,0,0-.2-0.9,2.34,2.34,0,0,0-.7-0.7,0.63,0.63,0,0,0-.7-0.1,0.6,0.6,0,0,0-.3.6v2.1l-1.9-1.1a0.63,0.63,0,0,0-.7-0.1,0.6,0.6,0,0,0-.3.6,2.92,2.92,0,0,0,.2.9,2.34,2.34,0,0,0,.7.7l1.9,1.1v2.1a2.92,2.92,0,0,0,.2.9,2.34,2.34,0,0,0,.7.7,0.63,0.63,0,0,0,.7.1,0.56,0.56,0,0,0,.2-0.6v-2.1l1.8,1.1a1,1,0,0,0,.9.1" transform="translate(-7.09 0)"/><path class="a" d="M84.3,269.6a16,16,0,0,1,1,2.3,10.11,10.11,0,0,1,.4,2.3v2.1a0.6,0.6,0,0,1-.3.6,0.63,0.63,0,0,1-.7-0.1,2.34,2.34,0,0,1-.7-0.7,1.49,1.49,0,0,1-.2-0.9v-2.1a5.6,5.6,0,0,0-.8-2.7,4.81,4.81,0,0,0-2-2l-6.5-3.7a1.86,1.86,0,0,0-2-.2,2,2,0,0,0-.8,1.8v2.1a0.85,0.85,0,0,1-.2.6,0.63,0.63,0,0,1-.7-0.1,2.34,2.34,0,0,1-.7-0.7,1.49,1.49,0,0,1-.2-0.9v-2.1a3.81,3.81,0,0,1,.4-1.9,2.17,2.17,0,0,1,1-1.1,3.34,3.34,0,0,1,1.5-.3,6.36,6.36,0,0,1,1.8.6l6.5,3.7a8.45,8.45,0,0,1,1.8,1.5A9.35,9.35,0,0,1,84.3,269.6Z" transform="translate(-7.09 0)"/><path class="a" d="M91.9,268.5a1.49,1.49,0,0,1,.2.9,0.85,0.85,0,0,1-.2.6,0.63,0.63,0,0,1-.7-0.1l-1.8-1.1v2.1a0.85,0.85,0,0,1-.2.6,0.63,0.63,0,0,1-.7-0.1,2.34,2.34,0,0,1-.7-0.7,1.49,1.49,0,0,1-.2-0.9v-2.1l-1.9-1.1a2.34,2.34,0,0,1-.7-0.7,1.49,1.49,0,0,1-.2-0.9,0.6,0.6,0,0,1,.3-0.6,0.63,0.63,0,0,1,.7.1l1.9,1.1v-2.1a0.6,0.6,0,0,1,.3-0.6,0.63,0.63,0,0,1,.7.1,2.34,2.34,0,0,1,.7.7,1.49,1.49,0,0,1,.2.9v2.1l1.8,1.1A6.82,6.82,0,0,1,91.9,268.5Z" transform="translate(-7.09 0)"/><path class="a" d="M74.5,258.7a16,16,0,0,1-1-2.3,9.26,9.26,0,0,1-.4-2.3,3.81,3.81,0,0,1,.4-1.9,2.17,2.17,0,0,1,1-1.1,3.34,3.34,0,0,1,1.5-.3,6.36,6.36,0,0,1,1.8.6,11.92,11.92,0,0,1,1.8,1.5,9.51,9.51,0,0,1,1.5,2,16,16,0,0,1,1,2.3,10.11,10.11,0,0,1,.4,2.3,3.81,3.81,0,0,1-.4,1.9,2.17,2.17,0,0,1-1,1.1,3.34,3.34,0,0,1-1.5.3,4.26,4.26,0,0,1-1.8-.6,6.55,6.55,0,0,1-1.8-1.5A9.51,9.51,0,0,1,74.5,258.7Zm1.4-5.3a2,2,0,0,0-.8,1.8,5.6,5.6,0,0,0,.8,2.7,5.78,5.78,0,0,0,2,2.1,1.86,1.86,0,0,0,2,.2,2,2,0,0,0,.8-1.8,5.6,5.6,0,0,0-.8-2.7,4.81,4.81,0,0,0-2-2,1.94,1.94,0,0,0-2-.3" transform="translate(-7.09 0)"/><path class="h" d="M102.3,272.8c-0.2-7.7-3.4-15.3-7.8-21.6-4.1-6-10.1-11.9-17.4-13.5a11.49,11.49,0,0,0-6.1.1c-1.8.5-3.1,1.7-4.7,2.7,3.9-2.3,8.7-1.3,12.5.6a36.28,36.28,0,0,1,10.7,8.8c5.8,7.1,10.2,16.4,10.1,25.7a18.25,18.25,0,0,1-1.4,7.3,11.88,11.88,0,0,1-1.8,2.9,6.61,6.61,0,0,1-2.4,2,18.84,18.84,0,0,0,5.6-4.5c2.2-2.8,2.8-6.8,2.7-10.5h0C102.2,271.6,102.3,273.1,102.3,272.8Z" transform="translate(-7.09 0)"/><path class="e" d="M353.1,307.9a4.5,4.5,0,0,1-2.4,3.4,11.51,11.51,0,0,1-4.4,1.5,15.46,15.46,0,0,1-4.8-.1,11.4,11.4,0,0,1-4.3-1.7,4.57,4.57,0,0,1-2-2.9v2.8a3.64,3.64,0,0,0,.9,2.3,7.44,7.44,0,0,0,3.1,2.1,13.54,13.54,0,0,0,4,.8,13.94,13.94,0,0,0,4.1-.3,10,10,0,0,0,3.7-1.5,4.72,4.72,0,0,0,2.1-2.9v-1.6c0-.7,0-1.3,0-1.9v0h0Z" transform="translate(-7.09 0)"/><path class="f" d="M350.5,304.1c3.5,2,3.5,5.3,0,7.3a14.19,14.19,0,0,1-12.7,0c-3.5-2-3.5-5.3,0-7.3A14.19,14.19,0,0,1,350.5,304.1Z" transform="translate(-7.09 0)"/><path class="e" d="M348.5,305.7l-0.9.5a1.85,1.85,0,0,1,.9.9l-0.9.2a2.38,2.38,0,0,0-.9-0.9,2.15,2.15,0,0,0-1.9-.1c-0.5.3-.4,0.6,0.1,1.3s0.6,1.4-.3,1.9a4.33,4.33,0,0,1-3.2.1l-1,.6-0.6-.4,1-.6a2.29,2.29,0,0,1-1.1-1.1l0.9-.2a1.89,1.89,0,0,0,1,1,2.25,2.25,0,0,0,2.1.1c0.5-.3.5-0.7,0.1-1.3-0.6-.8-0.8-1.4.1-1.9a3.48,3.48,0,0,1,3-.1l1-.6Z" transform="translate(-7.09 0)"/><path class="e" d="M74.8,276a4.5,4.5,0,0,1-2.4,3.4,11.51,11.51,0,0,1-4.4,1.5,15.46,15.46,0,0,1-4.8-.1,11.4,11.4,0,0,1-4.3-1.7,4.57,4.57,0,0,1-2-2.9V279a3.64,3.64,0,0,0,.9,2.3,7.44,7.44,0,0,0,3.1,2.1,13.54,13.54,0,0,0,4,.8,13.94,13.94,0,0,0,4.1-.3,10,10,0,0,0,3.7-1.5,4.72,4.72,0,0,0,2.1-2.9V276h0Z" transform="translate(-7.09 0)"/><path class="f" d="M72.2,272.3c3.5,2,3.5,5.3,0,7.3a14.19,14.19,0,0,1-12.7,0c-3.5-2-3.5-5.3,0-7.3A13.59,13.59,0,0,1,72.2,272.3Z" transform="translate(-7.09 0)"/><path class="e" d="M70.1,273.8l-0.9.5a1.85,1.85,0,0,1,.9.9l-0.9.2a2.38,2.38,0,0,0-.9-0.9,2.15,2.15,0,0,0-1.9-.1c-0.5.3-.4,0.6,0.1,1.3s0.6,1.4-.3,1.9a4.33,4.33,0,0,1-3.2.1l-1,.6-0.6-.4,1-.6a2.29,2.29,0,0,1-1.1-1.1l0.9-.2a1.89,1.89,0,0,0,1,1,2.25,2.25,0,0,0,2.1.1c0.5-.3.5-0.7,0.1-1.3-0.6-.8-0.8-1.4.1-1.9a3.48,3.48,0,0,1,3-.1l1-.6Z" transform="translate(-7.09 0)"/><path class="e" d="M399.3,273a4.5,4.5,0,0,1-2.4,3.4,11.51,11.51,0,0,1-4.4,1.5,15.46,15.46,0,0,1-4.8-.1,11.4,11.4,0,0,1-4.3-1.7,4.57,4.57,0,0,1-2-2.9V276a3.64,3.64,0,0,0,.9,2.3,7.44,7.44,0,0,0,3.1,2.1,13.54,13.54,0,0,0,4,.8,13.94,13.94,0,0,0,4.1-.3,10,10,0,0,0,3.7-1.5,4.72,4.72,0,0,0,2.1-2.9v-1.6c0-.6,0-1.2,0-1.9v0h0Z" transform="translate(-7.09 0)"/><path class="f" d="M396.7,269.3c3.5,2,3.5,5.3,0,7.3a14.19,14.19,0,0,1-12.7,0c-3.5-2-3.5-5.3,0-7.3A14.19,14.19,0,0,1,396.7,269.3Z" transform="translate(-7.09 0)"/><path class="e" d="M394.7,270.9l-0.9.5a1.85,1.85,0,0,1,.9.9l-0.9.2a2.38,2.38,0,0,0-.9-0.9,2.15,2.15,0,0,0-1.9-.1c-0.5.3-.4,0.6,0.1,1.3s0.6,1.4-.3,1.9a4.33,4.33,0,0,1-3.2.1l-1,.6L386,275l1-.6a2.29,2.29,0,0,1-1.1-1.1l0.9-.2a1.89,1.89,0,0,0,1,1,2.25,2.25,0,0,0,2.1.1c0.5-.3.5-0.7,0.1-1.3-0.6-.8-0.8-1.4.1-1.9a3.48,3.48,0,0,1,3-.1l1-.6Z" transform="translate(-7.09 0)"/><path class="a" d="M145.8,178.8a1.13,1.13,0,0,1-.4-1.5h0a1.13,1.13,0,0,1,1.5-.4h0a1.13,1.13,0,0,1,.4,1.5h0a1.19,1.19,0,0,1-.9.5h0A1.08,1.08,0,0,1,145.8,178.8Zm-3.5-2a1.13,1.13,0,0,1-.4-1.5h0a1.13,1.13,0,0,1,1.5-.4h0a1.13,1.13,0,0,1,.4,1.5h0a1.19,1.19,0,0,1-.9.5h0A1.08,1.08,0,0,1,142.3,176.8Zm-3.5-2a1.13,1.13,0,0,1-.4-1.5h0a1.13,1.13,0,0,1,1.5-.4h0a1.13,1.13,0,0,1,.4,1.5h0a1.19,1.19,0,0,1-.9.5h0A1.08,1.08,0,0,1,138.8,174.8Zm-3.5-2.1a1.13,1.13,0,0,1-.4-1.5h0a1.13,1.13,0,0,1,1.5-.4h0a1.13,1.13,0,0,1,.4,1.5h0a1.19,1.19,0,0,1-.9.5h0A0.66,0.66,0,0,1,135.3,172.7Zm-3.5-2a1.13,1.13,0,0,1-.4-1.5h0a1.13,1.13,0,0,1,1.5-.4h0a1.13,1.13,0,0,1,.4,1.5h0a1.19,1.19,0,0,1-.9.5h0A0.66,0.66,0,0,1,131.8,170.7Zm-3.5-2a1.13,1.13,0,0,1-.4-1.5h0a1.13,1.13,0,0,1,1.5-.4h0a1.13,1.13,0,0,1,.4,1.5h0a1.19,1.19,0,0,1-.9.5h0A1.27,1.27,0,0,1,128.3,168.7Zm-3.5-2a1.13,1.13,0,0,1-.4-1.5h0a1.13,1.13,0,0,1,1.5-.4h0a1.13,1.13,0,0,1,.4,1.5h0a1.19,1.19,0,0,1-.9.5h0A1.27,1.27,0,0,1,124.8,166.7Zm-3.5-2a1.13,1.13,0,0,1-.4-1.5h0a1.13,1.13,0,0,1,1.5-.4h0a1.13,1.13,0,0,1,.4,1.5h0a1.19,1.19,0,0,1-.9.5h0A1.27,1.27,0,0,1,121.3,164.7Zm-3.5-2.1a1.13,1.13,0,0,1-.4-1.5h0a1.13,1.13,0,0,1,1.5-.4h0a1.13,1.13,0,0,1,.4,1.5h0a1.19,1.19,0,0,1-.9.5h0A0.66,0.66,0,0,1,117.8,162.6Zm-3.5-2a1.13,1.13,0,0,1-.4-1.5h0a1.13,1.13,0,0,1,1.5-.4h0a1.13,1.13,0,0,1,.4,1.5h0a1.19,1.19,0,0,1-.9.5h0A0.66,0.66,0,0,1,114.3,160.6Zm-3.5-2a1.13,1.13,0,0,1-.4-1.5h0a1.13,1.13,0,0,1,1.5-.4h0a1.13,1.13,0,0,1,.4,1.5h0a1.19,1.19,0,0,1-.9.5h0A0.66,0.66,0,0,1,110.8,158.6Zm-3.5-2a1.13,1.13,0,0,1-.4-1.5h0a1.13,1.13,0,0,1,1.5-.4h0a1.13,1.13,0,0,1,.4,1.5h0a1.19,1.19,0,0,1-.9.5h0A1.27,1.27,0,0,1,107.3,156.6Zm-3.4-2a1.13,1.13,0,0,1-.4-1.5h0a1.13,1.13,0,0,1,1.5-.4h0a1.13,1.13,0,0,1,.4,1.5h0a1.19,1.19,0,0,1-.9.5h0A0.92,0.92,0,0,1,103.9,154.6Zm-3.5-2.1a1.13,1.13,0,0,1-.4-1.5h0a1.13,1.13,0,0,1,1.5-.4h0a1.13,1.13,0,0,1,.4,1.5h0a1.19,1.19,0,0,1-.9.5h0A0.56,0.56,0,0,1,100.4,152.5Zm-3.5-2a1.13,1.13,0,0,1-.4-1.5h0a1.13,1.13,0,0,1,1.5-.4h0a1.13,1.13,0,0,1,.4,1.5h0a1.19,1.19,0,0,1-.9.5h0A0.56,0.56,0,0,1,96.9,150.5Zm-3.5-2A1.13,1.13,0,0,1,93,147h0a1.13,1.13,0,0,1,1.5-.4h0a1.13,1.13,0,0,1,.4,1.5h0a1.19,1.19,0,0,1-.9.5h0A0.56,0.56,0,0,1,93.4,148.5Zm-3.5-2a1.13,1.13,0,0,1-.4-1.5h0a1.13,1.13,0,0,1,1.5-.4h0a1.13,1.13,0,0,1,.4,1.5h0a1.19,1.19,0,0,1-.9.5h0A1.08,1.08,0,0,1,89.9,146.5Zm-3.5-2A1.13,1.13,0,0,1,86,143h0a1.13,1.13,0,0,1,1.5-.4h0a1.13,1.13,0,0,1,.4,1.5h0a1.19,1.19,0,0,1-.9.5h0A1.08,1.08,0,0,1,86.4,144.5Zm-3.5-2a1.13,1.13,0,0,1-.4-1.5h0a1.13,1.13,0,0,1,1.5-.4h0a1.13,1.13,0,0,1,.4,1.5h0a1.19,1.19,0,0,1-.9.5h0A1.08,1.08,0,0,1,82.9,142.5Zm-3.5-2.1a1.13,1.13,0,0,1-.4-1.5h0a1.13,1.13,0,0,1,1.5-.4h0a1.13,1.13,0,0,1,.4,1.5h0a1.19,1.19,0,0,1-.9.5h0A0.66,0.66,0,0,1,79.4,140.4Zm-3.5-2a1.13,1.13,0,0,1-.4-1.5h0a1.13,1.13,0,0,1,1.5-.4h0a1.13,1.13,0,0,1,.4,1.5h0a1.19,1.19,0,0,1-.9.5h0A0.66,0.66,0,0,1,75.9,138.4Zm-3.5-2a1.13,1.13,0,0,1-.4-1.5h0a1.13,1.13,0,0,1,1.5-.4h0a1.13,1.13,0,0,1,.4,1.5h0a1.19,1.19,0,0,1-.9.5h0A1.27,1.27,0,0,1,72.4,136.4Zm-3.5-2a1.13,1.13,0,0,1-.4-1.5h0a1.13,1.13,0,0,1,1.5-.4h0a1.13,1.13,0,0,1,.4,1.5h0a1.19,1.19,0,0,1-.9.5h0A1.27,1.27,0,0,1,68.9,134.4Zm-3.5-2a1.13,1.13,0,0,1-.4-1.5h0a1.13,1.13,0,0,1,1.5-.4h0a1.13,1.13,0,0,1,.4,1.5h0a1.19,1.19,0,0,1-.9.5h0A1.27,1.27,0,0,1,65.4,132.4Zm-3.5-2.1a1.13,1.13,0,0,1-.4-1.5h0a1.13,1.13,0,0,1,1.5-.4h0a1.13,1.13,0,0,1,.4,1.5h0a1.19,1.19,0,0,1-.9.5h0A0.66,0.66,0,0,1,61.9,130.3Zm-3.5-2a1.13,1.13,0,0,1-.4-1.5h0a1.13,1.13,0,0,1,1.5-.4h0a1.13,1.13,0,0,1,.4,1.5h0a1.19,1.19,0,0,1-.9.5h0A0.66,0.66,0,0,1,58.4,128.3Zm-3.5-2a1.13,1.13,0,0,1-.4-1.5h0a1.13,1.13,0,0,1,1.5-.4h0a1.13,1.13,0,0,1,.4,1.5h0a1.19,1.19,0,0,1-.9.5h0A1.27,1.27,0,0,1,54.9,126.3Zm-3.4-2a1.13,1.13,0,0,1-.4-1.5h0a1.13,1.13,0,0,1,1.5-.4h0a1.13,1.13,0,0,1,.4,1.5h0a1.19,1.19,0,0,1-.9.5h0A0.92,0.92,0,0,1,51.5,124.3Zm-3.5-2a1.13,1.13,0,0,1-.4-1.5h0a1.13,1.13,0,0,1,1.5-.4h0a1.13,1.13,0,0,1,.4,1.5h0a1.19,1.19,0,0,1-.9.5h0A0.92,0.92,0,0,1,48,122.3Zm-3.5-2.1a1.13,1.13,0,0,1-.4-1.5h0a1.13,1.13,0,0,1,1.5-.4h0a1.13,1.13,0,0,1,.4,1.5h0a1.19,1.19,0,0,1-.9.5h0A0.56,0.56,0,0,1,44.5,120.2Z" transform="translate(-7.09 0)"/><path class="p" d="M41.2,96a5.09,5.09,0,0,1-2-2.1,5.6,5.6,0,0,1-.8-2.7,2,2,0,0,1,.8-1.8,2.11,2.11,0,0,1,2,.2,6.36,6.36,0,0,1,2,2,5.6,5.6,0,0,1,.8,2.7,2,2,0,0,1-.8,1.8C42.7,96.6,42,96.5,41.2,96Z" transform="translate(-7.09 0)"/><path class="q" d="M45,77c10.8,6.2,20.8,21.9,19.9,34.2C64,123,54.2,128.8,43.4,122.6S24,101.3,24,88.9,34.2,70.8,45,77Zm4,35.3v-2.1a6.56,6.56,0,0,0-.4-2.3,11.46,11.46,0,0,0-1-2.3,9.51,9.51,0,0,0-1.5-2,11.92,11.92,0,0,0-1.8-1.5l-6.5-3.7a3.23,3.23,0,0,0-1.8-.6,2.39,2.39,0,0,0-1.5.3,2.17,2.17,0,0,0-1,1.1,4.88,4.88,0,0,0-.4,1.9v2.1a2.92,2.92,0,0,0,.2.9,2.34,2.34,0,0,0,.7.7,0.63,0.63,0,0,0,.7.1,0.56,0.56,0,0,0,.2-0.6v-2.1a2,2,0,0,1,.8-1.8,2.11,2.11,0,0,1,2,.2l6.5,3.7a6.36,6.36,0,0,1,2,2A5.6,5.6,0,0,1,47,109v2.1a2.92,2.92,0,0,0,.2.9,2.34,2.34,0,0,0,.7.7,0.63,0.63,0,0,0,.7.1,0.4,0.4,0,0,0,.4-0.5m-12.1-24a4.88,4.88,0,0,0-.4,1.9,6.56,6.56,0,0,0,.4,2.3,11.46,11.46,0,0,0,1,2.3,9.51,9.51,0,0,0,1.5,2,11.92,11.92,0,0,0,1.8,1.5,3.23,3.23,0,0,0,1.8.6,1.88,1.88,0,0,0,1.5-.3,2.17,2.17,0,0,0,1-1.1,4.88,4.88,0,0,0,.4-1.9,6.56,6.56,0,0,0-.4-2.3,11.46,11.46,0,0,0-1-2.3A9.51,9.51,0,0,0,43,89a11.92,11.92,0,0,0-1.8-1.5,3.8,3.8,0,0,0-1.8-.6,1.88,1.88,0,0,0-1.5.3,2.71,2.71,0,0,0-1,1.1M55.3,106a0.56,0.56,0,0,0,.2-0.6,2.92,2.92,0,0,0-.2-0.9,2.34,2.34,0,0,0-.7-0.7l-1.8-1.1v-2.1a2.92,2.92,0,0,0-.2-0.9,2.34,2.34,0,0,0-.7-0.7,0.63,0.63,0,0,0-.7-0.1,0.6,0.6,0,0,0-.3.6v2.1L49,100.5a0.63,0.63,0,0,0-.7-0.1,0.6,0.6,0,0,0-.3.6,2.92,2.92,0,0,0,.2.9,2.34,2.34,0,0,0,.7.7l1.9,1.1v2.1a2.92,2.92,0,0,0,.2.9,2.34,2.34,0,0,0,.7.7,0.63,0.63,0,0,0,.7.1,0.56,0.56,0,0,0,.2-0.6v-2.1l1.8,1.1a1,1,0,0,0,.9.1" transform="translate(-7.09 0)"/><path class="a" d="M47.7,105.6a16,16,0,0,1,1,2.3,10.11,10.11,0,0,1,.4,2.3v2.1a0.6,0.6,0,0,1-.3.6,0.63,0.63,0,0,1-.7-0.1,2.34,2.34,0,0,1-.7-0.7,1.49,1.49,0,0,1-.2-0.9v-2.1a5.6,5.6,0,0,0-.8-2.7,4.81,4.81,0,0,0-2-2l-6.5-3.7a1.86,1.86,0,0,0-2-.2,2,2,0,0,0-.8,1.8v2.1a0.85,0.85,0,0,1-.2.6,0.63,0.63,0,0,1-.7-0.1,2.34,2.34,0,0,1-.7-0.7,1.49,1.49,0,0,1-.2-0.9v-2.1a3.81,3.81,0,0,1,.4-1.9,2.17,2.17,0,0,1,1-1.1,3.34,3.34,0,0,1,1.5-.3,6.36,6.36,0,0,1,1.8.6l6.5,3.7a8.45,8.45,0,0,1,1.8,1.5A9.35,9.35,0,0,1,47.7,105.6Z" transform="translate(-7.09 0)"/><path class="a" d="M55.3,104.5a1.49,1.49,0,0,1,.2.9,0.85,0.85,0,0,1-.2.6,0.63,0.63,0,0,1-.7-0.1l-1.8-1.1v2.1a0.85,0.85,0,0,1-.2.6,0.63,0.63,0,0,1-.7-0.1,2.34,2.34,0,0,1-.7-0.7,1.49,1.49,0,0,1-.2-0.9v-2.1l-1.9-1.1a2.34,2.34,0,0,1-.7-0.7,1.49,1.49,0,0,1-.2-0.9,0.6,0.6,0,0,1,.3-0.6,0.63,0.63,0,0,1,.7.1l1.9,1.1V99.5a0.6,0.6,0,0,1,.3-0.6,0.63,0.63,0,0,1,.7.1,2.34,2.34,0,0,1,.7.7,1.49,1.49,0,0,1,.2.9v2.1l1.8,1.1A6.82,6.82,0,0,1,55.3,104.5Z" transform="translate(-7.09 0)"/><path class="a" d="M37.9,94.7a16,16,0,0,1-1-2.3,9.26,9.26,0,0,1-.4-2.3,3.81,3.81,0,0,1,.4-1.9,2.17,2.17,0,0,1,1-1.1,3.34,3.34,0,0,1,1.5-.3,6.36,6.36,0,0,1,1.8.6A11.92,11.92,0,0,1,43,88.9a9.51,9.51,0,0,1,1.5,2,16,16,0,0,1,1,2.3,10.11,10.11,0,0,1,.4,2.3,3.81,3.81,0,0,1-.4,1.9,2.17,2.17,0,0,1-1,1.1,3.34,3.34,0,0,1-1.5.3,4.26,4.26,0,0,1-1.8-.6,6.55,6.55,0,0,1-1.8-1.5A9.51,9.51,0,0,1,37.9,94.7Zm1.3-5.3a2,2,0,0,0-.8,1.8,5.6,5.6,0,0,0,.8,2.7,5.78,5.78,0,0,0,2,2.1,1.86,1.86,0,0,0,2,.2,2,2,0,0,0,.8-1.8,5.6,5.6,0,0,0-.8-2.7,4.81,4.81,0,0,0-2-2,1.91,1.91,0,0,0-2-.3" transform="translate(-7.09 0)"/><path class="m" d="M65.7,108.8c-0.2-7.7-3.4-15.3-7.8-21.6-4.1-6-10.1-11.9-17.4-13.5a11.49,11.49,0,0,0-6.1.1c-1.8.5-3.1,1.7-4.7,2.7,3.9-2.3,8.7-1.3,12.5.6a36.28,36.28,0,0,1,10.7,8.8C58.7,93,63.1,102.3,63,111.6c0,4.6-1.4,9.8-5.7,12.3a18.84,18.84,0,0,0,5.6-4.5c2.3-2.9,2.9-6.9,2.8-10.6h0C65.6,107.6,65.7,109.1,65.7,108.8Z" transform="translate(-7.09 0)"/><path class="e" d="M39.9,117.9a4.5,4.5,0,0,1-2.4,3.4,11.51,11.51,0,0,1-4.4,1.5,15.46,15.46,0,0,1-4.8-.1A11.4,11.4,0,0,1,24,121a4.57,4.57,0,0,1-2-2.9v2.8a3.64,3.64,0,0,0,.9,2.3,7.44,7.44,0,0,0,3.1,2.1,13.55,13.55,0,0,0,4,.8,13.94,13.94,0,0,0,4.1-.3,10,10,0,0,0,3.7-1.5,4.72,4.72,0,0,0,2.1-2.9v-3.5h0Z" transform="translate(-7.09 0)"/><path class="f" d="M37.2,114.2c3.5,2,3.5,5.3,0,7.3a14.19,14.19,0,0,1-12.7,0c-3.5-2-3.5-5.3,0-7.3A13.59,13.59,0,0,1,37.2,114.2Z" transform="translate(-7.09 0)"/><path class="e" d="M35.2,115.7l-0.9.5a1.85,1.85,0,0,1,.9.9l-0.9.2a2.38,2.38,0,0,0-.9-0.9,2.15,2.15,0,0,0-1.9-.1c-0.5.3-.4,0.6,0.1,1.3s0.6,1.4-.3,1.9a4.33,4.33,0,0,1-3.2.1l-1,.6-0.6-.4,1-.6a2.29,2.29,0,0,1-1.1-1.1l0.9-.2a1.89,1.89,0,0,0,1,1,2.25,2.25,0,0,0,2.1.1c0.5-.3.5-0.7,0.1-1.3-0.6-.8-0.8-1.4.1-1.9a3.48,3.48,0,0,1,3-.1l1-.6Z" transform="translate(-7.09 0)"/><path class="e" d="M135.6,111.3a4.5,4.5,0,0,1-2.4,3.4,11.51,11.51,0,0,1-4.4,1.5,15.46,15.46,0,0,1-4.8-.1,11.4,11.4,0,0,1-4.3-1.7,4.57,4.57,0,0,1-2-2.9v2.8a3.64,3.64,0,0,0,.9,2.3,7.44,7.44,0,0,0,3.1,2.1,13.55,13.55,0,0,0,4,.8,13.94,13.94,0,0,0,4.1-.3,10,10,0,0,0,3.7-1.5,4.72,4.72,0,0,0,2.1-2.9v-3.5h0Z" transform="translate(-7.09 0)"/><path class="f" d="M133,107.6c3.5,2,3.5,5.3,0,7.3a14.19,14.19,0,0,1-12.7,0c-3.5-2-3.5-5.3,0-7.3A14.19,14.19,0,0,1,133,107.6Z" transform="translate(-7.09 0)"/><path class="e" d="M130.9,109.2l-0.9.5a1.85,1.85,0,0,1,.9.9l-0.9.2a2.38,2.38,0,0,0-.9-0.9,2.15,2.15,0,0,0-1.9-.1c-0.5.3-.4,0.6,0.1,1.3s0.6,1.4-.3,1.9a4.33,4.33,0,0,1-3.2.1l-1,.6-0.6-.4,1-.6a2.29,2.29,0,0,1-1.1-1.1l0.9-.2a1.89,1.89,0,0,0,1,1,2.25,2.25,0,0,0,2.1.1c0.5-.3.5-0.7,0.1-1.3-0.6-.8-0.8-1.4.1-1.9a3.48,3.48,0,0,1,3-.1l1-.6Z" transform="translate(-7.09 0)"/><path class="r" d="M154.8,270.6a5.09,5.09,0,0,1-2-2.1,5.6,5.6,0,0,1-.8-2.7,2,2,0,0,1,.8-1.8,2.11,2.11,0,0,1,2,.2,6.36,6.36,0,0,1,2,2,5.6,5.6,0,0,1,.8,2.7,2,2,0,0,1-.8,1.8A1.66,1.66,0,0,1,154.8,270.6Z" transform="translate(-7.09 0)"/><path class="s" d="M160.9,252.5c10.8,6.2,17,20.6,17,33s-10.2,17.8-20.9,11.6-19.5-21.3-19.4-33.6S148.9,244.8,160.9,252.5Zm1.7,34.3v-2.1a6.56,6.56,0,0,0-.4-2.3,11.46,11.46,0,0,0-1-2.3,9.51,9.51,0,0,0-1.5-2,11.92,11.92,0,0,0-1.8-1.5l-6.5-3.7a3.23,3.23,0,0,0-1.8-.6,2.39,2.39,0,0,0-1.5.3,2.17,2.17,0,0,0-1,1.1,4.88,4.88,0,0,0-.4,1.9v2.1a2.92,2.92,0,0,0,.2.9,2.34,2.34,0,0,0,.7.7,0.63,0.63,0,0,0,.7.1,0.56,0.56,0,0,0,.2-0.6v-2.1a2,2,0,0,1,.8-1.8,2.11,2.11,0,0,1,2,.2l6.5,3.7a6.36,6.36,0,0,1,2,2,5.6,5.6,0,0,1,.8,2.7v2.1a2.92,2.92,0,0,0,.2.9,2.34,2.34,0,0,0,.7.7,0.63,0.63,0,0,0,.7.1c0.3,0.1.4-.1,0.4-0.5m-12.1-23.9a4.88,4.88,0,0,0-.4,1.9,6.56,6.56,0,0,0,.4,2.3,11.46,11.46,0,0,0,1,2.3,9.51,9.51,0,0,0,1.5,2,11.92,11.92,0,0,0,1.8,1.5,3.23,3.23,0,0,0,1.8.6,1.88,1.88,0,0,0,1.5-.3,2.17,2.17,0,0,0,1-1.1,4.88,4.88,0,0,0,.4-1.9,6.56,6.56,0,0,0-.4-2.3,11.46,11.46,0,0,0-1-2.3,9.51,9.51,0,0,0-1.5-2,11.92,11.92,0,0,0-1.8-1.5,3.8,3.8,0,0,0-1.8-.6,1.88,1.88,0,0,0-1.5.3,2.18,2.18,0,0,0-1,1.1m18.4,17.7a0.56,0.56,0,0,0,.2-0.6,2.92,2.92,0,0,0-.2-0.9,2.34,2.34,0,0,0-.7-0.7l-1.8-1.1v-2.1a2.92,2.92,0,0,0-.2-0.9,2.34,2.34,0,0,0-.7-0.7,0.63,0.63,0,0,0-.7-0.1,0.6,0.6,0,0,0-.3.6v2.1l-1.9-1.1a0.63,0.63,0,0,0-.7-0.1,0.6,0.6,0,0,0-.3.6,2.92,2.92,0,0,0,.2.9,2.34,2.34,0,0,0,.7.7l1.9,1.1v2.1a2.92,2.92,0,0,0,.2.9,2.34,2.34,0,0,0,.7.7,0.63,0.63,0,0,0,.7.1,0.56,0.56,0,0,0,.2-0.6v-2.1l1.8,1.1a1.57,1.57,0,0,0,.9.1" transform="translate(-7.09 0)"/><path class="a" d="M161.3,280.2a16,16,0,0,1,1,2.3,10.11,10.11,0,0,1,.4,2.3v2.1a0.6,0.6,0,0,1-.3.6,0.63,0.63,0,0,1-.7-0.1,2.34,2.34,0,0,1-.7-0.7,1.49,1.49,0,0,1-.2-0.9v-2.1a5.6,5.6,0,0,0-.8-2.7,4.81,4.81,0,0,0-2-2l-6.5-3.7a1.86,1.86,0,0,0-2-.2,2,2,0,0,0-.8,1.8V279a0.85,0.85,0,0,1-.2.6,0.63,0.63,0,0,1-.7-0.1,2.34,2.34,0,0,1-.7-0.7,1.49,1.49,0,0,1-.2-0.9v-2.1a3.81,3.81,0,0,1,.4-1.9,2.17,2.17,0,0,1,1-1.1,3.34,3.34,0,0,1,1.5-.3,6.36,6.36,0,0,1,1.8.6l6.5,3.7a8.45,8.45,0,0,1,1.8,1.5A7.21,7.21,0,0,1,161.3,280.2Z" transform="translate(-7.09 0)"/><path class="a" d="M168.9,279a1.49,1.49,0,0,1,.2.9,0.85,0.85,0,0,1-.2.6,0.63,0.63,0,0,1-.7-0.1l-1.8-1.1v2.1a0.85,0.85,0,0,1-.2.6,0.63,0.63,0,0,1-.7-0.1,2.34,2.34,0,0,1-.7-0.7,1.49,1.49,0,0,1-.2-0.9v-2.1l-1.9-1.1a2.34,2.34,0,0,1-.7-0.7,1.49,1.49,0,0,1-.2-0.9,0.6,0.6,0,0,1,.3-0.6,0.63,0.63,0,0,1,.7.1l1.9,1.1V274a0.6,0.6,0,0,1,.3-0.6,0.63,0.63,0,0,1,.7.1,2.34,2.34,0,0,1,.7.7,1.49,1.49,0,0,1,.2.9v2.1l1.8,1.1A3,3,0,0,0,168.9,279Z" transform="translate(-7.09 0)"/><path class="a" d="M151.5,269.3a16,16,0,0,1-1-2.3,9.26,9.26,0,0,1-.4-2.3,3.81,3.81,0,0,1,.4-1.9,2.17,2.17,0,0,1,1-1.1,3.34,3.34,0,0,1,1.5-.3,6.36,6.36,0,0,1,1.8.6,11.92,11.92,0,0,1,1.8,1.5,9.51,9.51,0,0,1,1.5,2,16,16,0,0,1,1,2.3,10.11,10.11,0,0,1,.4,2.3,3.81,3.81,0,0,1-.4,1.9,2.17,2.17,0,0,1-1,1.1,3.34,3.34,0,0,1-1.5.3,4.26,4.26,0,0,1-1.8-.6,6.55,6.55,0,0,1-1.8-1.5A9.51,9.51,0,0,1,151.5,269.3Zm1.3-5.3a2,2,0,0,0-.8,1.8,5.6,5.6,0,0,0,.8,2.7,5.78,5.78,0,0,0,2,2.1,1.86,1.86,0,0,0,2,.2,2,2,0,0,0,.8-1.8,5.6,5.6,0,0,0-.8-2.7,4.81,4.81,0,0,0-2-2,1.91,1.91,0,0,0-2-.3" transform="translate(-7.09 0)"/><path class="d" d="M179.2,283.4c-0.2-7.7-3.4-15.3-7.8-21.6-4.1-6-10.1-11.9-17.4-13.5a11.49,11.49,0,0,0-6.1.1c-1.8.5-3.1,1.7-4.7,2.7,3.9-2.3,8.7-1.3,12.5.6a36.28,36.28,0,0,1,10.7,8.8c5.8,7.1,10.2,16.4,10.1,25.7,0,4.6-1.4,9.8-5.7,12.3a18.84,18.84,0,0,0,5.6-4.5c2.4-3,2.9-7,2.8-10.6h0Z" transform="translate(-7.09 0)"/><path class="e" d="M151.3,286.1a4.5,4.5,0,0,1-2.4,3.4,11.51,11.51,0,0,1-4.4,1.5,15.46,15.46,0,0,1-4.8-.1,11.4,11.4,0,0,1-4.3-1.7,4.57,4.57,0,0,1-2-2.9v2.8a3.64,3.64,0,0,0,.9,2.3,7.44,7.44,0,0,0,3.1,2.1,13.54,13.54,0,0,0,4,.8,13.94,13.94,0,0,0,4.1-.3,10,10,0,0,0,3.7-1.5,4.72,4.72,0,0,0,2.1-2.9v-3.5h0Z" transform="translate(-7.09 0)"/><path class="f" d="M148.6,282.4c3.5,2,3.5,5.3,0,7.3a14.19,14.19,0,0,1-12.7,0c-3.5-2-3.5-5.3,0-7.3A14.19,14.19,0,0,1,148.6,282.4Z" transform="translate(-7.09 0)"/><path class="e" d="M146.6,283.9l-0.9.5a1.85,1.85,0,0,1,.9.9l-0.9.2a2.38,2.38,0,0,0-.9-0.9,2.15,2.15,0,0,0-1.9-.1c-0.5.3-.4,0.6,0.1,1.3s0.6,1.4-.3,1.9a4.33,4.33,0,0,1-3.2.1l-1,.6-0.6-.4,1-.6a2.29,2.29,0,0,1-1.1-1.1l0.9-.2a1.89,1.89,0,0,0,1,1,2.25,2.25,0,0,0,2.1.1c0.5-.3.5-0.7,0.1-1.3-0.6-.8-0.8-1.4.1-1.9a3.48,3.48,0,0,1,3-.1l1-.6Z" transform="translate(-7.09 0)"/><polygon class="t" points="363.61 102.2 363.31 212.6 189.41 112.2 189.81 1.8 363.61 102.2"/><polygon class="u" points="189.81 1.8 193.11 0 366.91 100.4 363.61 102.2 189.81 1.8"/><polygon class="v" points="351.21 105.3 351.01 192.4 200.21 106.4 200.51 19.3 351.21 105.3"/><polygon class="w" points="363.31 212.5 258.51 273.3 84.61 172.9 189.41 112.1 363.31 212.5"/><polygon class="x" points="363.31 212.5 363.31 217.1 258.41 277.8 258.51 273.3 363.31 212.5"/><path class="y" d="M265.6,273.3v4.6L95.1,179.4s-3.4-2.1-3.4-4.8v-1.7Z" transform="translate(-7.09 0)"/><path class="z" d="M370.7,102.2l3.3-1.8s-0.4,95.9-.4,102.8-2.9,9.8-2.9,9.8l-0.3-.4Z" transform="translate(-7.09 0)"/><g class="aa"><g class="ab"><path class="ac" d="M200.9,235.9s-1.4,2.4-5.4.6c-1.5-.8-24.1-13.9-24.1-13.9l-0.6-.4-0.6-.5-0.5-.6-0.5-.7-0.4-.7-0.3-.8-0.2-.8-0.1-.7v-0.2" transform="translate(-7.09 0)"/></g></g><g class="ab"><path class="t" d="M211,140.7l-6.6-3.8a3.19,3.19,0,0,0-2.7,0l-6.6,3.8a0.87,0.87,0,0,0,0,1.6l6.6,3.8a3.19,3.19,0,0,0,2.7,0l6.6-3.8c0.8-.5.8-1.2,0-1.6" transform="translate(-7.09 0)"/><path class="t" d="M200.8,134.8l-6.6-3.8a3.19,3.19,0,0,0-2.7,0l-6.6,3.8a0.87,0.87,0,0,0,0,1.6l6.6,3.8a3.19,3.19,0,0,0,2.7,0l6.6-3.8c0.8-.5.8-1.2,0-1.6" transform="translate(-7.09 0)"/><path class="t" d="M231.4,152.4l-6.6-3.8a3.19,3.19,0,0,0-2.7,0l-6.6,3.8a0.87,0.87,0,0,0,0,1.6l6.6,3.8a3.19,3.19,0,0,0,2.7,0l6.6-3.8c0.8-.4.8-1.1,0-1.6" transform="translate(-7.09 0)"/><path class="t" d="M221.2,146.5l-6.6-3.8a3.19,3.19,0,0,0-2.7,0l-6.6,3.8a0.87,0.87,0,0,0,0,1.6l6.6,3.8a3.19,3.19,0,0,0,2.7,0l6.6-3.8c0.8-.4.8-1.1,0-1.6" transform="translate(-7.09 0)"/><path class="t" d="M251.9,164.2l-6.6-3.8a3.19,3.19,0,0,0-2.7,0l-6.6,3.8a0.87,0.87,0,0,0,0,1.6l6.6,3.8a3.19,3.19,0,0,0,2.7,0l6.6-3.8a0.87,0.87,0,0,0,0-1.6" transform="translate(-7.09 0)"/><path class="t" d="M241.7,158.4l-6.6-3.8a3.19,3.19,0,0,0-2.7,0l-6.6,3.8a0.87,0.87,0,0,0,0,1.6l6.6,3.8a3.19,3.19,0,0,0,2.7,0l6.6-3.8a0.87,0.87,0,0,0,0-1.6" transform="translate(-7.09 0)"/><path class="t" d="M272.3,176l-6.6-3.8a3.19,3.19,0,0,0-2.7,0l-6.6,3.8a0.87,0.87,0,0,0,0,1.6l6.6,3.8a3.19,3.19,0,0,0,2.7,0l6.6-3.8a0.87,0.87,0,0,0,0-1.6" transform="translate(-7.09 0)"/><path class="t" d="M262.1,170.1l-6.6-3.8a3.19,3.19,0,0,0-2.7,0l-6.6,3.8a0.87,0.87,0,0,0,0,1.6l6.6,3.8a3.19,3.19,0,0,0,2.7,0l6.6-3.8a0.87,0.87,0,0,0,0-1.6" transform="translate(-7.09 0)"/><path class="t" d="M282.5,181.9l-6.6-3.8a3.19,3.19,0,0,0-2.7,0l-6.6,3.8a0.87,0.87,0,0,0,0,1.6l6.6,3.8a3.19,3.19,0,0,0,2.7,0l6.6-3.8c0.8-.4.8-1.1,0-1.6" transform="translate(-7.09 0)"/><path class="t" d="M303,193.8l-6.6-3.8a3.19,3.19,0,0,0-2.7,0l-6.6,3.8a0.87,0.87,0,0,0,0,1.6l6.6,3.8a3.19,3.19,0,0,0,2.7,0l6.6-3.8c0.8-.5.8-1.2,0-1.6" transform="translate(-7.09 0)"/><path class="t" d="M292.8,187.9l-6.6-3.8a3.19,3.19,0,0,0-2.7,0l-6.6,3.8a0.87,0.87,0,0,0,0,1.6l6.6,3.8a3.19,3.19,0,0,0,2.7,0l6.6-3.8c0.8-.5.8-1.2,0-1.6" transform="translate(-7.09 0)"/><path class="t" d="M323.4,205.5l-6.6-3.8a3.19,3.19,0,0,0-2.7,0l-6.6,3.8a0.87,0.87,0,0,0,0,1.6l6.6,3.8a3.19,3.19,0,0,0,2.7,0l6.6-3.8c0.8-.4.8-1.1,0-1.6" transform="translate(-7.09 0)"/><path class="t" d="M313.2,199.6l-6.6-3.8a3.19,3.19,0,0,0-2.7,0l-6.6,3.8a0.87,0.87,0,0,0,0,1.6l6.6,3.8a3.19,3.19,0,0,0,2.7,0l6.6-3.8c0.8-.4.8-1.1,0-1.6" transform="translate(-7.09 0)"/><path class="t" d="M288.1,196.5l-6.6-3.8a3.19,3.19,0,0,0-2.7,0l-6.6,3.8a0.87,0.87,0,0,0,0,1.6l6.6,3.8a3.19,3.19,0,0,0,2.7,0l6.6-3.8a0.87,0.87,0,0,0,0-1.6" transform="translate(-7.09 0)"/><path class="t" d="M308.5,208.3l-6.6-3.8a3.19,3.19,0,0,0-2.7,0l-6.6,3.8a0.87,0.87,0,0,0,0,1.6l6.6,3.8a3.19,3.19,0,0,0,2.7,0l6.6-3.8c0.8-.5.8-1.2,0-1.6" transform="translate(-7.09 0)"/><path class="t" d="M298.3,202.4l-6.6-3.8a3.19,3.19,0,0,0-2.7,0l-6.6,3.8a0.87,0.87,0,0,0,0,1.6l6.6,3.8a3.19,3.19,0,0,0,2.7,0l6.6-3.8c0.8-.5.8-1.2,0-1.6" transform="translate(-7.09 0)"/><path class="t" d="M328.9,220l-6.6-3.8a3.19,3.19,0,0,0-2.7,0L313,220a0.87,0.87,0,0,0,0,1.6l6.6,3.8a3.19,3.19,0,0,0,2.7,0l6.6-3.8c0.8-.4.8-1.1,0-1.6" transform="translate(-7.09 0)"/><path class="t" d="M318.7,214.2l-6.6-3.8a3.19,3.19,0,0,0-2.7,0l-6.6,3.8a0.87,0.87,0,0,0,0,1.6l6.6,3.8a3.19,3.19,0,0,0,2.7,0l6.6-3.8c0.8-.5.8-1.2,0-1.6" transform="translate(-7.09 0)"/><path class="t" d="M236.9,166.9l-6.6-3.8a3.19,3.19,0,0,0-2.7,0l-6.6,3.8a0.87,0.87,0,0,0,0,1.6l6.6,3.8a3.19,3.19,0,0,0,2.7,0l6.6-3.8c0.8-.4.8-1.1,0-1.6" transform="translate(-7.09 0)"/><path class="t" d="M257.4,178.8l-6.6-3.8a3.19,3.19,0,0,0-2.7,0l-6.6,3.8a0.87,0.87,0,0,0,0,1.6l6.6,3.8a3.19,3.19,0,0,0,2.7,0l6.6-3.8c0.8-.5.8-1.2,0-1.6" transform="translate(-7.09 0)"/><path class="t" d="M247.2,172.9l-6.6-3.8a3.19,3.19,0,0,0-2.7,0l-6.6,3.8a0.87,0.87,0,0,0,0,1.6l6.6,3.8a3.19,3.19,0,0,0,2.7,0l6.6-3.8c0.8-.5.8-1.2,0-1.6" transform="translate(-7.09 0)"/><path class="t" d="M206.3,149.3l-6.6-3.8a3.19,3.19,0,0,0-2.7,0l-6.6,3.8a0.87,0.87,0,0,0,0,1.6l6.6,3.8a3.19,3.19,0,0,0,2.7,0l6.6-3.8c0.8-.5.8-1.2,0-1.6" transform="translate(-7.09 0)"/><path class="t" d="M226.8,161.1l-6.6-3.8a3.19,3.19,0,0,0-2.7,0l-6.6,3.8a0.87,0.87,0,0,0,0,1.6l6.6,3.8a3.19,3.19,0,0,0,2.7,0l6.6-3.8c0.8-.5.8-1.2,0-1.6" transform="translate(-7.09 0)"/><path class="t" d="M216.6,155.2l-6.6-3.8a3.19,3.19,0,0,0-2.7,0l-6.6,3.8a0.87,0.87,0,0,0,0,1.6l6.6,3.8a3.19,3.19,0,0,0,2.7,0l6.6-3.8c0.8-.5.8-1.2,0-1.6" transform="translate(-7.09 0)"/><path class="t" d="M277.8,190.5l-6.6-3.8a3.19,3.19,0,0,0-2.7,0l-6.6,3.8a0.87,0.87,0,0,0,0,1.6l6.6,3.8a3.19,3.19,0,0,0,2.7,0l6.6-3.8c0.8-.4.7-1.1,0-1.6" transform="translate(-7.09 0)"/><path class="t" d="M267.6,184.6l-6.6-3.8a3.19,3.19,0,0,0-2.7,0l-6.6,3.8a0.87,0.87,0,0,0,0,1.6l6.6,3.8a3.19,3.19,0,0,0,2.7,0l6.6-3.8c0.8-.4.7-1.1,0-1.6" transform="translate(-7.09 0)"/><path class="t" d="M280.6,203.7l-6.6-3.8a3.19,3.19,0,0,0-2.7,0l-6.6,3.8a0.87,0.87,0,0,0,0,1.6l6.6,3.8a3.19,3.19,0,0,0,2.7,0l6.6-3.8a0.87,0.87,0,0,0,0-1.6" transform="translate(-7.09 0)"/><path class="t" d="M301,215.5l-6.6-3.8a3.19,3.19,0,0,0-2.7,0l-6.6,3.8a0.87,0.87,0,0,0,0,1.6l6.6,3.8a3.19,3.19,0,0,0,2.7,0l6.6-3.8a0.83,0.83,0,0,0,0-1.6" transform="translate(-7.09 0)"/><path class="t" d="M290.8,209.6l-6.6-3.8a3.19,3.19,0,0,0-2.7,0l-6.6,3.8a0.87,0.87,0,0,0,0,1.6l6.6,3.8a3.19,3.19,0,0,0,2.7,0l6.6-3.8c0.8-.4.8-1.1,0-1.6" transform="translate(-7.09 0)"/><path class="t" d="M229.4,174.2l-6.6-3.8a3.19,3.19,0,0,0-2.7,0l-6.6,3.8a0.87,0.87,0,0,0,0,1.6l6.6,3.8a3.19,3.19,0,0,0,2.7,0l6.6-3.8c0.8-.5.8-1.2,0-1.6" transform="translate(-7.09 0)"/><path class="t" d="M249.9,186l-6.6-3.8a3.19,3.19,0,0,0-2.7,0L234,186a0.87,0.87,0,0,0,0,1.6l6.6,3.8a3.19,3.19,0,0,0,2.7,0l6.6-3.8a0.87,0.87,0,0,0,0-1.6" transform="translate(-7.09 0)"/><path class="t" d="M239.7,180.1l-6.6-3.8a3.19,3.19,0,0,0-2.7,0l-6.6,3.8a0.87,0.87,0,0,0,0,1.6l6.6,3.8a3.19,3.19,0,0,0,2.7,0l6.6-3.8a0.87,0.87,0,0,0,0-1.6" transform="translate(-7.09 0)"/><path class="t" d="M198.8,156.5l-6.6-3.8a3.19,3.19,0,0,0-2.7,0l-6.6,3.8a0.87,0.87,0,0,0,0,1.6l6.6,3.8a3.19,3.19,0,0,0,2.7,0l6.6-3.8c0.8-.4.8-1.1,0-1.6" transform="translate(-7.09 0)"/><path class="t" d="M219.3,168.3l-6.6-3.8a3.19,3.19,0,0,0-2.7,0l-6.6,3.8a0.87,0.87,0,0,0,0,1.6l6.6,3.8a3.19,3.19,0,0,0,2.7,0l6.6-3.8c0.8-.4.7-1.1,0-1.6" transform="translate(-7.09 0)"/><path class="t" d="M209.1,162.4l-6.6-3.8a3.19,3.19,0,0,0-2.7,0l-6.6,3.8a0.87,0.87,0,0,0,0,1.6l6.6,3.8a3.19,3.19,0,0,0,2.7,0l6.6-3.8c0.8-.4.8-1.1,0-1.6" transform="translate(-7.09 0)"/><path class="t" d="M270.3,197.8l-6.6-3.8a3.19,3.19,0,0,0-2.7,0l-6.6,3.8a0.87,0.87,0,0,0,0,1.6l6.6,3.8a3.19,3.19,0,0,0,2.7,0l6.6-3.8a0.87,0.87,0,0,0,0-1.6" transform="translate(-7.09 0)"/><path class="t" d="M260.1,191.9l-6.6-3.8a3.19,3.19,0,0,0-2.7,0l-6.6,3.8a0.87,0.87,0,0,0,0,1.6l6.6,3.8a3.19,3.19,0,0,0,2.7,0l6.6-3.8a0.87,0.87,0,0,0,0-1.6" transform="translate(-7.09 0)"/><path class="t" d="M275.7,212.4l-6.6-3.8a3.19,3.19,0,0,0-2.7,0l-6.6,3.8a0.87,0.87,0,0,0,0,1.6l6.6,3.8a3.19,3.19,0,0,0,2.7,0l6.6-3.8c0.8-.5.8-1.2,0-1.6" transform="translate(-7.09 0)"/><path class="t" d="M286,218.3l-6.6-3.8a3.19,3.19,0,0,0-2.7,0l-6.6,3.8a0.87,0.87,0,0,0,0,1.6l6.6,3.8a3.19,3.19,0,0,0,2.7,0l6.6-3.8a0.87,0.87,0,0,0,0-1.6" transform="translate(-7.09 0)"/><path class="t" d="M224.6,182.9L218,179a3.19,3.19,0,0,0-2.7,0l-6.6,3.8a0.87,0.87,0,0,0,0,1.6l6.6,3.8a3.19,3.19,0,0,0,2.7,0l6.6-3.8c0.8-.4.7-1.1,0-1.5" transform="translate(-7.09 0)"/><path class="t" d="M245.1,194.7l-6.6-3.8a3.19,3.19,0,0,0-2.7,0l-6.6,3.8a0.87,0.87,0,0,0,0,1.6l6.6,3.8a3.19,3.19,0,0,0,2.7,0l6.6-3.8a0.87,0.87,0,0,0,0-1.6" transform="translate(-7.09 0)"/><path class="t" d="M234.9,188.8l-6.6-3.8a3.19,3.19,0,0,0-2.7,0l-6.6,3.8a0.87,0.87,0,0,0,0,1.6l6.6,3.8a3.19,3.19,0,0,0,2.7,0l6.6-3.8a0.87,0.87,0,0,0,0-1.6" transform="translate(-7.09 0)"/><path class="t" d="M194,165.2l-6.6-3.8a3.19,3.19,0,0,0-2.7,0l-6.6,3.8a0.87,0.87,0,0,0,0,1.6l6.6,3.8a3.19,3.19,0,0,0,2.7,0l6.6-3.8c0.8-.5.8-1.2,0-1.6" transform="translate(-7.09 0)"/><path class="t" d="M161.2,157.8l-6.6-3.8a3.3,3.3,0,0,0-2.9.1l-7.5,4.3c-0.8.5-.9,1.2-0.2,1.7l6.6,3.8a3.3,3.3,0,0,0,2.9-.1l7.5-4.3c0.9-.5,1-1.3.2-1.7" transform="translate(-7.09 0)"/><path class="t" d="M171.4,163.7l-6.6-3.8a3.3,3.3,0,0,0-2.9.1l-7.5,4.3c-0.8.5-.9,1.2-0.2,1.7l6.6,3.8a3.3,3.3,0,0,0,2.9-.1l7.5-4.3c0.9-.6,1-1.3.2-1.7" transform="translate(-7.09 0)"/><path class="t" d="M181.6,169.5l-6.6-3.8a3.3,3.3,0,0,0-2.9.1l-7.5,4.3c-0.8.5-.9,1.2-0.2,1.7l6.6,3.8a3.3,3.3,0,0,0,2.9-.1l7.5-4.3c0.9-.5,1-1.2.2-1.7" transform="translate(-7.09 0)"/><path class="t" d="M268.5,219.7l-6.6-3.8a3.3,3.3,0,0,0-2.9.1l-7.5,4.3c-0.8.5-.9,1.2-0.2,1.7l6.6,3.8a3.3,3.3,0,0,0,2.9-.1l7.5-4.3c0.9-.5,1-1.3.2-1.7" transform="translate(-7.09 0)"/><path class="t" d="M214.5,177l-6.6-3.8a3.19,3.19,0,0,0-2.7,0l-6.6,3.8a0.87,0.87,0,0,0,0,1.6l6.6,3.8a3.19,3.19,0,0,0,2.7,0l6.6-3.8a0.87,0.87,0,0,0,0-1.6" transform="translate(-7.09 0)"/><path class="t" d="M204.3,171.1l-6.6-3.8a3.19,3.19,0,0,0-2.7,0l-6.6,3.8a0.87,0.87,0,0,0,0,1.6l6.6,3.8a3.19,3.19,0,0,0,2.7,0l6.6-3.8a0.87,0.87,0,0,0,0-1.6" transform="translate(-7.09 0)"/><path class="t" d="M265.5,206.4l-6.6-3.8a3.19,3.19,0,0,0-2.7,0l-6.6,3.8a0.87,0.87,0,0,0,0,1.6l6.6,3.8a3.19,3.19,0,0,0,2.7,0l6.6-3.8a0.87,0.87,0,0,0,0-1.6" transform="translate(-7.09 0)"/><path class="t" d="M255.3,200.6l-6.6-3.8a3.19,3.19,0,0,0-2.7,0l-6.6,3.8a0.87,0.87,0,0,0,0,1.6L246,206a3.19,3.19,0,0,0,2.7,0l6.6-3.8a0.87,0.87,0,0,0,0-1.6" transform="translate(-7.09 0)"/><path class="t" d="M207,131.2l-6.6-3.8a3.19,3.19,0,0,0-2.7,0l-2.8,1.6a0.87,0.87,0,0,0,0,1.6l6.6,3.8a3.19,3.19,0,0,0,2.7,0l2.8-1.6c0.8-.5.8-1.2,0-1.6" transform="translate(-7.09 0)"/><path class="t" d="M217.8,137.3l-6.6-3.8a3.19,3.19,0,0,0-2.7,0l-2.8,1.6a0.87,0.87,0,0,0,0,1.6l6.6,3.8a3.19,3.19,0,0,0,2.7,0l2.8-1.6a0.87,0.87,0,0,0,0-1.6" transform="translate(-7.09 0)"/><path class="t" d="M228.2,143.4l-6.6-3.8a3.19,3.19,0,0,0-2.7,0l-2.8,1.6a0.87,0.87,0,0,0,0,1.6l6.6,3.8a3.19,3.19,0,0,0,2.7,0l2.8-1.6c0.8-.5.8-1.2,0-1.6" transform="translate(-7.09 0)"/><path class="t" d="M239,149.6l-6.6-3.8a3.19,3.19,0,0,0-2.7,0l-2.8,1.6a0.87,0.87,0,0,0,0,1.6l6.6,3.8a3.19,3.19,0,0,0,2.7,0l2.8-1.6a0.87,0.87,0,0,0,0-1.6" transform="translate(-7.09 0)"/><path class="t" d="M249.4,155.6l-6.6-3.8a3.19,3.19,0,0,0-2.7,0l-2.8,1.6a0.87,0.87,0,0,0,0,1.6l6.6,3.8a3.19,3.19,0,0,0,2.7,0l2.8-1.6a0.87,0.87,0,0,0,0-1.6" transform="translate(-7.09 0)"/><path class="t" d="M260.1,161.8l-6.6-3.8a3.19,3.19,0,0,0-2.7,0l-2.8,1.6a0.87,0.87,0,0,0,0,1.6l6.6,3.8a3.19,3.19,0,0,0,2.7,0l2.8-1.6a0.87,0.87,0,0,0,0-1.6" transform="translate(-7.09 0)"/><path class="t" d="M270.6,167.9L264,164a3.19,3.19,0,0,0-2.7,0l-2.8,1.6a0.87,0.87,0,0,0,0,1.6l6.6,3.8a3.19,3.19,0,0,0,2.7,0l2.8-1.6a0.77,0.77,0,0,0,0-1.5" transform="translate(-7.09 0)"/><path class="t" d="M281.4,174.1l-6.6-3.8a3.19,3.19,0,0,0-2.7,0l-2.8,1.6a0.87,0.87,0,0,0,0,1.6l6.6,3.8a3.19,3.19,0,0,0,2.7,0l2.8-1.6a0.87,0.87,0,0,0,0-1.6" transform="translate(-7.09 0)"/><path class="t" d="M291.8,180.1l-6.6-3.8a3.19,3.19,0,0,0-2.7,0l-2.8,1.6a0.87,0.87,0,0,0,0,1.6l6.6,3.8a3.19,3.19,0,0,0,2.7,0l2.8-1.6c0.8-.5.8-1.2,0-1.6" transform="translate(-7.09 0)"/><path class="t" d="M302.6,186.3l-6.6-3.8a3.19,3.19,0,0,0-2.7,0l-2.8,1.6a0.87,0.87,0,0,0,0,1.6l6.6,3.8a3.19,3.19,0,0,0,2.7,0l2.8-1.6a0.87,0.87,0,0,0,0-1.6" transform="translate(-7.09 0)"/><path class="t" d="M312.9,192.3l-6.6-3.8a3.19,3.19,0,0,0-2.7,0l-2.8,1.6a0.87,0.87,0,0,0,0,1.6l6.6,3.8a3.19,3.19,0,0,0,2.7,0l2.8-1.6c0.8-.5.8-1.2,0-1.6" transform="translate(-7.09 0)"/><path class="t" d="M323.7,198.5l-6.6-3.8a3.19,3.19,0,0,0-2.7,0l-2.8,1.6a0.87,0.87,0,0,0,0,1.6l6.6,3.8a3.19,3.19,0,0,0,2.7,0l2.8-1.6a0.87,0.87,0,0,0,0-1.6" transform="translate(-7.09 0)"/><path class="t" d="M334.2,204.6l-6.6-3.8a3.19,3.19,0,0,0-2.7,0l-2.8,1.6a0.87,0.87,0,0,0,0,1.6l6.6,3.8a3.19,3.19,0,0,0,2.7,0l2.8-1.6a0.87,0.87,0,0,0,0-1.6" transform="translate(-7.09 0)"/><path class="t" d="M344.9,210.8l-6.6-3.8a3.19,3.19,0,0,0-2.7,0l-2.8,1.6a0.87,0.87,0,0,0,0,1.6l6.6,3.8a3.19,3.19,0,0,0,2.7,0l2.8-1.6c0.8-.5.8-1.2,0-1.6" transform="translate(-7.09 0)"/><path class="t" d="M196,143.3l-11.6-6.7a3.19,3.19,0,0,0-2.7,0l-6.6,3.8a0.87,0.87,0,0,0,0,1.6l11.6,6.7a3.19,3.19,0,0,0,2.7,0l6.6-3.8c0.8-.4.8-1.1,0-1.6" transform="translate(-7.09 0)"/><path class="t" d="M188.7,150.7l-14.2-8.2a3.19,3.19,0,0,0-2.7,0l-6.6,3.8a0.87,0.87,0,0,0,0,1.6l14.2,8.2a3.19,3.19,0,0,0,2.7,0l6.6-3.8a0.87,0.87,0,0,0,0-1.6" transform="translate(-7.09 0)"/><path class="t" d="M184,159.4l-19.5-11.3a3.19,3.19,0,0,0-2.7,0l-6.6,3.8a0.87,0.87,0,0,0,0,1.6l19.5,11.3a3.19,3.19,0,0,0,2.7,0L184,161c0.8-.4.8-1.1,0-1.6" transform="translate(-7.09 0)"/><path class="t" d="M194.4,176.9l-9.2-5.3a3.19,3.19,0,0,0-2.7,0l-7.8,4.5a0.87,0.87,0,0,0,0,1.6l9.2,5.3a3.19,3.19,0,0,0,2.7,0l7.8-4.5a0.87,0.87,0,0,0,0-1.6" transform="translate(-7.09 0)"/><path class="t" d="M258,213.6l-9.2-5.3a3.19,3.19,0,0,0-2.7,0l-7.8,4.5a0.87,0.87,0,0,0,0,1.6l9.2,5.3a3.19,3.19,0,0,0,2.7,0l7.8-4.5c0.8-.4.8-1.1,0-1.6" transform="translate(-7.09 0)"/><path class="t" d="M338.7,214.4l-11.9-6.9a3.19,3.19,0,0,0-2.7,0l-6.6,3.8a0.87,0.87,0,0,0,0,1.6l11.9,6.9a3.19,3.19,0,0,0,2.7,0l6.6-3.8c0.8-.5.8-1.2,0-1.6" transform="translate(-7.09 0)"/><path class="t" d="M318.9,225.9l-14.4-8.3a3.19,3.19,0,0,0-2.7,0l-6.6,3.8a0.87,0.87,0,0,0,0,1.6l14.4,8.3a3.19,3.19,0,0,0,2.7,0l6.6-3.8c0.8-.5.8-1.2,0-1.6" transform="translate(-7.09 0)"/><path class="t" d="M309,231.6l-19.4-11.2a3.19,3.19,0,0,0-2.7,0l-6.6,3.8a0.87,0.87,0,0,0,0,1.6L299.7,237a3.19,3.19,0,0,0,2.7,0l6.6-3.8c0.8-.5.8-1.2,0-1.6" transform="translate(-7.09 0)"/><path class="t" d="M273.6,228.6l-6.6-3.8a3.19,3.19,0,0,0-2.7,0l-2.7,1.5a0.87,0.87,0,0,0,0,1.6l6.6,3.8a3.19,3.19,0,0,0,2.7,0l2.7-1.5a0.87,0.87,0,0,0,0-1.6" transform="translate(-7.09 0)"/><path class="t" d="M294,240.4l-6.6-3.8a3.19,3.19,0,0,0-2.7,0l-2.7,1.5a0.87,0.87,0,0,0,0,1.6l6.6,3.8a3.19,3.19,0,0,0,2.7,0L294,242a0.87,0.87,0,0,0,0-1.6" transform="translate(-7.09 0)"/><path class="t" d="M288.9,231.5l-6.6-3.8a3.19,3.19,0,0,0-2.7,0l-7.8,4.5a0.87,0.87,0,0,0,0,1.6l6.6,3.8a3.19,3.19,0,0,0,2.7,0l7.8-4.5c0.8-.5.8-1.2,0-1.6" transform="translate(-7.09 0)"/><path class="t" d="M245.3,206.3l-47.4-27.4a3.19,3.19,0,0,0-2.7,0l-7.8,4.5a0.87,0.87,0,0,0,0,1.6l47.4,27.4a3.19,3.19,0,0,0,2.7,0l7.8-4.5c0.8-.4.8-1.1,0-1.6" transform="translate(-7.09 0)"/></g><path class="a" d="M288.1,58.6a0.78,0.78,0,0,0-1.3.7,3,3,0,0,0,1.2,2.2,0.78,0.78,0,0,0,1.3-.7,2.4,2.4,0,0,0-1.2-2.2" transform="translate(-7.09 0)"/></svg>