<svg xmlns="http://www.w3.org/2000/svg" xmlns:xlink="http://www.w3.org/1999/xlink" width="1924" height="1515" viewBox="0 0 1924 1515"><defs><path id="3xqka" d="M1918 7144l-554.74-2.99L.95 8003.34l1.06 649.85 1919.87-1216.34z"/><path id="3xqkc" d="M465.98 7534a64.53 64.53 0 0 1-45.95-19.1 64.45 64.45 0 0 1-19.03-45.98c.07-35.8 29.24-64.92 65.02-64.92h.01a65.06 65.06 0 0 1 64.96 65 65.1 65.1 0 0 1-64.98 65h-.03zm.04-128.46c-34.94 0-63.4 28.43-63.48 63.39a62.93 62.93 0 0 0 18.58 44.88 63.02 63.02 0 0 0 44.86 18.65h.03a63.54 63.54 0 0 0 63.44-63.46 63.52 63.52 0 0 0-63.42-63.46zm6.9 102.56h-8.65v-11.56h-4.07v11.53h-9.4v-11.9h-14.56l1.75-10.49h5.79c1.8 0 1.95-.15 1.95-1.95v-30.97c0-2.39-.85-3.29-3.22-3.43a26.5 26.5 0 0 0-1.75-.02h-4.06v-8.94h14.06v-12.15h9.33v11.75h4.15v-11.7h8.62v12.02l1.46.25c1.56.26 3.03.5 4.52.88 2.85.73 6.46 1.98 8.96 5.22a13.08 13.08 0 0 1 2.4 10.43 13.09 13.09 0 0 1-4.97 8.13c.71.25 1.39.5 2.06.82 4.6 2.13 7.06 5.87 7.28 11.1.12 2.82-.25 5.52-1.11 8.03-1.68 4.88-5.3 8.09-10.78 9.52a57 57 0 0 1-6.48 1.15c-.92.13-1.84.26-2.76.41-.17.03-.34.04-.52.05zm-7.1-1.55h5.56v-11.73l.72-.04.47-.03c.23 0 .43-.01.63-.04.92-.15 1.85-.28 2.79-.4 2.09-.3 4.26-.6 6.3-1.14 4.94-1.29 8.21-4.16 9.71-8.52.8-2.33 1.15-4.84 1.03-7.46-.2-4.68-2.29-7.88-6.39-9.78-.69-.31-1.42-.58-2.2-.86l-1.17-.42-1.4-.53 1.36-.92.22-.14a11.43 11.43 0 0 0 5.24-7.75c.63-3.32-.14-6.67-2.1-9.2-2.23-2.87-5.52-4-8.13-4.68-1.42-.36-2.87-.6-4.4-.86l-2.11-.36-.63-.12v-11.77h-5.54v11.71h-7.23v-11.75h-6.25v12.15h-14.06v5.85h2.51c.6 0 1.23 0 1.85.03 3.18.2 4.67 1.77 4.67 4.97v30.97c0 2.63-.85 3.48-3.48 3.5h-4.49l-1.24 7.4h14.29v11.9h6.31V7495h7.15zm-2.5-18.85c-1.25 0-2.54-.02-3.9-.06l-.74-.02v-17.29l.73-.03c5.46-.27 10.38-.35 15.22 1.4a8.26 8.26 0 0 1 5.3 5.5c.6 2.27.04 4.63-1.54 6.47-1.53 1.78-3.67 2.52-5.57 3.02-3.1.8-6.14 1.01-9.5 1.01zm-3.1-1.58c4.54.11 8.38.08 12.2-.92 1.76-.46 3.55-1.08 4.8-2.53a5.48 5.48 0 0 0 1.23-5.07 6.64 6.64 0 0 0-4.35-4.45c-4.35-1.58-8.87-1.58-13.88-1.35zm3.09-21.64l-1.93-.02a99.6 99.6 0 0 0-1.97-.03h-.77v-15.92h.77c.58 0 1.15 0 1.72-.02 1.27 0 2.58-.02 3.87.03 2.2.1 4.76.34 7.23 1.38a7.08 7.08 0 0 1 4.28 8.68c-.65 2.37-2.38 3.95-5.27 4.83-1.66.5-3.48.83-5.4.98-.85.07-1.69.09-2.53.09zm-3.12-1.58l1.21.02c1.5.02 2.9.05 4.32-.06 1.81-.14 3.52-.45 5.07-.93 2.38-.72 3.73-1.92 4.24-3.76a5.59 5.59 0 0 0-3.4-6.86 19.5 19.5 0 0 0-6.7-1.24c-1.24-.06-2.48-.05-3.78-.03h-.96z"/><linearGradient id="3xqkb" x1="230.88" x2="1691.95" y1="8653.19" y2="7141.01" gradientUnits="userSpaceOnUse"><stop offset="0" stop-color="#4ec5fa"/><stop offset="1" stop-color="#4ec5fa" stop-opacity="0"/></linearGradient></defs><g><g opacity=".16" transform="translate(1 -7140)"><use fill="url(#3xqkb)" xlink:href="#3xqka"/></g><g opacity=".13" transform="translate(1 -7140)"><use fill="#006fd3" xlink:href="#3xqkc"/></g></g></svg>