<?xml version="1.0" encoding="utf-8"?>
<!-- Generator: Adobe Illustrator 19.2.0, SVG Export Plug-In . SVG Version: 6.00 Build 0)  -->
<svg version="1.1" id="Слой_1" xmlns="http://www.w3.org/2000/svg" xmlns:xlink="http://www.w3.org/1999/xlink" x="0px" y="0px"
	 viewBox="0 0 196.2 218.9" style="enable-background:new 0 0 196.2 218.9;" xml:space="preserve">
<style type="text/css">
	.st0{enable-background:new    ;}
	.st1{fill:#BA636D;}
	.st2{fill:#BF656F;}
	.st3{fill:#B34248;}
	.st4{fill:url(#SVGID_1_);}
	.st5{fill:#B8626B;}
	.st6{fill:#CD6D78;}
	.st7{fill:url(#SVGID_2_);}
	.st8{fill:#217F69;}
	.st9{fill:url(#SVGID_3_);}
	.st10{clip-path:url(#SVGID_5_);enable-background:new    ;}
	.st11{fill:#115646;}
	.st12{fill:#125949;}
	.st13{fill:url(#SVGID_6_);}
	.st14{fill:#C84A50;}
	.st15{fill:url(#SVGID_7_);}
	.st16{fill:url(#SVGID_8_);}
	.st17{fill:url(#SVGID_9_);}
	.st18{fill:url(#SVGID_10_);}
	.st19{fill:url(#SVGID_11_);}
	.st20{fill:url(#SVGID_12_);}
</style>
<g>
	<g class="st0">
		<g class="st0">
			<path class="st1" d="M10.5,85.1l88.6-51.5c0.2,0.1,0.3,0.2,0.5,0.2L10.9,85.3C10.8,85.2,10.6,85.2,10.5,85.1"/>
			<path class="st2" d="M10.9,85.3l88.6-51.5c0.1,0.1,0.2,0.1,0.4,0.2L11.3,85.5C11.1,85.5,11,85.4,10.9,85.3"/>
		</g>
		<g>
			<polygon class="st3" points="50.6,135 139.3,83.5 139.1,143 50.5,194.5 			"/>
		</g>
		<linearGradient id="SVGID_1_" gradientUnits="userSpaceOnUse" x1="3.4635" y1="68.3144" x2="120.679" y2="68.3144">
			<stop  offset="2.078125e-02" style="stop-color:#3FB1D1"/>
			<stop  offset="0.9224" style="stop-color:#3863AB"/>
		</linearGradient>
		<path class="st4" d="M99.9,34c-2.4-1.4-5.4-2.2-8-0.8c-0.3,0.2-0.6,0.3-0.9,0.5c-1.8,1-3.5,2.1-5.3,3.1c-3,1.7-6,3.5-9,5.2
			c-3.9,2.3-7.7,4.5-11.6,6.8c-4.4,2.5-8.7,5.1-13.1,7.6c-4.5,2.6-8.9,5.2-13.4,7.8c-4.2,2.5-8.5,4.9-12.7,7.4
			c-3.6,2.1-7.2,4.2-10.8,6.3c-2.6,1.5-5.2,3-7.8,4.5c-1.2,0.7-2.5,1.4-3.7,2.2c-0.1,0,2.4,10.1,5,11.6c2,1.2,8.4,1.9,10.4,3
			c4.5,2.6,8.6,2.2,13.1,4.8c0.5,0.3,5.1-1.9,5.6-2.1c0.7-0.4-3.7-5.6-2.9-6c3-1.7,6-3.5,9-5.2c4.5-2.6,9-5.2,13.4-7.8
			c5.3-3.1,10.6-6.2,15.9-9.2c5.4-3.1,10.8-6.3,16.2-9.4c4.9-2.9,9.8-5.7,14.7-8.6c3.7-2.1,7.3-4.3,11-6.4c1.8-1,3.7-2,5.4-3.2
			c0.1,0,0.2-0.1,0.2-0.1c-2.3-1.3-4.7-2.7-7-4c-3.7-2.2-7.5-4.3-11.2-6.5C101.6,35,100.8,34.5,99.9,34z"/>
		<g>
			<polygon class="st5" points="50.7,109.1 139.4,57.6 139.3,83.5 50.6,135 			"/>
		</g>
		<g>
			<polygon class="st6" points="32,97.5 120.7,46 139.4,56.8 50.7,108.3 			"/>
		</g>
		<linearGradient id="SVGID_2_" gradientUnits="userSpaceOnUse" x1="-35.9446" y1="101.6811" x2="157.7407" y2="212.7454">
			<stop  offset="2.078125e-02" style="stop-color:#3B92BE"/>
			<stop  offset="0.9224" style="stop-color:#534192"/>
		</linearGradient>
		<path class="st7" d="M32,97.5l-20.8-12C5.1,82,0.1,84.8,0,91.9l0,13.8l6,3.5l-0.1,46.6c0,7.1,5,15.7,11.1,19.3l33.4,19.3l0.2-59.5
			l0.1-25.9l0-0.8L32,97.5z"/>
		<g>
			<polygon class="st5" points="50.7,108.3 139.4,56.8 139.4,57.6 50.7,109.1 			"/>
		</g>
	</g>
	<g>
		<polygon class="st8" points="56.9,138.6 145.5,87.1 145.3,146.5 56.7,198.1 		"/>
	</g>
	<g>
		<polygon class="st8" points="56.9,137 145.5,85.5 145.5,87.1 56.9,138.6 		"/>
	</g>
	<g>
		<polygon class="st8" points="56.9,129.8 145.5,78.3 145.5,85.5 56.9,137 		"/>
	</g>
	<linearGradient id="SVGID_3_" gradientUnits="userSpaceOnUse" x1="53.7723" y1="36.2045" x2="78.5092" y2="62.1993">
		<stop  offset="2.375000e-02" style="stop-color:#FAD646"/>
		<stop  offset="0.9582" style="stop-color:#F6D688"/>
	</linearGradient>
	<path class="st9" d="M133.7,48.3c-6.7-3.9-13.4-8.2-19.1-13.5c-4.8-4.4-9.1-9.9-11.5-16.1c-1.4-3.6-2-8.6,1.9-10.9
		c-3.7,2.2-7.5,4.3-11.2,6.5c-8.5,5-17.1,9.9-25.6,14.9C58.6,34.8,49,40.3,39.4,45.9c-6.6,3.9-13.3,7.7-19.9,11.6
		c-1,0.6-2.1,1.2-3.1,1.8c-7.2,4.4-1.5,15.8,1.4,20.6c1.7,2.8,5.2,6.1,7.6,8.3c3.2,3,6.8,6.4,10.4,8.9c2,1.4,4.4,1.6,6.5,2.9
		c1,0.6,1.8-0.7,2.8-0.2c0.6,0.3,1.1,0.7,1.7,1c0.2,0.1,0.8,0.6,1.1,0.6c0.3,0,0.7-0.4,0.9-0.5c5.4-3.1,10.8-6.3,16.1-9.4
		c9.2-5.4,18.5-10.7,27.7-16.1c9.1-5.3,18.3-10.6,27.4-15.9c5.3-3.1,10.5-6.1,15.8-9.2c0.2-0.1,0.5-0.3,0.7-0.4
		C135.5,49.4,134.6,48.8,133.7,48.3C133,47.9,134.6,48.8,133.7,48.3z"/>
	<g class="st0">
		<defs>
			<path id="SVGID_4_" class="st0" d="M142.5,53.4c-0.4,0.6-0.7,1.1-0.7,1.2L53.1,106c0.1-0.1,0.3-0.5,0.7-1.2
				C80.5,89.4,115.9,68.8,142.5,53.4z"/>
		</defs>
		<clipPath id="SVGID_5_">
			<use xlink:href="#SVGID_4_"  style="overflow:visible;"/>
		</clipPath>
		<g class="st10">
			<path class="st11" d="M53.9,104.9l88.6-51.5c-0.1,0.2-0.2,0.3-0.3,0.4l-88.6,51.5C53.7,105.2,53.8,105,53.9,104.9"/>
			<path class="st12" d="M53.6,105.3l88.6-51.5c-0.3,0.4-0.4,0.7-0.4,0.7L53.1,106C53.2,106,53.3,105.7,53.6,105.3"/>
		</g>
	</g>
	<linearGradient id="SVGID_6_" gradientUnits="userSpaceOnUse" x1="60.4205" y1="27.2522" x2="92.276" y2="64.5567">
		<stop  offset="4.930398e-02" style="stop-color:#F5B643"/>
		<stop  offset="0.9582" style="stop-color:#F6D688"/>
	</linearGradient>
	<path class="st13" d="M53.1,106.9c1-0.6,9.2-6.9,11.9-8.5c3.9-2.3,7.9-4.6,11.8-6.9c4.7-2.7,9.3-5.4,14-8.1
		c4.9-2.9,9.8-5.7,14.7-8.6c4.7-2.7,9.3-5.4,14-8.1c3.9-2.3,7.9-4.6,11.8-6.8c2.7-1.6,5.4-3.1,8.1-4.7c0.7-0.4,1.5-0.9,2.2-1.3
		c0.2-0.1,0.4-0.2,0.6-0.3c0.2-0.2,0.2,0,0.1-0.4c-3.3-9.4-7.2-18.7-11.8-27.5c-2.4-4.6-5-9.2-8.1-13.4c-2.6-3.6-5.5-7.1-9.2-9.7
		c-3.5-2.5-8.3-3.5-12.2-1.3c-0.3,0.2-0.5,0.3-0.8,0.5c-1.9,1.1-3.9,2.2-5.8,3.4c-3.4,2-6.8,4-10.2,5.9c-4.4,2.5-8.7,5.1-13.1,7.6
		c-4.9,2.8-9.7,5.7-14.6,8.5c-4.8,2.8-9.7,5.6-14.5,8.4c-4.4,2.5-8.7,5.1-13.1,7.6c-3.4,2-6.7,3.9-10.1,5.9
		c-1.9,1.1-3.8,2.2-5.7,3.3c-0.2,0.1-0.5,0.3-0.7,0.4c2.2-1.3,2.7,2.6,5.2,3.1c2.5,0.5,5.7,2.2,7.6,3.8c3.9,3.3,7.1,4.1,9.9,8.4
		C38.2,72.6,52.6,105.4,53.1,106.9z"/>
	<g>
		<polygon class="st14" points="56.9,138.6 145.5,87.1 190.1,112.8 101.5,164.3 		"/>
	</g>
	<linearGradient id="SVGID_7_" gradientUnits="userSpaceOnUse" x1="213.0929" y1="92.767" x2="78.8903" y2="189.7809">
		<stop  offset="2.078125e-02" style="stop-color:#3FB1D1"/>
		<stop  offset="0.9224" style="stop-color:#3863AB"/>
	</linearGradient>
	<path class="st15" d="M79,135c0.2,0.8,0.4,1.7,0.5,2.5c0.5,2.2,1,4.4,1.5,6.6c0.7,3.2,1.4,6.4,2.1,9.6c0.8,3.8,1.7,7.6,2.5,11.4
		c0.9,4,1.8,8,2.7,12.1c0.8,3.8,1.7,7.7,2.5,11.5c0.7,3.2,1.4,6.5,2.1,9.7c0.5,2.3,1,4.6,1.5,6.9c0.2,0.9,0.4,1.9,0.6,2.8
		c0.2,1.2,0.7,2.3,1,3.4c0.6,1.8,1.3,3.7,1.8,5.5c0,0.1,0.4,1,0.2,1.1c1.7-1,3.4-2,5.1-3c4.4-2.5,8.7-5.1,13.1-7.6
		c5.9-3.4,11.9-6.9,17.8-10.3c6.4-3.7,12.8-7.5,19.2-11.2c5.8-3.4,11.6-6.7,17.4-10.1c4.1-2.4,8.1-4.7,12.2-7.1
		c1-0.6,2.1-1.2,3.1-1.8c1.6-0.9,2.9-2.2,3.5-4.1c0.6-1.8,0.5-3.6,0.5-5.4c0-2.4,0-4.8,0-7.1c0-7.1,0-14.2,0.1-21.4
		c0-5.1,0-10.3,0-15.4c0-0.3,0-0.5,0-0.8c-1,0.2-2,0.4-3,0.6c-2.7,0.5-5.4,1.1-8.1,1.6c-4,0.8-8,1.6-11.9,2.4
		c-4.9,1-9.7,1.9-14.6,2.9c-5.3,1.1-10.7,2.1-16,3.2c-5.4,1.1-10.7,2.1-16.1,3.2c-5,1-10,2-15.1,3c-4.2,0.8-8.5,1.7-12.7,2.5
		c-3,0.6-6.1,1.2-9.1,1.8c-1.4,0.3-2.9,0.6-4.3,0.9C79.1,134.9,79,135,79,135z"/>
	<linearGradient id="SVGID_8_" gradientUnits="userSpaceOnUse" x1="78.4708" y1="69.3891" x2="102.3645" y2="79.4496">
		<stop  offset="2.375000e-02" style="stop-color:#FAD646"/>
		<stop  offset="0.9582" style="stop-color:#F6D688"/>
	</linearGradient>
	<path class="st16" d="M171.7,63.4c-0.8,0.5-1.7,0.7-2.6,1c-0.8,0.3-1.7,0.2-2.5,0.1c-2-0.2-3.9-0.8-5.7-1.5
		c-4.3-1.6-8.3-3.7-12.2-6c2-2.6,4.4-4.9,7.2-6.5c-1.9,1.1-3.9,2.2-5.8,3.4c-1.4,0.8-2.7,1.6-4.1,2.4c-0.5,0.3-1,0.6-1.4,0.8
		c-0.2,0.1-0.5,0.4-0.7,0.4c-0.1,0-0.2-0.1-0.3-0.2c-0.4-0.2-0.8-0.4-1.1-0.7c-0.2-0.1-0.7-0.3-0.9-0.5c-0.2-0.3,0-1.2,0.2-1.5
		c-0.4,0.2-0.9,0.6-1.3,0.7c-0.4,0.1-0.7-0.5-1.1-0.5c-0.1,0-0.1,0-0.2,0.1c-0.4,0.1-0.9,0.5-1.3,0.7c-2,1.2-4,2.3-5.9,3.5
		c-3.2,1.9-6.4,3.7-9.6,5.6c-4,2.3-8,4.7-12,7c-4.4,2.6-8.9,5.2-13.3,7.7c-4.5,2.6-9,5.2-13.5,7.9c-4.2,2.4-8.4,4.9-12.6,7.3
		c-3.5,2-7,4-10.4,6.1c-2.4,1.4-4.8,2.8-7.2,4.2c-0.7,0.4-1.3,0.8-2,1.2c-0.2,0.1-0.6,0.3-0.8,0.4c-0.1,0.1,0,0.5,0,0.7
		c0,0.5,0,0.9,0,1.4c0.2-0.1,0.5-0.3,0.7-0.4c0.3-0.1,0.7-0.6,1-0.6c0.3,0,0.8,0.4,1,0.5c0.7,0.4,1.5,0.9,2.2,1.3
		c0.3,0.2,1.1,0.5,1.3,0.7c0.1,0.2,0,0.7,0,0.9c0,0.2-0.1,0.9,0,1.1c0.1,0.1,0.2,0.1,0.3,0.1c0.9,0.2,1.7,0.5,2.6,0.7
		c6.3,1.7,12.6,3.4,18.9,5.2c0.5,0.1,1.1,0.3,1.6,0.4c0.3,0.1,0.6,0.2,0.9,0.2c0.3,0,0.7-0.3,1-0.5c0.4-0.3,0.8-0.5,1.2-0.8
		c0.1-0.1,0.2-0.1,0.2-0.2c0.2-0.1,0.4-0.4,0.6-0.5c-0.5,0.2-0.8,0.6-1.4,0.5c-0.2,0-0.7-0.2-0.7-0.5c0-0.1,0.4-0.2,0.5-0.2
		c0.7-0.1,1.5-0.1,2.1-0.4c0.3-0.1,0.6-0.4,0.9-0.5c1.7-1,3.5-2.1,5.2-3.1c2.9-1.8,5.9-3.6,8.8-5.3c3.8-2.3,7.6-4.6,11.4-6.9
		c4.3-2.6,8.6-5.2,12.9-7.8c4.4-2.7,8.8-5.3,13.2-8c4.2-2.5,8.3-5,12.5-7.6c3.5-2.1,7.1-4.3,10.6-6.4c2.6-1.6,5.1-3.1,7.7-4.7
		c1.2-0.7,2.4-1.5,3.7-2.2C171.6,63.4,171.7,63.4,171.7,63.4z"/>
	<linearGradient id="SVGID_9_" gradientUnits="userSpaceOnUse" x1="-44.2443" y1="92.929" x2="123.1941" y2="188.9427">
		<stop  offset="2.078125e-02" style="stop-color:#3B92BE"/>
		<stop  offset="0.9224" style="stop-color:#534192"/>
	</linearGradient>
	<path class="st17" d="M102.3,130.5l-30-9.7l-15.3-8.9l-0.1,17.9l0,7.2l0,1.6l-0.2,59.5l33.4,19.3c6.2,3.6,11.2,0.7,11.2-6.4
		l0.1-46.6l6,3.5l6.5-14C114.1,146.7,110.8,130.8,102.3,130.5z"/>
	<linearGradient id="SVGID_10_" gradientUnits="userSpaceOnUse" x1="102.9693" y1="53.9575" x2="146.6352" y2="130.7771">
		<stop  offset="2.078125e-02" style="stop-color:#3FB1D1"/>
		<stop  offset="0.9224" style="stop-color:#3863AB"/>
	</linearGradient>
	<path class="st18" d="M196.2,102c-0.1-4.3-1.8-8.5-4.2-12.1c-1.2-1.8-2.6-3.4-4.3-4.8c-1.9-1.6-4.1-2.7-6.3-4
		c-4.4-2.6-8.9-5.1-13.3-7.7c-2.2-1.3-4.5-2.5-6.6-3.8c-0.1-0.1-0.3-0.2-0.5-0.3c-0.2-0.1-0.3,0-0.5,0.1c-0.5,0.3-1.1,0.6-1.6,1
		c-1.1,0.6-2.2,1.3-3.3,1.9c-8.9,5.2-17.7,10.3-26.6,15.5c-8.9,5.2-22.2,17.4-31.2,22.6c-8.9,5.2-13.4,3.3-22.3,8.5
		c-1.1,0.6-2.1,1.2-3.2,1.9c3.9,2.2,7.8,4.5,11.7,6.7c3.7,2.1,7.5,4.2,11.2,6.4c1.7,1,3.3,2.1,4.8,3.4c1.4,1.3,2.6,2.8,3.6,4.3
		c2.1,3.3,3.7,7.1,4,11c0.1,1.3,0.1,2.5,0.1,3.8c0,1.3,0,2.5,0,3.8c0,2.5,0,5.1,0,7.6c6.6-3.8,13.2-7.7,19.8-11.5
		c6.7-3.9,13.3-7.8,20-11.6c6.7-3.9,13.3-7.7,20-11.6c6.7-3.9,13.3-7.8,20-11.6c1.6-0.9,3.3-1.9,4.9-2.8c0.8-0.5,1.6-0.9,2.4-1.4
		c0.4-0.2,0.7-0.4,1.1-0.6c0.1-0.1,0.3-0.1,0.4-0.2c0.1-0.1,0-0.3,0-0.4c-0.1-1.9,0-3.8,0-5.7c0-1.9,0-3.8,0-5.7
		C196.2,103.6,196.2,102.8,196.2,102C196.2,102,196.2,102.1,196.2,102C196,96.2,196.2,102.2,196.2,102z M188,85.4L188,85.4
		C188,85.4,188,85.4,188,85.4z"/>
	<linearGradient id="SVGID_11_" gradientUnits="userSpaceOnUse" x1="114.3639" y1="66.2817" x2="129.0205" y2="86.801">
		<stop  offset="4.657670e-02" style="stop-color:#F39D3E"/>
		<stop  offset="0.9582" style="stop-color:#F6D688"/>
	</linearGradient>
	<path class="st19" d="M179.1,62.6c0-4.3-1.9-8.6-4.3-12c-2.5-3.6-5.8-6.9-10.1-8.3c-4.3-1.4-8.8-0.7-12.7,1.5
		c-0.3,0.2-0.6,0.3-0.9,0.5c-2.1,1.2-4.1,2.4-6.2,3.6c-3.6,2.1-7.1,4.1-10.7,6.2c-4.5,2.6-9.1,5.3-13.6,7.9c-5,2.9-10,5.8-15,8.7
		c-4.9,2.9-9.8,5.7-14.8,8.6c-4.3,2.5-8.7,5-13,7.6c-3.2,1.9-6.4,3.7-9.6,5.6c-1.6,0.9-3.1,1.8-4.7,2.7c-0.1,0-0.1,0.1-0.2,0.1
		c2.7-1.6,5.7,1,8.8,1.2c3.4,0.2,6.4,1.3,9,3.4c4.7,3.8,8.6,6.6,9.2,12.7c0.4,3.3-0.5,7-3.6,8.8c0.8-0.5,1.7-1,2.5-1.5
		c2.3-1.3,4.6-2.7,6.9-4c3.4-2,6.8-3.9,10.2-5.9c4.1-2.4,8.2-4.8,12.3-7.1c4.4-2.6,8.9-5.2,13.3-7.7c4.4-2.6,8.8-5.1,13.3-7.7
		c4-2.3,8-4.7,12.1-7c3.2-1.9,6.5-3.8,9.7-5.7c2.1-1.2,4.3-2.5,6.4-3.7c1.6-1,3.2-1.8,4.3-3.4C178.8,66.3,179.2,64.3,179.1,62.6
		C179.1,62.5,179.1,62.6,179.1,62.6z"/>
	<linearGradient id="SVGID_12_" gradientUnits="userSpaceOnUse" x1="-6.3428" y1="43.9168" x2="103.6063" y2="197.5222">
		<stop  offset="4.704545e-02" style="stop-color:#F57B3D"/>
		<stop  offset="0.9592" style="stop-color:#FBAC3F"/>
	</linearGradient>
	<path class="st20" d="M90.1,110.6c-1.4-6.1-6-12.5-11.1-15.5c-0.7-0.4-1.3-0.7-2-1c-11.8-4.6-20.6,7-23.1,10.8
		c-3.2-9.2-15.9-43-30.5-51.8c-5.3-3-12.5-2-14.7,4.5c-1.2,3.3-1.9,10.7,6.7,23.2c1.1,1.9,5.4,8.3,16.7,16.7l18.7,10.8l0,0.8l0,17.1
		l0,7.2l-0.2,61.1l6.2,3.6l0.2-59.5l0-1.6l0-7.2l0.1-17.9l15.3,8.9c7.8,3,11.1,2.1,12.1,1.6C89.4,121.2,91.5,116.8,90.1,110.6z
		 M45,99.8C24.5,88,19.4,79.1,19.1,78.7L18.7,78c-3.2-4.6-6.6-11-5-15.5c1.4-4.1,6.5-5.1,9.7-3.2c9.2,5.5,19.4,28.8,24.3,42.1
		C46.9,100.9,45.9,100.3,45,99.8z M81.1,115.6c-0.2,0-0.4,0.1-0.5,0.2c0,0-4.3,2-19.6-6.8c-0.3-0.2-0.7-0.4-1-0.6
		c3.6-4.7,10.4-10.6,17.8-7.8c0.4,0.1,0.7,0.3,1.1,0.5c2.8,1.6,5.3,5,6.1,8.2C85.7,112.7,84.4,114.9,81.1,115.6z"/>
</g>
</svg>
