<svg xmlns="http://www.w3.org/2000/svg" xmlns:xlink="http://www.w3.org/1999/xlink" width="1927" height="1086" viewBox="0 0 1927 1086"><defs><path id="cxc9a" d="M1920 1079.42L-1.01 1080-.34-2l1919.62.88z"/><path id="cxc9c" d="M4-2l129 764L1348.74-2.93z"/><path id="cxc9e" d="M-2-2.5l.66 483.02 765.6-482.1z"/><path id="cxc9g" d="M1923 269.98L590 1080l1332.94-1.04z"/><path id="cxc9i" d="M1628.86 120.94a40.04 40.04 0 0 1-41.82-38.08 40.04 40.04 0 0 1 38.09-41.82 40.04 40.04 0 0 1 41.81 38.09 40.04 40.04 0 0 1-38.08 41.81zM1625.17 42A39.1 39.1 0 0 0 1588 82.8a39.09 39.09 0 0 0 40.83 37.19A39.09 39.09 0 0 0 1666 79.17a39.1 39.1 0 0 0-40.83-37.18zm2.34 49.28a.99.99 0 0 1-.51-.13l-14.05-7.44-3.25-1.72a4.46 4.46 0 0 1-.2-.12l-.81-.48.82-.5.26-.15.08-.04 15.3-28.42v-.77l.75-.26 19.16 28.67-5.14 3.38-11.88 7.79c-.13.09-.3.18-.53.2zm-15.1-11.9l13.37-6.82c.28-.14.31-.2.3-.5l-.79-16.57-.06-1.36-13.89 25.8zm-1.82 2l2.8 1.49 13.55 7.18-.77-16.62c-4.45 2.26-8.89 4.53-13.32 6.8zm28.8 1.12l4-2.62-16.28-6.62.78 16.8 11.5-7.56zm-13.25-29.19l.1 2.13a5100.28 5100.28 0 0 0 .79 16.76l16.12 6.56zm2.47 56.03l-.34-.06-.33.09-18.88-24.12.67-.52.58.3 2.73 1.44a9867.47 9867.47 0 0 0 14.53 7.69l.1-.07c4.55-2.97 9.1-5.96 13.64-8.94l3.13-2.04.66.41-.2.44zm14.37-24.15l-1.15.75-13.65 8.94c-.1.07-.1.07-.1.17.15 3.01.3 6.02.43 9.03l.16 3.4zm-31.6 1.48l16.32 20.86-.16-3.4-.41-9.03c0-.1 0-.1-.11-.16l-14.43-7.63z"/><path id="cxc9j" d="M1633.5 243.02a54.56 54.56 0 0 1-54.48-54.5 54.56 54.56 0 0 1 54.49-54.5 54.56 54.56 0 0 1 54.49 54.5 54.56 54.56 0 0 1-54.5 54.5zm0-107.72a53.27 53.27 0 0 0-53.2 53.22 53.27 53.27 0 0 0 53.2 53.21 53.27 53.27 0 0 0 53.2-53.21 53.27 53.27 0 0 0-53.2-53.22zm3.04 87.61h-6.47v-8.32c-4.61-.2-9.38-1.63-12.3-3.72l-.4-.28 2.4-6.75.7.46a21.19 21.19 0 0 0 11.48 3.43c5.37 0 9.13-3.05 9.13-7.42 0-3.96-2.57-6.62-8.88-9.18-7.25-2.84-13.97-6.61-13.97-14.82 0-6.98 4.85-12.34 12.41-13.78v-8.41h6.39v8c3.96.22 7.36 1.18 10.37 2.94l.47.28-2.52 6.64-.66-.37a19.15 19.15 0 0 0-10.03-2.72c-5.96 0-8.07 3.47-8.07 6.43 0 3.62 2.29 5.67 9.8 8.78 9.2 3.75 13.13 8.43 13.13 15.64 0 8.33-6.43 13.24-12.98 14.51zm-5.18-1.29h3.88v-8.45l.55-.1c6.2-1.01 12.44-5.53 12.44-13.33 0-6.69-3.57-10.87-12.34-14.45-7.18-2.97-10.6-5.22-10.6-9.97 0-3.84 2.9-7.72 9.37-7.72a20.3 20.3 0 0 1 10.02 2.51l1.59-4.2a21.67 21.67 0 0 0-9.9-2.52l-.63-.03v-7.95h-3.8v8.2l-.55.1c-7.2 1.17-11.87 6.12-11.87 12.6 0 7.02 5.26 10.52 13.15 13.62 6.8 2.76 9.7 5.86 9.7 10.38 0 5.13-4.29 8.7-10.42 8.7-4 0-8.15-1.15-11.5-3.2l-1.54 4.29c2.9 1.89 7.46 3.14 11.81 3.22l.64.01z"/><path id="cxc9k" d="M1510.86 266.97a45.93 45.93 0 0 1-48.01-43.63 45.93 45.93 0 0 1 91.73-4.28 45.9 45.9 0 0 1-43.72 47.91zm-4.24-90.44a44.82 44.82 0 0 0-42.69 46.76 44.84 44.84 0 0 0 89.56-4.17 44.84 44.84 0 0 0-46.87-42.6zm2.69 56.45c-.18 0-.37-.03-.6-.15l-16.13-8.53-3.72-1.97a5.01 5.01 0 0 1-.23-.13l-.93-.55.94-.57.3-.17.1-.05 17.55-32.56V187.43l.87-.3 22 32.84-5.91 3.86c-4.55 2.98-9.1 5.95-13.63 8.93-.16.1-.36.2-.61.22zm-17.34-13.62a5366.5 5366.5 0 0 1 15.34-7.82c.32-.17.37-.24.35-.58l-.9-18.99-.07-1.55-15.95 29.57zm-2.09 2.29l3.21 1.7c5.2 2.73 10.38 5.47 15.56 8.22l-.89-19.04c-5.1 2.59-10.2 5.19-15.29 7.8zm33.07 1.27l4.59-3-18.7-7.59.9 19.24 13.2-8.65zm-15.22-33.43l.12 2.43c.29 6.33.58 12.66.9 18.99v.21l18.51 7.52zm2.84 64.18l-.39-.07-.38.1-21.68-27.63.77-.6.67.35 3.13 1.65a11055.26 11055.26 0 0 0 16.68 8.8l.1-.07c5.24-3.4 10.46-6.83 15.68-10.24l3.59-2.34.76.47-.23.5zm16.5-27.67l-1.32.87-15.68 10.24c-.11.07-.11.07-.1.2l.49 10.33.18 3.9zm-36.29 1.7l18.75 23.9-.19-3.9-.47-10.35c0-.12 0-.12-.13-.18-5.52-2.9-11.04-5.82-16.56-8.74z"/><path id="cxc9l" d="M290 307c-25.92 0-47-21.09-47-47 0-25.92 21.08-47 47-47 25.91 0 47 21.08 47 47 0 25.91-21.09 47-47 47zm0-92.89A45.94 45.94 0 0 0 244.11 260 45.94 45.94 0 0 0 290 305.88 45.94 45.94 0 0 0 335.88 260 45.94 45.94 0 0 0 290 214.1zm.04 57.98c-.17 0-.37-.05-.6-.18l-16.08-9.51-3.71-2.2a5.6 5.6 0 0 1-.23-.14l-.93-.61 1-.54c.1-.06.2-.12.3-.16l.1-.05 19.52-32.52.01-.32.03-.58.9-.27 20.92 34.7-6.23 3.69-14.36 8.5c-.16.09-.38.19-.64.19zm-17.07-14.79l16.06-7.28c.34-.15.39-.22.39-.57-.02-6.5-.02-13-.02-19.5v-1.6l-17.72 29.54zm-2.24 2.25l3.2 1.89 15.51 9.18v-19.56c-5.34 2.4-10.67 4.83-16 7.26zm33.74 2.9l4.84-2.87-18.75-8.67v19.76l13.91-8.23zm-13.95-35v2.5a5921.78 5921.78 0 0 0 0 19.72l18.57 8.58zm-.18 65.9l-.4-.09-.39.09L268.72 264l.8-.58.68.4 3.11 1.83 16.52 9.75.12.07.11-.07 16.52-9.75 3.78-2.23.75.53-.26.5zm18.2-27.56l-1.4.82-16.5 9.75c-.13.07-.13.07-.13.2v14.61zm-37.18 0l18.02 25.38v-4-10.62c0-.12 0-.12-.12-.2l-16.51-9.74z"/><path id="cxc9m" d="M254 505c-16.54 0-30-13.46-30-30s13.46-30 30-30 30 13.46 30 30-13.46 30-30 30zm0-59.29A29.32 29.32 0 0 0 224.71 475 29.32 29.32 0 0 0 254 504.29a29.32 29.32 0 0 0 29.29-29.3A29.32 29.32 0 0 0 254 445.72zm.03 37a.74.74 0 0 1-.38-.1l-10.27-6.08-2.37-1.4c-.04-.02-.09-.05-.14-.1l-.6-.38.63-.35.2-.1.07-.03 12.45-20.76.01-.2.02-.37.57-.17 13.36 22.15-3.98 2.35-9.17 5.42a.8.8 0 0 1-.4.13zm-10.9-9.43l10.25-4.65c.22-.1.25-.14.25-.36l-.01-12.45v-1.02l-11.31 18.85zm-1.43 1.43l2.04 1.2 9.9 5.87v-12.49l-10.21 4.64zm21.54 1.85l3.08-1.83-11.96-5.53v12.61l8.88-5.25zm-8.91-22.34v1.6a3790.32 3790.32 0 0 0 0 12.58l11.85 5.48zm-.11 42.07l-.25-.06-.26.06-13.3-18.74.52-.37.43.25 1.99 1.18 10.54 6.22.08.05.07-.05 10.54-6.22 2.42-1.42.48.33-.17.32zm11.61-17.6l-.89.53-10.54 6.22c-.07.05-.07.05-.07.13v9.33zm-23.73 0l11.5 16.2v-2.55-6.77c0-.08 0-.08-.07-.13l-10.54-6.22z"/><path id="cxc9n" d="M329.49 204a51.13 51.13 0 0 1-36.42-15.14A51.07 51.07 0 0 1 278 152.44 51.6 51.6 0 0 1 329.51 101h.02A51.55 51.55 0 0 1 381 152.5a51.57 51.57 0 0 1-51.5 51.5h-.01zm.02-101.78a50.38 50.38 0 0 0-50.29 50.22A49.86 49.86 0 0 0 293.94 188a49.93 49.93 0 0 0 35.55 14.78h.02a50.35 50.35 0 0 0 50.26-50.28 50.33 50.33 0 0 0-50.24-50.28h-.01zm5.47 81.25h-6.85v-9.15h-3.22v9.14h-7.45v-9.44h-11.54l1.39-8.3h4.58c1.43-.01 1.55-.13 1.55-1.55v-24.54c0-1.9-.67-2.6-2.55-2.71-.46-.03-.9-.03-1.39-.03h-3.21v-7.08h11.13v-9.62h7.4v9.31h3.29v-9.28h6.82v9.53l1.16.2c1.24.2 2.4.4 3.58.7 2.27.58 5.12 1.57 7.1 4.13a10.36 10.36 0 0 1 1.91 8.27 10.38 10.38 0 0 1-3.95 6.44c.57.2 1.1.4 1.64.65 3.65 1.69 5.6 4.65 5.77 8.8.1 2.23-.2 4.37-.88 6.35-1.33 3.87-4.2 6.41-8.54 7.54-1.7.45-3.45.69-5.14.92-.73.1-1.46.2-2.18.32-.14.03-.27.04-.42.04zm-5.63-1.22h4.41v-9.3l.57-.03.38-.02c.18 0 .34 0 .5-.03.73-.12 1.46-.22 2.2-.32 1.66-.23 3.38-.47 5-.9 3.91-1.02 6.5-3.3 7.7-6.75.62-1.84.9-3.83.8-5.91-.15-3.7-1.8-6.24-5.06-7.75-.54-.25-1.13-.46-1.74-.68l-.93-.34-1.1-.42 1.07-.72.18-.11a9.07 9.07 0 0 0 4.15-6.15 9.14 9.14 0 0 0-1.67-7.29c-1.76-2.27-4.37-3.17-6.44-3.7-1.13-.29-2.27-.48-3.48-.68-.56-.1-1.11-.18-1.68-.29l-.5-.09v-9.33h-4.38v9.28h-5.74v-9.3h-4.95v9.61h-11.13v4.65h1.98c.48 0 .98-.01 1.47.02 2.52.15 3.7 1.4 3.7 3.93v24.54c0 2.09-.67 2.76-2.76 2.77H308.34l-.98 5.86h11.32v9.44h5v-9.14h5.67zm-1.98-14.93c-.99 0-2-.02-3.08-.05l-.6-.02v-13.7l.59-.03c4.33-.2 8.23-.27 12.06 1.12a6.55 6.55 0 0 1 4.2 4.36 5.6 5.6 0 0 1-1.22 5.12c-1.21 1.41-2.91 2-4.42 2.4-2.45.63-4.86.8-7.53.8zm-2.45-1.26c3.6.1 6.64.07 9.67-.73 1.4-.36 2.81-.85 3.8-2 1-1.17 1.35-2.6.97-4.02a5.25 5.25 0 0 0-3.44-3.52c-3.45-1.25-7.03-1.25-11-1.07zm2.45-17.14l-1.53-.02-1.56-.02h-.6v-12.62h1.96c1-.02 2.05-.03 3.07.02 1.73.07 3.77.26 5.73 1.08a5.61 5.61 0 0 1 3.39 6.88c-.52 1.88-1.89 3.13-4.18 3.83-1.31.4-2.75.66-4.28.78-.67.05-1.33.07-2 .07zm-2.48-1.25l.97.01c1.18.02 2.3.04 3.41-.05 1.44-.1 2.8-.35 4.02-.73 1.9-.57 2.96-1.52 3.36-2.98.64-2.31-.44-4.5-2.69-5.43a15.52 15.52 0 0 0-5.3-1 53.8 53.8 0 0 0-3-.02l-.77.01z"/><path id="cxc9o" d="M300.5 684a38.54 38.54 0 0 1-38.5-38.5 38.54 38.54 0 0 1 38.5-38.5 38.54 38.54 0 0 1 38.5 38.5 38.54 38.54 0 0 1-38.5 38.5zm0-76.1a37.63 37.63 0 0 0-37.59 37.6 37.63 37.63 0 0 0 37.59 37.58 37.63 37.63 0 0 0 37.59-37.58 37.63 37.63 0 0 0-37.6-37.6zm2.14 61.9h-4.57v-5.89c-3.26-.13-6.63-1.14-8.7-2.62l-.28-.2 1.71-4.77.49.33a14.98 14.98 0 0 0 8.1 2.41c3.8 0 6.46-2.15 6.46-5.23 0-2.8-1.82-4.68-6.28-6.49-5.12-2-9.86-4.67-9.86-10.47 0-4.93 3.42-8.71 8.77-9.73v-5.94h4.5v5.65c2.8.15 5.2.83 7.33 2.08l.34.2-1.78 4.69-.47-.27c-1-.57-3.35-1.91-7.09-1.91-4.2 0-5.7 2.44-5.7 4.54 0 2.55 1.62 4 6.92 6.2 6.5 2.65 9.29 5.95 9.29 11.04 0 5.88-4.55 9.35-9.18 10.26zm-3.66-.92h2.75v-5.97l.38-.06c4.38-.73 8.8-3.92 8.8-9.43 0-4.72-2.53-7.68-8.72-10.2-5.08-2.1-7.49-3.69-7.49-7.04 0-2.72 2.04-5.46 6.61-5.46 3.49 0 5.84 1.1 7.08 1.78l1.13-2.97a15.29 15.29 0 0 0-7-1.78l-.44-.02v-5.62h-2.7v5.8l-.37.06c-5.1.83-8.4 4.33-8.4 8.9 0 4.96 3.72 7.44 9.3 9.63 4.8 1.94 6.85 4.14 6.85 7.33 0 3.62-3.03 6.15-7.36 6.15-2.83 0-5.76-.82-8.13-2.26l-1.08 3.02c2.04 1.34 5.27 2.22 8.34 2.27l.45.01z"/><path id="cxc9p" d="M778 138c-17.1 0-31-13.9-31-31s13.9-31 31-31 31 13.9 31 31-13.9 31-31 31zm0-61.27A30.3 30.3 0 0 0 747.74 107 30.3 30.3 0 0 0 778 137.26 30.3 30.3 0 0 0 808.26 107 30.3 30.3 0 0 0 778 76.73zm1.72 49.83h-3.68v-4.73c-2.62-.11-5.33-.93-7-2.12l-.22-.16 1.37-3.84.4.26a12.06 12.06 0 0 0 6.52 1.95c3.06 0 5.2-1.73 5.2-4.21 0-2.26-1.47-3.77-5.06-5.23-4.12-1.61-7.94-3.76-7.94-8.43 0-3.97 2.76-7.01 7.06-7.83v-4.79H780v4.55c2.26.13 4.19.67 5.9 1.68l.27.15-1.43 3.78-.38-.2c-.8-.47-2.7-1.55-5.7-1.55-3.4 0-4.6 1.97-4.6 3.65 0 2.06 1.3 3.23 5.58 5 5.24 2.13 7.47 4.8 7.47 8.9 0 4.72-3.66 7.52-7.39 8.25zm-2.94-.73h2.2v-4.81l.32-.05c3.52-.58 7.08-3.15 7.08-7.59 0-3.8-2.04-6.18-7.02-8.22-4.09-1.69-6.03-2.97-6.03-5.67 0-2.18 1.65-4.39 5.32-4.39 2.81 0 4.7.88 5.7 1.43l.91-2.4a12.33 12.33 0 0 0-5.64-1.42l-.35-.02v-4.52h-2.17v4.67l-.3.05c-4.1.67-6.76 3.48-6.76 7.16 0 4 3 5.99 7.49 7.75 3.86 1.57 5.51 3.34 5.51 5.9 0 2.92-2.44 4.96-5.93 4.96-2.27 0-4.63-.66-6.54-1.82l-.87 2.43a13.49 13.49 0 0 0 6.72 1.83l.36.01z"/><path id="cxc9q" d="M618.5 828a38.54 38.54 0 0 1-38.5-38.5 38.54 38.54 0 0 1 38.5-38.5 38.54 38.54 0 0 1 38.5 38.5 38.54 38.54 0 0 1-38.5 38.5zm0-76.09a37.63 37.63 0 0 0-37.59 37.59 37.63 37.63 0 0 0 37.59 37.58 37.63 37.63 0 0 0 37.59-37.58 37.63 37.63 0 0 0-37.6-37.59zm2.14 61.88h-4.57v-5.88c-3.26-.13-6.63-1.15-8.7-2.62l-.28-.2 1.71-4.77.49.33a14.97 14.97 0 0 0 8.1 2.41c3.8 0 6.46-2.15 6.46-5.23 0-2.8-1.82-4.68-6.28-6.49-5.12-2-9.86-4.67-9.86-10.47 0-4.93 3.42-8.71 8.77-9.73v-5.94h4.5v5.65c2.8.15 5.2.83 7.33 2.08l.34.2-1.78 4.69-.47-.27c-1-.57-3.35-1.91-7.09-1.91-4.2 0-5.7 2.44-5.7 4.54 0 2.55 1.62 4 6.92 6.2 6.5 2.65 9.29 5.95 9.29 11.04 0 5.88-4.55 9.35-9.18 10.26zm-3.66-.91h2.75v-5.97l.38-.06c4.38-.73 8.8-3.92 8.8-9.43 0-4.72-2.53-7.68-8.72-10.2-5.08-2.1-7.49-3.69-7.49-7.04 0-2.72 2.04-5.46 6.61-5.46 3.49 0 5.84 1.1 7.08 1.78l1.13-2.97a15.3 15.3 0 0 0-7-1.78l-.44-.02v-5.62h-2.7v5.8l-.37.06c-5.1.83-8.4 4.33-8.4 8.9 0 4.96 3.72 7.44 9.3 9.63 4.8 1.94 6.85 4.14 6.85 7.33 0 3.62-3.03 6.15-7.36 6.15-2.83 0-5.76-.82-8.13-2.26l-1.08 3.02c2.04 1.33 5.27 2.22 8.34 2.27l.45.01z"/><path id="cxc9r" d="M361.97 788.98a52.58 52.58 0 0 1-54.91-50.01 52.58 52.58 0 0 1 50-54.92 52.58 52.58 0 0 1 54.92 50.01 52.58 52.58 0 0 1-50 54.92zm-4.85-103.68a51.33 51.33 0 0 0-48.82 53.6 51.33 51.33 0 0 0 53.61 48.83 51.33 51.33 0 0 0 48.83-53.61 51.33 51.33 0 0 0-53.62-48.82zM360.2 750c-.2.01-.42-.03-.68-.16-6.14-3.27-12.3-6.53-18.45-9.79l-4.26-2.25-.26-.15-1.07-.63 1.08-.65c.13-.08.23-.15.34-.2l.11-.06 20.08-37.32v-1.01l1-.35 25.16 37.65-6.76 4.44-15.6 10.23c-.17.12-.4.24-.69.25zm-19.83-15.61c5.85-3 11.7-6 17.55-8.97.37-.18.42-.27.4-.66-.36-7.25-.7-14.5-1.04-21.76l-.08-1.79-18.24 33.9zm-2.39 2.62l3.67 1.94 17.8 9.44-1.02-21.83-17.49 8.93zm37.82 1.47l5.25-3.44-21.38-8.7 1.03 22.05 15.1-9.91zm-17.4-38.34l.13 2.8a6585.55 6585.55 0 0 0 1.03 22l21.17 8.62zm3.24 73.57l-.44-.07-.44.11-24.79-31.67.88-.68.76.4 3.58 1.89a16239.77 16239.77 0 0 0 19.08 10.1l.13-.1 17.92-11.74 4.1-2.68.87.55-.26.57zm18.87-31.7l-1.5.98-17.93 11.75c-.13.08-.13.08-.13.22.2 3.95.38 7.9.56 11.85l.21 4.47zm-41.5 1.94l21.44 27.39-.2-4.47c-.2-3.95-.38-7.9-.55-11.85-.01-.14-.01-.14-.15-.21l-18.94-10.02z"/><path id="cxc9s" d="M1581.98 582.99a31.55 31.55 0 0 1-32.95-30.01 31.55 31.55 0 0 1 30.01-32.95 31.55 31.55 0 0 1 32.95 30 31.55 31.55 0 0 1-30 32.96zm-2.9-62.21a30.8 30.8 0 0 0-29.3 32.17 30.8 30.8 0 0 0 32.17 29.29 30.8 30.8 0 0 0 29.3-32.17 30.8 30.8 0 0 0-32.18-29.3zm1.84 38.83a.78.78 0 0 1-.4-.1l-11.08-5.87-2.55-1.36a3 3 0 0 1-.16-.08l-.64-.39.65-.39.2-.11.07-.04 12.04-22.4V528.28l.6-.2 15.1 22.59-4.06 2.66-9.35 6.14a.83.83 0 0 1-.42.15zm-11.9-9.37c3.51-1.8 7.02-3.6 10.53-5.38.22-.11.25-.16.24-.4-.22-4.35-.42-8.7-.62-13.06l-.05-1.07-10.94 20.34zm-1.43 1.57l2.2 1.17 10.68 5.66-.61-13.1-10.5 5.36zm22.7.88l3.14-2.06-12.83-5.22.62 13.23 9.06-5.95zm-10.45-23l.08 1.68a3987.73 3987.73 0 0 0 .62 13.2l12.7 5.18zm1.94 44.14l-.26-.04-.26.07-14.88-19 .53-.41.46.23 2.14 1.14 11.37 6 .08.06.08-.06 10.75-7.04 2.47-1.61.52.33-.16.34zm11.33-19.02l-.9.6c-3.6 2.34-7.18 4.7-10.76 7.04-.08.05-.08.05-.08.13l.34 7.11.12 2.68zm-24.9 1.16l12.86 16.44-.13-2.68-.32-7.11c0-.09 0-.09-.09-.13l-11.37-6.01z"/><path id="cxc9t" d="M1149.78 219.95a38.04 38.04 0 0 1-39.73-36.17 38.03 38.03 0 0 1 36.18-39.73 38.03 38.03 0 0 1 39.73 36.18 38.04 38.04 0 0 1-36.18 39.72zm-3.5-75a37.13 37.13 0 0 0-35.33 38.78 37.13 37.13 0 0 0 38.79 35.32 37.13 37.13 0 0 0 35.32-38.78 37.13 37.13 0 0 0-38.78-35.32zm2.22 46.82a.94.94 0 0 1-.49-.13l-13.35-7.07-3.08-1.63a3.53 3.53 0 0 1-.19-.11l-.77-.46.78-.47.24-.14.08-.05 14.53-26.99v-.73l.72-.25 18.2 27.23-4.89 3.21-11.28 7.4a1 1 0 0 1-.5.19zm-14.34-11.3l12.7-6.49c.26-.13.3-.2.28-.47l-.75-15.75-.06-1.29-13.2 24.52zm-1.73 1.9l2.65 1.4 12.88 6.83-.74-15.8-12.65 6.47zm27.36 1.06l3.8-2.5-15.47-6.29.74 15.96c3.64-2.4 7.29-4.78 10.93-7.17zm-12.6-27.73l.1 2.02c.24 5.25.49 10.5.75 15.74v.18l15.32 6.23zm2.35 53.22l-.32-.06-.31.09-17.94-22.92.64-.49.55.29 2.59 1.37a9015.56 9015.56 0 0 0 13.8 7.3l.1-.07 12.96-8.49 2.97-1.94.63.4-.2.41zm13.66-22.94l-1.1.72-12.96 8.49c-.1.06-.1.06-.1.16l.41 8.57.15 3.23zm-30.03 1.4l15.51 19.82-.15-3.24-.4-8.57c0-.1 0-.1-.1-.15-4.57-2.4-9.14-4.83-13.7-7.25z"/><path id="cxc9u" d="M1603.49 448a42.2 42.2 0 0 1-30.05-12.5 42.15 42.15 0 0 1-12.44-30.05 42.59 42.59 0 0 1 42.51-42.45h.01a42.54 42.54 0 0 1 42.48 42.5 42.56 42.56 0 0 1-42.5 42.5h-.01zm.02-84a41.58 41.58 0 0 0-41.5 41.45 41.15 41.15 0 0 0 12.14 29.35 41.2 41.2 0 0 0 29.34 12.19h.02a41.55 41.55 0 0 0 41.48-41.5 41.53 41.53 0 0 0-41.47-41.48zm4.51 67.06h-5.65v-7.55h-2.66v7.54h-6.14v-7.8h-9.53l1.15-6.84H1588.97c1.18 0 1.27-.1 1.27-1.28v-20.25c0-1.56-.55-2.15-2.1-2.24-.37-.02-.75-.02-1.14-.02h-2.66v-5.84h9.2v-7.94h6.1v7.68h2.7v-7.66h5.64v7.87l.96.16c1.02.17 1.98.33 2.95.58 1.87.47 4.23 1.3 5.87 3.4a8.55 8.55 0 0 1 1.57 6.83 8.57 8.57 0 0 1-3.26 5.32c.47.16.91.33 1.35.53 3.01 1.4 4.62 3.84 4.76 7.26.08 1.84-.16 3.6-.73 5.25-1.1 3.2-3.47 5.29-7.04 6.22-1.4.36-2.84.57-4.24.76a76.27 76.27 0 0 0-2.15.3zm-4.64-1h3.64v-7.68l.47-.03.3-.01c.16 0 .29 0 .41-.03l1.83-.27c1.37-.19 2.78-.39 4.12-.73 3.23-.85 5.37-2.72 6.35-5.58.52-1.52.75-3.16.68-4.88-.14-3.05-1.5-5.15-4.18-6.39-.46-.2-.94-.38-1.44-.56l-.77-.28-.92-.34.9-.6a7.47 7.47 0 0 0 3.57-5.16c.4-2.18-.1-4.37-1.38-6.02-1.45-1.88-3.6-2.62-5.31-3.06-.93-.23-1.88-.4-2.88-.56l-1.38-.24-.41-.07v-7.7h-3.62v7.66h-4.73v-7.68h-4.09v7.94h-9.19v3.83h1.64c.4 0 .8-.01 1.21.01 2.08.13 3.05 1.16 3.05 3.25v20.25c0 1.72-.55 2.28-2.27 2.28h-2.94l-.8 4.84h9.33v7.79h4.13v-7.54h4.68zm-1.64-12.33c-.81 0-1.65-.02-2.54-.04l-.49-.02v-11.3l.48-.02c3.57-.18 6.8-.23 9.95.91a5.4 5.4 0 0 1 3.47 3.6 4.62 4.62 0 0 1-1 4.23c-1 1.17-2.41 1.65-3.65 1.98-2.02.52-4.02.66-6.22.66zm-2.02-1.04c2.97.08 5.48.05 7.98-.6 1.15-.3 2.32-.7 3.14-1.65a3.58 3.58 0 0 0 .8-3.32 4.34 4.34 0 0 0-2.84-2.9c-2.85-1.04-5.8-1.04-9.08-.89zm2.02-14.15l-1.26-.01-1.29-.02h-.5V392.1h1.63c.83-.02 1.68-.03 2.53.01 1.43.07 3.1.22 4.72.9a4.63 4.63 0 0 1 2.8 5.68c-.42 1.54-1.55 2.58-3.45 3.16a16.58 16.58 0 0 1-5.18.7zm-2.04-1.03l.8.01c.97.02 1.9.03 2.81-.04 1.2-.09 2.3-.3 3.32-.6 1.56-.48 2.44-1.26 2.77-2.46.53-1.91-.36-3.7-2.22-4.48a12.78 12.78 0 0 0-4.38-.82c-.81-.04-1.62-.03-2.47-.02h-.63z"/><path id="cxc9v" d="M1758.48 719.94a42.54 42.54 0 0 1-44.43-40.46 42.54 42.54 0 0 1 40.46-44.44 42.54 42.54 0 0 1 44.43 40.47 42.54 42.54 0 0 1-40.46 44.43zm-3.92-83.89a41.53 41.53 0 0 0-39.5 43.38 41.53 41.53 0 0 0 43.37 39.5 41.53 41.53 0 0 0 39.5-43.38 41.53 41.53 0 0 0-43.37-39.5zm2.49 52.36c-.17.01-.35-.03-.55-.13l-14.93-7.92-3.45-1.82a4.61 4.61 0 0 1-.2-.12l-.87-.52.87-.52c.1-.07.18-.12.27-.16l.1-.05 16.24-30.2v-.81l.8-.28 20.36 30.46-5.47 3.59-12.61 8.28c-.14.1-.33.2-.56.2zM1741 675.78c4.73-2.43 9.46-4.85 14.2-7.26.3-.15.34-.21.32-.53-.29-5.87-.56-11.74-.83-17.61l-.07-1.44-14.76 27.42zm-1.93 2.12l2.97 1.57 14.4 7.64-.83-17.67c-4.72 2.4-9.43 4.82-14.15 7.23zm30.6 1.19l4.25-2.79-17.3-7.04.83 17.85 12.22-8.02zm-14.08-31.02l.1 2.26a5361.32 5361.32 0 0 0 .84 17.81l17.13 6.97zm2.62 59.53l-.36-.06-.35.1-20.06-25.64.71-.55.62.32 2.9 1.54a10943.78 10943.78 0 0 0 15.43 8.16l.1-.07 14.5-9.5 3.33-2.17.7.44-.21.47zm15.27-25.66l-1.22.8-14.5 9.5c-.11.07-.11.07-.1.18l.45 9.59.17 3.62zm-33.58 1.57l17.35 22.16-.17-3.61-.44-9.6c0-.1 0-.1-.12-.16l-15.33-8.1z"/><path id="cxc9w" d="M1531 144.47a45.06 45.06 0 0 1-32.05-13.3 44.81 44.81 0 0 1-13.27-31.99A45.38 45.38 0 0 1 1531.03 54h.01c24.99 0 45.31 20.3 45.3 45.23a45.35 45.35 0 0 1-45.31 45.24h-.02zm.03-89.4a44.3 44.3 0 0 0-44.27 44.11 43.74 43.74 0 0 0 12.95 31.24 44 44 0 0 0 31.3 12.97h.02a44.27 44.27 0 0 0 44.24-44.16 44.25 44.25 0 0 0-44.23-44.16zm4.81 71.37h-6.03v-8.04h-2.84v8.03h-6.55v-8.3h-10.16l1.22-7.29h4.04c1.26 0 1.36-.1 1.36-1.35V87.93c0-1.66-.59-2.28-2.24-2.38-.4-.03-.8-.02-1.23-.02H1510.6V79.3h9.8v-8.45h6.5v8.17h2.9v-8.15h6v8.37l1.03.17c1.09.19 2.12.36 3.15.62 2 .51 4.5 1.38 6.25 3.63a9.09 9.09 0 0 1 1.68 7.26 9.11 9.11 0 0 1-3.47 5.66c.5.18.97.35 1.44.57 3.21 1.48 4.92 4.08 5.08 7.73a15.1 15.1 0 0 1-.78 5.58c-1.17 3.4-3.7 5.63-7.52 6.63-1.49.38-3.03.6-4.52.8a78.6 78.6 0 0 0-2.29.32zm-4.95-1.07h3.88v-8.17l.5-.03.33-.01c.16 0 .3-.01.44-.04l1.94-.28c1.46-.2 2.97-.41 4.4-.78 3.45-.9 5.73-2.9 6.77-5.94.56-1.61.8-3.36.72-5.19-.14-3.25-1.6-5.48-4.46-6.8-.48-.22-1-.4-1.53-.6l-.82-.3-.98-.36.96-.64.15-.1a7.95 7.95 0 0 0 3.65-5.4 8.02 8.02 0 0 0-1.47-6.4c-1.54-2-3.84-2.78-5.66-3.25-1-.25-2-.42-3.07-.6l-1.48-.25-.44-.08v-8.2h-3.86v8.15h-5.04v-8.17h-4.36v8.45h-9.8v4.08h1.75c.42 0 .85 0 1.29.02 2.22.13 3.25 1.23 3.25 3.45v21.56c0 1.83-.59 2.42-2.43 2.42H1512.4l-.86 5.16h9.97v8.28h4.4v-8.02h4.99zm-1.75-13.12c-.87 0-1.76-.02-2.7-.05l-.53-.01v-12.03l.51-.02c3.81-.19 7.24-.24 10.61.97a5.74 5.74 0 0 1 3.7 3.83 4.91 4.91 0 0 1-1.07 4.5c-1.07 1.24-2.56 1.76-3.89 2.1-2.15.57-4.28.71-6.63.71zm-2.15-1.1c3.16.08 5.84.05 8.51-.64 1.22-.32 2.47-.75 3.34-1.76a3.8 3.8 0 0 0 .86-3.53 4.62 4.62 0 0 0-3.03-3.1c-3.04-1.1-6.2-1.1-9.68-.94zm2.15-15.06l-1.35-.02-1.37-.01h-.53V84.97h1.73c.89-.01 1.8-.02 2.7.02 1.53.06 3.32.23 5.04.95a4.93 4.93 0 0 1 2.99 6.04c-.46 1.65-1.66 2.75-3.68 3.36a17.62 17.62 0 0 1-5.53.75zm-2.18-1.1l.85.01c1.04.02 2.03.03 3-.04 1.28-.1 2.47-.31 3.54-.64 1.67-.5 2.6-1.34 2.96-2.62a3.89 3.89 0 0 0-2.36-4.77c-1.57-.66-3.24-.8-4.68-.87-.87-.04-1.73-.03-2.64-.02h-.67z"/><linearGradient id="cxc9b" x1="-1.01" x2="1919.99" y1="640" y2="438.01" gradientUnits="userSpaceOnUse"><stop offset="0" stop-color="#2a3ca3"/><stop offset=".97" stop-color="#4fcafd"/><stop offset="1" stop-color="#4fcafd"/></linearGradient><linearGradient id="cxc9d" x1="1349" x2="4" y1="94.07" y2="665" gradientUnits="userSpaceOnUse"><stop offset="0" stop-color="#0062be"/><stop offset=".29" stop-color="#0062be" stop-opacity=".71"/><stop offset="1" stop-color="#0060ff" stop-opacity="0"/></linearGradient><linearGradient id="cxc9f" x1="764" x2="-2" y1="76.5" y2="401.52" gradientUnits="userSpaceOnUse"><stop offset="0" stop-color="#0062be"/><stop offset=".29" stop-color="#0062be" stop-opacity=".71"/><stop offset="1" stop-color="#0060ff" stop-opacity="0"/></linearGradient><linearGradient id="cxc9h" x1="1155.99" x2="1357" y1="1080" y2="269.98" gradientUnits="userSpaceOnUse"><stop offset="0" stop-color="#516fcf"/><stop offset=".29" stop-color="#516fcf" stop-opacity=".71"/><stop offset="1" stop-color="#516fcf" stop-opacity="0"/></linearGradient></defs><g><g transform="translate(3 4)"><use fill="url(#cxc9b)" xlink:href="#cxc9a"/></g><g opacity=".17" transform="translate(3 4)"><use fill="url(#cxc9d)" xlink:href="#cxc9c"/></g><g opacity=".53" transform="translate(3 4)"><use fill="url(#cxc9f)" xlink:href="#cxc9e"/></g><g opacity=".25" transform="translate(3 4)"><use fill="url(#cxc9h)" xlink:href="#cxc9g"/></g><g opacity=".29" transform="translate(3 4)"><use fill="#004899" xlink:href="#cxc9i"/></g><g opacity=".29" transform="translate(3 4)"><use fill="#004899" xlink:href="#cxc9j"/></g><g opacity=".29" transform="translate(3 4)"><use fill="#004899" xlink:href="#cxc9k"/></g><g opacity=".2" transform="translate(3 4)"><use fill="#fff" xlink:href="#cxc9l"/></g><g opacity=".28" transform="translate(3 4)"><use fill="#fff" xlink:href="#cxc9m"/></g><g opacity=".23" transform="translate(3 4)"><use fill="#fff" xlink:href="#cxc9n"/></g><g opacity=".28" transform="translate(3 4)"><use fill="#fff" xlink:href="#cxc9o"/></g><g opacity=".28" transform="translate(3 4)"><use fill="#fff" xlink:href="#cxc9p"/></g><g opacity=".34" transform="translate(3 4)"><use fill="#fff" xlink:href="#cxc9q"/></g><g opacity=".24" transform="translate(3 4)"><use fill="#fff" xlink:href="#cxc9r"/></g><g opacity=".29" transform="translate(3 4)"><use fill="#004899" xlink:href="#cxc9s"/></g><g opacity=".29" transform="translate(3 4)"><use fill="#004899" xlink:href="#cxc9t"/></g><g opacity=".29" transform="translate(3 4)"><use fill="#004899" xlink:href="#cxc9u"/></g><g opacity=".18" transform="translate(3 4)"><use fill="#004899" xlink:href="#cxc9v"/></g><g opacity=".29" transform="translate(3 4)"><use fill="#004899" xlink:href="#cxc9w"/></g></g></svg>