<svg xmlns="http://www.w3.org/2000/svg" xmlns:xlink="http://www.w3.org/1999/xlink" width="1925" height="1183" viewBox="0 0 1925 1183"><defs><path id="f5tfa" d="M1582 1039.18c-.05 30.31-24.94 55.01-55.36 54.95-30.49-.06-55.25-24.76-55.21-55.07.03-30.37 24.88-55.08 55.36-55.06 30.49.03 55.27 24.8 55.21 55.18zm-55.4 22v9.65h4.7v-9.75c2.82-.44 5.51-.78 8.18-1.3 4.71-.9 8.26-3.32 9.53-8.15.5-1.92.7-3.99.64-5.97-.11-3.87-2.12-6.58-5.72-8.08-.95-.39-1.92-.71-2.88-1.08-.23-.09-.43-.22-.7-.35.13-.12.18-.17.23-.2l.91-.61c3.56-2.3 5.05-5.64 4.6-9.76-.43-3.96-2.77-6.62-6.51-7.85-2.41-.8-4.95-1.24-7.45-1.72-.79-.15-.93-.45-.92-1.16.03-2.64.01-5.29 0-7.93 0-.35-.02-.7-.04-1h-4.65v9.79h-6.14v-9.85H1515v10.3h-11.83v4.93h2.56c3.9 0 5.04 1.14 5.05 5.02v24.7c0 .46-.01.92-.05 1.39-.16 1.6-.8 2.2-2.43 2.26-1.2.04-2.4 0-3.59.04-.26 0-.72.2-.75.37-.37 1.93-.67 3.88-1.01 5.93h12.15v10h5.38v-9.62h6.11zm1.9-6.5c-2.62.22-5.27.06-7.99.06v-14.7h4.37c3.13 0 6.23.23 9.2 1.32 3.43 1.27 5.32 4.45 4.5 7.61a6.06 6.06 0 0 1-4.18 4.43 26.7 26.7 0 0 1-5.9 1.28zm-8-19.46v-13.42c2.22 0 4.44-.13 6.63.04 1.63.14 3.28.51 4.82 1.06a5.8 5.8 0 0 1 3.96 5.71 5.59 5.59 0 0 1-4.2 5.5c-1.63.51-3.35.76-5.05 1.04-.74.13-1.52.06-2.28.07h-3.88z"/><path id="f5tfb" d="M-3 1596V415h1923v1181z"/><path id="f5tfe" d="M484.17 1123a71.67 71.67 0 0 1-51.04-21.22 71.57 71.57 0 0 1-21.13-51.05c.08-39.75 32.47-72.09 72.2-72.09h.02c39.79.01 72.15 32.39 72.15 72.18 0 39.78-32.38 72.16-72.17 72.18h-.03zm.03-142.65c-38.79 0-70.4 31.57-70.49 70.39a69.88 69.88 0 0 0 20.63 49.84 69.98 69.98 0 0 0 49.83 20.7h.03c38.84-.01 70.45-31.62 70.45-70.46 0-38.85-31.59-70.46-70.43-70.47h-.01zm7.67 113.88h-9.6v-12.82h-4.52v12.8H467.3v-13.23h-16.17l1.94-11.63h6.43c2-.01 2.16-.17 2.16-2.17v-34.4c0-2.64-.93-3.64-3.57-3.8-.64-.04-1.27-.03-1.94-.03h-4.51v-9.92h15.6v-13.49h10.37v13.04h4.61v-13h9.57v13.36l1.62.28c1.74.28 3.37.55 5.02.98 3.18.8 7.17 2.2 9.96 5.79a14.53 14.53 0 0 1 2.67 11.58 14.54 14.54 0 0 1-5.53 9.03c.79.29 1.54.56 2.29.91 5.12 2.37 7.84 6.52 8.09 12.33.13 3.13-.28 6.13-1.24 8.91-1.86 5.43-5.9 8.99-11.97 10.57-2.37.62-4.82.96-7.2 1.29-1.02.14-2.04.28-3.06.45-.19.03-.38.05-.58.05zm-7.9-1.7h6.19v-13.04l.8-.05.52-.02c.26-.01.48-.02.7-.05 1.03-.17 2.06-.3 3.1-.45 2.32-.33 4.73-.66 7-1.25 5.49-1.44 9.12-4.62 10.78-9.47a22.46 22.46 0 0 0 1.15-8.29c-.22-5.19-2.55-8.74-7.1-10.85-.77-.35-1.58-.65-2.45-.95l-1.3-.48-1.55-.58 1.52-1.02c.1-.07.16-.12.24-.16a12.7 12.7 0 0 0 5.82-8.6 12.8 12.8 0 0 0-2.34-10.23c-2.47-3.18-6.12-4.44-9.03-5.18-1.58-.4-3.18-.68-4.88-.96l-2.35-.4-.7-.14v-13.06h-6.15v13h-8.03v-13.05h-6.94v13.49h-15.61v6.5H456.14c.68 0 1.37 0 2.06.03 3.54.21 5.18 1.96 5.18 5.52v34.39c0 2.92-.94 3.86-3.86 3.87h-4.99l-1.37 8.22h15.87v13.23h7v-12.8h7.95zm-2.77-20.94c-1.38 0-2.81-.03-4.31-.07l-.84-.03v-19.2l.82-.03c6.07-.3 11.53-.38 16.9 1.56a9.18 9.18 0 0 1 5.9 6.11 7.84 7.84 0 0 1-1.72 7.18c-1.7 1.98-4.08 2.8-6.2 3.35a40.9 40.9 0 0 1-10.55 1.13zm-3.43-1.76c5.04.12 9.3.09 13.56-1.02 1.94-.5 3.93-1.2 5.32-2.81a6.08 6.08 0 0 0 1.36-5.63c-.6-2.24-2.35-4.05-4.83-4.94-4.83-1.75-9.85-1.75-15.41-1.5zm3.43-24.03l-2.15-.02c-.72-.02-1.44-.03-2.18-.03h-.85v-17.68h.85c.64 0 1.28 0 1.91-.02 1.4-.01 2.86-.03 4.3.04 2.43.1 5.28.37 8.02 1.52 3.99 1.66 5.9 5.54 4.76 9.64-.73 2.63-2.64 4.38-5.86 5.36a28.1 28.1 0 0 1-6 1.1c-.94.07-1.86.1-2.8.1zm-3.47-1.75l1.35.02c1.66.02 3.23.05 4.79-.07 2.02-.15 3.91-.5 5.63-1.02 2.65-.81 4.15-2.14 4.71-4.19a6.2 6.2 0 0 0-3.77-7.6c-2.5-1.05-5.16-1.3-7.44-1.4-1.38-.06-2.75-.04-4.2-.03l-1.07.01z"/><path id="f5tff" d="M367.6 1134.78a35.43 35.43 0 0 1-35.39-35.4 35.43 35.43 0 0 1 35.4-35.38 35.43 35.43 0 0 1 35.39 35.39 35.43 35.43 0 0 1-35.4 35.39zm0-69.94a34.6 34.6 0 0 0-34.55 34.55 34.6 34.6 0 0 0 34.56 34.55 34.6 34.6 0 0 0 34.55-34.55 34.6 34.6 0 0 0-34.55-34.55zm.04 43.65a.87.87 0 0 1-.45-.13l-12.11-7.16-2.8-1.66-.17-.1-.7-.47.74-.4.24-.12.08-.04 14.69-24.48.01-.24.02-.44.68-.2 15.75 26.13-4.69 2.77-10.81 6.4a.93.93 0 0 1-.48.14zm-12.86-11.13l12.1-5.48c.25-.12.29-.17.29-.43-.02-4.9-.02-9.8-.01-14.69v-1.2l-13.35 22.24zm-1.69 1.69l2.41 1.42 11.69 6.91v-14.72c-4.03 1.81-8.04 3.64-12.06 5.46zm25.42 2.18l3.64-2.15-14.12-6.53v14.87l10.48-6.2zM368 1074.88v1.88a4482.78 4482.78 0 0 0 0 14.85l13.98 6.47zm-.14 49.62l-.3-.06-.3.06-15.68-22.1.6-.43.51.3 2.35 1.37a8905.4 8905.4 0 0 0 12.53 7.4l.08-.06 12.44-7.34 2.85-1.67.57.4-.2.37zm13.7-20.75l-1.04.62-12.44 7.34c-.09.05-.09.05-.09.15v11zm-28 0l13.58 19.11v-3.01-8c0-.09 0-.09-.09-.14l-12.44-7.34z"/><linearGradient id="f5tfc" x1="822" x2="1095" y1="1596" y2="415" gradientUnits="userSpaceOnUse"><stop offset="0" stop-color="#4ec5fa"/><stop offset="1" stop-color="#4ec5fa" stop-opacity="0"/></linearGradient><clipPath id="f5tfd"><use fill="#fff" xlink:href="#f5tfa"/></clipPath></defs><g><g opacity=".12" transform="translate(4 -414)"><use fill="url(#f5tfc)" xlink:href="#f5tfb"/></g><g opacity=".13" transform="translate(4 -414)"><use fill="#fff" fill-opacity="0" stroke="#237cc0" stroke-miterlimit="50" stroke-width="2" clip-path="url(&quot;#f5tfd&quot;)" xlink:href="#f5tfa"/></g><g opacity=".09" transform="translate(4 -414)"><use fill="#006fd3" xlink:href="#f5tfe"/></g><g opacity=".13" transform="translate(4 -414)"><use fill="#0c62ba" xlink:href="#f5tff"/></g></g></svg>