<svg xmlns="http://www.w3.org/2000/svg" xmlns:xlink="http://www.w3.org/1999/xlink" width="1940" height="832" viewBox="0 0 1940 832"><defs><path id="5ek9a" d="M3.2 2424.76l1781.75.24 145.7-64.44 3.36-763.04L-2 1595.99z"/><path id="5ek9c" d="M1731.5 2305a42.55 42.55 0 0 1-42.51-42.5 42.55 42.55 0 0 1 42.5-42.5 42.55 42.55 0 0 1 42.5 42.5 42.55 42.55 0 0 1-42.5 42.5zm0-83.98a41.54 41.54 0 0 0-41.5 41.48 41.54 41.54 0 0 0 41.5 41.49c22.88 0 41.5-18.61 41.5-41.49a41.54 41.54 0 0 0-41.5-41.48zm2.36 68.3h-5.05v-6.5c-3.6-.14-7.32-1.26-9.6-2.89l-.3-.22 1.88-5.26.53.36a16.53 16.53 0 0 0 8.96 2.67c4.2 0 7.12-2.38 7.12-5.78 0-3.1-2-5.17-6.93-7.16-5.65-2.22-10.9-5.15-10.9-11.56 0-5.44 3.8-9.62 9.69-10.74v-6.56h4.98v6.24c3.1.17 5.74.92 8.09 2.3l.36.2-1.96 5.2-.51-.3c-1.1-.63-3.7-2.12-7.83-2.12-4.64 0-6.3 2.7-6.3 5.01 0 2.83 1.8 4.42 7.65 6.84 7.18 2.93 10.25 6.58 10.25 12.2 0 6.5-5.02 10.32-10.13 11.32zm-4.04-1.01h3.03v-6.6l.42-.06c4.83-.8 9.7-4.32 9.7-10.4 0-5.21-2.78-8.48-9.62-11.26-5.6-2.32-8.26-4.07-8.26-7.78 0-3 2.26-6.01 7.3-6.01 3.85 0 6.44 1.2 7.82 1.95l1.24-3.28a16.9 16.9 0 0 0-7.73-1.96l-.49-.02v-6.2h-2.96v6.4l-.43.07c-5.62.92-9.26 4.77-9.26 9.82 0 5.48 4.1 8.2 10.26 10.62 5.3 2.15 7.57 4.57 7.57 8.1 0 4-3.35 6.78-8.13 6.78-3.12 0-6.36-.9-8.98-2.5l-1.2 3.34c2.27 1.48 5.83 2.46 9.22 2.52h.5z"/><path id="5ek9d" d="M1656.99 2209c-15.2 0-29.52-5.9-40.3-16.6a55.78 55.78 0 0 1-16.7-39.97c.07-31.12 25.65-56.43 57.03-56.43h.01c31.42 0 56.98 25.35 56.97 56.5 0 31.14-25.57 56.48-56.99 56.5h-.02zm.03-111.66c-30.64 0-55.6 24.71-55.67 55.1a54.46 54.46 0 0 0 16.29 39 55.51 55.51 0 0 0 39.35 16.22h.02c30.68-.01 55.64-24.76 55.64-55.16 0-30.4-24.95-55.15-55.62-55.16zm6.05 89.14h-7.59v-10.04h-3.56v10.02h-8.24v-10.35h-12.78l1.54-9.1h5.07c1.58-.01 1.71-.14 1.71-1.7v-26.93c0-2.07-.74-2.85-2.82-2.98-.5-.03-1-.02-1.53-.02h-3.57v-7.77h12.33v-10.55h8.19v10.2h3.64v-10.17h7.56v10.46l1.27.2c1.37.23 2.67.45 3.97.78 2.5.63 5.66 1.72 7.86 4.53 1.96 2.5 2.73 5.81 2.11 9.07a11.37 11.37 0 0 1-4.36 7.07c.62.22 1.22.44 1.8.7 4.05 1.86 6.2 5.1 6.4 9.66.1 2.45-.23 4.8-.98 6.97-1.48 4.25-4.66 7.04-9.46 8.28a50.3 50.3 0 0 1-5.68 1c-.81.12-1.62.23-2.42.36l-.46.04zm-6.23-1.34h4.88v-10.2l.63-.03.41-.02c.2-.01.38-.01.55-.04l2.45-.36c1.84-.25 3.74-.51 5.53-.98 4.33-1.12 7.2-3.61 8.52-7.41.7-2.02 1-4.2.9-6.48-.17-4.07-2-6.85-5.6-8.5-.61-.27-1.26-.5-1.94-.75-.33-.11-.67-.23-1.03-.37l-1.22-.46 1.2-.8.19-.12a9.93 9.93 0 0 0 4.6-6.74 9.96 9.96 0 0 0-1.85-8c-1.95-2.49-4.84-3.47-7.13-4.05-1.25-.32-2.52-.53-3.86-.75-.6-.1-1.23-.2-1.85-.32l-.56-.1v-10.23h-4.85v10.17h-6.35v-10.2H1645v10.55h-12.33v5.1h2.2c.53-.01 1.07-.01 1.62.02 2.8.16 4.1 1.53 4.1 4.31v26.93c0 2.28-.75 3.02-3.06 3.03h-3.94l-1.08 6.43h12.53v10.35h5.54v-10.02h6.27zm-2.2-16.38c-1.09 0-2.22-.03-3.4-.06l-.66-.02v-15.02l.64-.03c4.8-.23 9.11-.3 13.35 1.22a7.2 7.2 0 0 1 4.66 4.78 6.1 6.1 0 0 1-1.36 5.62c-1.34 1.55-3.22 2.2-4.89 2.63-2.71.7-5.38.88-8.33.88zm-2.7-1.38c3.97.1 7.34.07 10.7-.8 1.54-.4 3.11-.94 4.2-2.2a4.73 4.73 0 0 0 1.08-4.4 5.8 5.8 0 0 0-3.81-3.88c-3.82-1.36-7.79-1.36-12.18-1.16zm2.7-18.81l-1.7-.02-1.71-.02h-.68v-13.84h.68l1.5-.01c1.12-.01 2.26-.03 3.4.02 1.92.09 4.17.3 6.34 1.2a6.14 6.14 0 0 1 3.75 7.54c-.57 2.06-2.08 3.43-4.63 4.2-1.45.44-3.04.73-4.73.85-.75.06-1.48.08-2.22.08zm-2.74-1.37l1.07.01c1.31.02 2.55.04 3.78-.05a20.8 20.8 0 0 0 4.45-.8c2.1-.63 3.27-1.67 3.72-3.28a4.85 4.85 0 0 0-2.98-5.95c-1.97-.82-4.07-1-5.87-1.09-1.1-.05-2.18-.04-3.32-.02h-.85z"/><linearGradient id="5ek9b" x1="1151.01" x2="781" y1="2425" y2="1595.99" gradientUnits="userSpaceOnUse"><stop offset="0" stop-color="#335bb7"/><stop offset=".33" stop-color="#335bb7" stop-opacity=".67"/><stop offset="1" stop-color="#4ec5fa" stop-opacity="0"/></linearGradient></defs><g><g opacity=".09" transform="translate(4 -1594)"><use fill="url(#5ek9b)" xlink:href="#5ek9a"/></g><g opacity=".2" transform="translate(4 -1594)"><use fill="#004899" xlink:href="#5ek9c"/></g><g opacity=".2" transform="translate(4 -1594)"><use fill="#004899" xlink:href="#5ek9d"/></g></g></svg>