<svg xmlns="http://www.w3.org/2000/svg" xmlns:xlink="http://www.w3.org/1999/xlink" width="29" height="28" viewBox="0 0 29 28"><defs><path id="n4c0a" d="M728.46 8545.87c.49-.48.66-1.18.45-1.84a1.78 1.78 0 0 0-1.45-1.22l-6.05-.88a.8.8 0 0 1-.6-.44l-2.7-5.49a1.78 1.78 0 0 0-3.22 0l-2.7 5.5a.8.8 0 0 1-.6.43l-6.05.88a1.79 1.79 0 1 0-1 3.06l4.38 4.28a.8.8 0 0 1 .23.7l-1.03 6.04c-.1.53.04 1.05.39 1.46.53.63 1.46.83 2.2.43l5.42-2.85a.81.81 0 0 1 .74 0l5.41 2.85a1.79 1.79 0 0 0 2.6-1.89l-1.03-6.04a.8.8 0 0 1 .23-.7z"/></defs><g><g transform="translate(-702 -8533)"><use fill="#ef5b2e" xlink:href="#n4c0a"/></g></g></svg>