<svg xmlns="http://www.w3.org/2000/svg" xmlns:xlink="http://www.w3.org/1999/xlink" width="1928" height="633" viewBox="0 0 1928 633"><defs><path id="q7yoa" d="M1921 627.66L-3.01 628l.67-630 1922.62.51z"/><path id="q7yod" d="M-2-2l.84 609.99L966-.83z"/><path id="q7yof" d="M1921-3l-97.14 2.13L789 628l1132.83-.89z"/><path id="q7yoh" d="M1666.72 261a62.35 62.35 0 0 1-62.27-62.29 62.35 62.35 0 0 1 62.27-62.27 62.35 62.35 0 0 1 62.28 62.27 62.35 62.35 0 0 1-62.28 62.28zm0-123.08a60.87 60.87 0 0 0-60.8 60.8 60.87 60.87 0 0 0 60.8 60.8 60.87 60.87 0 0 0 60.8-60.8 60.87 60.87 0 0 0-60.8-60.8zm3.46 100.1h-7.39v-9.52c-5.27-.22-10.72-1.85-14.06-4.24l-.46-.33 2.76-7.7.79.52a24.22 24.22 0 0 0 13.12 3.91c6.14 0 10.44-3.48 10.44-8.47 0-4.53-2.94-7.56-10.16-10.49-8.28-3.25-15.96-7.55-15.96-16.93 0-7.98 5.55-14.1 14.19-15.75v-9.6h7.3v9.14c4.53.24 8.4 1.34 11.85 3.36l.53.31-2.87 7.6-.75-.43a21.9 21.9 0 0 0-11.47-3.1c-6.8 0-9.22 3.95-9.22 7.34 0 4.13 2.61 6.48 11.2 10.02 10.52 4.3 15 9.64 15 17.88 0 9.51-7.35 15.12-14.84 16.58zm-5.91-1.48h4.44v-9.66l.62-.1c7.08-1.17 14.22-6.34 14.22-15.24 0-7.64-4.08-12.43-14.1-16.51-8.2-3.4-12.1-5.97-12.1-11.4 0-4.38 3.3-8.81 10.69-8.81a23.2 23.2 0 0 1 11.45 2.87l1.82-4.8a24.77 24.77 0 0 0-11.32-2.89l-.72-.02v-9.09h-4.35v9.38l-.61.1c-8.25 1.34-13.57 7-13.57 14.4 0 8.02 6 12.02 15.03 15.56 7.77 3.15 11.08 6.7 11.08 11.86 0 5.86-4.9 9.95-11.91 9.95-4.57 0-9.3-1.32-13.15-3.66l-1.75 4.89c3.31 2.16 8.53 3.6 13.5 3.68l.73.02z"/><path id="q7yoi" d="M1612.86 110.94a40.04 40.04 0 0 1-41.82-38.08 40.04 40.04 0 0 1 38.09-41.82 40.04 40.04 0 0 1 41.81 38.09 40.04 40.04 0 0 1-38.08 41.81zM1609.17 32A39.1 39.1 0 0 0 1572 72.8a39.09 39.09 0 0 0 40.83 37.19A39.09 39.09 0 0 0 1650 69.17a39.1 39.1 0 0 0-40.83-37.18zm2.34 49.28a.99.99 0 0 1-.51-.13l-14.05-7.44-3.25-1.72a4.64 4.64 0 0 1-.2-.12l-.81-.48.82-.5.26-.15.08-.04 15.3-28.42v-.77l.75-.26 19.16 28.67-5.14 3.38-11.88 7.79c-.13.09-.3.18-.53.2zm-15.1-11.9l13.37-6.82c.28-.14.31-.2.3-.5l-.79-16.57-.06-1.36-13.89 25.8zm-1.82 2l2.8 1.49 13.55 7.18-.77-16.62c-4.45 2.26-8.89 4.53-13.32 6.8zm28.8 1.12l4-2.62-16.28-6.62.78 16.8 11.5-7.56zm-13.25-29.19l.1 2.13a5102.86 5102.86 0 0 0 .79 16.76l16.12 6.56zm2.47 56.03l-.34-.06-.33.09-18.88-24.12.67-.52.58.3 2.73 1.44a9799.91 9799.91 0 0 0 14.53 7.69l.1-.07c4.55-2.97 9.1-5.96 13.64-8.94l3.13-2.04.66.41-.2.44zm14.37-24.15l-1.15.75-13.65 8.94c-.1.07-.1.07-.1.17.15 3.01.3 6.02.43 9.03l.16 3.4zm-31.6 1.48l16.32 20.86-.16-3.4-.41-9.03c0-.1 0-.1-.11-.16l-14.43-7.63z"/><path id="q7yoj" d="M271 505c-16.54 0-30-13.46-30-30s13.46-30 30-30 30 13.46 30 30-13.46 30-30 30zm0-59.29A29.32 29.32 0 0 0 241.71 475 29.32 29.32 0 0 0 271 504.29a29.32 29.32 0 0 0 29.29-29.3A29.32 29.32 0 0 0 271 445.72zm.03 37a.74.74 0 0 1-.38-.1l-10.27-6.08-2.37-1.4c-.04-.02-.09-.05-.14-.1l-.6-.38.63-.35.2-.1.07-.03 12.45-20.76.01-.2.02-.37.57-.17 13.36 22.15-3.98 2.35-9.17 5.42a.8.8 0 0 1-.4.13zm-10.9-9.43l10.25-4.65c.22-.1.25-.14.25-.36l-.01-12.45v-1.02l-11.31 18.85zm-1.43 1.43l2.04 1.2 9.9 5.87v-12.49l-10.21 4.64zm21.54 1.85l3.08-1.83-11.96-5.53v12.61l8.88-5.25zm-8.91-22.34v1.6a3790.35 3790.35 0 0 0 0 12.58l11.85 5.48zm-.11 42.07l-.25-.06-.26.06-13.3-18.74.52-.36.43.24 1.99 1.18 10.54 6.22.08.05.07-.05 10.54-6.22 2.42-1.42.48.33-.17.32zm11.61-17.6l-.89.53-10.54 6.22c-.07.05-.07.05-.07.13v9.33zm-23.73 0l11.5 16.2v-2.55-6.77c0-.08 0-.08-.07-.13l-10.54-6.22z"/><path id="q7yok" d="M318.99 204A40.7 40.7 0 0 1 290 191.95a40.66 40.66 0 0 1-12-29A41.09 41.09 0 0 1 319.01 122h.01c22.6 0 40.98 18.4 40.98 41a41.05 41.05 0 0 1-41 41H319zm.02-81.03c-22.03 0-40 17.93-40.04 39.98a39.7 39.7 0 0 0 11.72 28.31 39.75 39.75 0 0 0 28.3 11.77h.02A40.08 40.08 0 0 0 359.02 163a40.06 40.06 0 0 0-40-40.03zm4.35 64.69h-5.45v-7.29h-2.57v7.28h-5.92v-7.52h-9.2l1.11-6.6h3.65c1.14-.01 1.23-.1 1.23-1.24v-19.54c0-1.5-.53-2.07-2.03-2.16a16 16 0 0 0-1.1-.01h-2.56v-5.64h8.87v-7.66h5.88v7.4h2.62v-7.38h5.43v7.59l.93.16c.98.16 1.91.32 2.85.55 1.8.46 4.07 1.25 5.65 3.3a8.25 8.25 0 0 1 1.52 6.58 8.26 8.26 0 0 1-3.14 5.12c.45.16.88.32 1.3.52 2.9 1.35 4.45 3.7 4.6 7 .07 1.78-.17 3.49-.7 5.06-1.07 3.09-3.36 5.1-6.8 6-1.35.36-2.75.55-4.1.74-.58.08-1.16.16-1.74.26l-.33.03zm-4.48-.97h3.51v-7.4l.46-.03.3-.02c.14 0 .27 0 .39-.03l1.76-.25a34.6 34.6 0 0 0 3.98-.71c3.11-.82 5.17-2.63 6.12-5.38.5-1.47.72-3.05.65-4.7-.12-2.96-1.44-4.97-4.03-6.17-.44-.2-.9-.37-1.39-.54l-.74-.27-.88-.34.86-.57.14-.1a7.22 7.22 0 0 0 3.3-4.88c.4-2.1-.09-4.21-1.33-5.81-1.4-1.8-3.47-2.52-5.12-2.94-.9-.23-1.81-.38-2.77-.55-.44-.07-.89-.14-1.34-.23l-.4-.07v-7.43h-3.49v7.39h-4.56v-7.4h-3.94v7.65h-8.87v3.7h1.58c.38 0 .78-.01 1.17.01 2 .12 2.94 1.12 2.94 3.13v19.54c0 1.66-.53 2.2-2.2 2.2h-2.83l-.77 4.67h9v7.51h4v-7.27h4.5zm-1.57-11.9l-2.46-.03-.47-.02v-10.9l.46-.02c3.45-.17 6.55-.22 9.6.88a5.21 5.21 0 0 1 3.35 3.48 4.45 4.45 0 0 1-.97 4.07 6.6 6.6 0 0 1-3.52 1.9c-1.95.52-3.87.65-6 .65zm-1.96-1c2.87.08 5.29.06 7.7-.57a5.65 5.65 0 0 0 3.03-1.6c.8-.93 1.07-2.07.77-3.2a4.18 4.18 0 0 0-2.74-2.8c-2.74-1-5.6-1-8.76-.85zm1.95-13.64l-1.22-.02-1.23-.01h-.49v-10.05h1.57c.8-.01 1.63-.02 2.44.01 1.38.07 3 .22 4.56.87a4.47 4.47 0 0 1 2.7 5.48c-.41 1.49-1.5 2.49-3.33 3.04a15.77 15.77 0 0 1-5 .68zm-1.97-1l.77.01c.94.02 1.83.03 2.72-.03 1.15-.1 2.22-.29 3.2-.59 1.5-.46 2.35-1.21 2.67-2.37a3.53 3.53 0 0 0-2.14-4.33c-1.41-.59-2.93-.73-4.22-.78a42.6 42.6 0 0 0-2.39-.02h-.6z"/><path id="q7yol" d="M300.5 596a38.54 38.54 0 0 1-38.5-38.5 38.54 38.54 0 0 1 38.5-38.5 38.54 38.54 0 0 1 38.5 38.5 38.54 38.54 0 0 1-38.5 38.5zm0-76.1a37.63 37.63 0 0 0-37.59 37.6 37.63 37.63 0 0 0 37.59 37.58 37.63 37.63 0 0 0 37.59-37.58 37.63 37.63 0 0 0-37.6-37.6zm2.14 61.9h-4.57v-5.89c-3.26-.13-6.63-1.14-8.7-2.62l-.28-.2 1.71-4.77.49.33a14.98 14.98 0 0 0 8.1 2.41c3.8 0 6.46-2.15 6.46-5.23 0-2.8-1.82-4.68-6.28-6.49-5.12-2-9.86-4.67-9.86-10.47 0-4.93 3.42-8.71 8.77-9.73v-5.94h4.5v5.65c2.8.15 5.2.83 7.33 2.08l.34.2-1.78 4.69-.47-.27c-1-.57-3.35-1.91-7.09-1.91-4.2 0-5.7 2.44-5.7 4.54 0 2.55 1.62 4 6.92 6.2 6.5 2.65 9.29 5.95 9.29 11.04 0 5.88-4.55 9.35-9.18 10.26zm-3.66-.92h2.75v-5.97l.38-.06c4.38-.73 8.8-3.92 8.8-9.43 0-4.72-2.53-7.68-8.72-10.2-5.08-2.1-7.49-3.69-7.49-7.04 0-2.72 2.04-5.46 6.61-5.46 3.49 0 5.84 1.1 7.08 1.78l1.13-2.97a15.29 15.29 0 0 0-7-1.78l-.44-.02v-5.62h-2.7v5.8l-.37.06c-5.1.83-8.4 4.33-8.4 8.9 0 4.96 3.72 7.44 9.3 9.63 4.8 1.94 6.85 4.14 6.85 7.33 0 3.62-3.03 6.15-7.36 6.15-2.83 0-5.76-.82-8.13-2.26l-1.08 3.02c2.04 1.34 5.27 2.22 8.34 2.28h.45z"/><path id="q7yom" d="M1172.42 193.83a39.16 39.16 0 0 1-27.88-11.58 39.08 39.08 0 0 1-11.54-27.88 39.5 39.5 0 0 1 39.44-39.37 39.46 39.46 0 0 1 39.41 39.42 39.48 39.48 0 0 1-39.41 39.41h-.02zm.02-77.9a38.57 38.57 0 0 0-38.5 38.44 38.16 38.16 0 0 0 11.26 27.22 38.23 38.23 0 0 0 27.22 11.3h.02a38.54 38.54 0 0 0 38.48-38.47 38.52 38.52 0 0 0-38.47-38.49zm4.18 62.2h-5.24v-7.01h-2.47v7h-5.7v-7.23h-8.83l1.06-6.36H1158.95c1.1 0 1.18-.09 1.18-1.18v-18.78c0-1.45-.51-2-1.95-2.08-.35-.02-.7-.02-1.06-.02h-2.46v-5.42h8.52v-7.36h5.66v7.12h2.52v-7.1h5.23v7.3l.88.15c.95.15 1.85.3 2.75.53 1.73.44 3.91 1.2 5.43 3.17a7.93 7.93 0 0 1 1.46 6.32 7.94 7.94 0 0 1-3.02 4.93c.43.16.85.3 1.25.5 2.8 1.3 4.29 3.56 4.42 6.73a13.2 13.2 0 0 1-.67 4.87c-1.02 2.96-3.22 4.9-6.54 5.77-1.3.34-2.64.53-3.94.7a70.38 70.38 0 0 0-1.99.28zm-4.3-.94h3.37v-7.11l.44-.03.28-.01c.15 0 .27-.01.38-.03.57-.1 1.13-.17 1.7-.25 1.27-.18 2.58-.36 3.82-.68 3-.79 4.98-2.52 5.9-5.18.47-1.4.69-2.92.62-4.52-.12-2.83-1.4-4.77-3.88-5.93-.42-.19-.87-.35-1.34-.52l-.7-.25-.86-.33.83-.55.14-.09a6.93 6.93 0 0 0 3.17-4.7 7 7 0 0 0-1.28-5.58c-1.34-1.74-3.34-2.43-4.92-2.83-.87-.22-1.74-.37-2.67-.52a70 70 0 0 1-1.28-.22l-.39-.08v-7.13h-3.35v7.1h-4.4v-7.13h-3.78V138h-8.53v3.55h1.52c.37 0 .75 0 1.13.02 1.93.11 2.83 1.07 2.83 3v18.79c0 1.6-.52 2.11-2.12 2.12H1156.23l-.75 4.48h8.67v7.23h3.83v-7h4.33zm-1.52-11.43c-.76 0-1.54-.02-2.36-.04l-.45-.01v-10.49l.44-.02c3.32-.16 6.3-.2 9.23.85a5.01 5.01 0 0 1 3.22 3.34c.37 1.38.02 2.8-.93 3.92a6.35 6.35 0 0 1-3.39 1.83c-1.87.5-3.72.62-5.76.62zm-1.88-.96c2.76.07 5.08.05 7.4-.56a5.45 5.45 0 0 0 2.91-1.53c.77-.9 1.04-2 .75-3.08a4.02 4.02 0 0 0-2.64-2.7c-2.64-.95-5.38-.95-8.42-.81zm1.88-13.12l-1.18-.02-1.19-.01h-.46v-9.66h1.51c.77-.01 1.56-.02 2.34.01 1.33.06 2.89.2 4.39.83a4.3 4.3 0 0 1 2.6 5.27c-.4 1.43-1.45 2.4-3.2 2.93a15.39 15.39 0 0 1-4.81.65zm-1.9-.96h.74c.9.02 1.76.04 2.62-.03 1.1-.08 2.13-.27 3.07-.56 1.45-.44 2.27-1.16 2.58-2.28a3.39 3.39 0 0 0-2.06-4.16c-1.37-.57-2.82-.7-4.07-.76-.75-.03-1.5-.02-2.3-.01h-.58z"/><path id="q7yon" d="M1763.2 577.97a47.06 47.06 0 0 1-49.15-44.77 47.06 47.06 0 0 1 44.77-49.15 47.07 47.07 0 0 1 49.15 44.76 47.06 47.06 0 0 1-44.76 49.16zm-4.33-92.8a45.95 45.95 0 0 0-43.7 47.98 45.95 45.95 0 0 0 47.98 43.7 45.95 45.95 0 0 0 43.7-47.99 45.95 45.95 0 0 0-47.98-43.7zm2.75 57.92c-.18.01-.38-.03-.6-.15l-16.52-8.75-3.81-2.03a4.96 4.96 0 0 1-.24-.13l-.96-.57.97-.58.3-.18.1-.05 17.98-33.4V496.35l.89-.32 22.52 33.7-6.05 3.98-13.96 9.15c-.15.1-.36.22-.62.23zm-17.75-13.98c5.24-2.68 10.47-5.36 15.71-8.02.33-.17.37-.24.36-.6-.33-6.49-.63-12.98-.93-19.48l-.07-1.6-16.33 30.35zm-2.14 2.35l3.29 1.74 15.93 8.44-.91-19.53c-5.23 2.65-10.44 5.32-15.66 8zm33.86 1.31l4.7-3.08-19.15-7.79.93 19.75 13.52-8.88zM1760 498.46l.11 2.5a5928.24 5928.24 0 0 0 .93 19.7l18.95 7.72zm2.9 65.85l-.4-.06-.39.1-22.19-28.35.79-.61.68.35 3.2 1.7a12104.6 12104.6 0 0 0 17.08 9.03l.12-.08 16.04-10.5 3.68-2.4.77.48-.24.52zm16.9-28.38l-1.36.89-16.04 10.5c-.12.08-.12.08-.12.2.18 3.54.34 7.07.5 10.61l.2 4zm-37.16 1.74l19.2 24.52-.2-4-.48-10.61c0-.13 0-.13-.13-.2-5.66-2.97-11.3-5.97-16.96-8.96z"/><path id="q7yoo" d="M1823.49 415a42.2 42.2 0 0 1-30.05-12.5 42.15 42.15 0 0 1-12.44-30.05 42.59 42.59 0 0 1 42.51-42.45h.01a42.54 42.54 0 0 1 42.48 42.5 42.56 42.56 0 0 1-42.5 42.5h-.01zm.02-84a41.58 41.58 0 0 0-41.5 41.45 41.15 41.15 0 0 0 12.14 29.35 41.2 41.2 0 0 0 29.34 12.19h.02a41.55 41.55 0 0 0 41.48-41.5 41.53 41.53 0 0 0-41.47-41.48zm4.51 67.06h-5.65v-7.55h-2.66v7.54h-6.14v-7.8h-9.53l1.15-6.84H1808.97c1.18 0 1.27-.1 1.27-1.28v-20.25c0-1.56-.55-2.15-2.1-2.24-.37-.02-.75-.02-1.14-.02h-2.66v-5.84h9.2v-7.94h6.1v7.68h2.7v-7.66h5.64v7.87l.96.16c1.02.17 1.98.33 2.95.58 1.87.47 4.23 1.3 5.87 3.4a8.55 8.55 0 0 1 1.57 6.83 8.57 8.57 0 0 1-3.26 5.32c.47.16.91.33 1.35.53 3.01 1.4 4.62 3.84 4.76 7.26.08 1.84-.16 3.6-.73 5.25-1.1 3.2-3.47 5.29-7.04 6.22-1.4.36-2.84.57-4.24.76a71.47 71.47 0 0 0-2.15.3zm-4.64-1h3.64v-7.68l.47-.03.3-.01c.16 0 .29 0 .41-.03l1.83-.27c1.37-.19 2.78-.38 4.12-.74 3.23-.84 5.37-2.71 6.35-5.57.52-1.52.75-3.16.68-4.88-.14-3.05-1.5-5.15-4.18-6.39-.46-.2-.94-.38-1.44-.56l-.77-.28-.92-.34.9-.6.14-.1a7.48 7.48 0 0 0 3.43-5.07c.4-2.17-.1-4.36-1.38-6.01-1.45-1.88-3.6-2.62-5.31-3.06-.93-.23-1.88-.4-2.88-.56l-1.38-.24-.41-.07v-7.7h-3.62v7.65h-4.73v-7.67h-4.09v7.94h-9.19v3.83h1.64c.4 0 .8-.01 1.21.01 2.08.13 3.05 1.16 3.05 3.25v20.25c0 1.72-.55 2.28-2.27 2.28h-2.94l-.8 4.84h9.33v7.8h4.13v-7.55h4.68zm-1.64-12.33c-.81 0-1.65-.02-2.54-.04l-.49-.02v-11.3l.48-.02c3.57-.18 6.8-.23 9.95.91a5.4 5.4 0 0 1 3.47 3.6 4.62 4.62 0 0 1-1 4.23c-1 1.17-2.41 1.65-3.65 1.98-2.02.52-4.02.66-6.22.66zm-2.02-1.04c2.97.08 5.48.05 7.98-.6 1.15-.3 2.32-.7 3.14-1.65a3.58 3.58 0 0 0 .8-3.32 4.34 4.34 0 0 0-2.84-2.9c-2.85-1.04-5.8-1.04-9.08-.89zm2.02-14.15l-1.26-.01-1.29-.02h-.5V359.1h1.63c.83-.02 1.68-.03 2.53.01 1.43.07 3.1.22 4.72.9a4.63 4.63 0 0 1 2.8 5.68c-.42 1.54-1.55 2.58-3.45 3.16a16.62 16.62 0 0 1-5.18.7zm-2.04-1.03l.8.01c.97.02 1.9.03 2.81-.04 1.2-.09 2.3-.3 3.32-.6 1.56-.48 2.44-1.26 2.77-2.46.53-1.91-.36-3.7-2.22-4.48a12.79 12.79 0 0 0-4.38-.82c-.81-.04-1.62-.03-2.47-.02h-.63z"/><path id="q7yop" d="M70 421c-24.81 0-45-20.2-45-45 0-24.82 20.19-45 45-45s45 20.18 45 45c0 24.8-20.19 45-45 45zm0-88.94A43.98 43.98 0 0 0 26.07 376 43.98 43.98 0 0 0 70 419.93 43.98 43.98 0 0 0 113.93 376 43.98 43.98 0 0 0 70 332.06zm2.5 72.33h-5.34v-6.87c-3.8-.16-7.75-1.34-10.16-3.07l-.33-.23 2-5.57.56.38a17.5 17.5 0 0 0 9.48 2.82c4.44 0 7.54-2.5 7.54-6.11 0-3.28-2.12-5.47-7.33-7.59-6-2.34-11.54-5.45-11.54-12.23 0-5.77 4.01-10.19 10.25-11.38v-6.94h5.28v6.6c3.27.18 6.08.98 8.56 2.43l.39.23-2.08 5.49-.54-.31c-1.17-.67-3.92-2.24-8.29-2.24-4.92 0-6.66 2.86-6.66 5.3 0 3 1.89 4.68 8.09 7.25 7.6 3.1 10.85 6.96 10.85 12.91 0 6.87-5.32 10.93-10.73 11.99zm-4.28-1.06h3.21v-6.98l.45-.07c5.12-.85 10.28-4.58 10.28-11.02 0-5.52-2.95-8.97-10.19-11.93-5.93-2.45-8.75-4.3-8.75-8.23 0-3.17 2.4-6.37 7.73-6.37 4.07 0 6.82 1.28 8.27 2.07l1.32-3.47a17.87 17.87 0 0 0-8.18-2.08l-.52-.02v-6.56H68.7v6.77l-.45.07c-5.95.98-9.8 5.06-9.8 10.4 0 5.8 4.34 8.7 10.86 11.25 5.62 2.28 8.01 4.84 8.01 8.58 0 4.23-3.54 7.18-8.61 7.18-3.3 0-6.72-.95-9.5-2.64l-1.26 3.53c2.39 1.56 6.16 2.6 9.75 2.66l.52.01z"/><linearGradient id="q7yob" x1="-3.01" x2="1920.99" y1="414" y2="212" gradientUnits="userSpaceOnUse"><stop offset="0" stop-color="#2a3ca3"/><stop offset=".97" stop-color="#4fcafd"/><stop offset="1" stop-color="#4fcafd"/></linearGradient><linearGradient id="q7yoe" x1="966" x2="-2" y1="98" y2="507.99" gradientUnits="userSpaceOnUse"><stop offset="0" stop-color="#4cbdf5"/><stop offset=".32" stop-color="#4cbdf5"/><stop offset="1" stop-color="#4cbdf5" stop-opacity="0"/></linearGradient><linearGradient id="q7yog" x1="1276.83" x2="1434" y1="628" y2="-3" gradientUnits="userSpaceOnUse"><stop offset=".28" stop-color="#516fcf"/><stop offset=".29" stop-color="#516fcf" stop-opacity=".99"/><stop offset="1" stop-color="#516fcf" stop-opacity=".52"/></linearGradient><clipPath id="q7yoc"><use xlink:href="#q7yoa"/></clipPath></defs><g><g transform="translate(5 4)"><use fill="url(#q7yob)" xlink:href="#q7yoa"/></g><g clip-path="url(#q7yoc)" opacity=".12" transform="translate(5 4)"><use fill="url(#q7yoe)" xlink:href="#q7yod"/></g><g clip-path="url(#q7yoc)" opacity=".25" transform="translate(5 4)"><use fill="url(#q7yog)" xlink:href="#q7yof"/></g><g opacity=".29" transform="translate(5 4)"><use fill="#004899" xlink:href="#q7yoh"/></g><g opacity=".29" transform="translate(5 4)"><use fill="#004899" xlink:href="#q7yoi"/></g><g opacity=".28" transform="translate(5 4)"><use fill="#fff" xlink:href="#q7yoj"/></g><g opacity=".23" transform="translate(5 4)"><use fill="#fff" xlink:href="#q7yok"/></g><g opacity=".28" transform="translate(5 4)"><use fill="#fff" xlink:href="#q7yol"/></g><g opacity=".29" transform="translate(5 4)"><use fill="#004899" xlink:href="#q7yom"/></g><g opacity=".18" transform="translate(5 4)"><use fill="#004899" xlink:href="#q7yon"/></g><g opacity=".34" transform="translate(5 4)"><use fill="#004899" xlink:href="#q7yoo"/></g><g opacity=".28" transform="translate(5 4)"><use fill="#fff" xlink:href="#q7yop"/></g></g></svg>