<svg xmlns="http://www.w3.org/2000/svg" xmlns:xlink="http://www.w3.org/1999/xlink" viewBox="0 0 479.21 249.66"><defs><style>.a{fill:none;}.b{fill:url(#a);}.c{fill:url(#b);}.d{fill:#ba636d;}.e{fill:#bf656f;}.f{fill:url(#c);}.g{fill:url(#d);}.h{fill:url(#e);}.i{clip-path:url(#f);}.j{fill:#115646;}.k{fill:#125949;}.l{fill:url(#g);}.m{fill:url(#h);}.n{fill:url(#i);}.o{fill:url(#j);}.p{fill:url(#k);}.q{fill:#f29a42;}.r{fill:#fad646;}</style><linearGradient id="a" x1="296.48" y1="1230.86" x2="155.63" y2="1332.68" gradientTransform="translate(-48.5 -1127.3)" gradientUnits="userSpaceOnUse"><stop offset="0.02" stop-color="#3fb1d1"/><stop offset="0.92" stop-color="#3863ab"/></linearGradient><linearGradient id="b" x1="170.38" y1="1178.49" x2="219.55" y2="1265" xlink:href="#a"/><linearGradient id="c" x1="71.84" y1="1195.65" x2="195.04" y2="1195.65" xlink:href="#a"/><linearGradient id="d" x1="30.61" y1="1234.1" x2="233.9" y2="1350.67" gradientTransform="translate(-48.5 -1127.3)" gradientUnits="userSpaceOnUse"><stop offset="0.02" stop-color="#3b92be"/><stop offset="0.92" stop-color="#534192"/></linearGradient><linearGradient id="e" x1="122.43" y1="1164.93" x2="149.24" y2="1193.1" gradientTransform="translate(-48.5 -1127.3)" gradientUnits="userSpaceOnUse"><stop offset="0.02" stop-color="#fad646"/><stop offset="0.96" stop-color="#f6d688"/></linearGradient><clipPath id="f" transform="translate(0 0.01)"><path class="a" d="M169.4,56.1a8.34,8.34,0,0,1-.8,1.2l-93,54.1c0.1-.1.3-0.5,0.8-1.2C104.3,93.9,141.5,72.3,169.4,56.1Z"/></clipPath><linearGradient id="g" x1="132.33" y1="1154.81" x2="165.99" y2="1194.22" gradientTransform="translate(-48.5 -1127.3)" gradientUnits="userSpaceOnUse"><stop offset="0.05" stop-color="#f5b643"/><stop offset="0.96" stop-color="#f6d688"/></linearGradient><linearGradient id="h" x1="152.89" y1="1199.86" x2="177.43" y2="1210.2" xlink:href="#e"/><linearGradient id="i" x1="20.05" y1="1228.15" x2="195.78" y2="1328.93" xlink:href="#d"/><linearGradient id="j" x1="188.38" y1="1196.91" x2="203.76" y2="1218.43" gradientTransform="translate(-48.5 -1127.3)" gradientUnits="userSpaceOnUse"><stop offset="0.05" stop-color="#f39d3e"/><stop offset="0.96" stop-color="#f6d688"/></linearGradient><linearGradient id="k" x1="61.66" y1="1173.46" x2="177.05" y2="1334.68" gradientTransform="translate(-48.5 -1127.3)" gradientUnits="userSpaceOnUse"><stop offset="0.05" stop-color="#f57b3d"/><stop offset="0.96" stop-color="#fbac3f"/></linearGradient></defs><title>present_partner2</title><path class="b" d="M106.05,157.89s18.25,70,18.15,70.11a6.89,6.89,0,0,1-1.3,1.1l93-54.1a6.89,6.89,0,0,0,1.3-1.1c0.1-.1.2-0.3,0.3-0.4a2.18,2.18,0,0,0,.4-0.5,2,2,0,0,0,.4-0.8h0l0.3-.6c0.1-.2.1-0.4,0.2-0.6s0.1-.4.2-0.6a0.37,0.37,0,0,1,.1-0.3v-0.3c0-.2.1-0.4,0.1-0.6a1.27,1.27,0,0,1,.1-0.6v-1.2h0l0.1-49Z" transform="translate(0 0.01)"/><path class="c" d="M225.8,107.1a22.51,22.51,0,0,0-10.53-18.95c-2.4-1.59-17.28-10-22.16-12.82-1.23-.71-2.45-1.48-3.71-2.14a0.79,0.79,0,0,0-.87-0.15,10.37,10.37,0,0,0-1.79,1c-2.29,1.35-4.61,2.63-6.9,4-19.72,11.48-39.42,23-59.21,34.34q-2.11,1.21-4.2,2.45a19.81,19.81,0,0,0-3.75,2.3c-1.47,1.42-1.64,3.86-3.64,4.79s-4.19.48-6.18,1a12.8,12.8,0,0,0-3.23,1.64c-0.62.36-1.22,0.75-1.83,1.13l-0.84.51c-0.22.13-8.59-1.57-8.71-1.36,5.61,3.27,9.87,18.18,15.5,21.43,5,2.88,13.23-.63,17,3.88,3.57,4.27,3.51,4.65,3.55,10.25,0,2.2-6.3,4.05-6.3,6.25,0,2.6,8.1,4.5,15,9.56a30.29,30.29,0,0,0,2.75-1.63c1-.6,2-1.18,3.08-1.76,2-1.14,4-2.35,6-3.5,4.21-2.41,8.38-4.89,12.58-7.31,8.51-4.9,17-9.91,25.43-14.85s16.65-9.85,25.09-14.56c4.17-2.33,8.27-4.8,12.41-7.17,0.94-.54,1.84-1.13,2.77-1.68l2.6-1.55s0-13,0-15.07h0Zm-8.6-17.4h0Z" transform="translate(0 0.01)"/><path class="d" d="M30.8,89.3l93-54.1a0.76,0.76,0,0,0,.5.2l-93,54.1a1.06,1.06,0,0,1-.5-0.2" transform="translate(0 0.01)"/><path class="e" d="M31.3,89.6l93-54.1a0.76,0.76,0,0,0,.4.2l-93,54.1c-0.1-.1-0.3-0.1-0.4-0.2" transform="translate(0 0.01)"/><path class="f" d="M124.7,35.7c-0.3-.2-0.6-0.3-0.9-0.5h0a0.37,0.37,0,0,0-.3-0.1h-0.2c-0.2-.1-0.3-0.1-0.5-0.2s-0.3-.1-0.5-0.2h-0.2c-0.1,0-.2-0.1-0.3-0.1a4.33,4.33,0,0,0-.5-0.1c-0.2,0-.2,0-0.2-0.1h-0.2c-0.2,0-.3-0.1-0.5-0.1h-1.7c-0.2,0-.5.1-0.7,0.1h-0.1c-0.2.1-.5,0.1-0.7,0.2h-0.1c-0.3.1-.6,0.3-0.9,0.4l-93,54.1a3.55,3.55,0,0,1,.9-0.4,1.85,1.85,0,0,1,.7-0.2h0.1a2.77,2.77,0,0,1,.9-0.1H27c0.3,0,.6.1,1,0.1h0.1c0.3,0.1.7,0.2,1,.3h0.1c0.4,0.1.7,0.3,1.1,0.4h0.1l1.2,0.6,21.8,12.6,93-54.1Z" transform="translate(0 0.01)"/><path class="g" d="M53.5,102.4L31.7,89.8c-6.5-3.7-11.8-.7-11.8,6.7V111l6.3,3.7-0.1,49c0,7.4,5.2,16.5,11.7,20.3l35.1,20.3,0.2-62.4,0.1-27.1V114Z" transform="translate(0 0.01)"/><path class="h" d="M158.9,52.4c-4.1-2.34-8-5-11.88-7.74a74.65,74.65,0,0,1-9.78-8.12,35.22,35.22,0,0,1-5.52-6.48,65.91,65.91,0,0,1-4.3-7.54,16.81,16.81,0,0,1-1.7-6.56c0-2.28,1-5.07,3.17-6.16l-13.37,7.31L85.36,33.59,53.63,50.92l-18.3,10a1.46,1.46,0,0,0-1,1c-0.24.76-.3,1.57-0.53,2.34a3.89,3.89,0,0,1-1,1.4,6.54,6.54,0,0,0-1.4,3.64c-0.23,2.83.81,5.34,1.92,7.84A44,44,0,0,0,37.9,84.9,55.47,55.47,0,0,0,49.67,96.27c2.46,1.83,5,3.59,7.56,5.31,2,1.35,4.11,2.54,6.14,3.87,0.76,0.5,1.55.95,2.34,1.4,0.48,0.27,1.77,1.31,2.3,1.25a4.28,4.28,0,0,0,1.12-.65L72,105.79l9.83-5.72,29.76-17.32,31.27-18.2L161.14,53.9l0.86-.5a4.29,4.29,0,0,1-3.1-1C158.2,52,159.9,53.1,158.9,52.4Z" transform="translate(0 0.01)"/><g class="i"><path class="j" d="M76.4,110.1l93-54.1a1.38,1.38,0,0,1-.3.4l-93,54.1a1.38,1.38,0,0,0,.3-0.4" transform="translate(0 0.01)"/><path class="k" d="M76.1,110.6l93-54.1c-0.3.4-.4,0.7-0.5,0.8l-93,54.1c0.1-.2.3-0.4,0.5-0.8" transform="translate(0 0.01)"/></g><path class="l" d="M76.4,110.1c4.3-2.5,8.7-5,13-7.5,9.8-5.7,19.5-11.4,29.3-17,10.4-6,20.7-12.1,31.1-18.1l18.6-10.8a3.33,3.33,0,0,0,1-.6,10.2,10.2,0,0,0-.9-2.2c-0.3-1-.7-2.1-1-3.1-0.7-2.3-1.7-4.5-2.6-6.7a220.13,220.13,0,0,0-9.5-20.3,148.82,148.82,0,0,0-7.8-12.7A26,26,0,0,0,145,7.9c-0.9-.9-1.6-1.9-2.6-2.8C140.2,3,138,1,135,.3a18.43,18.43,0,0,0-4.1-.3,9.12,9.12,0,0,0-4.2,1.4c-4.6,2.5-9,5.2-13.5,7.9L83.8,26.4c-10.3,6-20.6,12-31,18-6.1,3.5-14.59,8.2-20.69,11.7,0,1.77,9,0,12.69,2.9,3.4,2.7,7.5,6,10.2,9.4,1,1.3,2.4,4.2,3.2,5.5,1,1.6,2.1,4.9,3,6.5,1.7,3.1,2.2,4.7,3.8,7.8C67,92.2,75.7,108.6,76.4,110.1Z" transform="translate(0 0.01)"/><path class="m" d="M200.1,66.5a4.67,4.67,0,0,1-1,.5c-0.3.1-.7,0.2-1,0.3H198a0.52,0.52,0,0,0-.4.2h-0.1a0.37,0.37,0,0,0-.3.1h-2.5a0.9,0.9,0,0,1-.5-0.1,0.6,0.6,0,0,1-.4-0.1c-0.2,0-.4-0.1-0.6-0.1s-0.3-.1-0.5-0.1A1.85,1.85,0,0,1,192,67c-0.2-.1-0.4-0.1-0.6-0.2s-0.5-.1-0.8-0.2a1.88,1.88,0,0,0-.8-0.2l-0.9-.3-0.9-.3a3.55,3.55,0,0,1-.9-0.4,3.7,3.7,0,0,1-1.1-.5,4.18,4.18,0,0,0-1-.4c-0.5-.2-1-0.5-1.5-0.7-0.3-.1-0.6-0.3-0.9-0.4a15.09,15.09,0,0,1-2.8-1.5c-0.9-.5-1.8-1-2.8-1.6-0.3-.2-0.7-0.4-1-0.6a33.84,33.84,0,0,1,5.3-5.4c0.7-.5,1.5-1,2.2-1.5h0l-12.6,7.3-2.5-1.4h0V57.9h0a1.85,1.85,0,0,1,.2-0.7l-1.5.8-1.1-.6h0L74.9,112.5l0.4,0.2,4.3,2.5,26.45,9.35c0.2-.1,1.25-1.31,1.45-1.41l1.8-1.34c0.4-.1-0.3.2,0,0Z" transform="translate(0 0.01)"/><path class="n" d="M121.1,141.4L95.8,126.8l-16.1-9.3-0.1,18.8v9.2l-0.2,62.4,35.1,20.3c6.5,3.7,11.7.7,11.8-6.7l0.1-49,6.3,3.7V161.7C132.8,154.2,127.5,145.1,121.1,141.4Z" transform="translate(0 0.01)"/><path class="o" d="M207.9,65.8a11,11,0,0,0-.5-4,42.91,42.91,0,0,0-1.9-5,36.39,36.39,0,0,0-3.5-5.2,32.18,32.18,0,0,0-2.4-2.8,16.17,16.17,0,0,0-9.1-5,17.28,17.28,0,0,0-10.7,2.1c-4.7,2.7-9.3,5.4-14,8.1-10.2,5.9-20.4,11.9-30.7,17.8C124.6,78,114,84.2,103.5,90.3c-5.6,3.2-11.1,6.5-16.7,9.7a0.35,0.35,0,0,0-.2.1c2.9-1.8,6.17.89,9.57,1.29,3.6,0.4,4.13,1.12,6.83,3.62,2.5,2.3,4.83,2.09,6.33,5.09,1.7,3.3,5.87,7.3,5.37,11.1a8.24,8.24,0,0,1-3.6,6.3c3.4-2,6.9-4,10.3-6l24.3-14.1c9.5-5.5,18.9-11,28.4-16.5,7.5-4.4,15.1-8.8,22.6-13.2,2-1.2,4-2.3,6-3.5,2.2-1.3,4.4-3,4.7-5.6,0.1-.6.2-1.3,0.3-1.9C207.7,66.5,207.5,65.7,207.9,65.8Z" transform="translate(0 0.01)"/><path class="p" d="M114.4,116.1c-1.5-6.4-6.3-13.1-11.7-16.2a20,20,0,0,0-2.1-1c-12.4-4.8-21.6,7.3-24.2,11.3C73,100.5,59.7,65,44.4,55.9c-5.5-3.2-13.1-2.1-15.5,4.7-1.2,3.5-2,11.3,7,24.3,1.1,1.9,5.6,8.7,17.6,17.6l19.6,11.3v0.8L73,132.5v7.6l-0.2,64.1,6.5,3.8,0.2-62.4v-9.2l0.1-18.8,16.1,9.3c8.2,3.2,11.6,2.2,12.7,1.7C113.7,127.2,115.9,122.6,114.4,116.1ZM67.1,104.8C45.6,92.4,40.2,83.1,39.9,82.6l-0.4-.7c-3.3-4.8-6.9-11.5-5.2-16.3,1.5-4.3,6.8-5.3,10.2-3.3,9.7,5.8,20.3,30.2,25.6,44.1-1-.5-2-1.1-3-1.6h0Zm8.3,8.1-2.3-1.3h0l2.3,1.3,4.3,2.5Zm29.6,8.5a0.76,0.76,0,0,0-.5.2s-4.6,2.1-20.5-7.1c-0.3-.2-0.7-0.4-1-0.6,3.8-4.9,10.9-11.1,18.6-8.1a3.38,3.38,0,0,1,1.2.6,15,15,0,0,1,6.4,8.6C109.8,118.3,108.4,120.6,105,121.4Z" transform="translate(0 0.01)"/><path class="q" d="M66.2,211.9c-0.2,5.6-4.5,9.9-9,12.7a42.59,42.59,0,0,1-16.3,5.5,55.3,55.3,0,0,1-17.7-.4c-5.6-1.1-11.3-2.9-15.9-6.3-3.6-2.6-6.7-6.2-7.2-10.7a6.6,6.6,0,0,1-.1-1.4V223a13.64,13.64,0,0,0,3.4,8.6,27,27,0,0,0,11.5,7.6,49.46,49.46,0,0,0,14.8,3.1,51.11,51.11,0,0,0,15.1-1.1,40.06,40.06,0,0,0,13.7-5.6c3.7-2.6,7.1-6.2,7.7-10.8a20.9,20.9,0,0,0,.1-2.5v-3.4c-0.1-2.3-.1-4.6-0.1-7h0Z" transform="translate(0 0.01)"/><path class="r" d="M56.4,198.2c13,7.5,13,19.6.2,27.1s-33.9,7.5-46.8,0-13-19.6-.2-27.1S43.4,190.7,56.4,198.2Z" transform="translate(0 0.01)"/><path class="q" d="M49,204l-3.5,2a8,8,0,0,1,3.4,3.4l-3.2.8a7.52,7.52,0,0,0-3.3-3.3,7.08,7.08,0,0,0-6.9-.4c-1.9,1.1-1.5,2.4.4,4.9,2.2,3,2.2,5.2-1,7-2.8,1.6-7.4,2-11.7.2l-3.7,2.2-2.3-1.3,3.6-2.1c-2-1.2-3.6-2.8-3.9-4.1l3.3-.9a8.72,8.72,0,0,0,11.4,4.3c2-1.1,1.8-2.7.2-4.8-2.2-2.9-2.9-5.2.2-7s7.3-1.8,11.2-.2l3.6-2.1Z" transform="translate(0 0.01)"/><path class="q" d="M66.2,194.9c-0.2,5.6-4.5,9.9-9,12.7a42.59,42.59,0,0,1-16.3,5.5,55.3,55.3,0,0,1-17.7-.4c-5.6-1.1-11.3-2.9-15.9-6.3-3.6-2.6-6.7-6.2-7.2-10.7a6.6,6.6,0,0,1-.1-1.4V206a13.64,13.64,0,0,0,3.4,8.6,27,27,0,0,0,11.5,7.6,49.46,49.46,0,0,0,14.8,3.1,51.11,51.11,0,0,0,15.1-1.1,40.06,40.06,0,0,0,13.7-5.6c3.7-2.6,7.1-6.2,7.7-10.8a20.9,20.9,0,0,0,.1-2.5v-3.4c-0.1-2.3-.1-4.7-0.1-7h0Z" transform="translate(0 0.01)"/><path class="r" d="M56.4,181.1c13,7.5,13,19.6.2,27.1s-33.9,7.5-46.8,0-13-19.6-.2-27.1S43.4,173.6,56.4,181.1Z" transform="translate(0 0.01)"/><path class="q" d="M49,186.9l-3.5,2a8,8,0,0,1,3.4,3.4l-3.2.8a7.52,7.52,0,0,0-3.3-3.3,7.08,7.08,0,0,0-6.9-.4c-1.9,1.1-1.5,2.4.4,4.9,2.2,3,2.2,5.2-1,7-2.8,1.6-7.4,2-11.7.2l-3.7,2.2-2.3-1.3,3.6-2.1c-2-1.2-3.6-2.8-3.9-4.1l3.3-.9a8.72,8.72,0,0,0,11.4,4.3c2-1.1,1.8-2.7.2-4.8-2.2-2.9-2.9-5.2.2-7s7.3-1.8,11.2-.2l3.6-2.1Z" transform="translate(0 0.01)"/><path class="q" d="M479.1,176c-0.2,5.6-4.5,9.9-9,12.7a42.59,42.59,0,0,1-16.3,5.5,55.3,55.3,0,0,1-17.7-.4c-5.6-1.1-11.3-2.9-15.9-6.3-3.6-2.6-6.7-6.2-7.2-10.7a6.6,6.6,0,0,1-.1-1.4v11.7a13.64,13.64,0,0,0,3.4,8.6,27,27,0,0,0,11.5,7.6,49.46,49.46,0,0,0,14.8,3.1,51.11,51.11,0,0,0,15.1-1.1,40.06,40.06,0,0,0,13.7-5.6c3.7-2.6,7.1-6.2,7.7-10.8a20.9,20.9,0,0,0,.1-2.5V183c-0.1-2.3-.1-4.6-0.1-7h0Z" transform="translate(0 0.01)"/><path class="r" d="M469.3,162.3c13,7.5,13,19.6.2,27.1s-33.9,7.5-46.8,0-13-19.6-.2-27.1S456.4,154.8,469.3,162.3Z" transform="translate(0 0.01)"/><path class="q" d="M461.9,168.1l-3.5,2a8,8,0,0,1,3.4,3.4l-3.2.8a7.52,7.52,0,0,0-3.3-3.3,7.08,7.08,0,0,0-6.9-.4c-1.9,1.1-1.5,2.4.4,4.9,2.2,3,2.2,5.2-1,7-2.8,1.6-7.4,2-11.7.2l-3.7,2.2-2.3-1.3,3.6-2.1c-2-1.2-3.6-2.8-3.9-4.1l3.3-.9a8.72,8.72,0,0,0,11.4,4.3c2-1.1,1.8-2.7.2-4.8-2.2-2.9-2.9-5.2.2-7s7.3-1.8,11.2-.2l3.6-2.1Z" transform="translate(0 0.01)"/><path class="q" d="M274.2,205.7c-0.2,5.6-4.5,9.9-9,12.7a42.59,42.59,0,0,1-16.3,5.5,55.3,55.3,0,0,1-17.7-.4c-5.6-1.1-11.3-2.9-15.9-6.3-3.6-2.6-6.7-6.2-7.2-10.7a6.6,6.6,0,0,1-.1-1.4v11.7a13.64,13.64,0,0,0,3.4,8.6,27,27,0,0,0,11.5,7.6,49.46,49.46,0,0,0,14.8,3.1,51.11,51.11,0,0,0,15.1-1.1,40.06,40.06,0,0,0,13.7-5.6c3.7-2.6,7.1-6.2,7.7-10.8a20.9,20.9,0,0,0,.1-2.5v-3.4c-0.1-2.4-.1-4.7-0.1-7h0Z" transform="translate(0 0.01)"/><path class="r" d="M264.4,191.9c13,7.5,13,19.6.2,27.1s-33.9,7.5-46.8,0-13-19.6-.2-27.1S251.4,184.4,264.4,191.9Z" transform="translate(0 0.01)"/><path class="q" d="M256.9,197.7l-3.5,2a8,8,0,0,1,3.4,3.4l-3.2.8a7.52,7.52,0,0,0-3.3-3.3,7.08,7.08,0,0,0-6.9-.4c-1.9,1.1-1.5,2.4.4,4.9,2.2,3,2.2,5.2-1,7-2.8,1.6-7.4,2-11.7.2l-3.7,2.2-2.3-1.3,3.6-2.1c-2-1.2-3.6-2.8-3.9-4.1l3.3-.9a8.72,8.72,0,0,0,11.4,4.3c2-1.1,1.8-2.7.2-4.8-2.2-2.9-2.9-5.2.2-7s7.3-1.8,11.2-.2l3.6-2.1Z" transform="translate(0 0.01)"/><path class="q" d="M362,219.1c-0.2,5.6-4.5,9.9-9,12.7a42.59,42.59,0,0,1-16.3,5.5,55.3,55.3,0,0,1-17.7-.4c-5.6-1.1-11.3-2.9-15.9-6.3-3.6-2.6-6.7-6.2-7.2-10.7a6.6,6.6,0,0,1-.1-1.4v11.7a13.64,13.64,0,0,0,3.4,8.6,27,27,0,0,0,11.5,7.6,49.46,49.46,0,0,0,14.8,3.1,51.11,51.11,0,0,0,15.1-1.1,40.06,40.06,0,0,0,13.7-5.6c3.7-2.6,7.1-6.2,7.7-10.8a20.9,20.9,0,0,0,.1-2.5v-3.4c-0.1-2.3-.1-4.6-0.1-7h0Z" transform="translate(0 0.01)"/><path class="r" d="M352.2,205.3c13,7.5,13,19.6.2,27.1s-33.9,7.5-46.8,0-13-19.6-.2-27.1S339.2,197.9,352.2,205.3Z" transform="translate(0 0.01)"/><path class="q" d="M344.8,211.1l-3.5,2a8,8,0,0,1,3.4,3.4l-3.2.8a7.52,7.52,0,0,0-3.3-3.3,7.08,7.08,0,0,0-6.9-.4c-1.9,1.1-1.5,2.4.4,4.9,2.2,3,2.2,5.2-1,7-2.8,1.6-7.4,2-11.7.2l-3.7,2.2-2.3-1.3,3.6-2.1c-2-1.2-3.6-2.8-3.9-4.1l3.3-.9a8.72,8.72,0,0,0,11.4,4.3c2-1.1,1.8-2.7.2-4.8-2.2-2.9-2.9-5.2.2-7s7.3-1.8,11.2-.2l3.6-2.1Z" transform="translate(0 0.01)"/></svg>